G04 (created by PCBNEW (2013-07-07 BZR 4022)-stable) date 28.12.2015 18:38:58*
%MOIN*%
G04 Gerber Fmt 3.4, Leading zero omitted, Abs format*
%FSLAX34Y34*%
G01*
G70*
G90*
G04 APERTURE LIST*
%ADD10C,0.00393701*%
%ADD11C,0.075748*%
%ADD12R,0.070748X0.070748*%
%ADD13C,0.070748*%
%ADD14C,0.251968*%
%ADD15R,0.075748X0.075748*%
%ADD16O,0.067748X0.119748*%
%ADD17C,0.245748*%
%ADD18R,0.085748X0.085748*%
%ADD19C,0.085748*%
%ADD20R,0.365748X0.365748*%
%ADD21R,0.0944882X0.102362*%
%ADD22R,0.102362X0.102362*%
%ADD23C,0.204748*%
%ADD24O,0.173228X0.251968*%
%ADD25C,0.212598*%
%ADD26C,0.063748*%
G04 APERTURE END LIST*
G54D10*
G54D11*
X17000Y-9500D03*
X17000Y-5500D03*
X3000Y-15500D03*
X3000Y-11500D03*
X2000Y-15500D03*
X2000Y-11500D03*
X1000Y-15500D03*
X1000Y-11500D03*
X6000Y-9500D03*
X6000Y-13500D03*
X17000Y-12500D03*
X21000Y-12500D03*
X6000Y-500D03*
X6000Y-4500D03*
X26000Y-12500D03*
X22000Y-12500D03*
X5000Y-13500D03*
X5000Y-9500D03*
X7000Y-13500D03*
X7000Y-9500D03*
X32000Y-12500D03*
X32000Y-16500D03*
G54D12*
X15000Y-5500D03*
G54D13*
X14000Y-5500D03*
X13000Y-5500D03*
X12000Y-5500D03*
X11000Y-5500D03*
X10000Y-5500D03*
X9000Y-5500D03*
X8000Y-5500D03*
X7000Y-5500D03*
X6000Y-5500D03*
X6000Y-8500D03*
X7000Y-8500D03*
X8000Y-8500D03*
X9000Y-8500D03*
X10000Y-8500D03*
X11000Y-8500D03*
X12000Y-8500D03*
X13000Y-8500D03*
X14000Y-8500D03*
X15000Y-8500D03*
G54D12*
X15000Y-9500D03*
G54D13*
X14000Y-9500D03*
X13000Y-9500D03*
X12000Y-9500D03*
X11000Y-9500D03*
X10000Y-9500D03*
X9000Y-9500D03*
X9000Y-12500D03*
X10000Y-12500D03*
X11000Y-12500D03*
X12000Y-12500D03*
X13000Y-12500D03*
X14000Y-12500D03*
X15000Y-12500D03*
G54D12*
X4000Y-10500D03*
G54D13*
X4000Y-9500D03*
X4000Y-8500D03*
X4000Y-7500D03*
X4000Y-6500D03*
X4000Y-5500D03*
X4000Y-4500D03*
X1000Y-4500D03*
X1000Y-5500D03*
X1000Y-6500D03*
X1000Y-7500D03*
X1000Y-8500D03*
X1000Y-9500D03*
X1000Y-10500D03*
G54D14*
X28750Y-3500D03*
X10250Y-3500D03*
G54D15*
X13000Y-4000D03*
G54D11*
X14100Y-4000D03*
X15150Y-4000D03*
X16250Y-4000D03*
X17350Y-4000D03*
X18450Y-4000D03*
X19500Y-4000D03*
X20600Y-4000D03*
X21700Y-4000D03*
X22800Y-4000D03*
X23850Y-4000D03*
X24950Y-4000D03*
X26050Y-4000D03*
X13620Y-3000D03*
X14620Y-3000D03*
X15720Y-3000D03*
X16800Y-3000D03*
X17880Y-3000D03*
X18980Y-3000D03*
X20060Y-3000D03*
X21140Y-3000D03*
X22260Y-3000D03*
X23320Y-3000D03*
X24400Y-3000D03*
X25500Y-3000D03*
G54D12*
X31000Y-15500D03*
G54D13*
X31000Y-12500D03*
X5000Y-5500D03*
X5000Y-3500D03*
X2000Y-3500D03*
X4000Y-3500D03*
X16000Y-8500D03*
X16000Y-6500D03*
X16000Y-12500D03*
X16000Y-10500D03*
X33000Y-11500D03*
X33000Y-9500D03*
X32000Y-18000D03*
X31000Y-18000D03*
G54D12*
X32000Y-5500D03*
G54D13*
X31000Y-5500D03*
X30000Y-5500D03*
X29000Y-5500D03*
X28000Y-5500D03*
X27000Y-5500D03*
X26000Y-5500D03*
X25000Y-5500D03*
X24000Y-5500D03*
X23000Y-5500D03*
X22000Y-5500D03*
X21000Y-5500D03*
X20000Y-5500D03*
X19000Y-5500D03*
X19000Y-11500D03*
X20000Y-11500D03*
X21000Y-11500D03*
X22000Y-11500D03*
X23000Y-11500D03*
X24000Y-11500D03*
X25000Y-11500D03*
X26000Y-11500D03*
X27000Y-11500D03*
X28000Y-11500D03*
X29000Y-11500D03*
X30000Y-11500D03*
X31000Y-11500D03*
X32000Y-11500D03*
G54D11*
X6000Y-14500D03*
X6000Y-16500D03*
X7000Y-14500D03*
X7000Y-16500D03*
X5000Y-14500D03*
X5000Y-16500D03*
G54D16*
X24175Y-15150D03*
X23325Y-15150D03*
X22475Y-15150D03*
X21625Y-15150D03*
X20775Y-15150D03*
X19925Y-15150D03*
X19075Y-15150D03*
X18225Y-15150D03*
X17375Y-15150D03*
X16525Y-15150D03*
X15675Y-15150D03*
X14825Y-15150D03*
X24175Y-16850D03*
X23325Y-16850D03*
X22475Y-16850D03*
X21625Y-16850D03*
X20775Y-16850D03*
X19925Y-16850D03*
X19075Y-16850D03*
X18225Y-16850D03*
X17375Y-16850D03*
X16525Y-16850D03*
X15675Y-16850D03*
X14825Y-16850D03*
G54D17*
X28710Y-16000D03*
X10290Y-16000D03*
G54D18*
X35000Y-10500D03*
G54D19*
X37000Y-10500D03*
X36000Y-10500D03*
G54D20*
X36000Y-17000D03*
G54D12*
X8000Y-4500D03*
G54D13*
X7000Y-4500D03*
G54D21*
X1000Y-17500D03*
X1000Y-16500D03*
X2000Y-17500D03*
X2000Y-16500D03*
X3000Y-17500D03*
X3000Y-16500D03*
G54D22*
X32000Y-4000D03*
X33000Y-4000D03*
G54D23*
X37500Y-3000D03*
X37500Y-5400D03*
G54D24*
X35500Y-3900D03*
G54D13*
X36500Y-8500D03*
X34500Y-8500D03*
X34500Y-9500D03*
X36500Y-9500D03*
X38500Y-9000D03*
X37500Y-9000D03*
G54D19*
X34000Y-7250D03*
G54D18*
X38000Y-7250D03*
G54D25*
X1200Y-1200D03*
X32600Y-1200D03*
G54D26*
X20000Y-7500D03*
X21000Y-8700D03*
X27500Y-7300D03*
M02*
