M48
;DRILL file {Pcbnew (2013-07-07 BZR 4022)-stable} date 28.12.2015 18:45:18
;FORMAT={-:-/ absolute / metric / decimal}
FMAT,2
METRIC,TZ
T1C0.400
T2C0.813
T3C1.016
T4C1.143
T5C3.000
T6C3.048
T7C3.302
%
G90
G05
M71
T1
X50.8Y-19.05
X53.34Y-22.098
X69.85Y-18.542
T2
X2.54Y-11.43
X2.54Y-13.97
X2.54Y-16.51
X2.54Y-19.05
X2.54Y-21.59
X2.54Y-24.13
X2.54Y-26.67
X2.54Y-29.21
X2.54Y-39.37
X2.54Y-41.91
X2.54Y-44.45
X5.08Y-8.89
X5.08Y-29.21
X5.08Y-39.37
X5.08Y-41.91
X5.08Y-44.45
X7.62Y-29.21
X7.62Y-39.37
X7.62Y-41.91
X7.62Y-44.45
X10.16Y-8.89
X10.16Y-11.43
X10.16Y-13.97
X10.16Y-16.51
X10.16Y-19.05
X10.16Y-21.59
X10.16Y-24.13
X10.16Y-26.67
X12.7Y-8.89
X12.7Y-13.97
X12.7Y-24.13
X12.7Y-34.29
X12.7Y-36.83
X12.7Y-41.91
X15.24Y-1.27
X15.24Y-11.43
X15.24Y-13.97
X15.24Y-21.59
X15.24Y-24.13
X15.24Y-34.29
X15.24Y-36.83
X15.24Y-41.91
X17.78Y-11.43
X17.78Y-13.97
X17.78Y-21.59
X17.78Y-24.13
X17.78Y-34.29
X17.78Y-36.83
X17.78Y-41.91
X20.32Y-11.43
X20.32Y-13.97
X20.32Y-21.59
X22.86Y-13.97
X22.86Y-21.59
X22.86Y-24.13
X22.86Y-31.75
X25.4Y-13.97
X25.4Y-21.59
X25.4Y-24.13
X25.4Y-31.75
X27.94Y-13.97
X27.94Y-21.59
X27.94Y-24.13
X27.94Y-31.75
X30.48Y-13.97
X30.48Y-21.59
X30.48Y-24.13
X30.48Y-31.75
X33.02Y-13.97
X33.02Y-21.59
X33.02Y-24.13
X33.02Y-31.75
X35.56Y-13.97
X35.56Y-21.59
X35.56Y-24.13
X35.56Y-31.75
X37.655Y-38.481
X37.655Y-42.799
X38.1Y-13.97
X38.1Y-21.59
X38.1Y-24.13
X38.1Y-31.75
X39.814Y-38.481
X39.814Y-42.799
X40.64Y-16.51
X40.64Y-21.59
X40.64Y-26.67
X40.64Y-31.75
X41.974Y-38.481
X41.974Y-42.799
X43.18Y-13.97
X43.18Y-24.13
X43.18Y-31.75
X44.133Y-38.481
X44.133Y-42.799
X46.291Y-38.481
X46.291Y-42.799
X48.26Y-13.97
X48.26Y-29.21
X48.45Y-38.481
X48.45Y-42.799
X50.609Y-38.481
X50.609Y-42.799
X50.8Y-13.97
X50.8Y-29.21
X52.768Y-38.481
X52.768Y-42.799
X53.34Y-13.97
X53.34Y-29.21
X53.34Y-31.75
X54.927Y-38.481
X54.927Y-42.799
X55.88Y-13.97
X55.88Y-29.21
X55.88Y-31.75
X57.087Y-38.481
X57.087Y-42.799
X58.42Y-13.97
X58.42Y-29.21
X59.245Y-38.481
X59.245Y-42.799
X60.96Y-13.97
X60.96Y-29.21
X61.404Y-38.481
X61.404Y-42.799
X63.5Y-13.97
X63.5Y-29.21
X66.04Y-13.97
X66.04Y-29.21
X66.04Y-31.75
X68.58Y-13.97
X68.58Y-29.21
X71.12Y-13.97
X71.12Y-29.21
X73.66Y-13.97
X73.66Y-29.21
X76.2Y-13.97
X76.2Y-29.21
X78.74Y-13.97
X78.74Y-29.21
X78.74Y-31.75
X78.74Y-39.37
X78.74Y-45.72
X81.28Y-10.16
X81.28Y-13.97
X81.28Y-29.21
X81.28Y-31.75
X81.28Y-41.91
X81.28Y-45.72
X83.82Y-10.16
X83.82Y-24.13
X83.82Y-29.21
X87.63Y-21.59
X87.63Y-24.13
X92.71Y-21.59
X92.71Y-24.13
X95.25Y-22.86
X97.79Y-22.86
T3
X33.02Y-10.16
X34.595Y-7.62
X35.814Y-10.16
X37.135Y-7.62
X38.481Y-10.16
X39.929Y-7.62
X41.275Y-10.16
X42.672Y-7.62
X44.069Y-10.16
X45.415Y-7.62
X46.863Y-10.16
X48.209Y-7.62
X49.53Y-10.16
X50.952Y-7.62
X52.324Y-10.16
X53.696Y-7.62
X55.118Y-10.16
X56.54Y-7.62
X57.912Y-10.16
X59.233Y-7.62
X60.579Y-10.16
X61.976Y-7.62
X63.373Y-10.16
X64.77Y-7.62
X66.167Y-10.16
X86.36Y-18.415
X96.52Y-18.415
T4
X88.9Y-26.67
X91.44Y-26.67
X93.98Y-26.67
T5
X3.048Y-3.048
X82.804Y-3.048
T6
X26.035Y-8.89
X73.025Y-8.89
X91.44Y-43.18
T7
X26.137Y-40.64
X72.923Y-40.64
T3
X90.17Y-8.414G85X90.17Y-11.398
G05
X96.012Y-7.62G85X94.488Y-7.62
G05
X96.012Y-13.716G85X94.488Y-13.716
G05
T0
M30
