G04 (created by PCBNEW (2013-07-07 BZR 4022)-stable) date 28.12.2015 18:38:58*
%MOIN*%
G04 Gerber Fmt 3.4, Leading zero omitted, Abs format*
%FSLAX34Y34*%
G01*
G70*
G90*
G04 APERTURE LIST*
%ADD10C,0.00393701*%
%ADD11C,0.011811*%
%ADD12C,0.06*%
%ADD13R,0.055X0.055*%
%ADD14C,0.055*%
%ADD15C,0.23622*%
%ADD16R,0.06X0.06*%
%ADD17O,0.052X0.104*%
%ADD18C,0.23*%
%ADD19R,0.07X0.07*%
%ADD20C,0.07*%
%ADD21R,0.35X0.35*%
%ADD22R,0.0787402X0.0866142*%
%ADD23R,0.0866142X0.0866142*%
%ADD24C,0.189*%
%ADD25O,0.15748X0.23622*%
%ADD26C,0.19685*%
%ADD27C,0.048*%
%ADD28C,0.008*%
%ADD29C,0.026*%
%ADD30C,0.0098*%
G04 APERTURE END LIST*
G54D10*
G54D11*
X37226Y-248D02*
X37564Y-248D01*
X37395Y-839D02*
X37395Y-248D01*
X37873Y-248D02*
X37985Y-248D01*
X38042Y-276D01*
X38098Y-332D01*
X38126Y-445D01*
X38126Y-642D01*
X38098Y-754D01*
X38042Y-810D01*
X37985Y-839D01*
X37873Y-839D01*
X37817Y-810D01*
X37760Y-754D01*
X37732Y-642D01*
X37732Y-445D01*
X37760Y-332D01*
X37817Y-276D01*
X37873Y-248D01*
X38379Y-839D02*
X38379Y-248D01*
X38604Y-248D01*
X38660Y-276D01*
X38688Y-304D01*
X38717Y-360D01*
X38717Y-445D01*
X38688Y-501D01*
X38660Y-529D01*
X38604Y-557D01*
X38379Y-557D01*
G54D12*
X17000Y-9500D03*
X17000Y-5500D03*
X3000Y-15500D03*
X3000Y-11500D03*
X2000Y-15500D03*
X2000Y-11500D03*
X1000Y-15500D03*
X1000Y-11500D03*
X6000Y-9500D03*
X6000Y-13500D03*
X17000Y-12500D03*
X21000Y-12500D03*
X6000Y-500D03*
X6000Y-4500D03*
X26000Y-12500D03*
X22000Y-12500D03*
X5000Y-13500D03*
X5000Y-9500D03*
X7000Y-13500D03*
X7000Y-9500D03*
X32000Y-12500D03*
X32000Y-16500D03*
G54D13*
X15000Y-5500D03*
G54D14*
X14000Y-5500D03*
X13000Y-5500D03*
X12000Y-5500D03*
X11000Y-5500D03*
X10000Y-5500D03*
X9000Y-5500D03*
X8000Y-5500D03*
X7000Y-5500D03*
X6000Y-5500D03*
X6000Y-8500D03*
X7000Y-8500D03*
X8000Y-8500D03*
X9000Y-8500D03*
X10000Y-8500D03*
X11000Y-8500D03*
X12000Y-8500D03*
X13000Y-8500D03*
X14000Y-8500D03*
X15000Y-8500D03*
G54D13*
X15000Y-9500D03*
G54D14*
X14000Y-9500D03*
X13000Y-9500D03*
X12000Y-9500D03*
X11000Y-9500D03*
X10000Y-9500D03*
X9000Y-9500D03*
X9000Y-12500D03*
X10000Y-12500D03*
X11000Y-12500D03*
X12000Y-12500D03*
X13000Y-12500D03*
X14000Y-12500D03*
X15000Y-12500D03*
G54D13*
X4000Y-10500D03*
G54D14*
X4000Y-9500D03*
X4000Y-8500D03*
X4000Y-7500D03*
X4000Y-6500D03*
X4000Y-5500D03*
X4000Y-4500D03*
X1000Y-4500D03*
X1000Y-5500D03*
X1000Y-6500D03*
X1000Y-7500D03*
X1000Y-8500D03*
X1000Y-9500D03*
X1000Y-10500D03*
G54D15*
X28750Y-3500D03*
X10250Y-3500D03*
G54D16*
X13000Y-4000D03*
G54D12*
X14100Y-4000D03*
X15150Y-4000D03*
X16250Y-4000D03*
X17350Y-4000D03*
X18450Y-4000D03*
X19500Y-4000D03*
X20600Y-4000D03*
X21700Y-4000D03*
X22800Y-4000D03*
X23850Y-4000D03*
X24950Y-4000D03*
X26050Y-4000D03*
X13620Y-3000D03*
X14620Y-3000D03*
X15720Y-3000D03*
X16800Y-3000D03*
X17880Y-3000D03*
X18980Y-3000D03*
X20060Y-3000D03*
X21140Y-3000D03*
X22260Y-3000D03*
X23320Y-3000D03*
X24400Y-3000D03*
X25500Y-3000D03*
G54D13*
X31000Y-15500D03*
G54D14*
X31000Y-12500D03*
X5000Y-5500D03*
X5000Y-3500D03*
X2000Y-3500D03*
X4000Y-3500D03*
X16000Y-8500D03*
X16000Y-6500D03*
X16000Y-12500D03*
X16000Y-10500D03*
X33000Y-11500D03*
X33000Y-9500D03*
X32000Y-18000D03*
X31000Y-18000D03*
G54D13*
X32000Y-5500D03*
G54D14*
X31000Y-5500D03*
X30000Y-5500D03*
X29000Y-5500D03*
X28000Y-5500D03*
X27000Y-5500D03*
X26000Y-5500D03*
X25000Y-5500D03*
X24000Y-5500D03*
X23000Y-5500D03*
X22000Y-5500D03*
X21000Y-5500D03*
X20000Y-5500D03*
X19000Y-5500D03*
X19000Y-11500D03*
X20000Y-11500D03*
X21000Y-11500D03*
X22000Y-11500D03*
X23000Y-11500D03*
X24000Y-11500D03*
X25000Y-11500D03*
X26000Y-11500D03*
X27000Y-11500D03*
X28000Y-11500D03*
X29000Y-11500D03*
X30000Y-11500D03*
X31000Y-11500D03*
X32000Y-11500D03*
G54D12*
X6000Y-14500D03*
X6000Y-16500D03*
X7000Y-14500D03*
X7000Y-16500D03*
X5000Y-14500D03*
X5000Y-16500D03*
G54D17*
X24175Y-15150D03*
X23325Y-15150D03*
X22475Y-15150D03*
X21625Y-15150D03*
X20775Y-15150D03*
X19925Y-15150D03*
X19075Y-15150D03*
X18225Y-15150D03*
X17375Y-15150D03*
X16525Y-15150D03*
X15675Y-15150D03*
X14825Y-15150D03*
X24175Y-16850D03*
X23325Y-16850D03*
X22475Y-16850D03*
X21625Y-16850D03*
X20775Y-16850D03*
X19925Y-16850D03*
X19075Y-16850D03*
X18225Y-16850D03*
X17375Y-16850D03*
X16525Y-16850D03*
X15675Y-16850D03*
X14825Y-16850D03*
G54D18*
X28710Y-16000D03*
X10290Y-16000D03*
G54D19*
X35000Y-10500D03*
G54D20*
X37000Y-10500D03*
X36000Y-10500D03*
G54D21*
X36000Y-17000D03*
G54D13*
X8000Y-4500D03*
G54D14*
X7000Y-4500D03*
G54D22*
X1000Y-17500D03*
X1000Y-16500D03*
X2000Y-17500D03*
X2000Y-16500D03*
X3000Y-17500D03*
X3000Y-16500D03*
G54D23*
X32000Y-4000D03*
X33000Y-4000D03*
G54D24*
X37500Y-3000D03*
X37500Y-5400D03*
G54D25*
X35500Y-3900D03*
G54D14*
X36500Y-8500D03*
X34500Y-8500D03*
X34500Y-9500D03*
X36500Y-9500D03*
X38500Y-9000D03*
X37500Y-9000D03*
G54D20*
X34000Y-7250D03*
G54D19*
X38000Y-7250D03*
G54D26*
X1200Y-1200D03*
X32600Y-1200D03*
G54D27*
X20000Y-7500D03*
X21000Y-8700D03*
X27500Y-7300D03*
G54D28*
X9000Y-18800D02*
X9000Y-18800D01*
X31000Y-5500D02*
X31000Y-8400D01*
X7300Y-14000D02*
X5500Y-14000D01*
X7600Y-14300D02*
X7300Y-14000D01*
X7600Y-17700D02*
X7600Y-14300D01*
X8100Y-18200D02*
X7600Y-17700D01*
X25000Y-18200D02*
X8100Y-18200D01*
X25600Y-17600D02*
X25000Y-18200D01*
X25600Y-16400D02*
X25600Y-17600D01*
X29600Y-12400D02*
X25600Y-16400D01*
X29600Y-9800D02*
X29600Y-12400D01*
X31000Y-8400D02*
X29600Y-9800D01*
X5000Y-16500D02*
X5500Y-16000D01*
X5500Y-10000D02*
X6000Y-9500D01*
X5500Y-16000D02*
X5500Y-14000D01*
X5500Y-14000D02*
X5500Y-10000D01*
X900Y-18400D02*
X650Y-18400D01*
X9000Y-18400D02*
X900Y-18400D01*
X550Y-16500D02*
X1000Y-16500D01*
X450Y-16600D02*
X550Y-16500D01*
X450Y-18200D02*
X450Y-16600D01*
X650Y-18400D02*
X450Y-18200D01*
X9000Y-18400D02*
X9000Y-18400D01*
X9000Y-18400D02*
X25100Y-18400D01*
X25100Y-18400D02*
X25800Y-17700D01*
X25800Y-17700D02*
X25800Y-16500D01*
X25800Y-16500D02*
X30000Y-12300D01*
X30000Y-11500D02*
X30000Y-12300D01*
X1000Y-15500D02*
X1000Y-16500D01*
X550Y-18600D02*
X25200Y-18600D01*
X250Y-15250D02*
X700Y-14800D01*
X700Y-14800D02*
X1300Y-14800D01*
X2000Y-15500D02*
X1300Y-14800D01*
X31000Y-11600D02*
X31000Y-11500D01*
X550Y-18600D02*
X250Y-18300D01*
X26000Y-17800D02*
X25200Y-18600D01*
X26000Y-16600D02*
X26000Y-17800D01*
X31000Y-11600D02*
X26000Y-16600D01*
X250Y-18300D02*
X250Y-15250D01*
X2000Y-15500D02*
X2000Y-16500D01*
X32000Y-5500D02*
X31400Y-4900D01*
X24950Y-2800D02*
X24250Y-2100D01*
X24950Y-3300D02*
X24950Y-2800D01*
X25500Y-3850D02*
X24950Y-3300D01*
X25500Y-4500D02*
X25500Y-3850D01*
X25900Y-4900D02*
X25500Y-4500D01*
X31400Y-4900D02*
X25900Y-4900D01*
X500Y-14000D02*
X800Y-14300D01*
X800Y-14300D02*
X1800Y-14300D01*
X1800Y-14300D02*
X3000Y-15500D01*
X500Y-14000D02*
X500Y-3100D01*
X500Y-3100D02*
X1200Y-2400D01*
X1200Y-2400D02*
X9000Y-2400D01*
X9000Y-2400D02*
X9300Y-2100D01*
X9300Y-2100D02*
X24250Y-2100D01*
X3000Y-15500D02*
X3000Y-16500D01*
X11000Y-9500D02*
X10500Y-10000D01*
X15675Y-14975D02*
X15675Y-15150D01*
X13700Y-13000D02*
X15675Y-14975D01*
X10900Y-13000D02*
X13700Y-13000D01*
X10500Y-12600D02*
X10900Y-13000D01*
X10500Y-10000D02*
X10500Y-12600D01*
X15000Y-9500D02*
X14500Y-9000D01*
X23350Y-3500D02*
X23850Y-4000D01*
X17100Y-3500D02*
X23350Y-3500D01*
X16800Y-3800D02*
X17100Y-3500D01*
X16800Y-5000D02*
X16800Y-3800D01*
X14500Y-7300D02*
X16800Y-5000D01*
X14500Y-9000D02*
X14500Y-7300D01*
X17350Y-4000D02*
X17350Y-4950D01*
X19000Y-6600D02*
X19000Y-11500D01*
X17350Y-4950D02*
X19000Y-6600D01*
X20000Y-11500D02*
X20000Y-7500D01*
X20000Y-7500D02*
X20000Y-7100D01*
X18450Y-4450D02*
X18450Y-4000D01*
X18800Y-4800D02*
X18450Y-4450D01*
X19100Y-4800D02*
X18800Y-4800D01*
X19500Y-5200D02*
X19100Y-4800D01*
X19500Y-6600D02*
X19500Y-5200D01*
X20000Y-7100D02*
X19500Y-6600D01*
X21000Y-11500D02*
X21000Y-8700D01*
X21000Y-8700D02*
X21000Y-7000D01*
X20500Y-5000D02*
X19500Y-4000D01*
X20500Y-6500D02*
X20500Y-5000D01*
X21000Y-7000D02*
X20500Y-6500D01*
X20600Y-4000D02*
X20600Y-4100D01*
X22000Y-8900D02*
X22000Y-11500D01*
X21500Y-8400D02*
X22000Y-8900D01*
X21500Y-5000D02*
X21500Y-8400D01*
X20600Y-4100D02*
X21500Y-5000D01*
X13000Y-8500D02*
X11000Y-6500D01*
X11000Y-6500D02*
X4000Y-6500D01*
X23000Y-11500D02*
X23000Y-9000D01*
X22400Y-4700D02*
X21700Y-4000D01*
X22400Y-8400D02*
X22400Y-4700D01*
X23000Y-9000D02*
X22400Y-8400D01*
X14000Y-12500D02*
X15900Y-14400D01*
X19925Y-15875D02*
X19925Y-15150D01*
X19800Y-16000D02*
X19925Y-15875D01*
X18100Y-16000D02*
X19800Y-16000D01*
X17800Y-15700D02*
X18100Y-16000D01*
X17800Y-14700D02*
X17800Y-15700D01*
X17500Y-14400D02*
X17800Y-14700D01*
X15900Y-14400D02*
X17500Y-14400D01*
X13000Y-9500D02*
X14000Y-10500D01*
X14000Y-10500D02*
X14000Y-12500D01*
X23000Y-5500D02*
X23000Y-8300D01*
X24175Y-14425D02*
X24175Y-15150D01*
X23600Y-13850D02*
X24175Y-14425D01*
X23600Y-8900D02*
X23600Y-13850D01*
X23000Y-8300D02*
X23600Y-8900D01*
X23200Y-8900D02*
X23200Y-10960D01*
X23500Y-5000D02*
X22900Y-5000D01*
X22900Y-5000D02*
X22560Y-5339D01*
X22560Y-5339D02*
X22560Y-6260D01*
X22560Y-6260D02*
X22560Y-8260D01*
X22560Y-8260D02*
X23200Y-8900D01*
X24000Y-5500D02*
X23500Y-5000D01*
X23325Y-13975D02*
X23325Y-15150D01*
X23439Y-13860D02*
X23325Y-13975D01*
X23439Y-11200D02*
X23439Y-13860D01*
X23200Y-10960D02*
X23439Y-11200D01*
X22475Y-15150D02*
X22475Y-15475D01*
X25000Y-8450D02*
X25000Y-5500D01*
X24500Y-8950D02*
X25000Y-8450D01*
X24500Y-14450D02*
X24500Y-8950D01*
X24600Y-14550D02*
X24500Y-14450D01*
X24600Y-15650D02*
X24600Y-14550D01*
X24450Y-15800D02*
X24600Y-15650D01*
X22800Y-15800D02*
X24450Y-15800D01*
X22475Y-15475D02*
X22800Y-15800D01*
X21625Y-15150D02*
X21625Y-15925D01*
X26000Y-8400D02*
X26000Y-5500D01*
X25500Y-8900D02*
X26000Y-8400D01*
X25500Y-15000D02*
X25500Y-8900D01*
X24400Y-16100D02*
X25500Y-15000D01*
X21800Y-16100D02*
X24400Y-16100D01*
X21625Y-15925D02*
X21800Y-16100D01*
X27000Y-5500D02*
X27000Y-8400D01*
X26500Y-14300D02*
X24012Y-16787D01*
X26500Y-8900D02*
X26500Y-14300D01*
X27000Y-8400D02*
X26500Y-8900D01*
X23325Y-16850D02*
X23325Y-17325D01*
X28000Y-8400D02*
X28000Y-5500D01*
X27500Y-8900D02*
X28000Y-8400D01*
X27500Y-13600D02*
X27500Y-8900D01*
X24900Y-16200D02*
X27500Y-13600D01*
X24900Y-17200D02*
X24900Y-16200D01*
X24500Y-17600D02*
X24900Y-17200D01*
X23600Y-17600D02*
X24500Y-17600D01*
X23325Y-17325D02*
X23600Y-17600D01*
X29000Y-5500D02*
X29000Y-8400D01*
X22475Y-17675D02*
X22475Y-16850D01*
X22600Y-17800D02*
X22475Y-17675D01*
X24700Y-17800D02*
X22600Y-17800D01*
X25200Y-17300D02*
X24700Y-17800D01*
X25200Y-16200D02*
X25200Y-17300D01*
X28500Y-12900D02*
X25200Y-16200D01*
X28500Y-8900D02*
X28500Y-12900D01*
X29000Y-8400D02*
X28500Y-8900D01*
X21625Y-16850D02*
X21625Y-17825D01*
X30000Y-8400D02*
X30000Y-5500D01*
X29400Y-9000D02*
X30000Y-8400D01*
X29400Y-12300D02*
X29400Y-9000D01*
X25400Y-16300D02*
X29400Y-12300D01*
X25400Y-17400D02*
X25400Y-16300D01*
X24800Y-18000D02*
X25400Y-17400D01*
X21800Y-18000D02*
X24800Y-18000D01*
X21625Y-17825D02*
X21800Y-18000D01*
X21000Y-12500D02*
X21000Y-13100D01*
X18225Y-14275D02*
X18225Y-15150D01*
X19000Y-13500D02*
X18225Y-14275D01*
X20600Y-13500D02*
X19000Y-13500D01*
X21000Y-13100D02*
X20600Y-13500D01*
X19075Y-15150D02*
X19075Y-14325D01*
X22000Y-13200D02*
X22000Y-12500D01*
X21400Y-13800D02*
X22000Y-13200D01*
X19600Y-13800D02*
X21400Y-13800D01*
X19075Y-14325D02*
X19600Y-13800D01*
X14000Y-5500D02*
X14500Y-6000D01*
X16300Y-2800D02*
X16700Y-2400D01*
X16300Y-3200D02*
X16300Y-2800D01*
X15700Y-3800D02*
X16300Y-3200D01*
X15700Y-5800D02*
X15700Y-3800D01*
X15500Y-6000D02*
X15700Y-5800D01*
X14500Y-6000D02*
X15500Y-6000D01*
X29000Y-11500D02*
X29000Y-8900D01*
X23600Y-2400D02*
X16700Y-2400D01*
X23900Y-2700D02*
X23600Y-2400D01*
X23900Y-3300D02*
X23900Y-2700D01*
X24400Y-3800D02*
X23900Y-3300D01*
X24400Y-4500D02*
X24400Y-3800D01*
X25000Y-5100D02*
X24400Y-4500D01*
X29200Y-5100D02*
X25000Y-5100D01*
X29500Y-5400D02*
X29200Y-5100D01*
X29500Y-8400D02*
X29500Y-5400D01*
X29000Y-8900D02*
X29500Y-8400D01*
X27500Y-8400D02*
X27000Y-8900D01*
X27000Y-8900D02*
X27000Y-11500D01*
X27500Y-7300D02*
X27500Y-8400D01*
X14000Y-8500D02*
X14000Y-6400D01*
X13500Y-3120D02*
X13620Y-3000D01*
X13500Y-5900D02*
X13500Y-3120D01*
X14000Y-6400D02*
X13500Y-5900D01*
X1000Y-8500D02*
X1500Y-8000D01*
X15120Y-2400D02*
X15720Y-3000D01*
X13500Y-2400D02*
X15120Y-2400D01*
X11000Y-4900D02*
X13500Y-2400D01*
X9400Y-4900D02*
X11000Y-4900D01*
X7400Y-2900D02*
X9400Y-4900D01*
X1800Y-2900D02*
X7400Y-2900D01*
X1500Y-3200D02*
X1800Y-2900D01*
X1500Y-8000D02*
X1500Y-3200D01*
X15000Y-5500D02*
X15000Y-4700D01*
X15320Y-3400D02*
X15720Y-3000D01*
X15000Y-3400D02*
X15320Y-3400D01*
X14600Y-3800D02*
X15000Y-3400D01*
X14600Y-4300D02*
X14600Y-3800D01*
X15000Y-4700D02*
X14600Y-4300D01*
X11000Y-12500D02*
X11000Y-11500D01*
X12500Y-4500D02*
X13000Y-4000D01*
X12500Y-5800D02*
X12500Y-4500D01*
X13500Y-6800D02*
X12500Y-5800D01*
X13500Y-8700D02*
X13500Y-6800D01*
X13200Y-9000D02*
X13500Y-8700D01*
X12800Y-9000D02*
X13200Y-9000D01*
X12500Y-9300D02*
X12800Y-9000D01*
X12500Y-10000D02*
X12500Y-9300D01*
X11000Y-11500D02*
X12500Y-10000D01*
G54D29*
X10000Y-12500D02*
X10000Y-15710D01*
X10000Y-15710D02*
X10290Y-16000D01*
X6000Y-14500D02*
X6000Y-16500D01*
X9000Y-9500D02*
X10000Y-10500D01*
X10000Y-10500D02*
X10000Y-12500D01*
X16000Y-10500D02*
X16400Y-10100D01*
X16700Y-7200D02*
X16000Y-6500D01*
X16700Y-8800D02*
X16700Y-7200D01*
X16400Y-9100D02*
X16700Y-8800D01*
X16400Y-10100D02*
X16400Y-9100D01*
X37500Y-3000D02*
X36500Y-2000D01*
X37500Y-8000D02*
X37500Y-9000D01*
X34250Y-4750D02*
X37500Y-8000D01*
X34250Y-2500D02*
X34250Y-4750D01*
X34750Y-2000D02*
X34250Y-2500D01*
X36500Y-2000D02*
X34750Y-2000D01*
G54D28*
X3000Y-17500D02*
X4000Y-17500D01*
X4500Y-15000D02*
X5000Y-14500D01*
X4500Y-17000D02*
X4500Y-15000D01*
X4000Y-17500D02*
X4500Y-17000D01*
G54D29*
X26050Y-4000D02*
X28150Y-1900D01*
X29900Y-1900D02*
X32000Y-4000D01*
X28150Y-1900D02*
X29900Y-1900D01*
G54D28*
X1000Y-17500D02*
X1000Y-18000D01*
X1200Y-18200D02*
X5700Y-18200D01*
X5700Y-18200D02*
X6500Y-17400D01*
X6500Y-17400D02*
X6500Y-15000D01*
X6500Y-15000D02*
X7000Y-14500D01*
X1000Y-18000D02*
X1200Y-18200D01*
X1000Y-17500D02*
X1000Y-17600D01*
G54D29*
X37000Y-10500D02*
X37000Y-9000D01*
X37000Y-9000D02*
X36500Y-8500D01*
G54D28*
X5000Y-5500D02*
X4500Y-6000D01*
X3500Y-8000D02*
X4000Y-8500D01*
X3500Y-6350D02*
X3500Y-8000D01*
X3850Y-6000D02*
X3500Y-6350D01*
X4500Y-6000D02*
X3850Y-6000D01*
X4000Y-7500D02*
X5000Y-8500D01*
X5000Y-8500D02*
X5000Y-9500D01*
X4000Y-5500D02*
X3300Y-6200D01*
X5500Y-9000D02*
X6000Y-8500D01*
X5500Y-9700D02*
X5500Y-9000D01*
X5200Y-10000D02*
X5500Y-9700D01*
X3600Y-10000D02*
X5200Y-10000D01*
X3300Y-9700D02*
X3600Y-10000D01*
X3300Y-6200D02*
X3300Y-9700D01*
G54D29*
X1000Y-10500D02*
X2000Y-9500D01*
X2000Y-9500D02*
X2000Y-3500D01*
X15000Y-12500D02*
X15000Y-10500D01*
X16000Y-9500D02*
X16000Y-8500D01*
X15000Y-10500D02*
X16000Y-9500D01*
X33000Y-4000D02*
X33000Y-8000D01*
X33000Y-8000D02*
X34500Y-9500D01*
G54D10*
G36*
X6061Y-14505D02*
X6005Y-14561D01*
X6000Y-14555D01*
X5994Y-14561D01*
X5938Y-14505D01*
X5944Y-14500D01*
X5938Y-14494D01*
X5994Y-14438D01*
X6000Y-14444D01*
X6005Y-14438D01*
X6061Y-14494D01*
X6055Y-14500D01*
X6061Y-14505D01*
X6061Y-14505D01*
G37*
G54D30*
X6061Y-14505D02*
X6005Y-14561D01*
X6000Y-14555D01*
X5994Y-14561D01*
X5938Y-14505D01*
X5944Y-14500D01*
X5938Y-14494D01*
X5994Y-14438D01*
X6000Y-14444D01*
X6005Y-14438D01*
X6061Y-14494D01*
X6055Y-14500D01*
X6061Y-14505D01*
G54D10*
G36*
X6261Y-17301D02*
X5601Y-17961D01*
X3592Y-17961D01*
X3592Y-17893D01*
X3592Y-17739D01*
X4000Y-17739D01*
X4091Y-17720D01*
X4091Y-17720D01*
X4168Y-17668D01*
X4668Y-17168D01*
X4720Y-17091D01*
X4738Y-17000D01*
X4739Y-17000D01*
X4739Y-16931D01*
X4900Y-16998D01*
X5098Y-16999D01*
X5282Y-16923D01*
X5422Y-16783D01*
X5498Y-16599D01*
X5499Y-16401D01*
X5480Y-16357D01*
X5641Y-16196D01*
X5666Y-16221D01*
X5592Y-16252D01*
X5529Y-16427D01*
X5537Y-16613D01*
X5592Y-16747D01*
X5666Y-16778D01*
X5944Y-16500D01*
X5938Y-16494D01*
X5994Y-16438D01*
X6000Y-16444D01*
X6005Y-16438D01*
X6061Y-16494D01*
X6055Y-16500D01*
X6061Y-16505D01*
X6005Y-16561D01*
X6000Y-16555D01*
X5944Y-16611D01*
X5721Y-16833D01*
X5752Y-16907D01*
X5927Y-16970D01*
X6113Y-16962D01*
X6247Y-16907D01*
X6261Y-16874D01*
X6261Y-17301D01*
X6261Y-17301D01*
G37*
G54D30*
X6261Y-17301D02*
X5601Y-17961D01*
X3592Y-17961D01*
X3592Y-17893D01*
X3592Y-17739D01*
X4000Y-17739D01*
X4091Y-17720D01*
X4091Y-17720D01*
X4168Y-17668D01*
X4668Y-17168D01*
X4720Y-17091D01*
X4738Y-17000D01*
X4739Y-17000D01*
X4739Y-16931D01*
X4900Y-16998D01*
X5098Y-16999D01*
X5282Y-16923D01*
X5422Y-16783D01*
X5498Y-16599D01*
X5499Y-16401D01*
X5480Y-16357D01*
X5641Y-16196D01*
X5666Y-16221D01*
X5592Y-16252D01*
X5529Y-16427D01*
X5537Y-16613D01*
X5592Y-16747D01*
X5666Y-16778D01*
X5944Y-16500D01*
X5938Y-16494D01*
X5994Y-16438D01*
X6000Y-16444D01*
X6005Y-16438D01*
X6061Y-16494D01*
X6055Y-16500D01*
X6061Y-16505D01*
X6005Y-16561D01*
X6000Y-16555D01*
X5944Y-16611D01*
X5721Y-16833D01*
X5752Y-16907D01*
X5927Y-16970D01*
X6113Y-16962D01*
X6247Y-16907D01*
X6261Y-16874D01*
X6261Y-17301D01*
G54D10*
G36*
X13223Y-2339D02*
X11458Y-4103D01*
X11595Y-3782D01*
X11600Y-3246D01*
X11400Y-2748D01*
X11384Y-2724D01*
X11219Y-2585D01*
X10305Y-3500D01*
X10311Y-3505D01*
X10255Y-3561D01*
X10250Y-3555D01*
X10244Y-3561D01*
X10194Y-3511D01*
X10188Y-3505D01*
X10194Y-3500D01*
X9280Y-2585D01*
X9115Y-2724D01*
X8904Y-3217D01*
X8899Y-3753D01*
X9099Y-4251D01*
X9115Y-4275D01*
X9280Y-4414D01*
X9266Y-4428D01*
X7568Y-2731D01*
X7491Y-2679D01*
X7400Y-2661D01*
X1800Y-2661D01*
X1708Y-2679D01*
X1631Y-2731D01*
X1331Y-3031D01*
X1279Y-3108D01*
X1261Y-3200D01*
X1261Y-4095D01*
X1094Y-4026D01*
X906Y-4025D01*
X739Y-4094D01*
X739Y-3198D01*
X1298Y-2639D01*
X9000Y-2639D01*
X9091Y-2620D01*
X9091Y-2620D01*
X9168Y-2568D01*
X9398Y-2339D01*
X9523Y-2339D01*
X9498Y-2349D01*
X9474Y-2365D01*
X9335Y-2530D01*
X10250Y-3444D01*
X11164Y-2530D01*
X11025Y-2365D01*
X10964Y-2339D01*
X13223Y-2339D01*
X13223Y-2339D01*
G37*
G54D30*
X13223Y-2339D02*
X11458Y-4103D01*
X11595Y-3782D01*
X11600Y-3246D01*
X11400Y-2748D01*
X11384Y-2724D01*
X11219Y-2585D01*
X10305Y-3500D01*
X10311Y-3505D01*
X10255Y-3561D01*
X10250Y-3555D01*
X10244Y-3561D01*
X10194Y-3511D01*
X10188Y-3505D01*
X10194Y-3500D01*
X9280Y-2585D01*
X9115Y-2724D01*
X8904Y-3217D01*
X8899Y-3753D01*
X9099Y-4251D01*
X9115Y-4275D01*
X9280Y-4414D01*
X9266Y-4428D01*
X7568Y-2731D01*
X7491Y-2679D01*
X7400Y-2661D01*
X1800Y-2661D01*
X1708Y-2679D01*
X1631Y-2731D01*
X1331Y-3031D01*
X1279Y-3108D01*
X1261Y-3200D01*
X1261Y-4095D01*
X1094Y-4026D01*
X906Y-4025D01*
X739Y-4094D01*
X739Y-3198D01*
X1298Y-2639D01*
X9000Y-2639D01*
X9091Y-2620D01*
X9091Y-2620D01*
X9168Y-2568D01*
X9398Y-2339D01*
X9523Y-2339D01*
X9498Y-2349D01*
X9474Y-2365D01*
X9335Y-2530D01*
X10250Y-3444D01*
X11164Y-2530D01*
X11025Y-2365D01*
X10964Y-2339D01*
X13223Y-2339D01*
G54D10*
G36*
X13261Y-8095D02*
X13094Y-8026D01*
X12906Y-8025D01*
X12876Y-8038D01*
X11168Y-6331D01*
X11091Y-6279D01*
X11000Y-6261D01*
X9474Y-6261D01*
X9474Y-5406D01*
X9402Y-5231D01*
X9268Y-5098D01*
X9094Y-5026D01*
X8906Y-5025D01*
X8731Y-5097D01*
X8598Y-5231D01*
X8526Y-5405D01*
X8525Y-5593D01*
X8597Y-5768D01*
X8731Y-5901D01*
X8905Y-5973D01*
X9093Y-5974D01*
X9268Y-5902D01*
X9401Y-5768D01*
X9473Y-5594D01*
X9474Y-5406D01*
X9474Y-6261D01*
X8474Y-6261D01*
X8474Y-5406D01*
X8402Y-5231D01*
X8268Y-5098D01*
X8094Y-5026D01*
X7906Y-5025D01*
X7731Y-5097D01*
X7598Y-5231D01*
X7526Y-5405D01*
X7525Y-5593D01*
X7597Y-5768D01*
X7731Y-5901D01*
X7905Y-5973D01*
X8093Y-5974D01*
X8268Y-5902D01*
X8401Y-5768D01*
X8473Y-5594D01*
X8474Y-5406D01*
X8474Y-6261D01*
X7474Y-6261D01*
X7474Y-5406D01*
X7445Y-5337D01*
X7445Y-4566D01*
X7437Y-4390D01*
X7386Y-4268D01*
X7315Y-4240D01*
X7259Y-4295D01*
X7259Y-4184D01*
X7231Y-4113D01*
X7066Y-4054D01*
X6890Y-4062D01*
X6768Y-4113D01*
X6740Y-4184D01*
X7000Y-4444D01*
X7259Y-4184D01*
X7259Y-4295D01*
X7055Y-4500D01*
X7315Y-4759D01*
X7386Y-4731D01*
X7445Y-4566D01*
X7445Y-5337D01*
X7402Y-5231D01*
X7268Y-5098D01*
X7259Y-5094D01*
X7259Y-4815D01*
X7000Y-4555D01*
X6944Y-4611D01*
X6944Y-4500D01*
X6684Y-4240D01*
X6613Y-4268D01*
X6554Y-4433D01*
X6562Y-4609D01*
X6613Y-4731D01*
X6684Y-4759D01*
X6944Y-4500D01*
X6944Y-4611D01*
X6740Y-4815D01*
X6768Y-4886D01*
X6933Y-4945D01*
X7109Y-4937D01*
X7231Y-4886D01*
X7259Y-4815D01*
X7259Y-5094D01*
X7094Y-5026D01*
X6906Y-5025D01*
X6731Y-5097D01*
X6598Y-5231D01*
X6526Y-5405D01*
X6525Y-5593D01*
X6597Y-5768D01*
X6731Y-5901D01*
X6905Y-5973D01*
X7093Y-5974D01*
X7268Y-5902D01*
X7401Y-5768D01*
X7473Y-5594D01*
X7474Y-5406D01*
X7474Y-6261D01*
X6499Y-6261D01*
X6499Y-4401D01*
X6423Y-4217D01*
X6283Y-4077D01*
X6099Y-4001D01*
X5901Y-4000D01*
X5717Y-4076D01*
X5577Y-4216D01*
X5501Y-4400D01*
X5500Y-4598D01*
X5576Y-4782D01*
X5716Y-4922D01*
X5900Y-4998D01*
X6098Y-4999D01*
X6282Y-4923D01*
X6422Y-4783D01*
X6498Y-4599D01*
X6499Y-4401D01*
X6499Y-6261D01*
X6445Y-6261D01*
X6445Y-5566D01*
X6437Y-5390D01*
X6386Y-5268D01*
X6315Y-5240D01*
X6259Y-5295D01*
X6259Y-5184D01*
X6231Y-5113D01*
X6066Y-5054D01*
X5890Y-5062D01*
X5768Y-5113D01*
X5740Y-5184D01*
X6000Y-5444D01*
X6259Y-5184D01*
X6259Y-5295D01*
X6055Y-5500D01*
X6315Y-5759D01*
X6386Y-5731D01*
X6445Y-5566D01*
X6445Y-6261D01*
X6259Y-6261D01*
X6259Y-5815D01*
X6000Y-5555D01*
X5944Y-5611D01*
X5944Y-5500D01*
X5684Y-5240D01*
X5613Y-5268D01*
X5554Y-5433D01*
X5562Y-5609D01*
X5613Y-5731D01*
X5684Y-5759D01*
X5944Y-5500D01*
X5944Y-5611D01*
X5740Y-5815D01*
X5768Y-5886D01*
X5933Y-5945D01*
X6109Y-5937D01*
X6231Y-5886D01*
X6259Y-5815D01*
X6259Y-6261D01*
X4414Y-6261D01*
X4405Y-6239D01*
X4500Y-6239D01*
X4591Y-6220D01*
X4591Y-6220D01*
X4668Y-6168D01*
X4876Y-5961D01*
X4905Y-5973D01*
X5093Y-5974D01*
X5268Y-5902D01*
X5401Y-5768D01*
X5473Y-5594D01*
X5474Y-5406D01*
X5445Y-5337D01*
X5445Y-3566D01*
X5437Y-3390D01*
X5386Y-3268D01*
X5315Y-3240D01*
X5055Y-3500D01*
X5315Y-3759D01*
X5386Y-3731D01*
X5445Y-3566D01*
X5445Y-5337D01*
X5402Y-5231D01*
X5268Y-5098D01*
X5259Y-5094D01*
X5259Y-3815D01*
X5000Y-3555D01*
X4944Y-3611D01*
X4944Y-3500D01*
X4684Y-3240D01*
X4613Y-3268D01*
X4554Y-3433D01*
X4562Y-3609D01*
X4613Y-3731D01*
X4684Y-3759D01*
X4944Y-3500D01*
X4944Y-3611D01*
X4740Y-3815D01*
X4768Y-3886D01*
X4933Y-3945D01*
X5109Y-3937D01*
X5231Y-3886D01*
X5259Y-3815D01*
X5259Y-5094D01*
X5094Y-5026D01*
X4906Y-5025D01*
X4731Y-5097D01*
X4598Y-5231D01*
X4526Y-5405D01*
X4525Y-5593D01*
X4538Y-5623D01*
X4407Y-5754D01*
X4473Y-5594D01*
X4474Y-5406D01*
X4445Y-5337D01*
X4445Y-4566D01*
X4445Y-3566D01*
X4437Y-3390D01*
X4386Y-3268D01*
X4315Y-3240D01*
X4055Y-3500D01*
X4315Y-3759D01*
X4386Y-3731D01*
X4445Y-3566D01*
X4445Y-4566D01*
X4437Y-4390D01*
X4386Y-4268D01*
X4315Y-4240D01*
X4259Y-4295D01*
X4259Y-4184D01*
X4259Y-3815D01*
X4000Y-3555D01*
X3944Y-3611D01*
X3944Y-3500D01*
X3684Y-3240D01*
X3613Y-3268D01*
X3554Y-3433D01*
X3562Y-3609D01*
X3613Y-3731D01*
X3684Y-3759D01*
X3944Y-3500D01*
X3944Y-3611D01*
X3740Y-3815D01*
X3768Y-3886D01*
X3933Y-3945D01*
X4109Y-3937D01*
X4231Y-3886D01*
X4259Y-3815D01*
X4259Y-4184D01*
X4231Y-4113D01*
X4066Y-4054D01*
X3890Y-4062D01*
X3768Y-4113D01*
X3740Y-4184D01*
X4000Y-4444D01*
X4259Y-4184D01*
X4259Y-4295D01*
X4055Y-4500D01*
X4315Y-4759D01*
X4386Y-4731D01*
X4445Y-4566D01*
X4445Y-5337D01*
X4402Y-5231D01*
X4268Y-5098D01*
X4259Y-5094D01*
X4259Y-4815D01*
X4000Y-4555D01*
X3944Y-4611D01*
X3944Y-4500D01*
X3684Y-4240D01*
X3613Y-4268D01*
X3554Y-4433D01*
X3562Y-4609D01*
X3613Y-4731D01*
X3684Y-4759D01*
X3944Y-4500D01*
X3944Y-4611D01*
X3740Y-4815D01*
X3768Y-4886D01*
X3933Y-4945D01*
X4109Y-4937D01*
X4231Y-4886D01*
X4259Y-4815D01*
X4259Y-5094D01*
X4094Y-5026D01*
X3906Y-5025D01*
X3731Y-5097D01*
X3598Y-5231D01*
X3526Y-5405D01*
X3525Y-5593D01*
X3538Y-5623D01*
X3131Y-6031D01*
X3079Y-6108D01*
X3061Y-6200D01*
X3061Y-9700D01*
X3079Y-9791D01*
X3131Y-9868D01*
X3431Y-10168D01*
X3431Y-10168D01*
X3508Y-10220D01*
X3526Y-10224D01*
X3525Y-10264D01*
X3525Y-10814D01*
X3556Y-10887D01*
X3612Y-10943D01*
X3685Y-10973D01*
X3764Y-10974D01*
X4314Y-10974D01*
X4387Y-10943D01*
X4443Y-10887D01*
X4473Y-10814D01*
X4474Y-10735D01*
X4474Y-10239D01*
X5200Y-10239D01*
X5261Y-10226D01*
X5261Y-13068D01*
X5099Y-13001D01*
X4901Y-13000D01*
X4717Y-13076D01*
X4577Y-13216D01*
X4501Y-13400D01*
X4500Y-13598D01*
X4576Y-13782D01*
X4716Y-13922D01*
X4900Y-13998D01*
X5098Y-13999D01*
X5261Y-13932D01*
X5261Y-14000D01*
X5261Y-14068D01*
X5099Y-14001D01*
X4901Y-14000D01*
X4717Y-14076D01*
X4577Y-14216D01*
X4501Y-14400D01*
X4500Y-14598D01*
X4519Y-14642D01*
X4331Y-14831D01*
X4279Y-14908D01*
X4261Y-15000D01*
X4261Y-16901D01*
X3901Y-17261D01*
X3592Y-17261D01*
X3592Y-17027D01*
X3581Y-17000D01*
X3592Y-16972D01*
X3592Y-16893D01*
X3592Y-16027D01*
X3562Y-15954D01*
X3506Y-15898D01*
X3433Y-15867D01*
X3354Y-15867D01*
X3337Y-15867D01*
X3422Y-15783D01*
X3498Y-15599D01*
X3499Y-15401D01*
X3499Y-11401D01*
X3423Y-11217D01*
X3283Y-11077D01*
X3099Y-11001D01*
X2901Y-11000D01*
X2717Y-11076D01*
X2577Y-11216D01*
X2501Y-11400D01*
X2500Y-11598D01*
X2576Y-11782D01*
X2716Y-11922D01*
X2900Y-11998D01*
X3098Y-11999D01*
X3282Y-11923D01*
X3422Y-11783D01*
X3498Y-11599D01*
X3499Y-11401D01*
X3499Y-15401D01*
X3423Y-15217D01*
X3283Y-15077D01*
X3099Y-15001D01*
X2901Y-15000D01*
X2857Y-15019D01*
X2499Y-14661D01*
X2499Y-11401D01*
X2423Y-11217D01*
X2283Y-11077D01*
X2099Y-11001D01*
X1901Y-11000D01*
X1717Y-11076D01*
X1577Y-11216D01*
X1501Y-11400D01*
X1500Y-11598D01*
X1576Y-11782D01*
X1716Y-11922D01*
X1900Y-11998D01*
X2098Y-11999D01*
X2282Y-11923D01*
X2422Y-11783D01*
X2498Y-11599D01*
X2499Y-11401D01*
X2499Y-14661D01*
X1968Y-14131D01*
X1891Y-14079D01*
X1800Y-14061D01*
X898Y-14061D01*
X739Y-13901D01*
X739Y-11931D01*
X900Y-11998D01*
X1098Y-11999D01*
X1282Y-11923D01*
X1422Y-11783D01*
X1498Y-11599D01*
X1499Y-11401D01*
X1423Y-11217D01*
X1283Y-11077D01*
X1099Y-11001D01*
X901Y-11000D01*
X739Y-11067D01*
X739Y-10904D01*
X905Y-10973D01*
X1093Y-10974D01*
X1268Y-10902D01*
X1401Y-10768D01*
X1473Y-10594D01*
X1474Y-10491D01*
X2232Y-9732D01*
X2303Y-9625D01*
X2303Y-9625D01*
X2329Y-9500D01*
X2329Y-3841D01*
X2401Y-3768D01*
X2473Y-3594D01*
X2474Y-3406D01*
X2402Y-3231D01*
X2309Y-3139D01*
X3757Y-3139D01*
X3740Y-3184D01*
X4000Y-3444D01*
X4259Y-3184D01*
X4242Y-3139D01*
X4757Y-3139D01*
X4740Y-3184D01*
X5000Y-3444D01*
X5259Y-3184D01*
X5242Y-3139D01*
X7301Y-3139D01*
X8187Y-4025D01*
X7685Y-4025D01*
X7612Y-4056D01*
X7556Y-4112D01*
X7526Y-4185D01*
X7525Y-4264D01*
X7525Y-4814D01*
X7556Y-4887D01*
X7612Y-4943D01*
X7685Y-4973D01*
X7764Y-4974D01*
X8314Y-4974D01*
X8387Y-4943D01*
X8443Y-4887D01*
X8473Y-4814D01*
X8474Y-4735D01*
X8474Y-4312D01*
X9231Y-5068D01*
X9231Y-5068D01*
X9308Y-5120D01*
X9399Y-5138D01*
X9400Y-5139D01*
X9690Y-5139D01*
X9598Y-5231D01*
X9526Y-5405D01*
X9525Y-5593D01*
X9597Y-5768D01*
X9731Y-5901D01*
X9905Y-5973D01*
X10093Y-5974D01*
X10268Y-5902D01*
X10401Y-5768D01*
X10473Y-5594D01*
X10474Y-5406D01*
X10402Y-5231D01*
X10309Y-5139D01*
X10690Y-5139D01*
X10598Y-5231D01*
X10526Y-5405D01*
X10525Y-5593D01*
X10597Y-5768D01*
X10731Y-5901D01*
X10905Y-5973D01*
X11093Y-5974D01*
X11268Y-5902D01*
X11401Y-5768D01*
X11473Y-5594D01*
X11474Y-5406D01*
X11402Y-5231D01*
X11268Y-5098D01*
X11177Y-5060D01*
X12500Y-3737D01*
X12500Y-3739D01*
X12500Y-4161D01*
X12331Y-4331D01*
X12279Y-4408D01*
X12261Y-4500D01*
X12261Y-5095D01*
X12094Y-5026D01*
X11906Y-5025D01*
X11731Y-5097D01*
X11598Y-5231D01*
X11526Y-5405D01*
X11525Y-5593D01*
X11597Y-5768D01*
X11731Y-5901D01*
X11905Y-5973D01*
X12093Y-5974D01*
X12268Y-5902D01*
X12279Y-5891D01*
X12279Y-5891D01*
X12331Y-5968D01*
X13261Y-6898D01*
X13261Y-8095D01*
X13261Y-8095D01*
G37*
G54D30*
X13261Y-8095D02*
X13094Y-8026D01*
X12906Y-8025D01*
X12876Y-8038D01*
X11168Y-6331D01*
X11091Y-6279D01*
X11000Y-6261D01*
X9474Y-6261D01*
X9474Y-5406D01*
X9402Y-5231D01*
X9268Y-5098D01*
X9094Y-5026D01*
X8906Y-5025D01*
X8731Y-5097D01*
X8598Y-5231D01*
X8526Y-5405D01*
X8525Y-5593D01*
X8597Y-5768D01*
X8731Y-5901D01*
X8905Y-5973D01*
X9093Y-5974D01*
X9268Y-5902D01*
X9401Y-5768D01*
X9473Y-5594D01*
X9474Y-5406D01*
X9474Y-6261D01*
X8474Y-6261D01*
X8474Y-5406D01*
X8402Y-5231D01*
X8268Y-5098D01*
X8094Y-5026D01*
X7906Y-5025D01*
X7731Y-5097D01*
X7598Y-5231D01*
X7526Y-5405D01*
X7525Y-5593D01*
X7597Y-5768D01*
X7731Y-5901D01*
X7905Y-5973D01*
X8093Y-5974D01*
X8268Y-5902D01*
X8401Y-5768D01*
X8473Y-5594D01*
X8474Y-5406D01*
X8474Y-6261D01*
X7474Y-6261D01*
X7474Y-5406D01*
X7445Y-5337D01*
X7445Y-4566D01*
X7437Y-4390D01*
X7386Y-4268D01*
X7315Y-4240D01*
X7259Y-4295D01*
X7259Y-4184D01*
X7231Y-4113D01*
X7066Y-4054D01*
X6890Y-4062D01*
X6768Y-4113D01*
X6740Y-4184D01*
X7000Y-4444D01*
X7259Y-4184D01*
X7259Y-4295D01*
X7055Y-4500D01*
X7315Y-4759D01*
X7386Y-4731D01*
X7445Y-4566D01*
X7445Y-5337D01*
X7402Y-5231D01*
X7268Y-5098D01*
X7259Y-5094D01*
X7259Y-4815D01*
X7000Y-4555D01*
X6944Y-4611D01*
X6944Y-4500D01*
X6684Y-4240D01*
X6613Y-4268D01*
X6554Y-4433D01*
X6562Y-4609D01*
X6613Y-4731D01*
X6684Y-4759D01*
X6944Y-4500D01*
X6944Y-4611D01*
X6740Y-4815D01*
X6768Y-4886D01*
X6933Y-4945D01*
X7109Y-4937D01*
X7231Y-4886D01*
X7259Y-4815D01*
X7259Y-5094D01*
X7094Y-5026D01*
X6906Y-5025D01*
X6731Y-5097D01*
X6598Y-5231D01*
X6526Y-5405D01*
X6525Y-5593D01*
X6597Y-5768D01*
X6731Y-5901D01*
X6905Y-5973D01*
X7093Y-5974D01*
X7268Y-5902D01*
X7401Y-5768D01*
X7473Y-5594D01*
X7474Y-5406D01*
X7474Y-6261D01*
X6499Y-6261D01*
X6499Y-4401D01*
X6423Y-4217D01*
X6283Y-4077D01*
X6099Y-4001D01*
X5901Y-4000D01*
X5717Y-4076D01*
X5577Y-4216D01*
X5501Y-4400D01*
X5500Y-4598D01*
X5576Y-4782D01*
X5716Y-4922D01*
X5900Y-4998D01*
X6098Y-4999D01*
X6282Y-4923D01*
X6422Y-4783D01*
X6498Y-4599D01*
X6499Y-4401D01*
X6499Y-6261D01*
X6445Y-6261D01*
X6445Y-5566D01*
X6437Y-5390D01*
X6386Y-5268D01*
X6315Y-5240D01*
X6259Y-5295D01*
X6259Y-5184D01*
X6231Y-5113D01*
X6066Y-5054D01*
X5890Y-5062D01*
X5768Y-5113D01*
X5740Y-5184D01*
X6000Y-5444D01*
X6259Y-5184D01*
X6259Y-5295D01*
X6055Y-5500D01*
X6315Y-5759D01*
X6386Y-5731D01*
X6445Y-5566D01*
X6445Y-6261D01*
X6259Y-6261D01*
X6259Y-5815D01*
X6000Y-5555D01*
X5944Y-5611D01*
X5944Y-5500D01*
X5684Y-5240D01*
X5613Y-5268D01*
X5554Y-5433D01*
X5562Y-5609D01*
X5613Y-5731D01*
X5684Y-5759D01*
X5944Y-5500D01*
X5944Y-5611D01*
X5740Y-5815D01*
X5768Y-5886D01*
X5933Y-5945D01*
X6109Y-5937D01*
X6231Y-5886D01*
X6259Y-5815D01*
X6259Y-6261D01*
X4414Y-6261D01*
X4405Y-6239D01*
X4500Y-6239D01*
X4591Y-6220D01*
X4591Y-6220D01*
X4668Y-6168D01*
X4876Y-5961D01*
X4905Y-5973D01*
X5093Y-5974D01*
X5268Y-5902D01*
X5401Y-5768D01*
X5473Y-5594D01*
X5474Y-5406D01*
X5445Y-5337D01*
X5445Y-3566D01*
X5437Y-3390D01*
X5386Y-3268D01*
X5315Y-3240D01*
X5055Y-3500D01*
X5315Y-3759D01*
X5386Y-3731D01*
X5445Y-3566D01*
X5445Y-5337D01*
X5402Y-5231D01*
X5268Y-5098D01*
X5259Y-5094D01*
X5259Y-3815D01*
X5000Y-3555D01*
X4944Y-3611D01*
X4944Y-3500D01*
X4684Y-3240D01*
X4613Y-3268D01*
X4554Y-3433D01*
X4562Y-3609D01*
X4613Y-3731D01*
X4684Y-3759D01*
X4944Y-3500D01*
X4944Y-3611D01*
X4740Y-3815D01*
X4768Y-3886D01*
X4933Y-3945D01*
X5109Y-3937D01*
X5231Y-3886D01*
X5259Y-3815D01*
X5259Y-5094D01*
X5094Y-5026D01*
X4906Y-5025D01*
X4731Y-5097D01*
X4598Y-5231D01*
X4526Y-5405D01*
X4525Y-5593D01*
X4538Y-5623D01*
X4407Y-5754D01*
X4473Y-5594D01*
X4474Y-5406D01*
X4445Y-5337D01*
X4445Y-4566D01*
X4445Y-3566D01*
X4437Y-3390D01*
X4386Y-3268D01*
X4315Y-3240D01*
X4055Y-3500D01*
X4315Y-3759D01*
X4386Y-3731D01*
X4445Y-3566D01*
X4445Y-4566D01*
X4437Y-4390D01*
X4386Y-4268D01*
X4315Y-4240D01*
X4259Y-4295D01*
X4259Y-4184D01*
X4259Y-3815D01*
X4000Y-3555D01*
X3944Y-3611D01*
X3944Y-3500D01*
X3684Y-3240D01*
X3613Y-3268D01*
X3554Y-3433D01*
X3562Y-3609D01*
X3613Y-3731D01*
X3684Y-3759D01*
X3944Y-3500D01*
X3944Y-3611D01*
X3740Y-3815D01*
X3768Y-3886D01*
X3933Y-3945D01*
X4109Y-3937D01*
X4231Y-3886D01*
X4259Y-3815D01*
X4259Y-4184D01*
X4231Y-4113D01*
X4066Y-4054D01*
X3890Y-4062D01*
X3768Y-4113D01*
X3740Y-4184D01*
X4000Y-4444D01*
X4259Y-4184D01*
X4259Y-4295D01*
X4055Y-4500D01*
X4315Y-4759D01*
X4386Y-4731D01*
X4445Y-4566D01*
X4445Y-5337D01*
X4402Y-5231D01*
X4268Y-5098D01*
X4259Y-5094D01*
X4259Y-4815D01*
X4000Y-4555D01*
X3944Y-4611D01*
X3944Y-4500D01*
X3684Y-4240D01*
X3613Y-4268D01*
X3554Y-4433D01*
X3562Y-4609D01*
X3613Y-4731D01*
X3684Y-4759D01*
X3944Y-4500D01*
X3944Y-4611D01*
X3740Y-4815D01*
X3768Y-4886D01*
X3933Y-4945D01*
X4109Y-4937D01*
X4231Y-4886D01*
X4259Y-4815D01*
X4259Y-5094D01*
X4094Y-5026D01*
X3906Y-5025D01*
X3731Y-5097D01*
X3598Y-5231D01*
X3526Y-5405D01*
X3525Y-5593D01*
X3538Y-5623D01*
X3131Y-6031D01*
X3079Y-6108D01*
X3061Y-6200D01*
X3061Y-9700D01*
X3079Y-9791D01*
X3131Y-9868D01*
X3431Y-10168D01*
X3431Y-10168D01*
X3508Y-10220D01*
X3526Y-10224D01*
X3525Y-10264D01*
X3525Y-10814D01*
X3556Y-10887D01*
X3612Y-10943D01*
X3685Y-10973D01*
X3764Y-10974D01*
X4314Y-10974D01*
X4387Y-10943D01*
X4443Y-10887D01*
X4473Y-10814D01*
X4474Y-10735D01*
X4474Y-10239D01*
X5200Y-10239D01*
X5261Y-10226D01*
X5261Y-13068D01*
X5099Y-13001D01*
X4901Y-13000D01*
X4717Y-13076D01*
X4577Y-13216D01*
X4501Y-13400D01*
X4500Y-13598D01*
X4576Y-13782D01*
X4716Y-13922D01*
X4900Y-13998D01*
X5098Y-13999D01*
X5261Y-13932D01*
X5261Y-14000D01*
X5261Y-14068D01*
X5099Y-14001D01*
X4901Y-14000D01*
X4717Y-14076D01*
X4577Y-14216D01*
X4501Y-14400D01*
X4500Y-14598D01*
X4519Y-14642D01*
X4331Y-14831D01*
X4279Y-14908D01*
X4261Y-15000D01*
X4261Y-16901D01*
X3901Y-17261D01*
X3592Y-17261D01*
X3592Y-17027D01*
X3581Y-17000D01*
X3592Y-16972D01*
X3592Y-16893D01*
X3592Y-16027D01*
X3562Y-15954D01*
X3506Y-15898D01*
X3433Y-15867D01*
X3354Y-15867D01*
X3337Y-15867D01*
X3422Y-15783D01*
X3498Y-15599D01*
X3499Y-15401D01*
X3499Y-11401D01*
X3423Y-11217D01*
X3283Y-11077D01*
X3099Y-11001D01*
X2901Y-11000D01*
X2717Y-11076D01*
X2577Y-11216D01*
X2501Y-11400D01*
X2500Y-11598D01*
X2576Y-11782D01*
X2716Y-11922D01*
X2900Y-11998D01*
X3098Y-11999D01*
X3282Y-11923D01*
X3422Y-11783D01*
X3498Y-11599D01*
X3499Y-11401D01*
X3499Y-15401D01*
X3423Y-15217D01*
X3283Y-15077D01*
X3099Y-15001D01*
X2901Y-15000D01*
X2857Y-15019D01*
X2499Y-14661D01*
X2499Y-11401D01*
X2423Y-11217D01*
X2283Y-11077D01*
X2099Y-11001D01*
X1901Y-11000D01*
X1717Y-11076D01*
X1577Y-11216D01*
X1501Y-11400D01*
X1500Y-11598D01*
X1576Y-11782D01*
X1716Y-11922D01*
X1900Y-11998D01*
X2098Y-11999D01*
X2282Y-11923D01*
X2422Y-11783D01*
X2498Y-11599D01*
X2499Y-11401D01*
X2499Y-14661D01*
X1968Y-14131D01*
X1891Y-14079D01*
X1800Y-14061D01*
X898Y-14061D01*
X739Y-13901D01*
X739Y-11931D01*
X900Y-11998D01*
X1098Y-11999D01*
X1282Y-11923D01*
X1422Y-11783D01*
X1498Y-11599D01*
X1499Y-11401D01*
X1423Y-11217D01*
X1283Y-11077D01*
X1099Y-11001D01*
X901Y-11000D01*
X739Y-11067D01*
X739Y-10904D01*
X905Y-10973D01*
X1093Y-10974D01*
X1268Y-10902D01*
X1401Y-10768D01*
X1473Y-10594D01*
X1474Y-10491D01*
X2232Y-9732D01*
X2303Y-9625D01*
X2303Y-9625D01*
X2329Y-9500D01*
X2329Y-3841D01*
X2401Y-3768D01*
X2473Y-3594D01*
X2474Y-3406D01*
X2402Y-3231D01*
X2309Y-3139D01*
X3757Y-3139D01*
X3740Y-3184D01*
X4000Y-3444D01*
X4259Y-3184D01*
X4242Y-3139D01*
X4757Y-3139D01*
X4740Y-3184D01*
X5000Y-3444D01*
X5259Y-3184D01*
X5242Y-3139D01*
X7301Y-3139D01*
X8187Y-4025D01*
X7685Y-4025D01*
X7612Y-4056D01*
X7556Y-4112D01*
X7526Y-4185D01*
X7525Y-4264D01*
X7525Y-4814D01*
X7556Y-4887D01*
X7612Y-4943D01*
X7685Y-4973D01*
X7764Y-4974D01*
X8314Y-4974D01*
X8387Y-4943D01*
X8443Y-4887D01*
X8473Y-4814D01*
X8474Y-4735D01*
X8474Y-4312D01*
X9231Y-5068D01*
X9231Y-5068D01*
X9308Y-5120D01*
X9399Y-5138D01*
X9400Y-5139D01*
X9690Y-5139D01*
X9598Y-5231D01*
X9526Y-5405D01*
X9525Y-5593D01*
X9597Y-5768D01*
X9731Y-5901D01*
X9905Y-5973D01*
X10093Y-5974D01*
X10268Y-5902D01*
X10401Y-5768D01*
X10473Y-5594D01*
X10474Y-5406D01*
X10402Y-5231D01*
X10309Y-5139D01*
X10690Y-5139D01*
X10598Y-5231D01*
X10526Y-5405D01*
X10525Y-5593D01*
X10597Y-5768D01*
X10731Y-5901D01*
X10905Y-5973D01*
X11093Y-5974D01*
X11268Y-5902D01*
X11401Y-5768D01*
X11473Y-5594D01*
X11474Y-5406D01*
X11402Y-5231D01*
X11268Y-5098D01*
X11177Y-5060D01*
X12500Y-3737D01*
X12500Y-3739D01*
X12500Y-4161D01*
X12331Y-4331D01*
X12279Y-4408D01*
X12261Y-4500D01*
X12261Y-5095D01*
X12094Y-5026D01*
X11906Y-5025D01*
X11731Y-5097D01*
X11598Y-5231D01*
X11526Y-5405D01*
X11525Y-5593D01*
X11597Y-5768D01*
X11731Y-5901D01*
X11905Y-5973D01*
X12093Y-5974D01*
X12268Y-5902D01*
X12279Y-5891D01*
X12279Y-5891D01*
X12331Y-5968D01*
X13261Y-6898D01*
X13261Y-8095D01*
G54D10*
G36*
X21433Y-17961D02*
X19885Y-17961D01*
X19885Y-17493D01*
X19885Y-16889D01*
X19502Y-16889D01*
X19497Y-16889D01*
X19114Y-16889D01*
X19114Y-17493D01*
X19180Y-17523D01*
X19201Y-17519D01*
X19349Y-17439D01*
X19454Y-17309D01*
X19500Y-17156D01*
X19545Y-17309D01*
X19650Y-17439D01*
X19798Y-17519D01*
X19819Y-17523D01*
X19885Y-17493D01*
X19885Y-17961D01*
X19035Y-17961D01*
X19035Y-17493D01*
X19035Y-16889D01*
X18652Y-16889D01*
X18647Y-16889D01*
X18264Y-16889D01*
X18264Y-17493D01*
X18330Y-17523D01*
X18351Y-17519D01*
X18499Y-17439D01*
X18604Y-17309D01*
X18650Y-17156D01*
X18695Y-17309D01*
X18800Y-17439D01*
X18948Y-17519D01*
X18969Y-17523D01*
X19035Y-17493D01*
X19035Y-17961D01*
X18185Y-17961D01*
X18185Y-17493D01*
X18185Y-16889D01*
X17802Y-16889D01*
X17797Y-16889D01*
X17414Y-16889D01*
X17414Y-17493D01*
X17480Y-17523D01*
X17501Y-17519D01*
X17649Y-17439D01*
X17754Y-17309D01*
X17800Y-17156D01*
X17845Y-17309D01*
X17950Y-17439D01*
X18098Y-17519D01*
X18119Y-17523D01*
X18185Y-17493D01*
X18185Y-17961D01*
X17335Y-17961D01*
X17335Y-17493D01*
X17335Y-16889D01*
X17335Y-16810D01*
X17335Y-16206D01*
X17269Y-16176D01*
X17248Y-16180D01*
X17100Y-16260D01*
X16995Y-16390D01*
X16950Y-16543D01*
X16904Y-16390D01*
X16799Y-16260D01*
X16651Y-16180D01*
X16630Y-16176D01*
X16564Y-16206D01*
X16564Y-16810D01*
X16947Y-16810D01*
X16952Y-16810D01*
X17335Y-16810D01*
X17335Y-16889D01*
X16952Y-16889D01*
X16947Y-16889D01*
X16564Y-16889D01*
X16564Y-17493D01*
X16630Y-17523D01*
X16651Y-17519D01*
X16799Y-17439D01*
X16904Y-17309D01*
X16950Y-17156D01*
X16995Y-17309D01*
X17100Y-17439D01*
X17248Y-17519D01*
X17269Y-17523D01*
X17335Y-17493D01*
X17335Y-17961D01*
X16485Y-17961D01*
X16485Y-17493D01*
X16485Y-16889D01*
X16485Y-16810D01*
X16485Y-16206D01*
X16419Y-16176D01*
X16398Y-16180D01*
X16250Y-16260D01*
X16145Y-16390D01*
X16100Y-16543D01*
X16054Y-16390D01*
X15949Y-16260D01*
X15801Y-16180D01*
X15780Y-16176D01*
X15714Y-16206D01*
X15714Y-16810D01*
X16097Y-16810D01*
X16102Y-16810D01*
X16485Y-16810D01*
X16485Y-16889D01*
X16102Y-16889D01*
X16097Y-16889D01*
X15714Y-16889D01*
X15714Y-17493D01*
X15780Y-17523D01*
X15801Y-17519D01*
X15949Y-17439D01*
X16054Y-17309D01*
X16100Y-17156D01*
X16145Y-17309D01*
X16250Y-17439D01*
X16398Y-17519D01*
X16419Y-17523D01*
X16485Y-17493D01*
X16485Y-17961D01*
X15635Y-17961D01*
X15635Y-17493D01*
X15635Y-16889D01*
X15635Y-16810D01*
X15635Y-16206D01*
X15569Y-16176D01*
X15548Y-16180D01*
X15400Y-16260D01*
X15295Y-16390D01*
X15250Y-16543D01*
X15204Y-16390D01*
X15099Y-16260D01*
X14951Y-16180D01*
X14930Y-16176D01*
X14864Y-16206D01*
X14864Y-16810D01*
X15247Y-16810D01*
X15252Y-16810D01*
X15635Y-16810D01*
X15635Y-16889D01*
X15252Y-16889D01*
X15247Y-16889D01*
X14864Y-16889D01*
X14864Y-17493D01*
X14930Y-17523D01*
X14951Y-17519D01*
X15099Y-17439D01*
X15204Y-17309D01*
X15250Y-17156D01*
X15295Y-17309D01*
X15400Y-17439D01*
X15548Y-17519D01*
X15569Y-17523D01*
X15635Y-17493D01*
X15635Y-17961D01*
X14785Y-17961D01*
X14785Y-17493D01*
X14785Y-16889D01*
X14785Y-16810D01*
X14785Y-16206D01*
X14785Y-15793D01*
X14785Y-15189D01*
X14397Y-15189D01*
X14397Y-15449D01*
X14445Y-15609D01*
X14550Y-15739D01*
X14698Y-15819D01*
X14719Y-15823D01*
X14785Y-15793D01*
X14785Y-16206D01*
X14719Y-16176D01*
X14698Y-16180D01*
X14550Y-16260D01*
X14445Y-16390D01*
X14397Y-16550D01*
X14397Y-16810D01*
X14785Y-16810D01*
X14785Y-16889D01*
X14397Y-16889D01*
X14397Y-17149D01*
X14445Y-17309D01*
X14550Y-17439D01*
X14698Y-17519D01*
X14719Y-17523D01*
X14785Y-17493D01*
X14785Y-17961D01*
X11609Y-17961D01*
X11609Y-15750D01*
X11413Y-15264D01*
X11399Y-15242D01*
X11237Y-15108D01*
X11181Y-15164D01*
X11181Y-15052D01*
X11047Y-14890D01*
X10564Y-14685D01*
X10259Y-14682D01*
X10259Y-12815D01*
X10000Y-12555D01*
X9944Y-12611D01*
X9944Y-12500D01*
X9684Y-12240D01*
X9613Y-12268D01*
X9554Y-12433D01*
X9562Y-12609D01*
X9613Y-12731D01*
X9684Y-12759D01*
X9944Y-12500D01*
X9944Y-12611D01*
X9740Y-12815D01*
X9768Y-12886D01*
X9933Y-12945D01*
X10109Y-12937D01*
X10231Y-12886D01*
X10259Y-12815D01*
X10259Y-14682D01*
X10040Y-14680D01*
X9554Y-14876D01*
X9532Y-14890D01*
X9474Y-14961D01*
X9474Y-12406D01*
X9474Y-8406D01*
X9402Y-8231D01*
X9268Y-8098D01*
X9094Y-8026D01*
X8906Y-8025D01*
X8731Y-8097D01*
X8598Y-8231D01*
X8526Y-8405D01*
X8525Y-8593D01*
X8597Y-8768D01*
X8731Y-8901D01*
X8905Y-8973D01*
X9093Y-8974D01*
X9268Y-8902D01*
X9401Y-8768D01*
X9473Y-8594D01*
X9474Y-8406D01*
X9474Y-12406D01*
X9445Y-12337D01*
X9445Y-9566D01*
X9437Y-9390D01*
X9386Y-9268D01*
X9315Y-9240D01*
X9259Y-9295D01*
X9259Y-9184D01*
X9231Y-9113D01*
X9066Y-9054D01*
X8890Y-9062D01*
X8768Y-9113D01*
X8740Y-9184D01*
X9000Y-9444D01*
X9259Y-9184D01*
X9259Y-9295D01*
X9055Y-9500D01*
X9315Y-9759D01*
X9386Y-9731D01*
X9445Y-9566D01*
X9445Y-12337D01*
X9402Y-12231D01*
X9268Y-12098D01*
X9259Y-12094D01*
X9259Y-9815D01*
X9000Y-9555D01*
X8944Y-9611D01*
X8944Y-9500D01*
X8684Y-9240D01*
X8613Y-9268D01*
X8554Y-9433D01*
X8562Y-9609D01*
X8613Y-9731D01*
X8684Y-9759D01*
X8944Y-9500D01*
X8944Y-9611D01*
X8740Y-9815D01*
X8768Y-9886D01*
X8933Y-9945D01*
X9109Y-9937D01*
X9231Y-9886D01*
X9259Y-9815D01*
X9259Y-12094D01*
X9094Y-12026D01*
X8906Y-12025D01*
X8731Y-12097D01*
X8598Y-12231D01*
X8526Y-12405D01*
X8525Y-12593D01*
X8597Y-12768D01*
X8731Y-12901D01*
X8905Y-12973D01*
X9093Y-12974D01*
X9268Y-12902D01*
X9401Y-12768D01*
X9473Y-12594D01*
X9474Y-12406D01*
X9474Y-14961D01*
X9398Y-15052D01*
X10290Y-15944D01*
X11181Y-15052D01*
X11181Y-15164D01*
X10345Y-16000D01*
X11237Y-16891D01*
X11399Y-16757D01*
X11604Y-16274D01*
X11609Y-15750D01*
X11609Y-17961D01*
X11181Y-17961D01*
X11181Y-16947D01*
X10290Y-16055D01*
X10234Y-16111D01*
X10234Y-16000D01*
X9342Y-15108D01*
X9180Y-15242D01*
X8975Y-15725D01*
X8970Y-16249D01*
X9166Y-16735D01*
X9180Y-16757D01*
X9342Y-16891D01*
X10234Y-16000D01*
X10234Y-16111D01*
X9398Y-16947D01*
X9532Y-17109D01*
X10015Y-17314D01*
X10539Y-17319D01*
X11025Y-17123D01*
X11047Y-17109D01*
X11181Y-16947D01*
X11181Y-17961D01*
X8474Y-17961D01*
X8474Y-8406D01*
X8402Y-8231D01*
X8268Y-8098D01*
X8094Y-8026D01*
X7906Y-8025D01*
X7731Y-8097D01*
X7598Y-8231D01*
X7526Y-8405D01*
X7525Y-8593D01*
X7597Y-8768D01*
X7731Y-8901D01*
X7905Y-8973D01*
X8093Y-8974D01*
X8268Y-8902D01*
X8401Y-8768D01*
X8473Y-8594D01*
X8474Y-8406D01*
X8474Y-17961D01*
X8198Y-17961D01*
X7839Y-17601D01*
X7839Y-14300D01*
X7838Y-14299D01*
X7820Y-14208D01*
X7768Y-14131D01*
X7768Y-14131D01*
X7468Y-13831D01*
X7412Y-13793D01*
X7422Y-13783D01*
X7498Y-13599D01*
X7499Y-13401D01*
X7499Y-9401D01*
X7474Y-9340D01*
X7474Y-8406D01*
X7402Y-8231D01*
X7268Y-8098D01*
X7094Y-8026D01*
X6906Y-8025D01*
X6731Y-8097D01*
X6598Y-8231D01*
X6526Y-8405D01*
X6525Y-8593D01*
X6597Y-8768D01*
X6731Y-8901D01*
X6905Y-8973D01*
X7093Y-8974D01*
X7268Y-8902D01*
X7401Y-8768D01*
X7473Y-8594D01*
X7474Y-8406D01*
X7474Y-9340D01*
X7423Y-9217D01*
X7283Y-9077D01*
X7099Y-9001D01*
X6901Y-9000D01*
X6717Y-9076D01*
X6577Y-9216D01*
X6501Y-9400D01*
X6500Y-9598D01*
X6576Y-9782D01*
X6716Y-9922D01*
X6900Y-9998D01*
X7098Y-9999D01*
X7282Y-9923D01*
X7422Y-9783D01*
X7498Y-9599D01*
X7499Y-9401D01*
X7499Y-13401D01*
X7423Y-13217D01*
X7283Y-13077D01*
X7099Y-13001D01*
X6901Y-13000D01*
X6717Y-13076D01*
X6577Y-13216D01*
X6501Y-13400D01*
X6500Y-13598D01*
X6567Y-13761D01*
X6431Y-13761D01*
X6498Y-13599D01*
X6499Y-13401D01*
X6423Y-13217D01*
X6283Y-13077D01*
X6099Y-13001D01*
X5901Y-13000D01*
X5739Y-13067D01*
X5739Y-10098D01*
X5857Y-9980D01*
X5900Y-9998D01*
X6098Y-9999D01*
X6282Y-9923D01*
X6422Y-9783D01*
X6498Y-9599D01*
X6499Y-9401D01*
X6423Y-9217D01*
X6283Y-9077D01*
X6099Y-9001D01*
X5901Y-9000D01*
X5791Y-9046D01*
X5876Y-8961D01*
X5905Y-8973D01*
X6093Y-8974D01*
X6268Y-8902D01*
X6401Y-8768D01*
X6473Y-8594D01*
X6474Y-8406D01*
X6402Y-8231D01*
X6268Y-8098D01*
X6094Y-8026D01*
X5906Y-8025D01*
X5731Y-8097D01*
X5598Y-8231D01*
X5526Y-8405D01*
X5525Y-8593D01*
X5538Y-8623D01*
X5331Y-8831D01*
X5279Y-8908D01*
X5261Y-9000D01*
X5261Y-9068D01*
X5239Y-9058D01*
X5239Y-8500D01*
X5220Y-8408D01*
X5168Y-8331D01*
X5168Y-8331D01*
X4461Y-7623D01*
X4473Y-7594D01*
X4474Y-7406D01*
X4402Y-7231D01*
X4268Y-7098D01*
X4094Y-7026D01*
X3906Y-7025D01*
X3739Y-7094D01*
X3739Y-6904D01*
X3905Y-6973D01*
X4093Y-6974D01*
X4268Y-6902D01*
X4401Y-6768D01*
X4413Y-6739D01*
X10901Y-6739D01*
X12254Y-8092D01*
X12094Y-8026D01*
X11906Y-8025D01*
X11731Y-8097D01*
X11598Y-8231D01*
X11526Y-8405D01*
X11525Y-8593D01*
X11597Y-8768D01*
X11731Y-8901D01*
X11905Y-8973D01*
X12093Y-8974D01*
X12268Y-8902D01*
X12401Y-8768D01*
X12473Y-8594D01*
X12474Y-8406D01*
X12407Y-8245D01*
X12538Y-8376D01*
X12526Y-8405D01*
X12525Y-8593D01*
X12597Y-8768D01*
X12648Y-8819D01*
X12631Y-8831D01*
X12331Y-9131D01*
X12319Y-9148D01*
X12268Y-9098D01*
X12094Y-9026D01*
X11906Y-9025D01*
X11731Y-9097D01*
X11598Y-9231D01*
X11526Y-9405D01*
X11525Y-9593D01*
X11597Y-9768D01*
X11731Y-9901D01*
X11905Y-9973D01*
X12093Y-9974D01*
X12254Y-9907D01*
X10831Y-11331D01*
X10779Y-11408D01*
X10761Y-11500D01*
X10761Y-12085D01*
X10739Y-12094D01*
X10739Y-10098D01*
X10876Y-9961D01*
X10905Y-9973D01*
X11093Y-9974D01*
X11268Y-9902D01*
X11401Y-9768D01*
X11473Y-9594D01*
X11474Y-9406D01*
X11474Y-8406D01*
X11402Y-8231D01*
X11268Y-8098D01*
X11094Y-8026D01*
X10906Y-8025D01*
X10731Y-8097D01*
X10598Y-8231D01*
X10526Y-8405D01*
X10525Y-8593D01*
X10597Y-8768D01*
X10731Y-8901D01*
X10905Y-8973D01*
X11093Y-8974D01*
X11268Y-8902D01*
X11401Y-8768D01*
X11473Y-8594D01*
X11474Y-8406D01*
X11474Y-9406D01*
X11402Y-9231D01*
X11268Y-9098D01*
X11094Y-9026D01*
X10906Y-9025D01*
X10731Y-9097D01*
X10598Y-9231D01*
X10526Y-9405D01*
X10525Y-9593D01*
X10538Y-9623D01*
X10407Y-9754D01*
X10473Y-9594D01*
X10474Y-9406D01*
X10474Y-8406D01*
X10402Y-8231D01*
X10268Y-8098D01*
X10094Y-8026D01*
X9906Y-8025D01*
X9731Y-8097D01*
X9598Y-8231D01*
X9526Y-8405D01*
X9525Y-8593D01*
X9597Y-8768D01*
X9731Y-8901D01*
X9905Y-8973D01*
X10093Y-8974D01*
X10268Y-8902D01*
X10401Y-8768D01*
X10473Y-8594D01*
X10474Y-8406D01*
X10474Y-9406D01*
X10402Y-9231D01*
X10268Y-9098D01*
X10094Y-9026D01*
X9906Y-9025D01*
X9731Y-9097D01*
X9598Y-9231D01*
X9526Y-9405D01*
X9525Y-9593D01*
X9597Y-9768D01*
X9731Y-9901D01*
X9905Y-9973D01*
X10093Y-9974D01*
X10268Y-9902D01*
X10314Y-9856D01*
X10279Y-9908D01*
X10261Y-10000D01*
X10261Y-12183D01*
X10259Y-12184D01*
X10231Y-12113D01*
X10066Y-12054D01*
X9890Y-12062D01*
X9768Y-12113D01*
X9740Y-12184D01*
X10000Y-12444D01*
X10005Y-12438D01*
X10061Y-12494D01*
X10055Y-12500D01*
X10315Y-12759D01*
X10323Y-12757D01*
X10331Y-12768D01*
X10731Y-13168D01*
X10731Y-13168D01*
X10808Y-13220D01*
X10899Y-13238D01*
X10900Y-13239D01*
X13601Y-13239D01*
X14824Y-14462D01*
X14785Y-14462D01*
X14785Y-14506D01*
X14719Y-14476D01*
X14698Y-14480D01*
X14550Y-14560D01*
X14445Y-14690D01*
X14397Y-14850D01*
X14397Y-15110D01*
X14785Y-15110D01*
X14785Y-15102D01*
X14864Y-15102D01*
X14864Y-15110D01*
X14872Y-15110D01*
X14872Y-15189D01*
X14864Y-15189D01*
X14864Y-15793D01*
X14930Y-15823D01*
X14951Y-15819D01*
X15099Y-15739D01*
X15204Y-15609D01*
X15233Y-15512D01*
X15250Y-15599D01*
X15350Y-15748D01*
X15499Y-15848D01*
X15675Y-15883D01*
X15850Y-15848D01*
X15999Y-15748D01*
X16099Y-15599D01*
X16100Y-15595D01*
X16100Y-15599D01*
X16200Y-15748D01*
X16349Y-15848D01*
X16525Y-15883D01*
X16700Y-15848D01*
X16849Y-15748D01*
X16949Y-15599D01*
X16950Y-15595D01*
X16950Y-15599D01*
X17050Y-15748D01*
X17199Y-15848D01*
X17375Y-15883D01*
X17550Y-15848D01*
X17596Y-15817D01*
X17631Y-15868D01*
X17931Y-16168D01*
X17931Y-16168D01*
X18008Y-16220D01*
X18019Y-16222D01*
X17950Y-16260D01*
X17845Y-16390D01*
X17800Y-16543D01*
X17754Y-16390D01*
X17649Y-16260D01*
X17501Y-16180D01*
X17480Y-16176D01*
X17414Y-16206D01*
X17414Y-16810D01*
X17797Y-16810D01*
X17802Y-16810D01*
X18185Y-16810D01*
X18185Y-16802D01*
X18264Y-16802D01*
X18264Y-16810D01*
X18647Y-16810D01*
X18652Y-16810D01*
X19035Y-16810D01*
X19035Y-16802D01*
X19114Y-16802D01*
X19114Y-16810D01*
X19497Y-16810D01*
X19502Y-16810D01*
X19885Y-16810D01*
X19885Y-16802D01*
X19964Y-16802D01*
X19964Y-16810D01*
X19972Y-16810D01*
X19972Y-16889D01*
X19964Y-16889D01*
X19964Y-17493D01*
X20030Y-17523D01*
X20051Y-17519D01*
X20199Y-17439D01*
X20304Y-17309D01*
X20333Y-17212D01*
X20350Y-17299D01*
X20450Y-17448D01*
X20599Y-17548D01*
X20775Y-17583D01*
X20950Y-17548D01*
X21099Y-17448D01*
X21199Y-17299D01*
X21200Y-17295D01*
X21200Y-17299D01*
X21300Y-17448D01*
X21386Y-17505D01*
X21386Y-17825D01*
X21404Y-17916D01*
X21433Y-17961D01*
X21433Y-17961D01*
G37*
G54D30*
X21433Y-17961D02*
X19885Y-17961D01*
X19885Y-17493D01*
X19885Y-16889D01*
X19502Y-16889D01*
X19497Y-16889D01*
X19114Y-16889D01*
X19114Y-17493D01*
X19180Y-17523D01*
X19201Y-17519D01*
X19349Y-17439D01*
X19454Y-17309D01*
X19500Y-17156D01*
X19545Y-17309D01*
X19650Y-17439D01*
X19798Y-17519D01*
X19819Y-17523D01*
X19885Y-17493D01*
X19885Y-17961D01*
X19035Y-17961D01*
X19035Y-17493D01*
X19035Y-16889D01*
X18652Y-16889D01*
X18647Y-16889D01*
X18264Y-16889D01*
X18264Y-17493D01*
X18330Y-17523D01*
X18351Y-17519D01*
X18499Y-17439D01*
X18604Y-17309D01*
X18650Y-17156D01*
X18695Y-17309D01*
X18800Y-17439D01*
X18948Y-17519D01*
X18969Y-17523D01*
X19035Y-17493D01*
X19035Y-17961D01*
X18185Y-17961D01*
X18185Y-17493D01*
X18185Y-16889D01*
X17802Y-16889D01*
X17797Y-16889D01*
X17414Y-16889D01*
X17414Y-17493D01*
X17480Y-17523D01*
X17501Y-17519D01*
X17649Y-17439D01*
X17754Y-17309D01*
X17800Y-17156D01*
X17845Y-17309D01*
X17950Y-17439D01*
X18098Y-17519D01*
X18119Y-17523D01*
X18185Y-17493D01*
X18185Y-17961D01*
X17335Y-17961D01*
X17335Y-17493D01*
X17335Y-16889D01*
X17335Y-16810D01*
X17335Y-16206D01*
X17269Y-16176D01*
X17248Y-16180D01*
X17100Y-16260D01*
X16995Y-16390D01*
X16950Y-16543D01*
X16904Y-16390D01*
X16799Y-16260D01*
X16651Y-16180D01*
X16630Y-16176D01*
X16564Y-16206D01*
X16564Y-16810D01*
X16947Y-16810D01*
X16952Y-16810D01*
X17335Y-16810D01*
X17335Y-16889D01*
X16952Y-16889D01*
X16947Y-16889D01*
X16564Y-16889D01*
X16564Y-17493D01*
X16630Y-17523D01*
X16651Y-17519D01*
X16799Y-17439D01*
X16904Y-17309D01*
X16950Y-17156D01*
X16995Y-17309D01*
X17100Y-17439D01*
X17248Y-17519D01*
X17269Y-17523D01*
X17335Y-17493D01*
X17335Y-17961D01*
X16485Y-17961D01*
X16485Y-17493D01*
X16485Y-16889D01*
X16485Y-16810D01*
X16485Y-16206D01*
X16419Y-16176D01*
X16398Y-16180D01*
X16250Y-16260D01*
X16145Y-16390D01*
X16100Y-16543D01*
X16054Y-16390D01*
X15949Y-16260D01*
X15801Y-16180D01*
X15780Y-16176D01*
X15714Y-16206D01*
X15714Y-16810D01*
X16097Y-16810D01*
X16102Y-16810D01*
X16485Y-16810D01*
X16485Y-16889D01*
X16102Y-16889D01*
X16097Y-16889D01*
X15714Y-16889D01*
X15714Y-17493D01*
X15780Y-17523D01*
X15801Y-17519D01*
X15949Y-17439D01*
X16054Y-17309D01*
X16100Y-17156D01*
X16145Y-17309D01*
X16250Y-17439D01*
X16398Y-17519D01*
X16419Y-17523D01*
X16485Y-17493D01*
X16485Y-17961D01*
X15635Y-17961D01*
X15635Y-17493D01*
X15635Y-16889D01*
X15635Y-16810D01*
X15635Y-16206D01*
X15569Y-16176D01*
X15548Y-16180D01*
X15400Y-16260D01*
X15295Y-16390D01*
X15250Y-16543D01*
X15204Y-16390D01*
X15099Y-16260D01*
X14951Y-16180D01*
X14930Y-16176D01*
X14864Y-16206D01*
X14864Y-16810D01*
X15247Y-16810D01*
X15252Y-16810D01*
X15635Y-16810D01*
X15635Y-16889D01*
X15252Y-16889D01*
X15247Y-16889D01*
X14864Y-16889D01*
X14864Y-17493D01*
X14930Y-17523D01*
X14951Y-17519D01*
X15099Y-17439D01*
X15204Y-17309D01*
X15250Y-17156D01*
X15295Y-17309D01*
X15400Y-17439D01*
X15548Y-17519D01*
X15569Y-17523D01*
X15635Y-17493D01*
X15635Y-17961D01*
X14785Y-17961D01*
X14785Y-17493D01*
X14785Y-16889D01*
X14785Y-16810D01*
X14785Y-16206D01*
X14785Y-15793D01*
X14785Y-15189D01*
X14397Y-15189D01*
X14397Y-15449D01*
X14445Y-15609D01*
X14550Y-15739D01*
X14698Y-15819D01*
X14719Y-15823D01*
X14785Y-15793D01*
X14785Y-16206D01*
X14719Y-16176D01*
X14698Y-16180D01*
X14550Y-16260D01*
X14445Y-16390D01*
X14397Y-16550D01*
X14397Y-16810D01*
X14785Y-16810D01*
X14785Y-16889D01*
X14397Y-16889D01*
X14397Y-17149D01*
X14445Y-17309D01*
X14550Y-17439D01*
X14698Y-17519D01*
X14719Y-17523D01*
X14785Y-17493D01*
X14785Y-17961D01*
X11609Y-17961D01*
X11609Y-15750D01*
X11413Y-15264D01*
X11399Y-15242D01*
X11237Y-15108D01*
X11181Y-15164D01*
X11181Y-15052D01*
X11047Y-14890D01*
X10564Y-14685D01*
X10259Y-14682D01*
X10259Y-12815D01*
X10000Y-12555D01*
X9944Y-12611D01*
X9944Y-12500D01*
X9684Y-12240D01*
X9613Y-12268D01*
X9554Y-12433D01*
X9562Y-12609D01*
X9613Y-12731D01*
X9684Y-12759D01*
X9944Y-12500D01*
X9944Y-12611D01*
X9740Y-12815D01*
X9768Y-12886D01*
X9933Y-12945D01*
X10109Y-12937D01*
X10231Y-12886D01*
X10259Y-12815D01*
X10259Y-14682D01*
X10040Y-14680D01*
X9554Y-14876D01*
X9532Y-14890D01*
X9474Y-14961D01*
X9474Y-12406D01*
X9474Y-8406D01*
X9402Y-8231D01*
X9268Y-8098D01*
X9094Y-8026D01*
X8906Y-8025D01*
X8731Y-8097D01*
X8598Y-8231D01*
X8526Y-8405D01*
X8525Y-8593D01*
X8597Y-8768D01*
X8731Y-8901D01*
X8905Y-8973D01*
X9093Y-8974D01*
X9268Y-8902D01*
X9401Y-8768D01*
X9473Y-8594D01*
X9474Y-8406D01*
X9474Y-12406D01*
X9445Y-12337D01*
X9445Y-9566D01*
X9437Y-9390D01*
X9386Y-9268D01*
X9315Y-9240D01*
X9259Y-9295D01*
X9259Y-9184D01*
X9231Y-9113D01*
X9066Y-9054D01*
X8890Y-9062D01*
X8768Y-9113D01*
X8740Y-9184D01*
X9000Y-9444D01*
X9259Y-9184D01*
X9259Y-9295D01*
X9055Y-9500D01*
X9315Y-9759D01*
X9386Y-9731D01*
X9445Y-9566D01*
X9445Y-12337D01*
X9402Y-12231D01*
X9268Y-12098D01*
X9259Y-12094D01*
X9259Y-9815D01*
X9000Y-9555D01*
X8944Y-9611D01*
X8944Y-9500D01*
X8684Y-9240D01*
X8613Y-9268D01*
X8554Y-9433D01*
X8562Y-9609D01*
X8613Y-9731D01*
X8684Y-9759D01*
X8944Y-9500D01*
X8944Y-9611D01*
X8740Y-9815D01*
X8768Y-9886D01*
X8933Y-9945D01*
X9109Y-9937D01*
X9231Y-9886D01*
X9259Y-9815D01*
X9259Y-12094D01*
X9094Y-12026D01*
X8906Y-12025D01*
X8731Y-12097D01*
X8598Y-12231D01*
X8526Y-12405D01*
X8525Y-12593D01*
X8597Y-12768D01*
X8731Y-12901D01*
X8905Y-12973D01*
X9093Y-12974D01*
X9268Y-12902D01*
X9401Y-12768D01*
X9473Y-12594D01*
X9474Y-12406D01*
X9474Y-14961D01*
X9398Y-15052D01*
X10290Y-15944D01*
X11181Y-15052D01*
X11181Y-15164D01*
X10345Y-16000D01*
X11237Y-16891D01*
X11399Y-16757D01*
X11604Y-16274D01*
X11609Y-15750D01*
X11609Y-17961D01*
X11181Y-17961D01*
X11181Y-16947D01*
X10290Y-16055D01*
X10234Y-16111D01*
X10234Y-16000D01*
X9342Y-15108D01*
X9180Y-15242D01*
X8975Y-15725D01*
X8970Y-16249D01*
X9166Y-16735D01*
X9180Y-16757D01*
X9342Y-16891D01*
X10234Y-16000D01*
X10234Y-16111D01*
X9398Y-16947D01*
X9532Y-17109D01*
X10015Y-17314D01*
X10539Y-17319D01*
X11025Y-17123D01*
X11047Y-17109D01*
X11181Y-16947D01*
X11181Y-17961D01*
X8474Y-17961D01*
X8474Y-8406D01*
X8402Y-8231D01*
X8268Y-8098D01*
X8094Y-8026D01*
X7906Y-8025D01*
X7731Y-8097D01*
X7598Y-8231D01*
X7526Y-8405D01*
X7525Y-8593D01*
X7597Y-8768D01*
X7731Y-8901D01*
X7905Y-8973D01*
X8093Y-8974D01*
X8268Y-8902D01*
X8401Y-8768D01*
X8473Y-8594D01*
X8474Y-8406D01*
X8474Y-17961D01*
X8198Y-17961D01*
X7839Y-17601D01*
X7839Y-14300D01*
X7838Y-14299D01*
X7820Y-14208D01*
X7768Y-14131D01*
X7768Y-14131D01*
X7468Y-13831D01*
X7412Y-13793D01*
X7422Y-13783D01*
X7498Y-13599D01*
X7499Y-13401D01*
X7499Y-9401D01*
X7474Y-9340D01*
X7474Y-8406D01*
X7402Y-8231D01*
X7268Y-8098D01*
X7094Y-8026D01*
X6906Y-8025D01*
X6731Y-8097D01*
X6598Y-8231D01*
X6526Y-8405D01*
X6525Y-8593D01*
X6597Y-8768D01*
X6731Y-8901D01*
X6905Y-8973D01*
X7093Y-8974D01*
X7268Y-8902D01*
X7401Y-8768D01*
X7473Y-8594D01*
X7474Y-8406D01*
X7474Y-9340D01*
X7423Y-9217D01*
X7283Y-9077D01*
X7099Y-9001D01*
X6901Y-9000D01*
X6717Y-9076D01*
X6577Y-9216D01*
X6501Y-9400D01*
X6500Y-9598D01*
X6576Y-9782D01*
X6716Y-9922D01*
X6900Y-9998D01*
X7098Y-9999D01*
X7282Y-9923D01*
X7422Y-9783D01*
X7498Y-9599D01*
X7499Y-9401D01*
X7499Y-13401D01*
X7423Y-13217D01*
X7283Y-13077D01*
X7099Y-13001D01*
X6901Y-13000D01*
X6717Y-13076D01*
X6577Y-13216D01*
X6501Y-13400D01*
X6500Y-13598D01*
X6567Y-13761D01*
X6431Y-13761D01*
X6498Y-13599D01*
X6499Y-13401D01*
X6423Y-13217D01*
X6283Y-13077D01*
X6099Y-13001D01*
X5901Y-13000D01*
X5739Y-13067D01*
X5739Y-10098D01*
X5857Y-9980D01*
X5900Y-9998D01*
X6098Y-9999D01*
X6282Y-9923D01*
X6422Y-9783D01*
X6498Y-9599D01*
X6499Y-9401D01*
X6423Y-9217D01*
X6283Y-9077D01*
X6099Y-9001D01*
X5901Y-9000D01*
X5791Y-9046D01*
X5876Y-8961D01*
X5905Y-8973D01*
X6093Y-8974D01*
X6268Y-8902D01*
X6401Y-8768D01*
X6473Y-8594D01*
X6474Y-8406D01*
X6402Y-8231D01*
X6268Y-8098D01*
X6094Y-8026D01*
X5906Y-8025D01*
X5731Y-8097D01*
X5598Y-8231D01*
X5526Y-8405D01*
X5525Y-8593D01*
X5538Y-8623D01*
X5331Y-8831D01*
X5279Y-8908D01*
X5261Y-9000D01*
X5261Y-9068D01*
X5239Y-9058D01*
X5239Y-8500D01*
X5220Y-8408D01*
X5168Y-8331D01*
X5168Y-8331D01*
X4461Y-7623D01*
X4473Y-7594D01*
X4474Y-7406D01*
X4402Y-7231D01*
X4268Y-7098D01*
X4094Y-7026D01*
X3906Y-7025D01*
X3739Y-7094D01*
X3739Y-6904D01*
X3905Y-6973D01*
X4093Y-6974D01*
X4268Y-6902D01*
X4401Y-6768D01*
X4413Y-6739D01*
X10901Y-6739D01*
X12254Y-8092D01*
X12094Y-8026D01*
X11906Y-8025D01*
X11731Y-8097D01*
X11598Y-8231D01*
X11526Y-8405D01*
X11525Y-8593D01*
X11597Y-8768D01*
X11731Y-8901D01*
X11905Y-8973D01*
X12093Y-8974D01*
X12268Y-8902D01*
X12401Y-8768D01*
X12473Y-8594D01*
X12474Y-8406D01*
X12407Y-8245D01*
X12538Y-8376D01*
X12526Y-8405D01*
X12525Y-8593D01*
X12597Y-8768D01*
X12648Y-8819D01*
X12631Y-8831D01*
X12331Y-9131D01*
X12319Y-9148D01*
X12268Y-9098D01*
X12094Y-9026D01*
X11906Y-9025D01*
X11731Y-9097D01*
X11598Y-9231D01*
X11526Y-9405D01*
X11525Y-9593D01*
X11597Y-9768D01*
X11731Y-9901D01*
X11905Y-9973D01*
X12093Y-9974D01*
X12254Y-9907D01*
X10831Y-11331D01*
X10779Y-11408D01*
X10761Y-11500D01*
X10761Y-12085D01*
X10739Y-12094D01*
X10739Y-10098D01*
X10876Y-9961D01*
X10905Y-9973D01*
X11093Y-9974D01*
X11268Y-9902D01*
X11401Y-9768D01*
X11473Y-9594D01*
X11474Y-9406D01*
X11474Y-8406D01*
X11402Y-8231D01*
X11268Y-8098D01*
X11094Y-8026D01*
X10906Y-8025D01*
X10731Y-8097D01*
X10598Y-8231D01*
X10526Y-8405D01*
X10525Y-8593D01*
X10597Y-8768D01*
X10731Y-8901D01*
X10905Y-8973D01*
X11093Y-8974D01*
X11268Y-8902D01*
X11401Y-8768D01*
X11473Y-8594D01*
X11474Y-8406D01*
X11474Y-9406D01*
X11402Y-9231D01*
X11268Y-9098D01*
X11094Y-9026D01*
X10906Y-9025D01*
X10731Y-9097D01*
X10598Y-9231D01*
X10526Y-9405D01*
X10525Y-9593D01*
X10538Y-9623D01*
X10407Y-9754D01*
X10473Y-9594D01*
X10474Y-9406D01*
X10474Y-8406D01*
X10402Y-8231D01*
X10268Y-8098D01*
X10094Y-8026D01*
X9906Y-8025D01*
X9731Y-8097D01*
X9598Y-8231D01*
X9526Y-8405D01*
X9525Y-8593D01*
X9597Y-8768D01*
X9731Y-8901D01*
X9905Y-8973D01*
X10093Y-8974D01*
X10268Y-8902D01*
X10401Y-8768D01*
X10473Y-8594D01*
X10474Y-8406D01*
X10474Y-9406D01*
X10402Y-9231D01*
X10268Y-9098D01*
X10094Y-9026D01*
X9906Y-9025D01*
X9731Y-9097D01*
X9598Y-9231D01*
X9526Y-9405D01*
X9525Y-9593D01*
X9597Y-9768D01*
X9731Y-9901D01*
X9905Y-9973D01*
X10093Y-9974D01*
X10268Y-9902D01*
X10314Y-9856D01*
X10279Y-9908D01*
X10261Y-10000D01*
X10261Y-12183D01*
X10259Y-12184D01*
X10231Y-12113D01*
X10066Y-12054D01*
X9890Y-12062D01*
X9768Y-12113D01*
X9740Y-12184D01*
X10000Y-12444D01*
X10005Y-12438D01*
X10061Y-12494D01*
X10055Y-12500D01*
X10315Y-12759D01*
X10323Y-12757D01*
X10331Y-12768D01*
X10731Y-13168D01*
X10731Y-13168D01*
X10808Y-13220D01*
X10899Y-13238D01*
X10900Y-13239D01*
X13601Y-13239D01*
X14824Y-14462D01*
X14785Y-14462D01*
X14785Y-14506D01*
X14719Y-14476D01*
X14698Y-14480D01*
X14550Y-14560D01*
X14445Y-14690D01*
X14397Y-14850D01*
X14397Y-15110D01*
X14785Y-15110D01*
X14785Y-15102D01*
X14864Y-15102D01*
X14864Y-15110D01*
X14872Y-15110D01*
X14872Y-15189D01*
X14864Y-15189D01*
X14864Y-15793D01*
X14930Y-15823D01*
X14951Y-15819D01*
X15099Y-15739D01*
X15204Y-15609D01*
X15233Y-15512D01*
X15250Y-15599D01*
X15350Y-15748D01*
X15499Y-15848D01*
X15675Y-15883D01*
X15850Y-15848D01*
X15999Y-15748D01*
X16099Y-15599D01*
X16100Y-15595D01*
X16100Y-15599D01*
X16200Y-15748D01*
X16349Y-15848D01*
X16525Y-15883D01*
X16700Y-15848D01*
X16849Y-15748D01*
X16949Y-15599D01*
X16950Y-15595D01*
X16950Y-15599D01*
X17050Y-15748D01*
X17199Y-15848D01*
X17375Y-15883D01*
X17550Y-15848D01*
X17596Y-15817D01*
X17631Y-15868D01*
X17931Y-16168D01*
X17931Y-16168D01*
X18008Y-16220D01*
X18019Y-16222D01*
X17950Y-16260D01*
X17845Y-16390D01*
X17800Y-16543D01*
X17754Y-16390D01*
X17649Y-16260D01*
X17501Y-16180D01*
X17480Y-16176D01*
X17414Y-16206D01*
X17414Y-16810D01*
X17797Y-16810D01*
X17802Y-16810D01*
X18185Y-16810D01*
X18185Y-16802D01*
X18264Y-16802D01*
X18264Y-16810D01*
X18647Y-16810D01*
X18652Y-16810D01*
X19035Y-16810D01*
X19035Y-16802D01*
X19114Y-16802D01*
X19114Y-16810D01*
X19497Y-16810D01*
X19502Y-16810D01*
X19885Y-16810D01*
X19885Y-16802D01*
X19964Y-16802D01*
X19964Y-16810D01*
X19972Y-16810D01*
X19972Y-16889D01*
X19964Y-16889D01*
X19964Y-17493D01*
X20030Y-17523D01*
X20051Y-17519D01*
X20199Y-17439D01*
X20304Y-17309D01*
X20333Y-17212D01*
X20350Y-17299D01*
X20450Y-17448D01*
X20599Y-17548D01*
X20775Y-17583D01*
X20950Y-17548D01*
X21099Y-17448D01*
X21199Y-17299D01*
X21200Y-17295D01*
X21200Y-17299D01*
X21300Y-17448D01*
X21386Y-17505D01*
X21386Y-17825D01*
X21404Y-17916D01*
X21433Y-17961D01*
G54D10*
G36*
X23200Y-13761D02*
X23156Y-13806D01*
X23104Y-13883D01*
X23086Y-13975D01*
X23086Y-14494D01*
X23000Y-14551D01*
X22900Y-14700D01*
X22900Y-14704D01*
X22899Y-14700D01*
X22799Y-14551D01*
X22650Y-14451D01*
X22475Y-14416D01*
X22299Y-14451D01*
X22150Y-14551D01*
X22050Y-14700D01*
X22050Y-14704D01*
X22049Y-14700D01*
X21949Y-14551D01*
X21800Y-14451D01*
X21625Y-14416D01*
X21449Y-14451D01*
X21300Y-14551D01*
X21200Y-14700D01*
X21200Y-14704D01*
X21199Y-14700D01*
X21099Y-14551D01*
X20950Y-14451D01*
X20775Y-14416D01*
X20599Y-14451D01*
X20450Y-14551D01*
X20350Y-14700D01*
X20350Y-14704D01*
X20349Y-14700D01*
X20249Y-14551D01*
X20100Y-14451D01*
X19925Y-14416D01*
X19749Y-14451D01*
X19600Y-14551D01*
X19500Y-14700D01*
X19500Y-14704D01*
X19499Y-14700D01*
X19399Y-14551D01*
X19314Y-14494D01*
X19314Y-14423D01*
X19698Y-14039D01*
X21400Y-14039D01*
X21491Y-14020D01*
X21491Y-14020D01*
X21568Y-13968D01*
X22168Y-13368D01*
X22168Y-13368D01*
X22220Y-13291D01*
X22238Y-13200D01*
X22239Y-13200D01*
X22239Y-12941D01*
X22282Y-12923D01*
X22422Y-12783D01*
X22498Y-12599D01*
X22499Y-12401D01*
X22423Y-12217D01*
X22283Y-12077D01*
X22099Y-12001D01*
X21901Y-12000D01*
X21717Y-12076D01*
X21577Y-12216D01*
X21501Y-12400D01*
X21500Y-12598D01*
X21576Y-12782D01*
X21716Y-12922D01*
X21761Y-12941D01*
X21761Y-13101D01*
X21301Y-13561D01*
X20876Y-13561D01*
X21168Y-13268D01*
X21168Y-13268D01*
X21220Y-13191D01*
X21238Y-13100D01*
X21239Y-13100D01*
X21239Y-12941D01*
X21282Y-12923D01*
X21422Y-12783D01*
X21498Y-12599D01*
X21499Y-12401D01*
X21423Y-12217D01*
X21283Y-12077D01*
X21099Y-12001D01*
X20901Y-12000D01*
X20717Y-12076D01*
X20577Y-12216D01*
X20501Y-12400D01*
X20500Y-12598D01*
X20576Y-12782D01*
X20716Y-12922D01*
X20761Y-12941D01*
X20761Y-13001D01*
X20501Y-13261D01*
X19000Y-13261D01*
X18908Y-13279D01*
X18831Y-13331D01*
X18056Y-14106D01*
X18004Y-14183D01*
X17986Y-14275D01*
X17986Y-14494D01*
X17953Y-14515D01*
X17668Y-14231D01*
X17591Y-14179D01*
X17500Y-14161D01*
X17499Y-14161D01*
X17499Y-12401D01*
X17499Y-9401D01*
X17423Y-9217D01*
X17283Y-9077D01*
X17099Y-9001D01*
X16901Y-9000D01*
X16717Y-9076D01*
X16577Y-9216D01*
X16501Y-9400D01*
X16500Y-9598D01*
X16576Y-9782D01*
X16716Y-9922D01*
X16900Y-9998D01*
X17098Y-9999D01*
X17282Y-9923D01*
X17422Y-9783D01*
X17498Y-9599D01*
X17499Y-9401D01*
X17499Y-12401D01*
X17423Y-12217D01*
X17283Y-12077D01*
X17099Y-12001D01*
X16901Y-12000D01*
X16717Y-12076D01*
X16577Y-12216D01*
X16501Y-12400D01*
X16500Y-12598D01*
X16576Y-12782D01*
X16716Y-12922D01*
X16900Y-12998D01*
X17098Y-12999D01*
X17282Y-12923D01*
X17422Y-12783D01*
X17498Y-12599D01*
X17499Y-12401D01*
X17499Y-14161D01*
X16474Y-14161D01*
X16474Y-12406D01*
X16445Y-12337D01*
X16445Y-10566D01*
X16437Y-10390D01*
X16386Y-10268D01*
X16315Y-10240D01*
X16055Y-10500D01*
X16315Y-10759D01*
X16386Y-10731D01*
X16445Y-10566D01*
X16445Y-12337D01*
X16402Y-12231D01*
X16268Y-12098D01*
X16259Y-12094D01*
X16259Y-10815D01*
X16000Y-10555D01*
X15740Y-10815D01*
X15768Y-10886D01*
X15933Y-10945D01*
X16109Y-10937D01*
X16231Y-10886D01*
X16259Y-10815D01*
X16259Y-12094D01*
X16094Y-12026D01*
X15906Y-12025D01*
X15731Y-12097D01*
X15598Y-12231D01*
X15526Y-12405D01*
X15525Y-12593D01*
X15597Y-12768D01*
X15731Y-12901D01*
X15905Y-12973D01*
X16093Y-12974D01*
X16268Y-12902D01*
X16401Y-12768D01*
X16473Y-12594D01*
X16474Y-12406D01*
X16474Y-14161D01*
X15998Y-14161D01*
X14745Y-12907D01*
X14905Y-12973D01*
X15093Y-12974D01*
X15268Y-12902D01*
X15401Y-12768D01*
X15473Y-12594D01*
X15474Y-12406D01*
X15402Y-12231D01*
X15329Y-12158D01*
X15329Y-10636D01*
X15566Y-10398D01*
X15554Y-10433D01*
X15562Y-10609D01*
X15613Y-10731D01*
X15684Y-10759D01*
X15944Y-10500D01*
X15938Y-10494D01*
X15994Y-10438D01*
X16000Y-10444D01*
X16259Y-10184D01*
X16231Y-10113D01*
X16066Y-10054D01*
X15903Y-10062D01*
X16232Y-9732D01*
X16303Y-9625D01*
X16303Y-9625D01*
X16329Y-9500D01*
X16329Y-8841D01*
X16401Y-8768D01*
X16473Y-8594D01*
X16474Y-8406D01*
X16445Y-8337D01*
X16445Y-6566D01*
X16437Y-6390D01*
X16386Y-6268D01*
X16315Y-6240D01*
X16055Y-6500D01*
X16315Y-6759D01*
X16386Y-6731D01*
X16445Y-6566D01*
X16445Y-8337D01*
X16402Y-8231D01*
X16268Y-8098D01*
X16259Y-8094D01*
X16259Y-6815D01*
X16000Y-6555D01*
X15740Y-6815D01*
X15768Y-6886D01*
X15933Y-6945D01*
X16109Y-6937D01*
X16231Y-6886D01*
X16259Y-6815D01*
X16259Y-8094D01*
X16094Y-8026D01*
X15906Y-8025D01*
X15731Y-8097D01*
X15598Y-8231D01*
X15526Y-8405D01*
X15525Y-8593D01*
X15597Y-8768D01*
X15671Y-8841D01*
X15671Y-9363D01*
X15474Y-9560D01*
X15474Y-9185D01*
X15443Y-9112D01*
X15387Y-9056D01*
X15314Y-9026D01*
X15235Y-9025D01*
X14863Y-9025D01*
X14745Y-8907D01*
X14905Y-8973D01*
X15093Y-8974D01*
X15268Y-8902D01*
X15401Y-8768D01*
X15473Y-8594D01*
X15474Y-8406D01*
X15402Y-8231D01*
X15268Y-8098D01*
X15094Y-8026D01*
X14906Y-8025D01*
X14739Y-8094D01*
X14739Y-7398D01*
X15561Y-6576D01*
X15562Y-6609D01*
X15613Y-6731D01*
X15684Y-6759D01*
X15944Y-6500D01*
X15938Y-6494D01*
X15994Y-6438D01*
X16000Y-6444D01*
X16259Y-6184D01*
X16231Y-6113D01*
X16079Y-6058D01*
X16512Y-5625D01*
X16576Y-5782D01*
X16716Y-5922D01*
X16900Y-5998D01*
X17098Y-5999D01*
X17282Y-5923D01*
X17422Y-5783D01*
X17498Y-5599D01*
X17499Y-5437D01*
X18761Y-6698D01*
X18761Y-11085D01*
X18731Y-11097D01*
X18598Y-11231D01*
X18526Y-11405D01*
X18525Y-11593D01*
X18597Y-11768D01*
X18731Y-11901D01*
X18905Y-11973D01*
X19093Y-11974D01*
X19268Y-11902D01*
X19401Y-11768D01*
X19473Y-11594D01*
X19474Y-11406D01*
X19402Y-11231D01*
X19268Y-11098D01*
X19259Y-11094D01*
X19239Y-11086D01*
X19239Y-6600D01*
X19220Y-6508D01*
X19220Y-6508D01*
X19168Y-6431D01*
X17589Y-4851D01*
X17589Y-4441D01*
X17632Y-4423D01*
X17772Y-4283D01*
X17848Y-4099D01*
X17849Y-3901D01*
X17782Y-3739D01*
X18018Y-3739D01*
X17951Y-3900D01*
X17950Y-4098D01*
X18026Y-4282D01*
X18166Y-4422D01*
X18211Y-4441D01*
X18211Y-4450D01*
X18229Y-4541D01*
X18281Y-4618D01*
X18631Y-4968D01*
X18631Y-4968D01*
X18708Y-5020D01*
X18799Y-5038D01*
X18800Y-5039D01*
X19001Y-5039D01*
X19018Y-5056D01*
X18890Y-5062D01*
X18768Y-5113D01*
X18740Y-5184D01*
X19000Y-5444D01*
X19005Y-5438D01*
X19061Y-5494D01*
X19055Y-5500D01*
X19061Y-5505D01*
X19005Y-5561D01*
X19000Y-5555D01*
X18944Y-5611D01*
X18944Y-5500D01*
X18684Y-5240D01*
X18613Y-5268D01*
X18554Y-5433D01*
X18562Y-5609D01*
X18613Y-5731D01*
X18684Y-5759D01*
X18944Y-5500D01*
X18944Y-5611D01*
X18740Y-5815D01*
X18768Y-5886D01*
X18933Y-5945D01*
X19109Y-5937D01*
X19231Y-5886D01*
X19259Y-5815D01*
X19259Y-5815D01*
X19261Y-5816D01*
X19261Y-6600D01*
X19279Y-6691D01*
X19331Y-6768D01*
X19720Y-7158D01*
X19628Y-7251D01*
X19561Y-7412D01*
X19560Y-7586D01*
X19627Y-7748D01*
X19751Y-7871D01*
X19761Y-7876D01*
X19761Y-11085D01*
X19731Y-11097D01*
X19598Y-11231D01*
X19526Y-11405D01*
X19525Y-11593D01*
X19597Y-11768D01*
X19731Y-11901D01*
X19905Y-11973D01*
X20093Y-11974D01*
X20268Y-11902D01*
X20401Y-11768D01*
X20473Y-11594D01*
X20474Y-11406D01*
X20402Y-11231D01*
X20268Y-11098D01*
X20239Y-11086D01*
X20239Y-7876D01*
X20248Y-7872D01*
X20371Y-7748D01*
X20438Y-7587D01*
X20439Y-7413D01*
X20372Y-7251D01*
X20248Y-7128D01*
X20239Y-7123D01*
X20239Y-7100D01*
X20220Y-7008D01*
X20168Y-6931D01*
X19739Y-6501D01*
X19739Y-5904D01*
X19905Y-5973D01*
X20093Y-5974D01*
X20261Y-5905D01*
X20261Y-6500D01*
X20279Y-6591D01*
X20331Y-6668D01*
X20761Y-7098D01*
X20761Y-8323D01*
X20751Y-8327D01*
X20628Y-8451D01*
X20561Y-8612D01*
X20560Y-8786D01*
X20627Y-8948D01*
X20751Y-9071D01*
X20761Y-9076D01*
X20761Y-11085D01*
X20731Y-11097D01*
X20598Y-11231D01*
X20526Y-11405D01*
X20525Y-11593D01*
X20597Y-11768D01*
X20731Y-11901D01*
X20905Y-11973D01*
X21093Y-11974D01*
X21268Y-11902D01*
X21401Y-11768D01*
X21473Y-11594D01*
X21474Y-11406D01*
X21402Y-11231D01*
X21268Y-11098D01*
X21239Y-11086D01*
X21239Y-9076D01*
X21248Y-9072D01*
X21371Y-8948D01*
X21438Y-8787D01*
X21439Y-8677D01*
X21761Y-8998D01*
X21761Y-11085D01*
X21731Y-11097D01*
X21598Y-11231D01*
X21526Y-11405D01*
X21525Y-11593D01*
X21597Y-11768D01*
X21731Y-11901D01*
X21905Y-11973D01*
X22093Y-11974D01*
X22268Y-11902D01*
X22401Y-11768D01*
X22473Y-11594D01*
X22474Y-11406D01*
X22402Y-11231D01*
X22268Y-11098D01*
X22239Y-11086D01*
X22239Y-8900D01*
X22220Y-8808D01*
X22168Y-8731D01*
X21739Y-8301D01*
X21739Y-5904D01*
X21905Y-5973D01*
X22093Y-5974D01*
X22161Y-5946D01*
X22161Y-8400D01*
X22179Y-8491D01*
X22231Y-8568D01*
X22761Y-9098D01*
X22761Y-11085D01*
X22731Y-11097D01*
X22598Y-11231D01*
X22526Y-11405D01*
X22525Y-11593D01*
X22597Y-11768D01*
X22731Y-11901D01*
X22905Y-11973D01*
X23093Y-11974D01*
X23200Y-11929D01*
X23200Y-13761D01*
X23200Y-13761D01*
G37*
G54D30*
X23200Y-13761D02*
X23156Y-13806D01*
X23104Y-13883D01*
X23086Y-13975D01*
X23086Y-14494D01*
X23000Y-14551D01*
X22900Y-14700D01*
X22900Y-14704D01*
X22899Y-14700D01*
X22799Y-14551D01*
X22650Y-14451D01*
X22475Y-14416D01*
X22299Y-14451D01*
X22150Y-14551D01*
X22050Y-14700D01*
X22050Y-14704D01*
X22049Y-14700D01*
X21949Y-14551D01*
X21800Y-14451D01*
X21625Y-14416D01*
X21449Y-14451D01*
X21300Y-14551D01*
X21200Y-14700D01*
X21200Y-14704D01*
X21199Y-14700D01*
X21099Y-14551D01*
X20950Y-14451D01*
X20775Y-14416D01*
X20599Y-14451D01*
X20450Y-14551D01*
X20350Y-14700D01*
X20350Y-14704D01*
X20349Y-14700D01*
X20249Y-14551D01*
X20100Y-14451D01*
X19925Y-14416D01*
X19749Y-14451D01*
X19600Y-14551D01*
X19500Y-14700D01*
X19500Y-14704D01*
X19499Y-14700D01*
X19399Y-14551D01*
X19314Y-14494D01*
X19314Y-14423D01*
X19698Y-14039D01*
X21400Y-14039D01*
X21491Y-14020D01*
X21491Y-14020D01*
X21568Y-13968D01*
X22168Y-13368D01*
X22168Y-13368D01*
X22220Y-13291D01*
X22238Y-13200D01*
X22239Y-13200D01*
X22239Y-12941D01*
X22282Y-12923D01*
X22422Y-12783D01*
X22498Y-12599D01*
X22499Y-12401D01*
X22423Y-12217D01*
X22283Y-12077D01*
X22099Y-12001D01*
X21901Y-12000D01*
X21717Y-12076D01*
X21577Y-12216D01*
X21501Y-12400D01*
X21500Y-12598D01*
X21576Y-12782D01*
X21716Y-12922D01*
X21761Y-12941D01*
X21761Y-13101D01*
X21301Y-13561D01*
X20876Y-13561D01*
X21168Y-13268D01*
X21168Y-13268D01*
X21220Y-13191D01*
X21238Y-13100D01*
X21239Y-13100D01*
X21239Y-12941D01*
X21282Y-12923D01*
X21422Y-12783D01*
X21498Y-12599D01*
X21499Y-12401D01*
X21423Y-12217D01*
X21283Y-12077D01*
X21099Y-12001D01*
X20901Y-12000D01*
X20717Y-12076D01*
X20577Y-12216D01*
X20501Y-12400D01*
X20500Y-12598D01*
X20576Y-12782D01*
X20716Y-12922D01*
X20761Y-12941D01*
X20761Y-13001D01*
X20501Y-13261D01*
X19000Y-13261D01*
X18908Y-13279D01*
X18831Y-13331D01*
X18056Y-14106D01*
X18004Y-14183D01*
X17986Y-14275D01*
X17986Y-14494D01*
X17953Y-14515D01*
X17668Y-14231D01*
X17591Y-14179D01*
X17500Y-14161D01*
X17499Y-14161D01*
X17499Y-12401D01*
X17499Y-9401D01*
X17423Y-9217D01*
X17283Y-9077D01*
X17099Y-9001D01*
X16901Y-9000D01*
X16717Y-9076D01*
X16577Y-9216D01*
X16501Y-9400D01*
X16500Y-9598D01*
X16576Y-9782D01*
X16716Y-9922D01*
X16900Y-9998D01*
X17098Y-9999D01*
X17282Y-9923D01*
X17422Y-9783D01*
X17498Y-9599D01*
X17499Y-9401D01*
X17499Y-12401D01*
X17423Y-12217D01*
X17283Y-12077D01*
X17099Y-12001D01*
X16901Y-12000D01*
X16717Y-12076D01*
X16577Y-12216D01*
X16501Y-12400D01*
X16500Y-12598D01*
X16576Y-12782D01*
X16716Y-12922D01*
X16900Y-12998D01*
X17098Y-12999D01*
X17282Y-12923D01*
X17422Y-12783D01*
X17498Y-12599D01*
X17499Y-12401D01*
X17499Y-14161D01*
X16474Y-14161D01*
X16474Y-12406D01*
X16445Y-12337D01*
X16445Y-10566D01*
X16437Y-10390D01*
X16386Y-10268D01*
X16315Y-10240D01*
X16055Y-10500D01*
X16315Y-10759D01*
X16386Y-10731D01*
X16445Y-10566D01*
X16445Y-12337D01*
X16402Y-12231D01*
X16268Y-12098D01*
X16259Y-12094D01*
X16259Y-10815D01*
X16000Y-10555D01*
X15740Y-10815D01*
X15768Y-10886D01*
X15933Y-10945D01*
X16109Y-10937D01*
X16231Y-10886D01*
X16259Y-10815D01*
X16259Y-12094D01*
X16094Y-12026D01*
X15906Y-12025D01*
X15731Y-12097D01*
X15598Y-12231D01*
X15526Y-12405D01*
X15525Y-12593D01*
X15597Y-12768D01*
X15731Y-12901D01*
X15905Y-12973D01*
X16093Y-12974D01*
X16268Y-12902D01*
X16401Y-12768D01*
X16473Y-12594D01*
X16474Y-12406D01*
X16474Y-14161D01*
X15998Y-14161D01*
X14745Y-12907D01*
X14905Y-12973D01*
X15093Y-12974D01*
X15268Y-12902D01*
X15401Y-12768D01*
X15473Y-12594D01*
X15474Y-12406D01*
X15402Y-12231D01*
X15329Y-12158D01*
X15329Y-10636D01*
X15566Y-10398D01*
X15554Y-10433D01*
X15562Y-10609D01*
X15613Y-10731D01*
X15684Y-10759D01*
X15944Y-10500D01*
X15938Y-10494D01*
X15994Y-10438D01*
X16000Y-10444D01*
X16259Y-10184D01*
X16231Y-10113D01*
X16066Y-10054D01*
X15903Y-10062D01*
X16232Y-9732D01*
X16303Y-9625D01*
X16303Y-9625D01*
X16329Y-9500D01*
X16329Y-8841D01*
X16401Y-8768D01*
X16473Y-8594D01*
X16474Y-8406D01*
X16445Y-8337D01*
X16445Y-6566D01*
X16437Y-6390D01*
X16386Y-6268D01*
X16315Y-6240D01*
X16055Y-6500D01*
X16315Y-6759D01*
X16386Y-6731D01*
X16445Y-6566D01*
X16445Y-8337D01*
X16402Y-8231D01*
X16268Y-8098D01*
X16259Y-8094D01*
X16259Y-6815D01*
X16000Y-6555D01*
X15740Y-6815D01*
X15768Y-6886D01*
X15933Y-6945D01*
X16109Y-6937D01*
X16231Y-6886D01*
X16259Y-6815D01*
X16259Y-8094D01*
X16094Y-8026D01*
X15906Y-8025D01*
X15731Y-8097D01*
X15598Y-8231D01*
X15526Y-8405D01*
X15525Y-8593D01*
X15597Y-8768D01*
X15671Y-8841D01*
X15671Y-9363D01*
X15474Y-9560D01*
X15474Y-9185D01*
X15443Y-9112D01*
X15387Y-9056D01*
X15314Y-9026D01*
X15235Y-9025D01*
X14863Y-9025D01*
X14745Y-8907D01*
X14905Y-8973D01*
X15093Y-8974D01*
X15268Y-8902D01*
X15401Y-8768D01*
X15473Y-8594D01*
X15474Y-8406D01*
X15402Y-8231D01*
X15268Y-8098D01*
X15094Y-8026D01*
X14906Y-8025D01*
X14739Y-8094D01*
X14739Y-7398D01*
X15561Y-6576D01*
X15562Y-6609D01*
X15613Y-6731D01*
X15684Y-6759D01*
X15944Y-6500D01*
X15938Y-6494D01*
X15994Y-6438D01*
X16000Y-6444D01*
X16259Y-6184D01*
X16231Y-6113D01*
X16079Y-6058D01*
X16512Y-5625D01*
X16576Y-5782D01*
X16716Y-5922D01*
X16900Y-5998D01*
X17098Y-5999D01*
X17282Y-5923D01*
X17422Y-5783D01*
X17498Y-5599D01*
X17499Y-5437D01*
X18761Y-6698D01*
X18761Y-11085D01*
X18731Y-11097D01*
X18598Y-11231D01*
X18526Y-11405D01*
X18525Y-11593D01*
X18597Y-11768D01*
X18731Y-11901D01*
X18905Y-11973D01*
X19093Y-11974D01*
X19268Y-11902D01*
X19401Y-11768D01*
X19473Y-11594D01*
X19474Y-11406D01*
X19402Y-11231D01*
X19268Y-11098D01*
X19259Y-11094D01*
X19239Y-11086D01*
X19239Y-6600D01*
X19220Y-6508D01*
X19220Y-6508D01*
X19168Y-6431D01*
X17589Y-4851D01*
X17589Y-4441D01*
X17632Y-4423D01*
X17772Y-4283D01*
X17848Y-4099D01*
X17849Y-3901D01*
X17782Y-3739D01*
X18018Y-3739D01*
X17951Y-3900D01*
X17950Y-4098D01*
X18026Y-4282D01*
X18166Y-4422D01*
X18211Y-4441D01*
X18211Y-4450D01*
X18229Y-4541D01*
X18281Y-4618D01*
X18631Y-4968D01*
X18631Y-4968D01*
X18708Y-5020D01*
X18799Y-5038D01*
X18800Y-5039D01*
X19001Y-5039D01*
X19018Y-5056D01*
X18890Y-5062D01*
X18768Y-5113D01*
X18740Y-5184D01*
X19000Y-5444D01*
X19005Y-5438D01*
X19061Y-5494D01*
X19055Y-5500D01*
X19061Y-5505D01*
X19005Y-5561D01*
X19000Y-5555D01*
X18944Y-5611D01*
X18944Y-5500D01*
X18684Y-5240D01*
X18613Y-5268D01*
X18554Y-5433D01*
X18562Y-5609D01*
X18613Y-5731D01*
X18684Y-5759D01*
X18944Y-5500D01*
X18944Y-5611D01*
X18740Y-5815D01*
X18768Y-5886D01*
X18933Y-5945D01*
X19109Y-5937D01*
X19231Y-5886D01*
X19259Y-5815D01*
X19259Y-5815D01*
X19261Y-5816D01*
X19261Y-6600D01*
X19279Y-6691D01*
X19331Y-6768D01*
X19720Y-7158D01*
X19628Y-7251D01*
X19561Y-7412D01*
X19560Y-7586D01*
X19627Y-7748D01*
X19751Y-7871D01*
X19761Y-7876D01*
X19761Y-11085D01*
X19731Y-11097D01*
X19598Y-11231D01*
X19526Y-11405D01*
X19525Y-11593D01*
X19597Y-11768D01*
X19731Y-11901D01*
X19905Y-11973D01*
X20093Y-11974D01*
X20268Y-11902D01*
X20401Y-11768D01*
X20473Y-11594D01*
X20474Y-11406D01*
X20402Y-11231D01*
X20268Y-11098D01*
X20239Y-11086D01*
X20239Y-7876D01*
X20248Y-7872D01*
X20371Y-7748D01*
X20438Y-7587D01*
X20439Y-7413D01*
X20372Y-7251D01*
X20248Y-7128D01*
X20239Y-7123D01*
X20239Y-7100D01*
X20220Y-7008D01*
X20168Y-6931D01*
X19739Y-6501D01*
X19739Y-5904D01*
X19905Y-5973D01*
X20093Y-5974D01*
X20261Y-5905D01*
X20261Y-6500D01*
X20279Y-6591D01*
X20331Y-6668D01*
X20761Y-7098D01*
X20761Y-8323D01*
X20751Y-8327D01*
X20628Y-8451D01*
X20561Y-8612D01*
X20560Y-8786D01*
X20627Y-8948D01*
X20751Y-9071D01*
X20761Y-9076D01*
X20761Y-11085D01*
X20731Y-11097D01*
X20598Y-11231D01*
X20526Y-11405D01*
X20525Y-11593D01*
X20597Y-11768D01*
X20731Y-11901D01*
X20905Y-11973D01*
X21093Y-11974D01*
X21268Y-11902D01*
X21401Y-11768D01*
X21473Y-11594D01*
X21474Y-11406D01*
X21402Y-11231D01*
X21268Y-11098D01*
X21239Y-11086D01*
X21239Y-9076D01*
X21248Y-9072D01*
X21371Y-8948D01*
X21438Y-8787D01*
X21439Y-8677D01*
X21761Y-8998D01*
X21761Y-11085D01*
X21731Y-11097D01*
X21598Y-11231D01*
X21526Y-11405D01*
X21525Y-11593D01*
X21597Y-11768D01*
X21731Y-11901D01*
X21905Y-11973D01*
X22093Y-11974D01*
X22268Y-11902D01*
X22401Y-11768D01*
X22473Y-11594D01*
X22474Y-11406D01*
X22402Y-11231D01*
X22268Y-11098D01*
X22239Y-11086D01*
X22239Y-8900D01*
X22220Y-8808D01*
X22168Y-8731D01*
X21739Y-8301D01*
X21739Y-5904D01*
X21905Y-5973D01*
X22093Y-5974D01*
X22161Y-5946D01*
X22161Y-8400D01*
X22179Y-8491D01*
X22231Y-8568D01*
X22761Y-9098D01*
X22761Y-11085D01*
X22731Y-11097D01*
X22598Y-11231D01*
X22526Y-11405D01*
X22525Y-11593D01*
X22597Y-11768D01*
X22731Y-11901D01*
X22905Y-11973D01*
X23093Y-11974D01*
X23200Y-11929D01*
X23200Y-13761D01*
G54D10*
G36*
X23762Y-3500D02*
X23751Y-3500D01*
X23707Y-3519D01*
X23575Y-3387D01*
X23598Y-3333D01*
X23320Y-3055D01*
X23314Y-3061D01*
X23258Y-3005D01*
X23264Y-3000D01*
X22986Y-2721D01*
X22912Y-2752D01*
X22849Y-2927D01*
X22857Y-3113D01*
X22912Y-3247D01*
X22945Y-3261D01*
X22634Y-3261D01*
X22667Y-3247D01*
X22730Y-3072D01*
X22722Y-2886D01*
X22667Y-2752D01*
X22593Y-2721D01*
X22315Y-3000D01*
X22321Y-3005D01*
X22265Y-3061D01*
X22260Y-3055D01*
X22254Y-3061D01*
X22198Y-3005D01*
X22204Y-3000D01*
X21926Y-2721D01*
X21852Y-2752D01*
X21789Y-2927D01*
X21797Y-3113D01*
X21852Y-3247D01*
X21885Y-3261D01*
X21514Y-3261D01*
X21547Y-3247D01*
X21610Y-3072D01*
X21602Y-2886D01*
X21547Y-2752D01*
X21473Y-2721D01*
X21195Y-3000D01*
X21201Y-3005D01*
X21145Y-3061D01*
X21140Y-3055D01*
X21134Y-3061D01*
X21078Y-3005D01*
X21084Y-3000D01*
X20806Y-2721D01*
X20732Y-2752D01*
X20669Y-2927D01*
X20677Y-3113D01*
X20732Y-3247D01*
X20765Y-3261D01*
X20434Y-3261D01*
X20467Y-3247D01*
X20530Y-3072D01*
X20522Y-2886D01*
X20467Y-2752D01*
X20393Y-2721D01*
X20115Y-3000D01*
X20121Y-3005D01*
X20065Y-3061D01*
X20060Y-3055D01*
X20054Y-3061D01*
X19998Y-3005D01*
X20004Y-3000D01*
X19726Y-2721D01*
X19652Y-2752D01*
X19589Y-2927D01*
X19597Y-3113D01*
X19652Y-3247D01*
X19685Y-3261D01*
X19354Y-3261D01*
X19387Y-3247D01*
X19450Y-3072D01*
X19442Y-2886D01*
X19387Y-2752D01*
X19313Y-2721D01*
X19035Y-3000D01*
X19041Y-3005D01*
X18985Y-3061D01*
X18980Y-3055D01*
X18974Y-3061D01*
X18918Y-3005D01*
X18924Y-3000D01*
X18646Y-2721D01*
X18572Y-2752D01*
X18509Y-2927D01*
X18517Y-3113D01*
X18572Y-3247D01*
X18605Y-3261D01*
X18254Y-3261D01*
X18287Y-3247D01*
X18350Y-3072D01*
X18342Y-2886D01*
X18287Y-2752D01*
X18213Y-2721D01*
X17935Y-3000D01*
X17941Y-3005D01*
X17885Y-3061D01*
X17880Y-3055D01*
X17874Y-3061D01*
X17818Y-3005D01*
X17824Y-3000D01*
X17546Y-2721D01*
X17472Y-2752D01*
X17409Y-2927D01*
X17417Y-3113D01*
X17472Y-3247D01*
X17505Y-3261D01*
X17174Y-3261D01*
X17207Y-3247D01*
X17270Y-3072D01*
X17262Y-2886D01*
X17207Y-2752D01*
X17133Y-2721D01*
X16855Y-3000D01*
X16861Y-3005D01*
X16805Y-3061D01*
X16800Y-3055D01*
X16794Y-3061D01*
X16738Y-3005D01*
X16744Y-3000D01*
X16738Y-2994D01*
X16794Y-2938D01*
X16800Y-2944D01*
X17078Y-2666D01*
X17066Y-2639D01*
X17613Y-2639D01*
X17601Y-2666D01*
X17880Y-2944D01*
X18158Y-2666D01*
X18146Y-2639D01*
X18713Y-2639D01*
X18701Y-2666D01*
X18980Y-2944D01*
X19258Y-2666D01*
X19246Y-2639D01*
X19793Y-2639D01*
X19781Y-2666D01*
X20060Y-2944D01*
X20338Y-2666D01*
X20326Y-2639D01*
X20873Y-2639D01*
X20861Y-2666D01*
X21140Y-2944D01*
X21418Y-2666D01*
X21406Y-2639D01*
X21993Y-2639D01*
X21981Y-2666D01*
X22260Y-2944D01*
X22538Y-2666D01*
X22526Y-2639D01*
X23053Y-2639D01*
X23041Y-2666D01*
X23320Y-2944D01*
X23325Y-2938D01*
X23381Y-2994D01*
X23375Y-3000D01*
X23653Y-3278D01*
X23661Y-3275D01*
X23661Y-3300D01*
X23679Y-3391D01*
X23731Y-3468D01*
X23762Y-3500D01*
X23762Y-3500D01*
G37*
G54D30*
X23762Y-3500D02*
X23751Y-3500D01*
X23707Y-3519D01*
X23575Y-3387D01*
X23598Y-3333D01*
X23320Y-3055D01*
X23314Y-3061D01*
X23258Y-3005D01*
X23264Y-3000D01*
X22986Y-2721D01*
X22912Y-2752D01*
X22849Y-2927D01*
X22857Y-3113D01*
X22912Y-3247D01*
X22945Y-3261D01*
X22634Y-3261D01*
X22667Y-3247D01*
X22730Y-3072D01*
X22722Y-2886D01*
X22667Y-2752D01*
X22593Y-2721D01*
X22315Y-3000D01*
X22321Y-3005D01*
X22265Y-3061D01*
X22260Y-3055D01*
X22254Y-3061D01*
X22198Y-3005D01*
X22204Y-3000D01*
X21926Y-2721D01*
X21852Y-2752D01*
X21789Y-2927D01*
X21797Y-3113D01*
X21852Y-3247D01*
X21885Y-3261D01*
X21514Y-3261D01*
X21547Y-3247D01*
X21610Y-3072D01*
X21602Y-2886D01*
X21547Y-2752D01*
X21473Y-2721D01*
X21195Y-3000D01*
X21201Y-3005D01*
X21145Y-3061D01*
X21140Y-3055D01*
X21134Y-3061D01*
X21078Y-3005D01*
X21084Y-3000D01*
X20806Y-2721D01*
X20732Y-2752D01*
X20669Y-2927D01*
X20677Y-3113D01*
X20732Y-3247D01*
X20765Y-3261D01*
X20434Y-3261D01*
X20467Y-3247D01*
X20530Y-3072D01*
X20522Y-2886D01*
X20467Y-2752D01*
X20393Y-2721D01*
X20115Y-3000D01*
X20121Y-3005D01*
X20065Y-3061D01*
X20060Y-3055D01*
X20054Y-3061D01*
X19998Y-3005D01*
X20004Y-3000D01*
X19726Y-2721D01*
X19652Y-2752D01*
X19589Y-2927D01*
X19597Y-3113D01*
X19652Y-3247D01*
X19685Y-3261D01*
X19354Y-3261D01*
X19387Y-3247D01*
X19450Y-3072D01*
X19442Y-2886D01*
X19387Y-2752D01*
X19313Y-2721D01*
X19035Y-3000D01*
X19041Y-3005D01*
X18985Y-3061D01*
X18980Y-3055D01*
X18974Y-3061D01*
X18918Y-3005D01*
X18924Y-3000D01*
X18646Y-2721D01*
X18572Y-2752D01*
X18509Y-2927D01*
X18517Y-3113D01*
X18572Y-3247D01*
X18605Y-3261D01*
X18254Y-3261D01*
X18287Y-3247D01*
X18350Y-3072D01*
X18342Y-2886D01*
X18287Y-2752D01*
X18213Y-2721D01*
X17935Y-3000D01*
X17941Y-3005D01*
X17885Y-3061D01*
X17880Y-3055D01*
X17874Y-3061D01*
X17818Y-3005D01*
X17824Y-3000D01*
X17546Y-2721D01*
X17472Y-2752D01*
X17409Y-2927D01*
X17417Y-3113D01*
X17472Y-3247D01*
X17505Y-3261D01*
X17174Y-3261D01*
X17207Y-3247D01*
X17270Y-3072D01*
X17262Y-2886D01*
X17207Y-2752D01*
X17133Y-2721D01*
X16855Y-3000D01*
X16861Y-3005D01*
X16805Y-3061D01*
X16800Y-3055D01*
X16794Y-3061D01*
X16738Y-3005D01*
X16744Y-3000D01*
X16738Y-2994D01*
X16794Y-2938D01*
X16800Y-2944D01*
X17078Y-2666D01*
X17066Y-2639D01*
X17613Y-2639D01*
X17601Y-2666D01*
X17880Y-2944D01*
X18158Y-2666D01*
X18146Y-2639D01*
X18713Y-2639D01*
X18701Y-2666D01*
X18980Y-2944D01*
X19258Y-2666D01*
X19246Y-2639D01*
X19793Y-2639D01*
X19781Y-2666D01*
X20060Y-2944D01*
X20338Y-2666D01*
X20326Y-2639D01*
X20873Y-2639D01*
X20861Y-2666D01*
X21140Y-2944D01*
X21418Y-2666D01*
X21406Y-2639D01*
X21993Y-2639D01*
X21981Y-2666D01*
X22260Y-2944D01*
X22538Y-2666D01*
X22526Y-2639D01*
X23053Y-2639D01*
X23041Y-2666D01*
X23320Y-2944D01*
X23325Y-2938D01*
X23381Y-2994D01*
X23375Y-3000D01*
X23653Y-3278D01*
X23661Y-3275D01*
X23661Y-3300D01*
X23679Y-3391D01*
X23731Y-3468D01*
X23762Y-3500D01*
G54D10*
G36*
X24061Y-11505D02*
X24005Y-11561D01*
X24000Y-11555D01*
X23994Y-11561D01*
X23938Y-11505D01*
X23944Y-11500D01*
X23938Y-11494D01*
X23994Y-11438D01*
X24000Y-11444D01*
X24005Y-11438D01*
X24061Y-11494D01*
X24055Y-11500D01*
X24061Y-11505D01*
X24061Y-11505D01*
G37*
G54D30*
X24061Y-11505D02*
X24005Y-11561D01*
X24000Y-11555D01*
X23994Y-11561D01*
X23938Y-11505D01*
X23944Y-11500D01*
X23938Y-11494D01*
X23994Y-11438D01*
X24000Y-11444D01*
X24005Y-11438D01*
X24061Y-11494D01*
X24055Y-11500D01*
X24061Y-11505D01*
G54D10*
G36*
X24461Y-3005D02*
X24405Y-3061D01*
X24400Y-3055D01*
X24394Y-3061D01*
X24338Y-3005D01*
X24344Y-3000D01*
X24338Y-2994D01*
X24394Y-2938D01*
X24400Y-2944D01*
X24405Y-2938D01*
X24461Y-2994D01*
X24455Y-3000D01*
X24461Y-3005D01*
X24461Y-3005D01*
G37*
G54D30*
X24461Y-3005D02*
X24405Y-3061D01*
X24400Y-3055D01*
X24394Y-3061D01*
X24338Y-3005D01*
X24344Y-3000D01*
X24338Y-2994D01*
X24394Y-2938D01*
X24400Y-2944D01*
X24405Y-2938D01*
X24461Y-2994D01*
X24455Y-3000D01*
X24461Y-3005D01*
G54D10*
G36*
X26061Y-11505D02*
X26005Y-11561D01*
X26000Y-11555D01*
X25994Y-11561D01*
X25938Y-11505D01*
X25944Y-11500D01*
X25938Y-11494D01*
X25994Y-11438D01*
X26000Y-11444D01*
X26005Y-11438D01*
X26061Y-11494D01*
X26055Y-11500D01*
X26061Y-11505D01*
X26061Y-11505D01*
G37*
G54D30*
X26061Y-11505D02*
X26005Y-11561D01*
X26000Y-11555D01*
X25994Y-11561D01*
X25938Y-11505D01*
X25944Y-11500D01*
X25938Y-11494D01*
X25994Y-11438D01*
X26000Y-11444D01*
X26005Y-11438D01*
X26061Y-11494D01*
X26055Y-11500D01*
X26061Y-11505D01*
G54D10*
G36*
X38771Y-19271D02*
X37945Y-19271D01*
X37945Y-9066D01*
X37937Y-8890D01*
X37886Y-8768D01*
X37815Y-8740D01*
X37759Y-8795D01*
X37759Y-8684D01*
X37731Y-8613D01*
X37566Y-8554D01*
X37390Y-8562D01*
X37268Y-8613D01*
X37240Y-8684D01*
X37500Y-8944D01*
X37759Y-8684D01*
X37759Y-8795D01*
X37555Y-9000D01*
X37815Y-9259D01*
X37886Y-9231D01*
X37945Y-9066D01*
X37945Y-19271D01*
X37917Y-19271D01*
X37917Y-18783D01*
X37917Y-15216D01*
X37891Y-15155D01*
X37844Y-15108D01*
X37783Y-15082D01*
X37759Y-15082D01*
X37759Y-9315D01*
X37500Y-9055D01*
X37494Y-9061D01*
X37438Y-9005D01*
X37444Y-9000D01*
X37275Y-8831D01*
X37232Y-8767D01*
X36973Y-8508D01*
X36974Y-8406D01*
X36902Y-8231D01*
X36768Y-8098D01*
X36594Y-8026D01*
X36406Y-8025D01*
X36231Y-8097D01*
X36098Y-8231D01*
X36026Y-8405D01*
X36025Y-8593D01*
X36097Y-8768D01*
X36231Y-8901D01*
X36405Y-8973D01*
X36508Y-8974D01*
X36601Y-9066D01*
X36566Y-9054D01*
X36390Y-9062D01*
X36268Y-9113D01*
X36240Y-9184D01*
X36500Y-9444D01*
X36505Y-9438D01*
X36561Y-9494D01*
X36555Y-9500D01*
X36561Y-9505D01*
X36505Y-9561D01*
X36500Y-9555D01*
X36444Y-9611D01*
X36444Y-9500D01*
X36184Y-9240D01*
X36113Y-9268D01*
X36054Y-9433D01*
X36062Y-9609D01*
X36113Y-9731D01*
X36184Y-9759D01*
X36444Y-9500D01*
X36444Y-9611D01*
X36240Y-9815D01*
X36268Y-9886D01*
X36433Y-9945D01*
X36609Y-9937D01*
X36671Y-9911D01*
X36671Y-10052D01*
X36534Y-10188D01*
X36484Y-10309D01*
X36448Y-10222D01*
X36370Y-10185D01*
X36314Y-10241D01*
X36314Y-10129D01*
X36277Y-10051D01*
X36084Y-9979D01*
X35878Y-9986D01*
X35722Y-10051D01*
X35685Y-10129D01*
X36000Y-10444D01*
X36314Y-10129D01*
X36314Y-10241D01*
X36055Y-10500D01*
X36370Y-10814D01*
X36448Y-10777D01*
X36482Y-10685D01*
X36534Y-10810D01*
X36688Y-10965D01*
X36890Y-11048D01*
X37108Y-11049D01*
X37310Y-10965D01*
X37465Y-10811D01*
X37548Y-10609D01*
X37549Y-10391D01*
X37465Y-10189D01*
X37329Y-10052D01*
X37329Y-9408D01*
X37433Y-9445D01*
X37609Y-9437D01*
X37731Y-9386D01*
X37759Y-9315D01*
X37759Y-15082D01*
X37716Y-15082D01*
X36314Y-15082D01*
X36314Y-10870D01*
X36000Y-10555D01*
X35685Y-10870D01*
X35722Y-10948D01*
X35915Y-11020D01*
X36121Y-11013D01*
X36277Y-10948D01*
X36314Y-10870D01*
X36314Y-15082D01*
X36081Y-15082D01*
X36039Y-15124D01*
X36039Y-16960D01*
X37875Y-16960D01*
X37917Y-16918D01*
X37917Y-15216D01*
X37917Y-18783D01*
X37917Y-17081D01*
X37875Y-17039D01*
X36039Y-17039D01*
X36039Y-18875D01*
X36081Y-18917D01*
X37716Y-18917D01*
X37783Y-18917D01*
X37844Y-18891D01*
X37891Y-18844D01*
X37917Y-18783D01*
X37917Y-19271D01*
X35960Y-19271D01*
X35960Y-18875D01*
X35960Y-17039D01*
X35960Y-16960D01*
X35960Y-15124D01*
X35918Y-15082D01*
X34283Y-15082D01*
X34216Y-15082D01*
X34155Y-15108D01*
X34108Y-15155D01*
X34082Y-15216D01*
X34082Y-16918D01*
X34124Y-16960D01*
X35960Y-16960D01*
X35960Y-17039D01*
X34124Y-17039D01*
X34082Y-17081D01*
X34082Y-18783D01*
X34108Y-18844D01*
X34155Y-18891D01*
X34216Y-18917D01*
X34283Y-18917D01*
X35918Y-18917D01*
X35960Y-18875D01*
X35960Y-19271D01*
X33474Y-19271D01*
X33474Y-11406D01*
X33445Y-11337D01*
X33445Y-9566D01*
X33437Y-9390D01*
X33386Y-9268D01*
X33315Y-9240D01*
X33259Y-9295D01*
X33259Y-9184D01*
X33231Y-9113D01*
X33066Y-9054D01*
X32890Y-9062D01*
X32768Y-9113D01*
X32740Y-9184D01*
X33000Y-9444D01*
X33259Y-9184D01*
X33259Y-9295D01*
X33055Y-9500D01*
X33315Y-9759D01*
X33386Y-9731D01*
X33445Y-9566D01*
X33445Y-11337D01*
X33402Y-11231D01*
X33268Y-11098D01*
X33259Y-11094D01*
X33259Y-9815D01*
X33000Y-9555D01*
X32944Y-9611D01*
X32944Y-9500D01*
X32684Y-9240D01*
X32613Y-9268D01*
X32554Y-9433D01*
X32562Y-9609D01*
X32613Y-9731D01*
X32684Y-9759D01*
X32944Y-9500D01*
X32944Y-9611D01*
X32740Y-9815D01*
X32768Y-9886D01*
X32933Y-9945D01*
X33109Y-9937D01*
X33231Y-9886D01*
X33259Y-9815D01*
X33259Y-11094D01*
X33094Y-11026D01*
X32906Y-11025D01*
X32731Y-11097D01*
X32598Y-11231D01*
X32526Y-11405D01*
X32525Y-11593D01*
X32597Y-11768D01*
X32731Y-11901D01*
X32905Y-11973D01*
X33093Y-11974D01*
X33268Y-11902D01*
X33401Y-11768D01*
X33473Y-11594D01*
X33474Y-11406D01*
X33474Y-19271D01*
X32499Y-19271D01*
X32499Y-16401D01*
X32499Y-12401D01*
X32474Y-12340D01*
X32474Y-11406D01*
X32402Y-11231D01*
X32268Y-11098D01*
X32094Y-11026D01*
X31906Y-11025D01*
X31731Y-11097D01*
X31598Y-11231D01*
X31526Y-11405D01*
X31525Y-11593D01*
X31597Y-11768D01*
X31731Y-11901D01*
X31905Y-11973D01*
X32093Y-11974D01*
X32268Y-11902D01*
X32401Y-11768D01*
X32473Y-11594D01*
X32474Y-11406D01*
X32474Y-12340D01*
X32423Y-12217D01*
X32283Y-12077D01*
X32099Y-12001D01*
X31901Y-12000D01*
X31717Y-12076D01*
X31577Y-12216D01*
X31501Y-12400D01*
X31500Y-12598D01*
X31576Y-12782D01*
X31716Y-12922D01*
X31900Y-12998D01*
X32098Y-12999D01*
X32282Y-12923D01*
X32422Y-12783D01*
X32498Y-12599D01*
X32499Y-12401D01*
X32499Y-16401D01*
X32423Y-16217D01*
X32283Y-16077D01*
X32099Y-16001D01*
X31901Y-16000D01*
X31717Y-16076D01*
X31577Y-16216D01*
X31501Y-16400D01*
X31500Y-16598D01*
X31576Y-16782D01*
X31716Y-16922D01*
X31900Y-16998D01*
X32098Y-16999D01*
X32282Y-16923D01*
X32422Y-16783D01*
X32498Y-16599D01*
X32499Y-16401D01*
X32499Y-19271D01*
X32474Y-19271D01*
X32474Y-17906D01*
X32402Y-17731D01*
X32268Y-17598D01*
X32094Y-17526D01*
X31906Y-17525D01*
X31731Y-17597D01*
X31598Y-17731D01*
X31526Y-17905D01*
X31525Y-18093D01*
X31597Y-18268D01*
X31731Y-18401D01*
X31905Y-18473D01*
X32093Y-18474D01*
X32268Y-18402D01*
X32401Y-18268D01*
X32473Y-18094D01*
X32474Y-17906D01*
X32474Y-19271D01*
X31474Y-19271D01*
X31474Y-15735D01*
X31474Y-15185D01*
X31443Y-15112D01*
X31387Y-15056D01*
X31314Y-15026D01*
X31235Y-15025D01*
X30685Y-15025D01*
X30612Y-15056D01*
X30556Y-15112D01*
X30526Y-15185D01*
X30525Y-15264D01*
X30525Y-15814D01*
X30556Y-15887D01*
X30612Y-15943D01*
X30685Y-15973D01*
X30764Y-15974D01*
X31314Y-15974D01*
X31387Y-15943D01*
X31443Y-15887D01*
X31473Y-15814D01*
X31474Y-15735D01*
X31474Y-19271D01*
X31445Y-19271D01*
X31445Y-18066D01*
X31437Y-17890D01*
X31386Y-17768D01*
X31315Y-17740D01*
X31259Y-17795D01*
X31259Y-17684D01*
X31231Y-17613D01*
X31066Y-17554D01*
X30890Y-17562D01*
X30768Y-17613D01*
X30740Y-17684D01*
X31000Y-17944D01*
X31259Y-17684D01*
X31259Y-17795D01*
X31055Y-18000D01*
X31315Y-18259D01*
X31386Y-18231D01*
X31445Y-18066D01*
X31445Y-19271D01*
X31259Y-19271D01*
X31259Y-18315D01*
X31000Y-18055D01*
X30944Y-18111D01*
X30944Y-18000D01*
X30684Y-17740D01*
X30613Y-17768D01*
X30554Y-17933D01*
X30562Y-18109D01*
X30613Y-18231D01*
X30684Y-18259D01*
X30944Y-18000D01*
X30944Y-18111D01*
X30740Y-18315D01*
X30768Y-18386D01*
X30933Y-18445D01*
X31109Y-18437D01*
X31231Y-18386D01*
X31259Y-18315D01*
X31259Y-19271D01*
X30029Y-19271D01*
X30029Y-15750D01*
X29833Y-15264D01*
X29819Y-15242D01*
X29657Y-15108D01*
X28765Y-16000D01*
X29657Y-16891D01*
X29819Y-16757D01*
X30024Y-16274D01*
X30029Y-15750D01*
X30029Y-19271D01*
X29601Y-19271D01*
X29601Y-16947D01*
X28710Y-16055D01*
X27818Y-16947D01*
X27952Y-17109D01*
X28435Y-17314D01*
X28959Y-17319D01*
X29445Y-17123D01*
X29467Y-17109D01*
X29601Y-16947D01*
X29601Y-19271D01*
X228Y-19271D01*
X228Y-18616D01*
X381Y-18768D01*
X381Y-18768D01*
X458Y-18820D01*
X549Y-18838D01*
X550Y-18839D01*
X8768Y-18839D01*
X8779Y-18891D01*
X8831Y-18968D01*
X8908Y-19020D01*
X9000Y-19039D01*
X9091Y-19020D01*
X9168Y-18968D01*
X9220Y-18891D01*
X9231Y-18839D01*
X25200Y-18839D01*
X25291Y-18820D01*
X25291Y-18820D01*
X25368Y-18768D01*
X26168Y-17968D01*
X26168Y-17968D01*
X26220Y-17891D01*
X26238Y-17800D01*
X26239Y-17800D01*
X26239Y-16698D01*
X27530Y-15407D01*
X27395Y-15725D01*
X27390Y-16249D01*
X27586Y-16735D01*
X27600Y-16757D01*
X27762Y-16891D01*
X28654Y-16000D01*
X28648Y-15994D01*
X28704Y-15938D01*
X28710Y-15944D01*
X29601Y-15052D01*
X29467Y-14890D01*
X28984Y-14685D01*
X28460Y-14680D01*
X28120Y-14817D01*
X30526Y-12411D01*
X30525Y-12593D01*
X30597Y-12768D01*
X30731Y-12901D01*
X30905Y-12973D01*
X31093Y-12974D01*
X31268Y-12902D01*
X31401Y-12768D01*
X31473Y-12594D01*
X31474Y-12406D01*
X31402Y-12231D01*
X31268Y-12098D01*
X31094Y-12026D01*
X30912Y-12025D01*
X30964Y-11973D01*
X31093Y-11974D01*
X31268Y-11902D01*
X31401Y-11768D01*
X31473Y-11594D01*
X31474Y-11406D01*
X31402Y-11231D01*
X31268Y-11098D01*
X31094Y-11026D01*
X30906Y-11025D01*
X30731Y-11097D01*
X30598Y-11231D01*
X30526Y-11405D01*
X30525Y-11593D01*
X30567Y-11694D01*
X30239Y-12023D01*
X30239Y-11914D01*
X30268Y-11902D01*
X30401Y-11768D01*
X30473Y-11594D01*
X30474Y-11406D01*
X30402Y-11231D01*
X30268Y-11098D01*
X30094Y-11026D01*
X29906Y-11025D01*
X29839Y-11053D01*
X29839Y-9898D01*
X31168Y-8568D01*
X31168Y-8568D01*
X31220Y-8491D01*
X31238Y-8400D01*
X31239Y-8400D01*
X31239Y-5914D01*
X31268Y-5902D01*
X31401Y-5768D01*
X31473Y-5594D01*
X31474Y-5406D01*
X31407Y-5245D01*
X31525Y-5363D01*
X31525Y-5814D01*
X31556Y-5887D01*
X31612Y-5943D01*
X31685Y-5973D01*
X31764Y-5974D01*
X32314Y-5974D01*
X32387Y-5943D01*
X32443Y-5887D01*
X32473Y-5814D01*
X32474Y-5735D01*
X32474Y-5185D01*
X32443Y-5112D01*
X32387Y-5056D01*
X32314Y-5026D01*
X32235Y-5025D01*
X31863Y-5025D01*
X31568Y-4731D01*
X31491Y-4679D01*
X31400Y-4661D01*
X30100Y-4661D01*
X30100Y-3246D01*
X29900Y-2748D01*
X29884Y-2724D01*
X29719Y-2585D01*
X28805Y-3500D01*
X29719Y-4414D01*
X29884Y-4275D01*
X30095Y-3782D01*
X30100Y-3246D01*
X30100Y-4661D01*
X29476Y-4661D01*
X29501Y-4650D01*
X29525Y-4634D01*
X29664Y-4469D01*
X28750Y-3555D01*
X27835Y-4469D01*
X27974Y-4634D01*
X28035Y-4661D01*
X25998Y-4661D01*
X25739Y-4401D01*
X25739Y-4394D01*
X25766Y-4422D01*
X25950Y-4498D01*
X26148Y-4499D01*
X26332Y-4423D01*
X26472Y-4283D01*
X26548Y-4099D01*
X26549Y-3966D01*
X27484Y-3030D01*
X27404Y-3217D01*
X27399Y-3753D01*
X27599Y-4251D01*
X27615Y-4275D01*
X27780Y-4414D01*
X28694Y-3500D01*
X28688Y-3494D01*
X28744Y-3438D01*
X28750Y-3444D01*
X29664Y-2530D01*
X29525Y-2365D01*
X29206Y-2229D01*
X29763Y-2229D01*
X31367Y-3833D01*
X31367Y-4472D01*
X31398Y-4545D01*
X31454Y-4601D01*
X31527Y-4632D01*
X31606Y-4632D01*
X32472Y-4632D01*
X32499Y-4620D01*
X32527Y-4632D01*
X32606Y-4632D01*
X32671Y-4632D01*
X32671Y-8000D01*
X32696Y-8125D01*
X32767Y-8232D01*
X34026Y-9491D01*
X34025Y-9593D01*
X34097Y-9768D01*
X34231Y-9901D01*
X34405Y-9973D01*
X34554Y-9974D01*
X34537Y-9981D01*
X34481Y-10037D01*
X34451Y-10110D01*
X34450Y-10189D01*
X34450Y-10889D01*
X34481Y-10962D01*
X34537Y-11018D01*
X34610Y-11048D01*
X34689Y-11049D01*
X35389Y-11049D01*
X35462Y-11018D01*
X35518Y-10962D01*
X35548Y-10889D01*
X35549Y-10810D01*
X35549Y-10771D01*
X35551Y-10777D01*
X35629Y-10814D01*
X35944Y-10500D01*
X35629Y-10185D01*
X35551Y-10222D01*
X35549Y-10229D01*
X35549Y-10110D01*
X35518Y-10037D01*
X35462Y-9981D01*
X35389Y-9951D01*
X35310Y-9950D01*
X34649Y-9950D01*
X34768Y-9902D01*
X34901Y-9768D01*
X34973Y-9594D01*
X34974Y-9406D01*
X34945Y-9337D01*
X34945Y-8566D01*
X34937Y-8390D01*
X34886Y-8268D01*
X34815Y-8240D01*
X34759Y-8295D01*
X34759Y-8184D01*
X34731Y-8113D01*
X34566Y-8054D01*
X34549Y-8054D01*
X34549Y-7141D01*
X34465Y-6939D01*
X34311Y-6784D01*
X34109Y-6701D01*
X33891Y-6700D01*
X33752Y-6758D01*
X33752Y-977D01*
X33579Y-553D01*
X33572Y-542D01*
X33427Y-427D01*
X32655Y-1200D01*
X33427Y-1972D01*
X33572Y-1857D01*
X33750Y-1435D01*
X33752Y-977D01*
X33752Y-6758D01*
X33689Y-6784D01*
X33534Y-6938D01*
X33451Y-7140D01*
X33450Y-7358D01*
X33534Y-7560D01*
X33688Y-7715D01*
X33890Y-7798D01*
X34108Y-7799D01*
X34310Y-7715D01*
X34465Y-7561D01*
X34548Y-7359D01*
X34549Y-7141D01*
X34549Y-8054D01*
X34390Y-8062D01*
X34268Y-8113D01*
X34240Y-8184D01*
X34500Y-8444D01*
X34759Y-8184D01*
X34759Y-8295D01*
X34555Y-8500D01*
X34815Y-8759D01*
X34886Y-8731D01*
X34945Y-8566D01*
X34945Y-9337D01*
X34902Y-9231D01*
X34768Y-9098D01*
X34594Y-9026D01*
X34491Y-9025D01*
X34398Y-8933D01*
X34433Y-8945D01*
X34609Y-8937D01*
X34731Y-8886D01*
X34759Y-8815D01*
X34500Y-8555D01*
X34494Y-8561D01*
X34438Y-8505D01*
X34444Y-8500D01*
X34184Y-8240D01*
X34113Y-8268D01*
X34054Y-8433D01*
X34062Y-8596D01*
X33329Y-7863D01*
X33329Y-4632D01*
X33472Y-4632D01*
X33545Y-4601D01*
X33601Y-4545D01*
X33632Y-4472D01*
X33632Y-4393D01*
X33632Y-3527D01*
X33601Y-3454D01*
X33545Y-3398D01*
X33472Y-3367D01*
X33393Y-3367D01*
X33372Y-3367D01*
X33372Y-2027D01*
X32600Y-1255D01*
X32544Y-1311D01*
X32544Y-1200D01*
X31772Y-427D01*
X31627Y-542D01*
X31449Y-964D01*
X31447Y-1422D01*
X31620Y-1846D01*
X31627Y-1857D01*
X31772Y-1972D01*
X32544Y-1200D01*
X32544Y-1311D01*
X31827Y-2027D01*
X31942Y-2172D01*
X32364Y-2350D01*
X32822Y-2352D01*
X33246Y-2179D01*
X33257Y-2172D01*
X33372Y-2027D01*
X33372Y-3367D01*
X32527Y-3367D01*
X32500Y-3379D01*
X32472Y-3367D01*
X32393Y-3367D01*
X31833Y-3367D01*
X30132Y-1667D01*
X30025Y-1596D01*
X29900Y-1571D01*
X28150Y-1571D01*
X28024Y-1596D01*
X27917Y-1667D01*
X26083Y-3501D01*
X25970Y-3500D01*
X25970Y-3072D01*
X25962Y-2886D01*
X25907Y-2752D01*
X25833Y-2721D01*
X25778Y-2777D01*
X25778Y-2666D01*
X25747Y-2592D01*
X25572Y-2529D01*
X25386Y-2537D01*
X25252Y-2592D01*
X25221Y-2666D01*
X25500Y-2944D01*
X25778Y-2666D01*
X25778Y-2777D01*
X25555Y-3000D01*
X25833Y-3278D01*
X25907Y-3247D01*
X25970Y-3072D01*
X25970Y-3500D01*
X25951Y-3500D01*
X25767Y-3576D01*
X25666Y-3678D01*
X25457Y-3469D01*
X25613Y-3462D01*
X25747Y-3407D01*
X25778Y-3333D01*
X25500Y-3055D01*
X25494Y-3061D01*
X25438Y-3005D01*
X25444Y-3000D01*
X25175Y-2731D01*
X25170Y-2708D01*
X25118Y-2631D01*
X25118Y-2631D01*
X24418Y-1931D01*
X24341Y-1879D01*
X24250Y-1861D01*
X9300Y-1861D01*
X9208Y-1879D01*
X9131Y-1931D01*
X8901Y-2161D01*
X2352Y-2161D01*
X2352Y-977D01*
X2179Y-553D01*
X2172Y-542D01*
X2027Y-427D01*
X1255Y-1200D01*
X2027Y-1972D01*
X2172Y-1857D01*
X2350Y-1435D01*
X2352Y-977D01*
X2352Y-2161D01*
X1866Y-2161D01*
X1972Y-2027D01*
X1200Y-1255D01*
X427Y-2027D01*
X542Y-2172D01*
X927Y-2334D01*
X331Y-2931D01*
X279Y-3008D01*
X261Y-3100D01*
X261Y-14000D01*
X279Y-14091D01*
X331Y-14168D01*
X631Y-14468D01*
X631Y-14468D01*
X708Y-14520D01*
X799Y-14538D01*
X800Y-14539D01*
X1701Y-14539D01*
X2208Y-15046D01*
X2099Y-15001D01*
X1901Y-15000D01*
X1857Y-15019D01*
X1468Y-14631D01*
X1391Y-14579D01*
X1300Y-14561D01*
X700Y-14561D01*
X608Y-14579D01*
X531Y-14631D01*
X228Y-14933D01*
X228Y-1858D01*
X372Y-1972D01*
X1144Y-1200D01*
X372Y-427D01*
X228Y-541D01*
X228Y-228D01*
X541Y-228D01*
X427Y-372D01*
X1200Y-1144D01*
X1972Y-372D01*
X1858Y-228D01*
X5572Y-228D01*
X5501Y-400D01*
X5500Y-598D01*
X5576Y-782D01*
X5716Y-922D01*
X5900Y-998D01*
X6098Y-999D01*
X6282Y-923D01*
X6422Y-783D01*
X6498Y-599D01*
X6499Y-401D01*
X6427Y-228D01*
X31941Y-228D01*
X31827Y-372D01*
X32600Y-1144D01*
X33372Y-372D01*
X33258Y-228D01*
X36912Y-228D01*
X36912Y-1271D01*
X38771Y-1271D01*
X38771Y-8601D01*
X38768Y-8598D01*
X38644Y-8546D01*
X38644Y-5173D01*
X38613Y-5098D01*
X38613Y-2783D01*
X38445Y-2374D01*
X38440Y-2365D01*
X38299Y-2256D01*
X38243Y-2312D01*
X38243Y-2200D01*
X38134Y-2059D01*
X37726Y-1888D01*
X37283Y-1886D01*
X36874Y-2054D01*
X36865Y-2059D01*
X36756Y-2200D01*
X37500Y-2944D01*
X38243Y-2200D01*
X38243Y-2312D01*
X37555Y-3000D01*
X38299Y-3743D01*
X38440Y-3634D01*
X38611Y-3226D01*
X38613Y-2783D01*
X38613Y-5098D01*
X38470Y-4752D01*
X38243Y-4525D01*
X38243Y-3799D01*
X37500Y-3055D01*
X37444Y-3111D01*
X37444Y-3000D01*
X36700Y-2256D01*
X36559Y-2365D01*
X36388Y-2773D01*
X36387Y-3066D01*
X36197Y-2781D01*
X35877Y-2567D01*
X35500Y-2492D01*
X35122Y-2567D01*
X34802Y-2781D01*
X34588Y-3101D01*
X34513Y-3479D01*
X34513Y-4320D01*
X34588Y-4698D01*
X34802Y-5018D01*
X35122Y-5232D01*
X35500Y-5307D01*
X35877Y-5232D01*
X36197Y-5018D01*
X36411Y-4698D01*
X36486Y-4320D01*
X36486Y-3479D01*
X36478Y-3440D01*
X36554Y-3625D01*
X36559Y-3634D01*
X36700Y-3743D01*
X37444Y-3000D01*
X37444Y-3111D01*
X36756Y-3799D01*
X36865Y-3940D01*
X37273Y-4111D01*
X37716Y-4113D01*
X38125Y-3945D01*
X38134Y-3940D01*
X38243Y-3799D01*
X38243Y-4525D01*
X38148Y-4430D01*
X37728Y-4256D01*
X37273Y-4255D01*
X36852Y-4429D01*
X36530Y-4751D01*
X36356Y-5171D01*
X36355Y-5626D01*
X36529Y-6047D01*
X36851Y-6369D01*
X37271Y-6543D01*
X37726Y-6544D01*
X38147Y-6370D01*
X38469Y-6048D01*
X38643Y-5628D01*
X38644Y-5173D01*
X38644Y-8546D01*
X38594Y-8526D01*
X38549Y-8526D01*
X38549Y-7560D01*
X38549Y-6860D01*
X38518Y-6787D01*
X38462Y-6731D01*
X38389Y-6701D01*
X38310Y-6700D01*
X37610Y-6700D01*
X37537Y-6731D01*
X37481Y-6787D01*
X37451Y-6860D01*
X37450Y-6939D01*
X37450Y-7639D01*
X37481Y-7712D01*
X37537Y-7768D01*
X37610Y-7798D01*
X37689Y-7799D01*
X38389Y-7799D01*
X38462Y-7768D01*
X38518Y-7712D01*
X38548Y-7639D01*
X38549Y-7560D01*
X38549Y-8526D01*
X38406Y-8525D01*
X38231Y-8597D01*
X38098Y-8731D01*
X38026Y-8905D01*
X38025Y-9093D01*
X38097Y-9268D01*
X38231Y-9401D01*
X38405Y-9473D01*
X38593Y-9474D01*
X38768Y-9402D01*
X38771Y-9398D01*
X38771Y-19271D01*
X38771Y-19271D01*
G37*
G54D30*
X38771Y-19271D02*
X37945Y-19271D01*
X37945Y-9066D01*
X37937Y-8890D01*
X37886Y-8768D01*
X37815Y-8740D01*
X37759Y-8795D01*
X37759Y-8684D01*
X37731Y-8613D01*
X37566Y-8554D01*
X37390Y-8562D01*
X37268Y-8613D01*
X37240Y-8684D01*
X37500Y-8944D01*
X37759Y-8684D01*
X37759Y-8795D01*
X37555Y-9000D01*
X37815Y-9259D01*
X37886Y-9231D01*
X37945Y-9066D01*
X37945Y-19271D01*
X37917Y-19271D01*
X37917Y-18783D01*
X37917Y-15216D01*
X37891Y-15155D01*
X37844Y-15108D01*
X37783Y-15082D01*
X37759Y-15082D01*
X37759Y-9315D01*
X37500Y-9055D01*
X37494Y-9061D01*
X37438Y-9005D01*
X37444Y-9000D01*
X37275Y-8831D01*
X37232Y-8767D01*
X36973Y-8508D01*
X36974Y-8406D01*
X36902Y-8231D01*
X36768Y-8098D01*
X36594Y-8026D01*
X36406Y-8025D01*
X36231Y-8097D01*
X36098Y-8231D01*
X36026Y-8405D01*
X36025Y-8593D01*
X36097Y-8768D01*
X36231Y-8901D01*
X36405Y-8973D01*
X36508Y-8974D01*
X36601Y-9066D01*
X36566Y-9054D01*
X36390Y-9062D01*
X36268Y-9113D01*
X36240Y-9184D01*
X36500Y-9444D01*
X36505Y-9438D01*
X36561Y-9494D01*
X36555Y-9500D01*
X36561Y-9505D01*
X36505Y-9561D01*
X36500Y-9555D01*
X36444Y-9611D01*
X36444Y-9500D01*
X36184Y-9240D01*
X36113Y-9268D01*
X36054Y-9433D01*
X36062Y-9609D01*
X36113Y-9731D01*
X36184Y-9759D01*
X36444Y-9500D01*
X36444Y-9611D01*
X36240Y-9815D01*
X36268Y-9886D01*
X36433Y-9945D01*
X36609Y-9937D01*
X36671Y-9911D01*
X36671Y-10052D01*
X36534Y-10188D01*
X36484Y-10309D01*
X36448Y-10222D01*
X36370Y-10185D01*
X36314Y-10241D01*
X36314Y-10129D01*
X36277Y-10051D01*
X36084Y-9979D01*
X35878Y-9986D01*
X35722Y-10051D01*
X35685Y-10129D01*
X36000Y-10444D01*
X36314Y-10129D01*
X36314Y-10241D01*
X36055Y-10500D01*
X36370Y-10814D01*
X36448Y-10777D01*
X36482Y-10685D01*
X36534Y-10810D01*
X36688Y-10965D01*
X36890Y-11048D01*
X37108Y-11049D01*
X37310Y-10965D01*
X37465Y-10811D01*
X37548Y-10609D01*
X37549Y-10391D01*
X37465Y-10189D01*
X37329Y-10052D01*
X37329Y-9408D01*
X37433Y-9445D01*
X37609Y-9437D01*
X37731Y-9386D01*
X37759Y-9315D01*
X37759Y-15082D01*
X37716Y-15082D01*
X36314Y-15082D01*
X36314Y-10870D01*
X36000Y-10555D01*
X35685Y-10870D01*
X35722Y-10948D01*
X35915Y-11020D01*
X36121Y-11013D01*
X36277Y-10948D01*
X36314Y-10870D01*
X36314Y-15082D01*
X36081Y-15082D01*
X36039Y-15124D01*
X36039Y-16960D01*
X37875Y-16960D01*
X37917Y-16918D01*
X37917Y-15216D01*
X37917Y-18783D01*
X37917Y-17081D01*
X37875Y-17039D01*
X36039Y-17039D01*
X36039Y-18875D01*
X36081Y-18917D01*
X37716Y-18917D01*
X37783Y-18917D01*
X37844Y-18891D01*
X37891Y-18844D01*
X37917Y-18783D01*
X37917Y-19271D01*
X35960Y-19271D01*
X35960Y-18875D01*
X35960Y-17039D01*
X35960Y-16960D01*
X35960Y-15124D01*
X35918Y-15082D01*
X34283Y-15082D01*
X34216Y-15082D01*
X34155Y-15108D01*
X34108Y-15155D01*
X34082Y-15216D01*
X34082Y-16918D01*
X34124Y-16960D01*
X35960Y-16960D01*
X35960Y-17039D01*
X34124Y-17039D01*
X34082Y-17081D01*
X34082Y-18783D01*
X34108Y-18844D01*
X34155Y-18891D01*
X34216Y-18917D01*
X34283Y-18917D01*
X35918Y-18917D01*
X35960Y-18875D01*
X35960Y-19271D01*
X33474Y-19271D01*
X33474Y-11406D01*
X33445Y-11337D01*
X33445Y-9566D01*
X33437Y-9390D01*
X33386Y-9268D01*
X33315Y-9240D01*
X33259Y-9295D01*
X33259Y-9184D01*
X33231Y-9113D01*
X33066Y-9054D01*
X32890Y-9062D01*
X32768Y-9113D01*
X32740Y-9184D01*
X33000Y-9444D01*
X33259Y-9184D01*
X33259Y-9295D01*
X33055Y-9500D01*
X33315Y-9759D01*
X33386Y-9731D01*
X33445Y-9566D01*
X33445Y-11337D01*
X33402Y-11231D01*
X33268Y-11098D01*
X33259Y-11094D01*
X33259Y-9815D01*
X33000Y-9555D01*
X32944Y-9611D01*
X32944Y-9500D01*
X32684Y-9240D01*
X32613Y-9268D01*
X32554Y-9433D01*
X32562Y-9609D01*
X32613Y-9731D01*
X32684Y-9759D01*
X32944Y-9500D01*
X32944Y-9611D01*
X32740Y-9815D01*
X32768Y-9886D01*
X32933Y-9945D01*
X33109Y-9937D01*
X33231Y-9886D01*
X33259Y-9815D01*
X33259Y-11094D01*
X33094Y-11026D01*
X32906Y-11025D01*
X32731Y-11097D01*
X32598Y-11231D01*
X32526Y-11405D01*
X32525Y-11593D01*
X32597Y-11768D01*
X32731Y-11901D01*
X32905Y-11973D01*
X33093Y-11974D01*
X33268Y-11902D01*
X33401Y-11768D01*
X33473Y-11594D01*
X33474Y-11406D01*
X33474Y-19271D01*
X32499Y-19271D01*
X32499Y-16401D01*
X32499Y-12401D01*
X32474Y-12340D01*
X32474Y-11406D01*
X32402Y-11231D01*
X32268Y-11098D01*
X32094Y-11026D01*
X31906Y-11025D01*
X31731Y-11097D01*
X31598Y-11231D01*
X31526Y-11405D01*
X31525Y-11593D01*
X31597Y-11768D01*
X31731Y-11901D01*
X31905Y-11973D01*
X32093Y-11974D01*
X32268Y-11902D01*
X32401Y-11768D01*
X32473Y-11594D01*
X32474Y-11406D01*
X32474Y-12340D01*
X32423Y-12217D01*
X32283Y-12077D01*
X32099Y-12001D01*
X31901Y-12000D01*
X31717Y-12076D01*
X31577Y-12216D01*
X31501Y-12400D01*
X31500Y-12598D01*
X31576Y-12782D01*
X31716Y-12922D01*
X31900Y-12998D01*
X32098Y-12999D01*
X32282Y-12923D01*
X32422Y-12783D01*
X32498Y-12599D01*
X32499Y-12401D01*
X32499Y-16401D01*
X32423Y-16217D01*
X32283Y-16077D01*
X32099Y-16001D01*
X31901Y-16000D01*
X31717Y-16076D01*
X31577Y-16216D01*
X31501Y-16400D01*
X31500Y-16598D01*
X31576Y-16782D01*
X31716Y-16922D01*
X31900Y-16998D01*
X32098Y-16999D01*
X32282Y-16923D01*
X32422Y-16783D01*
X32498Y-16599D01*
X32499Y-16401D01*
X32499Y-19271D01*
X32474Y-19271D01*
X32474Y-17906D01*
X32402Y-17731D01*
X32268Y-17598D01*
X32094Y-17526D01*
X31906Y-17525D01*
X31731Y-17597D01*
X31598Y-17731D01*
X31526Y-17905D01*
X31525Y-18093D01*
X31597Y-18268D01*
X31731Y-18401D01*
X31905Y-18473D01*
X32093Y-18474D01*
X32268Y-18402D01*
X32401Y-18268D01*
X32473Y-18094D01*
X32474Y-17906D01*
X32474Y-19271D01*
X31474Y-19271D01*
X31474Y-15735D01*
X31474Y-15185D01*
X31443Y-15112D01*
X31387Y-15056D01*
X31314Y-15026D01*
X31235Y-15025D01*
X30685Y-15025D01*
X30612Y-15056D01*
X30556Y-15112D01*
X30526Y-15185D01*
X30525Y-15264D01*
X30525Y-15814D01*
X30556Y-15887D01*
X30612Y-15943D01*
X30685Y-15973D01*
X30764Y-15974D01*
X31314Y-15974D01*
X31387Y-15943D01*
X31443Y-15887D01*
X31473Y-15814D01*
X31474Y-15735D01*
X31474Y-19271D01*
X31445Y-19271D01*
X31445Y-18066D01*
X31437Y-17890D01*
X31386Y-17768D01*
X31315Y-17740D01*
X31259Y-17795D01*
X31259Y-17684D01*
X31231Y-17613D01*
X31066Y-17554D01*
X30890Y-17562D01*
X30768Y-17613D01*
X30740Y-17684D01*
X31000Y-17944D01*
X31259Y-17684D01*
X31259Y-17795D01*
X31055Y-18000D01*
X31315Y-18259D01*
X31386Y-18231D01*
X31445Y-18066D01*
X31445Y-19271D01*
X31259Y-19271D01*
X31259Y-18315D01*
X31000Y-18055D01*
X30944Y-18111D01*
X30944Y-18000D01*
X30684Y-17740D01*
X30613Y-17768D01*
X30554Y-17933D01*
X30562Y-18109D01*
X30613Y-18231D01*
X30684Y-18259D01*
X30944Y-18000D01*
X30944Y-18111D01*
X30740Y-18315D01*
X30768Y-18386D01*
X30933Y-18445D01*
X31109Y-18437D01*
X31231Y-18386D01*
X31259Y-18315D01*
X31259Y-19271D01*
X30029Y-19271D01*
X30029Y-15750D01*
X29833Y-15264D01*
X29819Y-15242D01*
X29657Y-15108D01*
X28765Y-16000D01*
X29657Y-16891D01*
X29819Y-16757D01*
X30024Y-16274D01*
X30029Y-15750D01*
X30029Y-19271D01*
X29601Y-19271D01*
X29601Y-16947D01*
X28710Y-16055D01*
X27818Y-16947D01*
X27952Y-17109D01*
X28435Y-17314D01*
X28959Y-17319D01*
X29445Y-17123D01*
X29467Y-17109D01*
X29601Y-16947D01*
X29601Y-19271D01*
X228Y-19271D01*
X228Y-18616D01*
X381Y-18768D01*
X381Y-18768D01*
X458Y-18820D01*
X549Y-18838D01*
X550Y-18839D01*
X8768Y-18839D01*
X8779Y-18891D01*
X8831Y-18968D01*
X8908Y-19020D01*
X9000Y-19039D01*
X9091Y-19020D01*
X9168Y-18968D01*
X9220Y-18891D01*
X9231Y-18839D01*
X25200Y-18839D01*
X25291Y-18820D01*
X25291Y-18820D01*
X25368Y-18768D01*
X26168Y-17968D01*
X26168Y-17968D01*
X26220Y-17891D01*
X26238Y-17800D01*
X26239Y-17800D01*
X26239Y-16698D01*
X27530Y-15407D01*
X27395Y-15725D01*
X27390Y-16249D01*
X27586Y-16735D01*
X27600Y-16757D01*
X27762Y-16891D01*
X28654Y-16000D01*
X28648Y-15994D01*
X28704Y-15938D01*
X28710Y-15944D01*
X29601Y-15052D01*
X29467Y-14890D01*
X28984Y-14685D01*
X28460Y-14680D01*
X28120Y-14817D01*
X30526Y-12411D01*
X30525Y-12593D01*
X30597Y-12768D01*
X30731Y-12901D01*
X30905Y-12973D01*
X31093Y-12974D01*
X31268Y-12902D01*
X31401Y-12768D01*
X31473Y-12594D01*
X31474Y-12406D01*
X31402Y-12231D01*
X31268Y-12098D01*
X31094Y-12026D01*
X30912Y-12025D01*
X30964Y-11973D01*
X31093Y-11974D01*
X31268Y-11902D01*
X31401Y-11768D01*
X31473Y-11594D01*
X31474Y-11406D01*
X31402Y-11231D01*
X31268Y-11098D01*
X31094Y-11026D01*
X30906Y-11025D01*
X30731Y-11097D01*
X30598Y-11231D01*
X30526Y-11405D01*
X30525Y-11593D01*
X30567Y-11694D01*
X30239Y-12023D01*
X30239Y-11914D01*
X30268Y-11902D01*
X30401Y-11768D01*
X30473Y-11594D01*
X30474Y-11406D01*
X30402Y-11231D01*
X30268Y-11098D01*
X30094Y-11026D01*
X29906Y-11025D01*
X29839Y-11053D01*
X29839Y-9898D01*
X31168Y-8568D01*
X31168Y-8568D01*
X31220Y-8491D01*
X31238Y-8400D01*
X31239Y-8400D01*
X31239Y-5914D01*
X31268Y-5902D01*
X31401Y-5768D01*
X31473Y-5594D01*
X31474Y-5406D01*
X31407Y-5245D01*
X31525Y-5363D01*
X31525Y-5814D01*
X31556Y-5887D01*
X31612Y-5943D01*
X31685Y-5973D01*
X31764Y-5974D01*
X32314Y-5974D01*
X32387Y-5943D01*
X32443Y-5887D01*
X32473Y-5814D01*
X32474Y-5735D01*
X32474Y-5185D01*
X32443Y-5112D01*
X32387Y-5056D01*
X32314Y-5026D01*
X32235Y-5025D01*
X31863Y-5025D01*
X31568Y-4731D01*
X31491Y-4679D01*
X31400Y-4661D01*
X30100Y-4661D01*
X30100Y-3246D01*
X29900Y-2748D01*
X29884Y-2724D01*
X29719Y-2585D01*
X28805Y-3500D01*
X29719Y-4414D01*
X29884Y-4275D01*
X30095Y-3782D01*
X30100Y-3246D01*
X30100Y-4661D01*
X29476Y-4661D01*
X29501Y-4650D01*
X29525Y-4634D01*
X29664Y-4469D01*
X28750Y-3555D01*
X27835Y-4469D01*
X27974Y-4634D01*
X28035Y-4661D01*
X25998Y-4661D01*
X25739Y-4401D01*
X25739Y-4394D01*
X25766Y-4422D01*
X25950Y-4498D01*
X26148Y-4499D01*
X26332Y-4423D01*
X26472Y-4283D01*
X26548Y-4099D01*
X26549Y-3966D01*
X27484Y-3030D01*
X27404Y-3217D01*
X27399Y-3753D01*
X27599Y-4251D01*
X27615Y-4275D01*
X27780Y-4414D01*
X28694Y-3500D01*
X28688Y-3494D01*
X28744Y-3438D01*
X28750Y-3444D01*
X29664Y-2530D01*
X29525Y-2365D01*
X29206Y-2229D01*
X29763Y-2229D01*
X31367Y-3833D01*
X31367Y-4472D01*
X31398Y-4545D01*
X31454Y-4601D01*
X31527Y-4632D01*
X31606Y-4632D01*
X32472Y-4632D01*
X32499Y-4620D01*
X32527Y-4632D01*
X32606Y-4632D01*
X32671Y-4632D01*
X32671Y-8000D01*
X32696Y-8125D01*
X32767Y-8232D01*
X34026Y-9491D01*
X34025Y-9593D01*
X34097Y-9768D01*
X34231Y-9901D01*
X34405Y-9973D01*
X34554Y-9974D01*
X34537Y-9981D01*
X34481Y-10037D01*
X34451Y-10110D01*
X34450Y-10189D01*
X34450Y-10889D01*
X34481Y-10962D01*
X34537Y-11018D01*
X34610Y-11048D01*
X34689Y-11049D01*
X35389Y-11049D01*
X35462Y-11018D01*
X35518Y-10962D01*
X35548Y-10889D01*
X35549Y-10810D01*
X35549Y-10771D01*
X35551Y-10777D01*
X35629Y-10814D01*
X35944Y-10500D01*
X35629Y-10185D01*
X35551Y-10222D01*
X35549Y-10229D01*
X35549Y-10110D01*
X35518Y-10037D01*
X35462Y-9981D01*
X35389Y-9951D01*
X35310Y-9950D01*
X34649Y-9950D01*
X34768Y-9902D01*
X34901Y-9768D01*
X34973Y-9594D01*
X34974Y-9406D01*
X34945Y-9337D01*
X34945Y-8566D01*
X34937Y-8390D01*
X34886Y-8268D01*
X34815Y-8240D01*
X34759Y-8295D01*
X34759Y-8184D01*
X34731Y-8113D01*
X34566Y-8054D01*
X34549Y-8054D01*
X34549Y-7141D01*
X34465Y-6939D01*
X34311Y-6784D01*
X34109Y-6701D01*
X33891Y-6700D01*
X33752Y-6758D01*
X33752Y-977D01*
X33579Y-553D01*
X33572Y-542D01*
X33427Y-427D01*
X32655Y-1200D01*
X33427Y-1972D01*
X33572Y-1857D01*
X33750Y-1435D01*
X33752Y-977D01*
X33752Y-6758D01*
X33689Y-6784D01*
X33534Y-6938D01*
X33451Y-7140D01*
X33450Y-7358D01*
X33534Y-7560D01*
X33688Y-7715D01*
X33890Y-7798D01*
X34108Y-7799D01*
X34310Y-7715D01*
X34465Y-7561D01*
X34548Y-7359D01*
X34549Y-7141D01*
X34549Y-8054D01*
X34390Y-8062D01*
X34268Y-8113D01*
X34240Y-8184D01*
X34500Y-8444D01*
X34759Y-8184D01*
X34759Y-8295D01*
X34555Y-8500D01*
X34815Y-8759D01*
X34886Y-8731D01*
X34945Y-8566D01*
X34945Y-9337D01*
X34902Y-9231D01*
X34768Y-9098D01*
X34594Y-9026D01*
X34491Y-9025D01*
X34398Y-8933D01*
X34433Y-8945D01*
X34609Y-8937D01*
X34731Y-8886D01*
X34759Y-8815D01*
X34500Y-8555D01*
X34494Y-8561D01*
X34438Y-8505D01*
X34444Y-8500D01*
X34184Y-8240D01*
X34113Y-8268D01*
X34054Y-8433D01*
X34062Y-8596D01*
X33329Y-7863D01*
X33329Y-4632D01*
X33472Y-4632D01*
X33545Y-4601D01*
X33601Y-4545D01*
X33632Y-4472D01*
X33632Y-4393D01*
X33632Y-3527D01*
X33601Y-3454D01*
X33545Y-3398D01*
X33472Y-3367D01*
X33393Y-3367D01*
X33372Y-3367D01*
X33372Y-2027D01*
X32600Y-1255D01*
X32544Y-1311D01*
X32544Y-1200D01*
X31772Y-427D01*
X31627Y-542D01*
X31449Y-964D01*
X31447Y-1422D01*
X31620Y-1846D01*
X31627Y-1857D01*
X31772Y-1972D01*
X32544Y-1200D01*
X32544Y-1311D01*
X31827Y-2027D01*
X31942Y-2172D01*
X32364Y-2350D01*
X32822Y-2352D01*
X33246Y-2179D01*
X33257Y-2172D01*
X33372Y-2027D01*
X33372Y-3367D01*
X32527Y-3367D01*
X32500Y-3379D01*
X32472Y-3367D01*
X32393Y-3367D01*
X31833Y-3367D01*
X30132Y-1667D01*
X30025Y-1596D01*
X29900Y-1571D01*
X28150Y-1571D01*
X28024Y-1596D01*
X27917Y-1667D01*
X26083Y-3501D01*
X25970Y-3500D01*
X25970Y-3072D01*
X25962Y-2886D01*
X25907Y-2752D01*
X25833Y-2721D01*
X25778Y-2777D01*
X25778Y-2666D01*
X25747Y-2592D01*
X25572Y-2529D01*
X25386Y-2537D01*
X25252Y-2592D01*
X25221Y-2666D01*
X25500Y-2944D01*
X25778Y-2666D01*
X25778Y-2777D01*
X25555Y-3000D01*
X25833Y-3278D01*
X25907Y-3247D01*
X25970Y-3072D01*
X25970Y-3500D01*
X25951Y-3500D01*
X25767Y-3576D01*
X25666Y-3678D01*
X25457Y-3469D01*
X25613Y-3462D01*
X25747Y-3407D01*
X25778Y-3333D01*
X25500Y-3055D01*
X25494Y-3061D01*
X25438Y-3005D01*
X25444Y-3000D01*
X25175Y-2731D01*
X25170Y-2708D01*
X25118Y-2631D01*
X25118Y-2631D01*
X24418Y-1931D01*
X24341Y-1879D01*
X24250Y-1861D01*
X9300Y-1861D01*
X9208Y-1879D01*
X9131Y-1931D01*
X8901Y-2161D01*
X2352Y-2161D01*
X2352Y-977D01*
X2179Y-553D01*
X2172Y-542D01*
X2027Y-427D01*
X1255Y-1200D01*
X2027Y-1972D01*
X2172Y-1857D01*
X2350Y-1435D01*
X2352Y-977D01*
X2352Y-2161D01*
X1866Y-2161D01*
X1972Y-2027D01*
X1200Y-1255D01*
X427Y-2027D01*
X542Y-2172D01*
X927Y-2334D01*
X331Y-2931D01*
X279Y-3008D01*
X261Y-3100D01*
X261Y-14000D01*
X279Y-14091D01*
X331Y-14168D01*
X631Y-14468D01*
X631Y-14468D01*
X708Y-14520D01*
X799Y-14538D01*
X800Y-14539D01*
X1701Y-14539D01*
X2208Y-15046D01*
X2099Y-15001D01*
X1901Y-15000D01*
X1857Y-15019D01*
X1468Y-14631D01*
X1391Y-14579D01*
X1300Y-14561D01*
X700Y-14561D01*
X608Y-14579D01*
X531Y-14631D01*
X228Y-14933D01*
X228Y-1858D01*
X372Y-1972D01*
X1144Y-1200D01*
X372Y-427D01*
X228Y-541D01*
X228Y-228D01*
X541Y-228D01*
X427Y-372D01*
X1200Y-1144D01*
X1972Y-372D01*
X1858Y-228D01*
X5572Y-228D01*
X5501Y-400D01*
X5500Y-598D01*
X5576Y-782D01*
X5716Y-922D01*
X5900Y-998D01*
X6098Y-999D01*
X6282Y-923D01*
X6422Y-783D01*
X6498Y-599D01*
X6499Y-401D01*
X6427Y-228D01*
X31941Y-228D01*
X31827Y-372D01*
X32600Y-1144D01*
X33372Y-372D01*
X33258Y-228D01*
X36912Y-228D01*
X36912Y-1271D01*
X38771Y-1271D01*
X38771Y-8601D01*
X38768Y-8598D01*
X38644Y-8546D01*
X38644Y-5173D01*
X38613Y-5098D01*
X38613Y-2783D01*
X38445Y-2374D01*
X38440Y-2365D01*
X38299Y-2256D01*
X38243Y-2312D01*
X38243Y-2200D01*
X38134Y-2059D01*
X37726Y-1888D01*
X37283Y-1886D01*
X36874Y-2054D01*
X36865Y-2059D01*
X36756Y-2200D01*
X37500Y-2944D01*
X38243Y-2200D01*
X38243Y-2312D01*
X37555Y-3000D01*
X38299Y-3743D01*
X38440Y-3634D01*
X38611Y-3226D01*
X38613Y-2783D01*
X38613Y-5098D01*
X38470Y-4752D01*
X38243Y-4525D01*
X38243Y-3799D01*
X37500Y-3055D01*
X37444Y-3111D01*
X37444Y-3000D01*
X36700Y-2256D01*
X36559Y-2365D01*
X36388Y-2773D01*
X36387Y-3066D01*
X36197Y-2781D01*
X35877Y-2567D01*
X35500Y-2492D01*
X35122Y-2567D01*
X34802Y-2781D01*
X34588Y-3101D01*
X34513Y-3479D01*
X34513Y-4320D01*
X34588Y-4698D01*
X34802Y-5018D01*
X35122Y-5232D01*
X35500Y-5307D01*
X35877Y-5232D01*
X36197Y-5018D01*
X36411Y-4698D01*
X36486Y-4320D01*
X36486Y-3479D01*
X36478Y-3440D01*
X36554Y-3625D01*
X36559Y-3634D01*
X36700Y-3743D01*
X37444Y-3000D01*
X37444Y-3111D01*
X36756Y-3799D01*
X36865Y-3940D01*
X37273Y-4111D01*
X37716Y-4113D01*
X38125Y-3945D01*
X38134Y-3940D01*
X38243Y-3799D01*
X38243Y-4525D01*
X38148Y-4430D01*
X37728Y-4256D01*
X37273Y-4255D01*
X36852Y-4429D01*
X36530Y-4751D01*
X36356Y-5171D01*
X36355Y-5626D01*
X36529Y-6047D01*
X36851Y-6369D01*
X37271Y-6543D01*
X37726Y-6544D01*
X38147Y-6370D01*
X38469Y-6048D01*
X38643Y-5628D01*
X38644Y-5173D01*
X38644Y-8546D01*
X38594Y-8526D01*
X38549Y-8526D01*
X38549Y-7560D01*
X38549Y-6860D01*
X38518Y-6787D01*
X38462Y-6731D01*
X38389Y-6701D01*
X38310Y-6700D01*
X37610Y-6700D01*
X37537Y-6731D01*
X37481Y-6787D01*
X37451Y-6860D01*
X37450Y-6939D01*
X37450Y-7639D01*
X37481Y-7712D01*
X37537Y-7768D01*
X37610Y-7798D01*
X37689Y-7799D01*
X38389Y-7799D01*
X38462Y-7768D01*
X38518Y-7712D01*
X38548Y-7639D01*
X38549Y-7560D01*
X38549Y-8526D01*
X38406Y-8525D01*
X38231Y-8597D01*
X38098Y-8731D01*
X38026Y-8905D01*
X38025Y-9093D01*
X38097Y-9268D01*
X38231Y-9401D01*
X38405Y-9473D01*
X38593Y-9474D01*
X38768Y-9402D01*
X38771Y-9398D01*
X38771Y-19271D01*
M02*
