G04 (created by PCBNEW (2013-07-07 BZR 4022)-stable) date 28.12.2015 18:38:58*
%MOIN*%
G04 Gerber Fmt 3.4, Leading zero omitted, Abs format*
%FSLAX34Y34*%
G01*
G70*
G90*
G04 APERTURE LIST*
%ADD10C,0.00393701*%
%ADD11C,0.011811*%
%ADD12C,0.06*%
%ADD13R,0.055X0.055*%
%ADD14C,0.055*%
%ADD15C,0.23622*%
%ADD16R,0.06X0.06*%
%ADD17O,0.052X0.104*%
%ADD18C,0.23*%
%ADD19R,0.07X0.07*%
%ADD20C,0.07*%
%ADD21R,0.35X0.35*%
%ADD22R,0.0787402X0.0866142*%
%ADD23R,0.0866142X0.0866142*%
%ADD24C,0.189*%
%ADD25O,0.15748X0.23622*%
%ADD26C,0.19685*%
%ADD27C,0.048*%
%ADD28C,0.008*%
%ADD29C,0.026*%
%ADD30C,0.0098*%
G04 APERTURE END LIST*
G54D10*
G54D11*
X38492Y-529D02*
X38407Y-557D01*
X38379Y-585D01*
X38351Y-642D01*
X38351Y-726D01*
X38379Y-782D01*
X38407Y-810D01*
X38464Y-839D01*
X38688Y-839D01*
X38688Y-248D01*
X38492Y-248D01*
X38435Y-276D01*
X38407Y-304D01*
X38379Y-360D01*
X38379Y-417D01*
X38407Y-473D01*
X38435Y-501D01*
X38492Y-529D01*
X38688Y-529D01*
X37985Y-248D02*
X37873Y-248D01*
X37817Y-276D01*
X37760Y-332D01*
X37732Y-445D01*
X37732Y-642D01*
X37760Y-754D01*
X37817Y-810D01*
X37873Y-839D01*
X37985Y-839D01*
X38042Y-810D01*
X38098Y-754D01*
X38126Y-642D01*
X38126Y-445D01*
X38098Y-332D01*
X38042Y-276D01*
X37985Y-248D01*
X37564Y-248D02*
X37226Y-248D01*
X37395Y-839D02*
X37395Y-248D01*
G54D12*
X17000Y-9500D03*
X17000Y-5500D03*
X3000Y-15500D03*
X3000Y-11500D03*
X2000Y-15500D03*
X2000Y-11500D03*
X1000Y-15500D03*
X1000Y-11500D03*
X6000Y-9500D03*
X6000Y-13500D03*
X17000Y-12500D03*
X21000Y-12500D03*
X6000Y-500D03*
X6000Y-4500D03*
X26000Y-12500D03*
X22000Y-12500D03*
X5000Y-13500D03*
X5000Y-9500D03*
X7000Y-13500D03*
X7000Y-9500D03*
X32000Y-12500D03*
X32000Y-16500D03*
G54D13*
X15000Y-5500D03*
G54D14*
X14000Y-5500D03*
X13000Y-5500D03*
X12000Y-5500D03*
X11000Y-5500D03*
X10000Y-5500D03*
X9000Y-5500D03*
X8000Y-5500D03*
X7000Y-5500D03*
X6000Y-5500D03*
X6000Y-8500D03*
X7000Y-8500D03*
X8000Y-8500D03*
X9000Y-8500D03*
X10000Y-8500D03*
X11000Y-8500D03*
X12000Y-8500D03*
X13000Y-8500D03*
X14000Y-8500D03*
X15000Y-8500D03*
G54D13*
X15000Y-9500D03*
G54D14*
X14000Y-9500D03*
X13000Y-9500D03*
X12000Y-9500D03*
X11000Y-9500D03*
X10000Y-9500D03*
X9000Y-9500D03*
X9000Y-12500D03*
X10000Y-12500D03*
X11000Y-12500D03*
X12000Y-12500D03*
X13000Y-12500D03*
X14000Y-12500D03*
X15000Y-12500D03*
G54D13*
X4000Y-10500D03*
G54D14*
X4000Y-9500D03*
X4000Y-8500D03*
X4000Y-7500D03*
X4000Y-6500D03*
X4000Y-5500D03*
X4000Y-4500D03*
X1000Y-4500D03*
X1000Y-5500D03*
X1000Y-6500D03*
X1000Y-7500D03*
X1000Y-8500D03*
X1000Y-9500D03*
X1000Y-10500D03*
G54D15*
X28750Y-3500D03*
X10250Y-3500D03*
G54D16*
X13000Y-4000D03*
G54D12*
X14100Y-4000D03*
X15150Y-4000D03*
X16250Y-4000D03*
X17350Y-4000D03*
X18450Y-4000D03*
X19500Y-4000D03*
X20600Y-4000D03*
X21700Y-4000D03*
X22800Y-4000D03*
X23850Y-4000D03*
X24950Y-4000D03*
X26050Y-4000D03*
X13620Y-3000D03*
X14620Y-3000D03*
X15720Y-3000D03*
X16800Y-3000D03*
X17880Y-3000D03*
X18980Y-3000D03*
X20060Y-3000D03*
X21140Y-3000D03*
X22260Y-3000D03*
X23320Y-3000D03*
X24400Y-3000D03*
X25500Y-3000D03*
G54D13*
X31000Y-15500D03*
G54D14*
X31000Y-12500D03*
X5000Y-5500D03*
X5000Y-3500D03*
X2000Y-3500D03*
X4000Y-3500D03*
X16000Y-8500D03*
X16000Y-6500D03*
X16000Y-12500D03*
X16000Y-10500D03*
X33000Y-11500D03*
X33000Y-9500D03*
X32000Y-18000D03*
X31000Y-18000D03*
G54D13*
X32000Y-5500D03*
G54D14*
X31000Y-5500D03*
X30000Y-5500D03*
X29000Y-5500D03*
X28000Y-5500D03*
X27000Y-5500D03*
X26000Y-5500D03*
X25000Y-5500D03*
X24000Y-5500D03*
X23000Y-5500D03*
X22000Y-5500D03*
X21000Y-5500D03*
X20000Y-5500D03*
X19000Y-5500D03*
X19000Y-11500D03*
X20000Y-11500D03*
X21000Y-11500D03*
X22000Y-11500D03*
X23000Y-11500D03*
X24000Y-11500D03*
X25000Y-11500D03*
X26000Y-11500D03*
X27000Y-11500D03*
X28000Y-11500D03*
X29000Y-11500D03*
X30000Y-11500D03*
X31000Y-11500D03*
X32000Y-11500D03*
G54D12*
X6000Y-14500D03*
X6000Y-16500D03*
X7000Y-14500D03*
X7000Y-16500D03*
X5000Y-14500D03*
X5000Y-16500D03*
G54D17*
X24175Y-15150D03*
X23325Y-15150D03*
X22475Y-15150D03*
X21625Y-15150D03*
X20775Y-15150D03*
X19925Y-15150D03*
X19075Y-15150D03*
X18225Y-15150D03*
X17375Y-15150D03*
X16525Y-15150D03*
X15675Y-15150D03*
X14825Y-15150D03*
X24175Y-16850D03*
X23325Y-16850D03*
X22475Y-16850D03*
X21625Y-16850D03*
X20775Y-16850D03*
X19925Y-16850D03*
X19075Y-16850D03*
X18225Y-16850D03*
X17375Y-16850D03*
X16525Y-16850D03*
X15675Y-16850D03*
X14825Y-16850D03*
G54D18*
X28710Y-16000D03*
X10290Y-16000D03*
G54D19*
X35000Y-10500D03*
G54D20*
X37000Y-10500D03*
X36000Y-10500D03*
G54D21*
X36000Y-17000D03*
G54D13*
X8000Y-4500D03*
G54D14*
X7000Y-4500D03*
G54D22*
X1000Y-17500D03*
X1000Y-16500D03*
X2000Y-17500D03*
X2000Y-16500D03*
X3000Y-17500D03*
X3000Y-16500D03*
G54D23*
X32000Y-4000D03*
X33000Y-4000D03*
G54D24*
X37500Y-3000D03*
X37500Y-5400D03*
G54D25*
X35500Y-3900D03*
G54D14*
X36500Y-8500D03*
X34500Y-8500D03*
X34500Y-9500D03*
X36500Y-9500D03*
X38500Y-9000D03*
X37500Y-9000D03*
G54D20*
X34000Y-7250D03*
G54D19*
X38000Y-7250D03*
G54D26*
X1200Y-1200D03*
X32600Y-1200D03*
G54D27*
X20000Y-7500D03*
X21000Y-8700D03*
X27500Y-7300D03*
G54D28*
X5500Y-9000D02*
X7300Y-9000D01*
X5500Y-9000D02*
X4500Y-8000D01*
X4500Y-8000D02*
X4500Y-7300D01*
X4500Y-7300D02*
X4300Y-7100D01*
X4300Y-7100D02*
X1600Y-7100D01*
X1000Y-6500D02*
X1600Y-7100D01*
X10600Y-9100D02*
X11000Y-9500D01*
X7400Y-9100D02*
X10600Y-9100D01*
X7300Y-9000D02*
X7400Y-9100D01*
X14100Y-4000D02*
X14100Y-5000D01*
X13000Y-5500D02*
X13500Y-5000D01*
X13500Y-5000D02*
X14100Y-5000D01*
X14100Y-5000D02*
X14500Y-5000D01*
X21300Y-6200D02*
X22000Y-5500D01*
X19900Y-6200D02*
X21300Y-6200D01*
X19500Y-5800D02*
X19900Y-6200D01*
X19500Y-5200D02*
X19500Y-5800D01*
X19300Y-5000D02*
X19500Y-5200D01*
X14500Y-5000D02*
X19300Y-5000D01*
X15150Y-4000D02*
X14650Y-3500D01*
X12700Y-4800D02*
X12000Y-5500D01*
X13100Y-4800D02*
X12700Y-4800D01*
X13600Y-4300D02*
X13100Y-4800D01*
X13600Y-3700D02*
X13600Y-4300D01*
X13800Y-3500D02*
X13600Y-3700D01*
X14650Y-3500D02*
X13800Y-3500D01*
X15150Y-4000D02*
X15150Y-4550D01*
X20300Y-4800D02*
X21000Y-5500D01*
X15400Y-4800D02*
X20300Y-4800D01*
X15150Y-4550D02*
X15400Y-4800D01*
X9000Y-5500D02*
X9400Y-5100D01*
X15750Y-3500D02*
X16250Y-4000D01*
X15500Y-3500D02*
X15750Y-3500D01*
X15200Y-3200D02*
X15500Y-3500D01*
X15200Y-2700D02*
X15200Y-3200D01*
X14800Y-2300D02*
X15200Y-2700D01*
X13100Y-2300D02*
X14800Y-2300D01*
X12200Y-3200D02*
X13100Y-2300D01*
X12200Y-4000D02*
X12200Y-3200D01*
X11100Y-5100D02*
X12200Y-4000D01*
X9400Y-5100D02*
X11100Y-5100D01*
X16250Y-4000D02*
X16250Y-4350D01*
X20500Y-6000D02*
X20000Y-5500D01*
X21200Y-6000D02*
X20500Y-6000D01*
X21500Y-5700D02*
X21200Y-6000D01*
X21500Y-5000D02*
X21500Y-5700D01*
X21100Y-4600D02*
X21500Y-5000D01*
X16500Y-4600D02*
X21100Y-4600D01*
X16250Y-4350D02*
X16500Y-4600D01*
X8000Y-5500D02*
X8600Y-4900D01*
X16850Y-3500D02*
X17350Y-4000D01*
X16500Y-3500D02*
X16850Y-3500D01*
X16300Y-3300D02*
X16500Y-3500D01*
X16300Y-2900D02*
X16300Y-3300D01*
X15400Y-2000D02*
X16300Y-2900D01*
X12800Y-2000D02*
X15400Y-2000D01*
X11800Y-3000D02*
X12800Y-2000D01*
X11800Y-4000D02*
X11800Y-3000D01*
X10900Y-4900D02*
X11800Y-4000D01*
X8600Y-4900D02*
X10900Y-4900D01*
X8000Y-8500D02*
X9000Y-7500D01*
X9000Y-7500D02*
X20000Y-7500D01*
X9000Y-8500D02*
X9500Y-8000D01*
X20300Y-8000D02*
X21000Y-8700D01*
X9500Y-8000D02*
X20300Y-8000D01*
X22000Y-11500D02*
X21600Y-11100D01*
X12600Y-9100D02*
X12000Y-8500D01*
X14339Y-9100D02*
X12600Y-9100D01*
X14439Y-9200D02*
X14339Y-9100D01*
X14439Y-10539D02*
X14439Y-9200D01*
X15000Y-11100D02*
X14439Y-10539D01*
X21600Y-11100D02*
X15000Y-11100D01*
X13000Y-8500D02*
X13400Y-8900D01*
X22400Y-10900D02*
X23000Y-11500D01*
X15100Y-10900D02*
X22400Y-10900D01*
X14600Y-10400D02*
X15100Y-10900D01*
X14600Y-9100D02*
X14600Y-10400D01*
X14400Y-8900D02*
X14600Y-9100D01*
X13400Y-8900D02*
X14400Y-8900D01*
X4700Y-15000D02*
X4400Y-14700D01*
X4700Y-15000D02*
X7300Y-15000D01*
X7300Y-15000D02*
X8000Y-14300D01*
X8000Y-14300D02*
X14400Y-14300D01*
X14400Y-14300D02*
X14400Y-14300D01*
X14400Y-14300D02*
X17000Y-14300D01*
X17000Y-14300D02*
X17375Y-14675D01*
X17375Y-15150D02*
X17375Y-14675D01*
X400Y-10100D02*
X1000Y-9500D01*
X400Y-10100D02*
X400Y-11900D01*
X800Y-12300D02*
X400Y-11900D01*
X2600Y-12300D02*
X800Y-12300D01*
X4400Y-14100D02*
X2600Y-12300D01*
X4400Y-14700D02*
X4400Y-14100D01*
X4000Y-9500D02*
X1000Y-9500D01*
X12000Y-9500D02*
X12000Y-10400D01*
X20600Y-12100D02*
X21000Y-12500D01*
X17900Y-12100D02*
X20600Y-12100D01*
X17300Y-11500D02*
X17900Y-12100D01*
X13100Y-11500D02*
X17300Y-11500D01*
X12000Y-10400D02*
X13100Y-11500D01*
X17400Y-11300D02*
X14700Y-11300D01*
X17400Y-11300D02*
X18000Y-11900D01*
X18000Y-11900D02*
X21400Y-11900D01*
X22000Y-12500D02*
X21400Y-11900D01*
X14000Y-10600D02*
X14000Y-9500D01*
X14700Y-11300D02*
X14000Y-10600D01*
X11000Y-5500D02*
X11900Y-6400D01*
X27200Y-7000D02*
X27500Y-7300D01*
X15300Y-7000D02*
X27200Y-7000D01*
X14700Y-6400D02*
X15300Y-7000D01*
X11900Y-6400D02*
X14700Y-6400D01*
X2400Y-6900D02*
X4400Y-6900D01*
X1000Y-5500D02*
X2400Y-6900D01*
X10560Y-8939D02*
X7739Y-8939D01*
X7739Y-8939D02*
X7500Y-8700D01*
X7500Y-8700D02*
X7500Y-8300D01*
X10560Y-8939D02*
X11000Y-8500D01*
X7200Y-8000D02*
X7500Y-8300D01*
X4900Y-8000D02*
X7200Y-8000D01*
X4700Y-7800D02*
X4900Y-8000D01*
X4700Y-7200D02*
X4700Y-7800D01*
X4400Y-6900D02*
X4700Y-7200D01*
X22300Y-13000D02*
X23100Y-13000D01*
X22300Y-13000D02*
X22300Y-13000D01*
X22300Y-13000D02*
X18500Y-13000D01*
X18500Y-13000D02*
X17300Y-11800D01*
X17300Y-11800D02*
X13000Y-11800D01*
X13000Y-11800D02*
X11500Y-10300D01*
X11500Y-10300D02*
X11500Y-9000D01*
X11000Y-8500D02*
X11500Y-9000D01*
X27500Y-12000D02*
X28000Y-11500D01*
X25800Y-12000D02*
X27500Y-12000D01*
X25500Y-11700D02*
X25800Y-12000D01*
X25500Y-11300D02*
X25500Y-11700D01*
X25200Y-11000D02*
X25500Y-11300D01*
X24800Y-11000D02*
X25200Y-11000D01*
X24500Y-11300D02*
X24800Y-11000D01*
X24500Y-11600D02*
X24500Y-11300D01*
X23100Y-13000D02*
X24500Y-11600D01*
X13000Y-4000D02*
X12200Y-4800D01*
X15900Y-5500D02*
X17000Y-5500D01*
X15400Y-6000D02*
X15900Y-5500D01*
X11800Y-6000D02*
X15400Y-6000D01*
X11500Y-5700D02*
X11800Y-6000D01*
X11500Y-5200D02*
X11500Y-5700D01*
X11900Y-4800D02*
X11500Y-5200D01*
X12200Y-4800D02*
X11900Y-4800D01*
G54D29*
X6000Y-5500D02*
X5000Y-4500D01*
X5000Y-4500D02*
X4000Y-4500D01*
X7000Y-4500D02*
X6000Y-5500D01*
X6000Y-16500D02*
X6700Y-15800D01*
X10090Y-15800D02*
X10290Y-16000D01*
X6700Y-15800D02*
X10090Y-15800D01*
X10250Y-3500D02*
X12150Y-1600D01*
X15400Y-1600D02*
X16800Y-3000D01*
X12150Y-1600D02*
X15400Y-1600D01*
X5000Y-3500D02*
X7000Y-3500D01*
X7000Y-3500D02*
X10250Y-3500D01*
X4000Y-3500D02*
X5000Y-3500D01*
X4000Y-4500D02*
X4000Y-3500D01*
X10290Y-16000D02*
X11140Y-16850D01*
X11140Y-16850D02*
X14825Y-16850D01*
X10000Y-15710D02*
X10290Y-16000D01*
X37500Y-3000D02*
X36700Y-2200D01*
X30050Y-2200D02*
X28750Y-3500D01*
X36700Y-2200D02*
X30050Y-2200D01*
X25500Y-3000D02*
X28250Y-3000D01*
X28250Y-3000D02*
X28750Y-3500D01*
X17880Y-3000D02*
X16800Y-3000D01*
X18980Y-3000D02*
X17880Y-3000D01*
X20060Y-3000D02*
X18980Y-3000D01*
X21140Y-3000D02*
X20060Y-3000D01*
X22260Y-3000D02*
X21140Y-3000D01*
X23320Y-3000D02*
X22260Y-3000D01*
X24400Y-3000D02*
X23320Y-3000D01*
X25500Y-3000D02*
X24400Y-3000D01*
X16000Y-6500D02*
X18000Y-6500D01*
X18000Y-6500D02*
X19000Y-5500D01*
X26000Y-11500D02*
X26000Y-10500D01*
X26000Y-10500D02*
X26100Y-10500D01*
X24000Y-11500D02*
X24000Y-10500D01*
X33000Y-9500D02*
X34000Y-8500D01*
X34000Y-8500D02*
X34500Y-8500D01*
X16000Y-10500D02*
X24000Y-10500D01*
X24000Y-10500D02*
X26100Y-10500D01*
X26100Y-10500D02*
X32000Y-10500D01*
X32000Y-10500D02*
X33000Y-9500D01*
X19925Y-16850D02*
X19925Y-17625D01*
X26610Y-18100D02*
X28710Y-16000D01*
X20400Y-18100D02*
X26610Y-18100D01*
X19925Y-17625D02*
X20400Y-18100D01*
X31000Y-18000D02*
X29000Y-16000D01*
X29000Y-16000D02*
X28710Y-16000D01*
X36000Y-17000D02*
X34100Y-18900D01*
X31900Y-18900D02*
X31000Y-18000D01*
X34100Y-18900D02*
X31900Y-18900D01*
X36000Y-10500D02*
X36000Y-17000D01*
X14825Y-16850D02*
X14825Y-15150D01*
X15675Y-16850D02*
X14825Y-16850D01*
X16525Y-16850D02*
X15675Y-16850D01*
X17375Y-16850D02*
X16525Y-16850D01*
X18225Y-16850D02*
X17375Y-16850D01*
X19075Y-16850D02*
X18225Y-16850D01*
X19925Y-16850D02*
X19075Y-16850D01*
X36500Y-9500D02*
X37000Y-9500D01*
X37000Y-9500D02*
X37500Y-9000D01*
X36000Y-9500D02*
X36500Y-9500D01*
X34500Y-8500D02*
X35000Y-8500D01*
X35000Y-8500D02*
X36000Y-9500D01*
X36000Y-9500D02*
X36000Y-10500D01*
G54D28*
X1000Y-4500D02*
X500Y-5000D01*
X11200Y-11700D02*
X12000Y-12500D01*
X6300Y-11700D02*
X11200Y-11700D01*
X4500Y-9900D02*
X6300Y-11700D01*
X4500Y-9300D02*
X4500Y-9900D01*
X4200Y-9000D02*
X4500Y-9300D01*
X800Y-9000D02*
X4200Y-9000D01*
X500Y-8700D02*
X800Y-9000D01*
X500Y-5000D02*
X500Y-8700D01*
X6000Y-4500D02*
X6600Y-3900D01*
X7400Y-3900D02*
X8000Y-4500D01*
X6600Y-3900D02*
X7400Y-3900D01*
X2000Y-17500D02*
X2000Y-18250D01*
X5000Y-18500D02*
X7000Y-16500D01*
X2250Y-18500D02*
X5000Y-18500D01*
X2000Y-18250D02*
X2250Y-18500D01*
X2000Y-17500D02*
X2000Y-17500D01*
X7000Y-16500D02*
X7000Y-16500D01*
G54D29*
X34000Y-7250D02*
X35650Y-7250D01*
X35650Y-7250D02*
X37500Y-5400D01*
X38500Y-9000D02*
X37000Y-10500D01*
X38000Y-7250D02*
X38000Y-8500D01*
X38000Y-8500D02*
X38500Y-9000D01*
G54D28*
X4000Y-8500D02*
X4700Y-8500D01*
X6500Y-10000D02*
X7000Y-9500D01*
X5800Y-10000D02*
X6500Y-10000D01*
X5500Y-9700D02*
X5800Y-10000D01*
X5500Y-9300D02*
X5500Y-9700D01*
X4700Y-8500D02*
X5500Y-9300D01*
X10000Y-9500D02*
X11000Y-10500D01*
X23300Y-13200D02*
X25000Y-11500D01*
X18400Y-13200D02*
X23300Y-13200D01*
X17200Y-12000D02*
X18400Y-13200D01*
X12900Y-12000D02*
X17200Y-12000D01*
X11400Y-10500D02*
X12900Y-12000D01*
X11000Y-10500D02*
X11400Y-10500D01*
X7000Y-9500D02*
X7500Y-10000D01*
X9500Y-10000D02*
X10000Y-9500D01*
X7500Y-10000D02*
X9500Y-10000D01*
X13000Y-12500D02*
X11300Y-10800D01*
X6300Y-10800D02*
X5000Y-9500D01*
X11300Y-10800D02*
X6300Y-10800D01*
X1000Y-7500D02*
X4000Y-7500D01*
X4700Y-14000D02*
X2700Y-12000D01*
X29500Y-14000D02*
X4700Y-14000D01*
X31000Y-15500D02*
X29500Y-14000D01*
X760Y-12000D02*
X560Y-11800D01*
X2700Y-12000D02*
X760Y-12000D01*
X3500Y-10000D02*
X4000Y-10500D01*
X560Y-11800D02*
X560Y-10339D01*
X560Y-10339D02*
X900Y-10000D01*
X900Y-10000D02*
X3500Y-10000D01*
X560Y-11760D02*
X560Y-11800D01*
X32000Y-16500D02*
X31000Y-15500D01*
X32000Y-16500D02*
X32000Y-18000D01*
G54D29*
X6000Y-500D02*
X6000Y-2500D01*
X2500Y-3000D02*
X2000Y-3500D01*
X5500Y-3000D02*
X2500Y-3000D01*
X6000Y-2500D02*
X5500Y-3000D01*
X18000Y-13500D02*
X23500Y-13500D01*
X17000Y-12500D02*
X18000Y-13500D01*
X24500Y-12500D02*
X26000Y-12500D01*
X23500Y-13500D02*
X24500Y-12500D01*
X3000Y-11500D02*
X5000Y-13500D01*
X2000Y-11500D02*
X3000Y-11500D01*
X1000Y-11500D02*
X2000Y-11500D01*
X1000Y-10500D02*
X1000Y-11500D01*
X26000Y-12500D02*
X26000Y-12500D01*
X7000Y-13500D02*
X14000Y-13500D01*
X14000Y-13500D02*
X15000Y-12500D01*
X6000Y-13500D02*
X7000Y-13500D01*
X5000Y-13500D02*
X6000Y-13500D01*
X16000Y-8500D02*
X17000Y-9500D01*
X15000Y-8500D02*
X16000Y-8500D01*
X15000Y-12500D02*
X16000Y-12500D01*
X16000Y-12500D02*
X17000Y-12500D01*
X31000Y-12500D02*
X26000Y-12500D01*
X32000Y-12500D02*
X31000Y-12500D01*
X33000Y-11500D02*
X34000Y-11500D01*
X34000Y-11500D02*
X35000Y-10500D01*
X32000Y-11500D02*
X33000Y-11500D01*
X32000Y-12500D02*
X32000Y-11500D01*
X34500Y-9500D02*
X34500Y-10000D01*
X34500Y-10000D02*
X35000Y-10500D01*
G54D10*
G36*
X6061Y-14505D02*
X6005Y-14561D01*
X6000Y-14555D01*
X5994Y-14561D01*
X5938Y-14505D01*
X5944Y-14500D01*
X5938Y-14494D01*
X5994Y-14438D01*
X6000Y-14444D01*
X6005Y-14438D01*
X6061Y-14494D01*
X6055Y-14500D01*
X6061Y-14505D01*
X6061Y-14505D01*
G37*
G54D30*
X6061Y-14505D02*
X6005Y-14561D01*
X6000Y-14555D01*
X5994Y-14561D01*
X5938Y-14505D01*
X5944Y-14500D01*
X5938Y-14494D01*
X5994Y-14438D01*
X6000Y-14444D01*
X6005Y-14438D01*
X6061Y-14494D01*
X6055Y-14500D01*
X6061Y-14505D01*
G54D10*
G36*
X9061Y-9505D02*
X9005Y-9561D01*
X9000Y-9555D01*
X8994Y-9561D01*
X8938Y-9505D01*
X8944Y-9500D01*
X8938Y-9494D01*
X8994Y-9438D01*
X9000Y-9444D01*
X9005Y-9438D01*
X9061Y-9494D01*
X9055Y-9500D01*
X9061Y-9505D01*
X9061Y-9505D01*
G37*
G54D30*
X9061Y-9505D02*
X9005Y-9561D01*
X9000Y-9555D01*
X8994Y-9561D01*
X8938Y-9505D01*
X8944Y-9500D01*
X8938Y-9494D01*
X8994Y-9438D01*
X9000Y-9444D01*
X9005Y-9438D01*
X9061Y-9494D01*
X9055Y-9500D01*
X9061Y-9505D01*
G54D10*
G36*
X14060Y-12974D02*
X13863Y-13171D01*
X10445Y-13171D01*
X10445Y-12566D01*
X10437Y-12390D01*
X10386Y-12268D01*
X10315Y-12240D01*
X10259Y-12295D01*
X10259Y-12184D01*
X10231Y-12113D01*
X10066Y-12054D01*
X9890Y-12062D01*
X9768Y-12113D01*
X9740Y-12184D01*
X10000Y-12444D01*
X10259Y-12184D01*
X10259Y-12295D01*
X10055Y-12500D01*
X10315Y-12759D01*
X10386Y-12731D01*
X10445Y-12566D01*
X10445Y-13171D01*
X10259Y-13171D01*
X10259Y-12815D01*
X10000Y-12555D01*
X9944Y-12611D01*
X9944Y-12500D01*
X9684Y-12240D01*
X9613Y-12268D01*
X9554Y-12433D01*
X9562Y-12609D01*
X9613Y-12731D01*
X9684Y-12759D01*
X9944Y-12500D01*
X9944Y-12611D01*
X9740Y-12815D01*
X9768Y-12886D01*
X9933Y-12945D01*
X10109Y-12937D01*
X10231Y-12886D01*
X10259Y-12815D01*
X10259Y-13171D01*
X9474Y-13171D01*
X9474Y-12406D01*
X9402Y-12231D01*
X9268Y-12098D01*
X9094Y-12026D01*
X8906Y-12025D01*
X8731Y-12097D01*
X8598Y-12231D01*
X8526Y-12405D01*
X8525Y-12593D01*
X8597Y-12768D01*
X8731Y-12901D01*
X8905Y-12973D01*
X9093Y-12974D01*
X9268Y-12902D01*
X9401Y-12768D01*
X9473Y-12594D01*
X9474Y-12406D01*
X9474Y-13171D01*
X7376Y-13171D01*
X7283Y-13077D01*
X7099Y-13001D01*
X6901Y-13000D01*
X6717Y-13076D01*
X6623Y-13171D01*
X6376Y-13171D01*
X6283Y-13077D01*
X6099Y-13001D01*
X5901Y-13000D01*
X5717Y-13076D01*
X5623Y-13171D01*
X5376Y-13171D01*
X5283Y-13077D01*
X5099Y-13001D01*
X4966Y-13000D01*
X3498Y-11533D01*
X3499Y-11401D01*
X3423Y-11217D01*
X3283Y-11077D01*
X3099Y-11001D01*
X2901Y-11000D01*
X2717Y-11076D01*
X2623Y-11171D01*
X2376Y-11171D01*
X2283Y-11077D01*
X2099Y-11001D01*
X1901Y-11000D01*
X1717Y-11076D01*
X1623Y-11171D01*
X1376Y-11171D01*
X1329Y-11123D01*
X1329Y-10841D01*
X1401Y-10768D01*
X1473Y-10594D01*
X1474Y-10406D01*
X1405Y-10239D01*
X3401Y-10239D01*
X3525Y-10363D01*
X3525Y-10814D01*
X3556Y-10887D01*
X3612Y-10943D01*
X3685Y-10973D01*
X3764Y-10974D01*
X4314Y-10974D01*
X4387Y-10943D01*
X4443Y-10887D01*
X4473Y-10814D01*
X4474Y-10735D01*
X4474Y-10212D01*
X6131Y-11868D01*
X6131Y-11868D01*
X6208Y-11920D01*
X6300Y-11939D01*
X11101Y-11939D01*
X11254Y-12092D01*
X11094Y-12026D01*
X10906Y-12025D01*
X10731Y-12097D01*
X10598Y-12231D01*
X10526Y-12405D01*
X10525Y-12593D01*
X10597Y-12768D01*
X10731Y-12901D01*
X10905Y-12973D01*
X11093Y-12974D01*
X11268Y-12902D01*
X11401Y-12768D01*
X11473Y-12594D01*
X11474Y-12406D01*
X11407Y-12245D01*
X11538Y-12376D01*
X11526Y-12405D01*
X11525Y-12593D01*
X11597Y-12768D01*
X11731Y-12901D01*
X11905Y-12973D01*
X12093Y-12974D01*
X12268Y-12902D01*
X12401Y-12768D01*
X12473Y-12594D01*
X12474Y-12406D01*
X12407Y-12245D01*
X12538Y-12376D01*
X12526Y-12405D01*
X12525Y-12593D01*
X12597Y-12768D01*
X12731Y-12901D01*
X12905Y-12973D01*
X13093Y-12974D01*
X13268Y-12902D01*
X13401Y-12768D01*
X13473Y-12594D01*
X13474Y-12406D01*
X13405Y-12239D01*
X13595Y-12239D01*
X13526Y-12405D01*
X13525Y-12593D01*
X13597Y-12768D01*
X13731Y-12901D01*
X13905Y-12973D01*
X14060Y-12974D01*
X14060Y-12974D01*
G37*
G54D30*
X14060Y-12974D02*
X13863Y-13171D01*
X10445Y-13171D01*
X10445Y-12566D01*
X10437Y-12390D01*
X10386Y-12268D01*
X10315Y-12240D01*
X10259Y-12295D01*
X10259Y-12184D01*
X10231Y-12113D01*
X10066Y-12054D01*
X9890Y-12062D01*
X9768Y-12113D01*
X9740Y-12184D01*
X10000Y-12444D01*
X10259Y-12184D01*
X10259Y-12295D01*
X10055Y-12500D01*
X10315Y-12759D01*
X10386Y-12731D01*
X10445Y-12566D01*
X10445Y-13171D01*
X10259Y-13171D01*
X10259Y-12815D01*
X10000Y-12555D01*
X9944Y-12611D01*
X9944Y-12500D01*
X9684Y-12240D01*
X9613Y-12268D01*
X9554Y-12433D01*
X9562Y-12609D01*
X9613Y-12731D01*
X9684Y-12759D01*
X9944Y-12500D01*
X9944Y-12611D01*
X9740Y-12815D01*
X9768Y-12886D01*
X9933Y-12945D01*
X10109Y-12937D01*
X10231Y-12886D01*
X10259Y-12815D01*
X10259Y-13171D01*
X9474Y-13171D01*
X9474Y-12406D01*
X9402Y-12231D01*
X9268Y-12098D01*
X9094Y-12026D01*
X8906Y-12025D01*
X8731Y-12097D01*
X8598Y-12231D01*
X8526Y-12405D01*
X8525Y-12593D01*
X8597Y-12768D01*
X8731Y-12901D01*
X8905Y-12973D01*
X9093Y-12974D01*
X9268Y-12902D01*
X9401Y-12768D01*
X9473Y-12594D01*
X9474Y-12406D01*
X9474Y-13171D01*
X7376Y-13171D01*
X7283Y-13077D01*
X7099Y-13001D01*
X6901Y-13000D01*
X6717Y-13076D01*
X6623Y-13171D01*
X6376Y-13171D01*
X6283Y-13077D01*
X6099Y-13001D01*
X5901Y-13000D01*
X5717Y-13076D01*
X5623Y-13171D01*
X5376Y-13171D01*
X5283Y-13077D01*
X5099Y-13001D01*
X4966Y-13000D01*
X3498Y-11533D01*
X3499Y-11401D01*
X3423Y-11217D01*
X3283Y-11077D01*
X3099Y-11001D01*
X2901Y-11000D01*
X2717Y-11076D01*
X2623Y-11171D01*
X2376Y-11171D01*
X2283Y-11077D01*
X2099Y-11001D01*
X1901Y-11000D01*
X1717Y-11076D01*
X1623Y-11171D01*
X1376Y-11171D01*
X1329Y-11123D01*
X1329Y-10841D01*
X1401Y-10768D01*
X1473Y-10594D01*
X1474Y-10406D01*
X1405Y-10239D01*
X3401Y-10239D01*
X3525Y-10363D01*
X3525Y-10814D01*
X3556Y-10887D01*
X3612Y-10943D01*
X3685Y-10973D01*
X3764Y-10974D01*
X4314Y-10974D01*
X4387Y-10943D01*
X4443Y-10887D01*
X4473Y-10814D01*
X4474Y-10735D01*
X4474Y-10212D01*
X6131Y-11868D01*
X6131Y-11868D01*
X6208Y-11920D01*
X6300Y-11939D01*
X11101Y-11939D01*
X11254Y-12092D01*
X11094Y-12026D01*
X10906Y-12025D01*
X10731Y-12097D01*
X10598Y-12231D01*
X10526Y-12405D01*
X10525Y-12593D01*
X10597Y-12768D01*
X10731Y-12901D01*
X10905Y-12973D01*
X11093Y-12974D01*
X11268Y-12902D01*
X11401Y-12768D01*
X11473Y-12594D01*
X11474Y-12406D01*
X11407Y-12245D01*
X11538Y-12376D01*
X11526Y-12405D01*
X11525Y-12593D01*
X11597Y-12768D01*
X11731Y-12901D01*
X11905Y-12973D01*
X12093Y-12974D01*
X12268Y-12902D01*
X12401Y-12768D01*
X12473Y-12594D01*
X12474Y-12406D01*
X12407Y-12245D01*
X12538Y-12376D01*
X12526Y-12405D01*
X12525Y-12593D01*
X12597Y-12768D01*
X12731Y-12901D01*
X12905Y-12973D01*
X13093Y-12974D01*
X13268Y-12902D01*
X13401Y-12768D01*
X13473Y-12594D01*
X13474Y-12406D01*
X13405Y-12239D01*
X13595Y-12239D01*
X13526Y-12405D01*
X13525Y-12593D01*
X13597Y-12768D01*
X13731Y-12901D01*
X13905Y-12973D01*
X14060Y-12974D01*
G54D10*
G36*
X38771Y-19271D02*
X37917Y-19271D01*
X37917Y-18783D01*
X37917Y-15216D01*
X37891Y-15155D01*
X37844Y-15108D01*
X37783Y-15082D01*
X37716Y-15082D01*
X36314Y-15082D01*
X36314Y-10870D01*
X36000Y-10555D01*
X35685Y-10870D01*
X35722Y-10948D01*
X35915Y-11020D01*
X36121Y-11013D01*
X36277Y-10948D01*
X36314Y-10870D01*
X36314Y-15082D01*
X36081Y-15082D01*
X36039Y-15124D01*
X36039Y-16960D01*
X37875Y-16960D01*
X37917Y-16918D01*
X37917Y-15216D01*
X37917Y-18783D01*
X37917Y-17081D01*
X37875Y-17039D01*
X36039Y-17039D01*
X36039Y-18875D01*
X36081Y-18917D01*
X37716Y-18917D01*
X37783Y-18917D01*
X37844Y-18891D01*
X37891Y-18844D01*
X37917Y-18783D01*
X37917Y-19271D01*
X35960Y-19271D01*
X35960Y-18875D01*
X35960Y-17039D01*
X35960Y-16960D01*
X35960Y-15124D01*
X35918Y-15082D01*
X34283Y-15082D01*
X34216Y-15082D01*
X34155Y-15108D01*
X34108Y-15155D01*
X34082Y-15216D01*
X34082Y-16918D01*
X34124Y-16960D01*
X35960Y-16960D01*
X35960Y-17039D01*
X34124Y-17039D01*
X34082Y-17081D01*
X34082Y-18783D01*
X34108Y-18844D01*
X34155Y-18891D01*
X34216Y-18917D01*
X34283Y-18917D01*
X35918Y-18917D01*
X35960Y-18875D01*
X35960Y-19271D01*
X31445Y-19271D01*
X31445Y-18066D01*
X31437Y-17890D01*
X31386Y-17768D01*
X31315Y-17740D01*
X31259Y-17795D01*
X31259Y-17684D01*
X31231Y-17613D01*
X31066Y-17554D01*
X30890Y-17562D01*
X30768Y-17613D01*
X30740Y-17684D01*
X31000Y-17944D01*
X31259Y-17684D01*
X31259Y-17795D01*
X31055Y-18000D01*
X31315Y-18259D01*
X31386Y-18231D01*
X31445Y-18066D01*
X31445Y-19271D01*
X31259Y-19271D01*
X31259Y-18315D01*
X31000Y-18055D01*
X30944Y-18111D01*
X30944Y-18000D01*
X30684Y-17740D01*
X30613Y-17768D01*
X30554Y-17933D01*
X30562Y-18109D01*
X30613Y-18231D01*
X30684Y-18259D01*
X30944Y-18000D01*
X30944Y-18111D01*
X30740Y-18315D01*
X30768Y-18386D01*
X30933Y-18445D01*
X31109Y-18437D01*
X31231Y-18386D01*
X31259Y-18315D01*
X31259Y-19271D01*
X30029Y-19271D01*
X30029Y-15750D01*
X29833Y-15264D01*
X29819Y-15242D01*
X29657Y-15108D01*
X29601Y-15164D01*
X29601Y-15052D01*
X29467Y-14890D01*
X28984Y-14685D01*
X28460Y-14680D01*
X27974Y-14876D01*
X27952Y-14890D01*
X27818Y-15052D01*
X28710Y-15944D01*
X29601Y-15052D01*
X29601Y-15164D01*
X28765Y-16000D01*
X29657Y-16891D01*
X29819Y-16757D01*
X30024Y-16274D01*
X30029Y-15750D01*
X30029Y-19271D01*
X29601Y-19271D01*
X29601Y-16947D01*
X28710Y-16055D01*
X28654Y-16111D01*
X28654Y-16000D01*
X27762Y-15108D01*
X27600Y-15242D01*
X27395Y-15725D01*
X27390Y-16249D01*
X27586Y-16735D01*
X27600Y-16757D01*
X27762Y-16891D01*
X28654Y-16000D01*
X28654Y-16111D01*
X27818Y-16947D01*
X27952Y-17109D01*
X28435Y-17314D01*
X28959Y-17319D01*
X29445Y-17123D01*
X29467Y-17109D01*
X29601Y-16947D01*
X29601Y-19271D01*
X24634Y-19271D01*
X24634Y-17124D01*
X24634Y-16575D01*
X24599Y-16400D01*
X24499Y-16251D01*
X24350Y-16151D01*
X24175Y-16116D01*
X23999Y-16151D01*
X23850Y-16251D01*
X23750Y-16400D01*
X23750Y-16404D01*
X23749Y-16400D01*
X23649Y-16251D01*
X23500Y-16151D01*
X23325Y-16116D01*
X23149Y-16151D01*
X23000Y-16251D01*
X22900Y-16400D01*
X22900Y-16404D01*
X22899Y-16400D01*
X22799Y-16251D01*
X22650Y-16151D01*
X22475Y-16116D01*
X22299Y-16151D01*
X22150Y-16251D01*
X22050Y-16400D01*
X22050Y-16404D01*
X22049Y-16400D01*
X21949Y-16251D01*
X21800Y-16151D01*
X21625Y-16116D01*
X21449Y-16151D01*
X21300Y-16251D01*
X21200Y-16400D01*
X21200Y-16404D01*
X21199Y-16400D01*
X21099Y-16251D01*
X20950Y-16151D01*
X20775Y-16116D01*
X20599Y-16151D01*
X20450Y-16251D01*
X20350Y-16400D01*
X20333Y-16487D01*
X20304Y-16390D01*
X20199Y-16260D01*
X20051Y-16180D01*
X20030Y-16176D01*
X19964Y-16206D01*
X19964Y-16810D01*
X19972Y-16810D01*
X19972Y-16889D01*
X19964Y-16889D01*
X19964Y-17493D01*
X20030Y-17523D01*
X20051Y-17519D01*
X20199Y-17439D01*
X20304Y-17309D01*
X20333Y-17212D01*
X20350Y-17299D01*
X20450Y-17448D01*
X20599Y-17548D01*
X20775Y-17583D01*
X20950Y-17548D01*
X21099Y-17448D01*
X21199Y-17299D01*
X21200Y-17295D01*
X21200Y-17299D01*
X21300Y-17448D01*
X21449Y-17548D01*
X21625Y-17583D01*
X21800Y-17548D01*
X21949Y-17448D01*
X22049Y-17299D01*
X22050Y-17295D01*
X22050Y-17299D01*
X22150Y-17448D01*
X22299Y-17548D01*
X22475Y-17583D01*
X22650Y-17548D01*
X22799Y-17448D01*
X22899Y-17299D01*
X22900Y-17295D01*
X22900Y-17299D01*
X23000Y-17448D01*
X23149Y-17548D01*
X23325Y-17583D01*
X23500Y-17548D01*
X23649Y-17448D01*
X23749Y-17299D01*
X23750Y-17295D01*
X23750Y-17299D01*
X23850Y-17448D01*
X23999Y-17548D01*
X24175Y-17583D01*
X24350Y-17548D01*
X24499Y-17448D01*
X24599Y-17299D01*
X24634Y-17124D01*
X24634Y-19271D01*
X19885Y-19271D01*
X19885Y-17493D01*
X19885Y-16889D01*
X19885Y-16810D01*
X19885Y-16206D01*
X19819Y-16176D01*
X19798Y-16180D01*
X19650Y-16260D01*
X19545Y-16390D01*
X19500Y-16543D01*
X19454Y-16390D01*
X19349Y-16260D01*
X19201Y-16180D01*
X19180Y-16176D01*
X19114Y-16206D01*
X19114Y-16810D01*
X19497Y-16810D01*
X19502Y-16810D01*
X19885Y-16810D01*
X19885Y-16889D01*
X19502Y-16889D01*
X19497Y-16889D01*
X19114Y-16889D01*
X19114Y-17493D01*
X19180Y-17523D01*
X19201Y-17519D01*
X19349Y-17439D01*
X19454Y-17309D01*
X19500Y-17156D01*
X19545Y-17309D01*
X19650Y-17439D01*
X19798Y-17519D01*
X19819Y-17523D01*
X19885Y-17493D01*
X19885Y-19271D01*
X19035Y-19271D01*
X19035Y-17493D01*
X19035Y-16889D01*
X19035Y-16810D01*
X19035Y-16206D01*
X18969Y-16176D01*
X18948Y-16180D01*
X18800Y-16260D01*
X18695Y-16390D01*
X18650Y-16543D01*
X18604Y-16390D01*
X18499Y-16260D01*
X18351Y-16180D01*
X18330Y-16176D01*
X18264Y-16206D01*
X18264Y-16810D01*
X18647Y-16810D01*
X18652Y-16810D01*
X19035Y-16810D01*
X19035Y-16889D01*
X18652Y-16889D01*
X18647Y-16889D01*
X18264Y-16889D01*
X18264Y-17493D01*
X18330Y-17523D01*
X18351Y-17519D01*
X18499Y-17439D01*
X18604Y-17309D01*
X18650Y-17156D01*
X18695Y-17309D01*
X18800Y-17439D01*
X18948Y-17519D01*
X18969Y-17523D01*
X19035Y-17493D01*
X19035Y-19271D01*
X18185Y-19271D01*
X18185Y-17493D01*
X18185Y-16889D01*
X18185Y-16810D01*
X18185Y-16206D01*
X18119Y-16176D01*
X18098Y-16180D01*
X17950Y-16260D01*
X17845Y-16390D01*
X17800Y-16543D01*
X17754Y-16390D01*
X17649Y-16260D01*
X17501Y-16180D01*
X17480Y-16176D01*
X17414Y-16206D01*
X17414Y-16810D01*
X17797Y-16810D01*
X17802Y-16810D01*
X18185Y-16810D01*
X18185Y-16889D01*
X17802Y-16889D01*
X17797Y-16889D01*
X17414Y-16889D01*
X17414Y-17493D01*
X17480Y-17523D01*
X17501Y-17519D01*
X17649Y-17439D01*
X17754Y-17309D01*
X17800Y-17156D01*
X17845Y-17309D01*
X17950Y-17439D01*
X18098Y-17519D01*
X18119Y-17523D01*
X18185Y-17493D01*
X18185Y-19271D01*
X17335Y-19271D01*
X17335Y-17493D01*
X17335Y-16889D01*
X17335Y-16810D01*
X17335Y-16206D01*
X17269Y-16176D01*
X17248Y-16180D01*
X17100Y-16260D01*
X16995Y-16390D01*
X16950Y-16543D01*
X16904Y-16390D01*
X16799Y-16260D01*
X16651Y-16180D01*
X16630Y-16176D01*
X16564Y-16206D01*
X16564Y-16810D01*
X16947Y-16810D01*
X16952Y-16810D01*
X17335Y-16810D01*
X17335Y-16889D01*
X16952Y-16889D01*
X16947Y-16889D01*
X16564Y-16889D01*
X16564Y-17493D01*
X16630Y-17523D01*
X16651Y-17519D01*
X16799Y-17439D01*
X16904Y-17309D01*
X16950Y-17156D01*
X16995Y-17309D01*
X17100Y-17439D01*
X17248Y-17519D01*
X17269Y-17523D01*
X17335Y-17493D01*
X17335Y-19271D01*
X16485Y-19271D01*
X16485Y-17493D01*
X16485Y-16889D01*
X16485Y-16810D01*
X16485Y-16206D01*
X16419Y-16176D01*
X16398Y-16180D01*
X16250Y-16260D01*
X16145Y-16390D01*
X16100Y-16543D01*
X16054Y-16390D01*
X15949Y-16260D01*
X15801Y-16180D01*
X15780Y-16176D01*
X15714Y-16206D01*
X15714Y-16810D01*
X16097Y-16810D01*
X16102Y-16810D01*
X16485Y-16810D01*
X16485Y-16889D01*
X16102Y-16889D01*
X16097Y-16889D01*
X15714Y-16889D01*
X15714Y-17493D01*
X15780Y-17523D01*
X15801Y-17519D01*
X15949Y-17439D01*
X16054Y-17309D01*
X16100Y-17156D01*
X16145Y-17309D01*
X16250Y-17439D01*
X16398Y-17519D01*
X16419Y-17523D01*
X16485Y-17493D01*
X16485Y-19271D01*
X15635Y-19271D01*
X15635Y-17493D01*
X15635Y-16889D01*
X15635Y-16810D01*
X15635Y-16206D01*
X15569Y-16176D01*
X15548Y-16180D01*
X15400Y-16260D01*
X15295Y-16390D01*
X15250Y-16543D01*
X15204Y-16390D01*
X15099Y-16260D01*
X14951Y-16180D01*
X14930Y-16176D01*
X14864Y-16206D01*
X14864Y-16810D01*
X15247Y-16810D01*
X15252Y-16810D01*
X15635Y-16810D01*
X15635Y-16889D01*
X15252Y-16889D01*
X15247Y-16889D01*
X14864Y-16889D01*
X14864Y-17493D01*
X14930Y-17523D01*
X14951Y-17519D01*
X15099Y-17439D01*
X15204Y-17309D01*
X15250Y-17156D01*
X15295Y-17309D01*
X15400Y-17439D01*
X15548Y-17519D01*
X15569Y-17523D01*
X15635Y-17493D01*
X15635Y-19271D01*
X14785Y-19271D01*
X14785Y-17493D01*
X14785Y-16889D01*
X14785Y-16810D01*
X14785Y-16206D01*
X14785Y-15793D01*
X14785Y-15189D01*
X14397Y-15189D01*
X14397Y-15449D01*
X14445Y-15609D01*
X14550Y-15739D01*
X14698Y-15819D01*
X14719Y-15823D01*
X14785Y-15793D01*
X14785Y-16206D01*
X14719Y-16176D01*
X14698Y-16180D01*
X14550Y-16260D01*
X14445Y-16390D01*
X14397Y-16550D01*
X14397Y-16810D01*
X14785Y-16810D01*
X14785Y-16889D01*
X14397Y-16889D01*
X14397Y-17149D01*
X14445Y-17309D01*
X14550Y-17439D01*
X14698Y-17519D01*
X14719Y-17523D01*
X14785Y-17493D01*
X14785Y-19271D01*
X11609Y-19271D01*
X11609Y-15750D01*
X11413Y-15264D01*
X11399Y-15242D01*
X11237Y-15108D01*
X11181Y-15164D01*
X11181Y-15052D01*
X11047Y-14890D01*
X10564Y-14685D01*
X10040Y-14680D01*
X9554Y-14876D01*
X9532Y-14890D01*
X9398Y-15052D01*
X10290Y-15944D01*
X11181Y-15052D01*
X11181Y-15164D01*
X10345Y-16000D01*
X11237Y-16891D01*
X11399Y-16757D01*
X11604Y-16274D01*
X11609Y-15750D01*
X11609Y-19271D01*
X11181Y-19271D01*
X11181Y-16947D01*
X10290Y-16055D01*
X10234Y-16111D01*
X10234Y-16000D01*
X9342Y-15108D01*
X9180Y-15242D01*
X8975Y-15725D01*
X8970Y-16249D01*
X9166Y-16735D01*
X9180Y-16757D01*
X9342Y-16891D01*
X10234Y-16000D01*
X10234Y-16111D01*
X9398Y-16947D01*
X9532Y-17109D01*
X10015Y-17314D01*
X10539Y-17319D01*
X11025Y-17123D01*
X11047Y-17109D01*
X11181Y-16947D01*
X11181Y-19271D01*
X7499Y-19271D01*
X7499Y-16401D01*
X7423Y-16217D01*
X7283Y-16077D01*
X7099Y-16001D01*
X6901Y-16000D01*
X6717Y-16076D01*
X6577Y-16216D01*
X6501Y-16400D01*
X6500Y-16598D01*
X6519Y-16642D01*
X6470Y-16691D01*
X6358Y-16803D01*
X6333Y-16778D01*
X6407Y-16747D01*
X6470Y-16572D01*
X6462Y-16386D01*
X6407Y-16252D01*
X6333Y-16221D01*
X6278Y-16277D01*
X6278Y-16166D01*
X6247Y-16092D01*
X6072Y-16029D01*
X5886Y-16037D01*
X5752Y-16092D01*
X5721Y-16166D01*
X6000Y-16444D01*
X6278Y-16166D01*
X6278Y-16277D01*
X6055Y-16500D01*
X6061Y-16505D01*
X6005Y-16561D01*
X6000Y-16555D01*
X5944Y-16611D01*
X5944Y-16500D01*
X5666Y-16221D01*
X5592Y-16252D01*
X5529Y-16427D01*
X5537Y-16613D01*
X5592Y-16747D01*
X5666Y-16778D01*
X5944Y-16500D01*
X5944Y-16611D01*
X5721Y-16833D01*
X5752Y-16907D01*
X5927Y-16970D01*
X6113Y-16962D01*
X6247Y-16907D01*
X6278Y-16833D01*
X6278Y-16833D01*
X6303Y-16858D01*
X6278Y-16883D01*
X5499Y-17662D01*
X5499Y-16401D01*
X5423Y-16217D01*
X5283Y-16077D01*
X5099Y-16001D01*
X4901Y-16000D01*
X4717Y-16076D01*
X4577Y-16216D01*
X4501Y-16400D01*
X4500Y-16598D01*
X4576Y-16782D01*
X4716Y-16922D01*
X4900Y-16998D01*
X5098Y-16999D01*
X5282Y-16923D01*
X5422Y-16783D01*
X5498Y-16599D01*
X5499Y-16401D01*
X5499Y-17662D01*
X4901Y-18261D01*
X2348Y-18261D01*
X2239Y-18151D01*
X2239Y-18132D01*
X2433Y-18132D01*
X2500Y-18104D01*
X2566Y-18132D01*
X2645Y-18132D01*
X3433Y-18132D01*
X3506Y-18101D01*
X3562Y-18045D01*
X3592Y-17972D01*
X3592Y-17893D01*
X3592Y-17027D01*
X3581Y-17000D01*
X3592Y-16972D01*
X3592Y-16893D01*
X3592Y-16027D01*
X3562Y-15954D01*
X3506Y-15898D01*
X3433Y-15867D01*
X3354Y-15867D01*
X3337Y-15867D01*
X3422Y-15783D01*
X3498Y-15599D01*
X3499Y-15401D01*
X3423Y-15217D01*
X3283Y-15077D01*
X3099Y-15001D01*
X2901Y-15000D01*
X2717Y-15076D01*
X2577Y-15216D01*
X2501Y-15400D01*
X2500Y-15598D01*
X2576Y-15782D01*
X2662Y-15867D01*
X2566Y-15867D01*
X2499Y-15895D01*
X2433Y-15867D01*
X2354Y-15867D01*
X2337Y-15867D01*
X2422Y-15783D01*
X2498Y-15599D01*
X2499Y-15401D01*
X2423Y-15217D01*
X2283Y-15077D01*
X2099Y-15001D01*
X1901Y-15000D01*
X1717Y-15076D01*
X1577Y-15216D01*
X1501Y-15400D01*
X1500Y-15598D01*
X1576Y-15782D01*
X1662Y-15867D01*
X1566Y-15867D01*
X1499Y-15895D01*
X1433Y-15867D01*
X1354Y-15867D01*
X1337Y-15867D01*
X1422Y-15783D01*
X1498Y-15599D01*
X1499Y-15401D01*
X1423Y-15217D01*
X1283Y-15077D01*
X1099Y-15001D01*
X901Y-15000D01*
X717Y-15076D01*
X577Y-15216D01*
X501Y-15400D01*
X500Y-15598D01*
X576Y-15782D01*
X662Y-15867D01*
X566Y-15867D01*
X493Y-15898D01*
X437Y-15954D01*
X407Y-16027D01*
X407Y-16106D01*
X407Y-16972D01*
X418Y-16999D01*
X407Y-17027D01*
X407Y-17106D01*
X407Y-17972D01*
X437Y-18045D01*
X493Y-18101D01*
X566Y-18132D01*
X645Y-18132D01*
X1433Y-18132D01*
X1500Y-18104D01*
X1566Y-18132D01*
X1645Y-18132D01*
X1761Y-18132D01*
X1761Y-18250D01*
X1779Y-18341D01*
X1831Y-18418D01*
X2081Y-18668D01*
X2081Y-18668D01*
X2158Y-18720D01*
X2250Y-18739D01*
X5000Y-18739D01*
X5091Y-18720D01*
X5091Y-18720D01*
X5168Y-18668D01*
X6857Y-16980D01*
X6900Y-16998D01*
X7098Y-16999D01*
X7282Y-16923D01*
X7422Y-16783D01*
X7498Y-16599D01*
X7499Y-16401D01*
X7499Y-19271D01*
X228Y-19271D01*
X228Y-12065D01*
X231Y-12068D01*
X631Y-12468D01*
X631Y-12468D01*
X708Y-12520D01*
X799Y-12538D01*
X800Y-12539D01*
X2501Y-12539D01*
X4161Y-14198D01*
X4161Y-14700D01*
X4179Y-14791D01*
X4231Y-14868D01*
X4531Y-15168D01*
X4531Y-15168D01*
X4608Y-15220D01*
X4699Y-15238D01*
X4700Y-15239D01*
X7300Y-15239D01*
X7391Y-15220D01*
X7391Y-15220D01*
X7468Y-15168D01*
X8098Y-14539D01*
X14400Y-14539D01*
X14589Y-14539D01*
X14550Y-14560D01*
X14445Y-14690D01*
X14397Y-14850D01*
X14397Y-15110D01*
X14785Y-15110D01*
X14785Y-15102D01*
X14864Y-15102D01*
X14864Y-15110D01*
X14872Y-15110D01*
X14872Y-15189D01*
X14864Y-15189D01*
X14864Y-15793D01*
X14930Y-15823D01*
X14951Y-15819D01*
X15099Y-15739D01*
X15204Y-15609D01*
X15233Y-15512D01*
X15250Y-15599D01*
X15350Y-15748D01*
X15499Y-15848D01*
X15675Y-15883D01*
X15850Y-15848D01*
X15999Y-15748D01*
X16099Y-15599D01*
X16100Y-15595D01*
X16100Y-15599D01*
X16200Y-15748D01*
X16349Y-15848D01*
X16525Y-15883D01*
X16700Y-15848D01*
X16849Y-15748D01*
X16949Y-15599D01*
X16950Y-15595D01*
X16950Y-15599D01*
X17050Y-15748D01*
X17199Y-15848D01*
X17375Y-15883D01*
X17550Y-15848D01*
X17699Y-15748D01*
X17799Y-15599D01*
X17800Y-15595D01*
X17800Y-15599D01*
X17900Y-15748D01*
X18049Y-15848D01*
X18225Y-15883D01*
X18400Y-15848D01*
X18549Y-15748D01*
X18649Y-15599D01*
X18650Y-15595D01*
X18650Y-15599D01*
X18750Y-15748D01*
X18899Y-15848D01*
X19075Y-15883D01*
X19250Y-15848D01*
X19399Y-15748D01*
X19499Y-15599D01*
X19500Y-15595D01*
X19500Y-15599D01*
X19600Y-15748D01*
X19749Y-15848D01*
X19925Y-15883D01*
X20100Y-15848D01*
X20249Y-15748D01*
X20349Y-15599D01*
X20350Y-15595D01*
X20350Y-15599D01*
X20450Y-15748D01*
X20599Y-15848D01*
X20775Y-15883D01*
X20950Y-15848D01*
X21099Y-15748D01*
X21199Y-15599D01*
X21200Y-15595D01*
X21200Y-15599D01*
X21300Y-15748D01*
X21449Y-15848D01*
X21625Y-15883D01*
X21800Y-15848D01*
X21949Y-15748D01*
X22049Y-15599D01*
X22050Y-15595D01*
X22050Y-15599D01*
X22150Y-15748D01*
X22299Y-15848D01*
X22475Y-15883D01*
X22650Y-15848D01*
X22799Y-15748D01*
X22899Y-15599D01*
X22900Y-15595D01*
X22900Y-15599D01*
X23000Y-15748D01*
X23149Y-15848D01*
X23325Y-15883D01*
X23500Y-15848D01*
X23649Y-15748D01*
X23749Y-15599D01*
X23750Y-15595D01*
X23750Y-15599D01*
X23850Y-15748D01*
X23999Y-15848D01*
X24175Y-15883D01*
X24350Y-15848D01*
X24499Y-15748D01*
X24599Y-15599D01*
X24634Y-15424D01*
X24634Y-14875D01*
X24599Y-14700D01*
X24499Y-14551D01*
X24350Y-14451D01*
X24175Y-14416D01*
X23999Y-14451D01*
X23850Y-14551D01*
X23750Y-14700D01*
X23750Y-14704D01*
X23749Y-14700D01*
X23649Y-14551D01*
X23500Y-14451D01*
X23325Y-14416D01*
X23149Y-14451D01*
X23000Y-14551D01*
X22900Y-14700D01*
X22900Y-14704D01*
X22899Y-14700D01*
X22799Y-14551D01*
X22650Y-14451D01*
X22475Y-14416D01*
X22299Y-14451D01*
X22150Y-14551D01*
X22050Y-14700D01*
X22050Y-14704D01*
X22049Y-14700D01*
X21949Y-14551D01*
X21800Y-14451D01*
X21625Y-14416D01*
X21449Y-14451D01*
X21300Y-14551D01*
X21200Y-14700D01*
X21200Y-14704D01*
X21199Y-14700D01*
X21099Y-14551D01*
X20950Y-14451D01*
X20775Y-14416D01*
X20599Y-14451D01*
X20450Y-14551D01*
X20350Y-14700D01*
X20350Y-14704D01*
X20349Y-14700D01*
X20249Y-14551D01*
X20100Y-14451D01*
X19925Y-14416D01*
X19749Y-14451D01*
X19600Y-14551D01*
X19500Y-14700D01*
X19500Y-14704D01*
X19499Y-14700D01*
X19399Y-14551D01*
X19250Y-14451D01*
X19075Y-14416D01*
X18899Y-14451D01*
X18750Y-14551D01*
X18650Y-14700D01*
X18650Y-14704D01*
X18649Y-14700D01*
X18549Y-14551D01*
X18400Y-14451D01*
X18225Y-14416D01*
X18049Y-14451D01*
X17900Y-14551D01*
X17800Y-14700D01*
X17800Y-14704D01*
X17799Y-14700D01*
X17699Y-14551D01*
X17550Y-14451D01*
X17474Y-14436D01*
X17276Y-14239D01*
X29401Y-14239D01*
X30525Y-15363D01*
X30525Y-15814D01*
X30556Y-15887D01*
X30612Y-15943D01*
X30685Y-15973D01*
X30764Y-15974D01*
X31136Y-15974D01*
X31519Y-16357D01*
X31501Y-16400D01*
X31500Y-16598D01*
X31576Y-16782D01*
X31716Y-16922D01*
X31761Y-16941D01*
X31761Y-17585D01*
X31731Y-17597D01*
X31598Y-17731D01*
X31526Y-17905D01*
X31525Y-18093D01*
X31597Y-18268D01*
X31731Y-18401D01*
X31905Y-18473D01*
X32093Y-18474D01*
X32268Y-18402D01*
X32401Y-18268D01*
X32473Y-18094D01*
X32474Y-17906D01*
X32402Y-17731D01*
X32268Y-17598D01*
X32239Y-17586D01*
X32239Y-16941D01*
X32282Y-16923D01*
X32422Y-16783D01*
X32498Y-16599D01*
X32499Y-16401D01*
X32423Y-16217D01*
X32283Y-16077D01*
X32099Y-16001D01*
X31901Y-16000D01*
X31857Y-16019D01*
X31474Y-15636D01*
X31474Y-15185D01*
X31443Y-15112D01*
X31387Y-15056D01*
X31314Y-15026D01*
X31235Y-15025D01*
X30863Y-15025D01*
X29668Y-13831D01*
X29591Y-13779D01*
X29500Y-13761D01*
X23690Y-13761D01*
X23732Y-13732D01*
X24636Y-12829D01*
X25623Y-12829D01*
X25716Y-12922D01*
X25900Y-12998D01*
X26098Y-12999D01*
X26282Y-12923D01*
X26376Y-12829D01*
X30658Y-12829D01*
X30731Y-12901D01*
X30905Y-12973D01*
X31093Y-12974D01*
X31268Y-12902D01*
X31341Y-12829D01*
X31623Y-12829D01*
X31716Y-12922D01*
X31900Y-12998D01*
X32098Y-12999D01*
X32282Y-12923D01*
X32422Y-12783D01*
X32498Y-12599D01*
X32499Y-12401D01*
X32423Y-12217D01*
X32329Y-12123D01*
X32329Y-11841D01*
X32341Y-11829D01*
X32658Y-11829D01*
X32731Y-11901D01*
X32905Y-11973D01*
X33093Y-11974D01*
X33268Y-11902D01*
X33341Y-11829D01*
X34000Y-11829D01*
X34125Y-11803D01*
X34232Y-11732D01*
X34916Y-11049D01*
X35389Y-11049D01*
X35462Y-11018D01*
X35518Y-10962D01*
X35548Y-10889D01*
X35549Y-10810D01*
X35549Y-10771D01*
X35551Y-10777D01*
X35629Y-10814D01*
X35944Y-10500D01*
X35629Y-10185D01*
X35551Y-10222D01*
X35549Y-10229D01*
X35549Y-10110D01*
X35518Y-10037D01*
X35462Y-9981D01*
X35389Y-9951D01*
X35310Y-9950D01*
X34916Y-9950D01*
X34829Y-9863D01*
X34829Y-9841D01*
X34901Y-9768D01*
X34973Y-9594D01*
X34974Y-9406D01*
X34945Y-9337D01*
X34945Y-8566D01*
X34937Y-8390D01*
X34886Y-8268D01*
X34815Y-8240D01*
X34759Y-8295D01*
X34759Y-8184D01*
X34731Y-8113D01*
X34566Y-8054D01*
X34390Y-8062D01*
X34268Y-8113D01*
X34240Y-8184D01*
X34500Y-8444D01*
X34759Y-8184D01*
X34759Y-8295D01*
X34555Y-8500D01*
X34815Y-8759D01*
X34886Y-8731D01*
X34945Y-8566D01*
X34945Y-9337D01*
X34902Y-9231D01*
X34768Y-9098D01*
X34759Y-9094D01*
X34759Y-8815D01*
X34500Y-8555D01*
X34444Y-8611D01*
X34444Y-8500D01*
X34184Y-8240D01*
X34113Y-8268D01*
X34054Y-8433D01*
X34062Y-8609D01*
X34113Y-8731D01*
X34184Y-8759D01*
X34444Y-8500D01*
X34444Y-8611D01*
X34240Y-8815D01*
X34268Y-8886D01*
X34433Y-8945D01*
X34609Y-8937D01*
X34731Y-8886D01*
X34759Y-8815D01*
X34759Y-9094D01*
X34594Y-9026D01*
X34406Y-9025D01*
X34231Y-9097D01*
X34098Y-9231D01*
X34026Y-9405D01*
X34025Y-9593D01*
X34097Y-9768D01*
X34171Y-9841D01*
X34171Y-10000D01*
X34196Y-10125D01*
X34267Y-10232D01*
X34450Y-10416D01*
X34450Y-10583D01*
X33863Y-11171D01*
X33445Y-11171D01*
X33445Y-9566D01*
X33437Y-9390D01*
X33386Y-9268D01*
X33315Y-9240D01*
X33259Y-9295D01*
X33259Y-9184D01*
X33231Y-9113D01*
X33066Y-9054D01*
X32890Y-9062D01*
X32768Y-9113D01*
X32740Y-9184D01*
X33000Y-9444D01*
X33259Y-9184D01*
X33259Y-9295D01*
X33055Y-9500D01*
X33315Y-9759D01*
X33386Y-9731D01*
X33445Y-9566D01*
X33445Y-11171D01*
X33341Y-11171D01*
X33268Y-11098D01*
X33259Y-11094D01*
X33259Y-9815D01*
X33000Y-9555D01*
X32944Y-9611D01*
X32944Y-9500D01*
X32684Y-9240D01*
X32613Y-9268D01*
X32554Y-9433D01*
X32562Y-9609D01*
X32613Y-9731D01*
X32684Y-9759D01*
X32944Y-9500D01*
X32944Y-9611D01*
X32740Y-9815D01*
X32768Y-9886D01*
X32933Y-9945D01*
X33109Y-9937D01*
X33231Y-9886D01*
X33259Y-9815D01*
X33259Y-11094D01*
X33094Y-11026D01*
X32906Y-11025D01*
X32731Y-11097D01*
X32658Y-11171D01*
X32474Y-11171D01*
X32474Y-5735D01*
X32474Y-5185D01*
X32443Y-5112D01*
X32387Y-5056D01*
X32314Y-5026D01*
X32235Y-5025D01*
X31685Y-5025D01*
X31612Y-5056D01*
X31556Y-5112D01*
X31526Y-5185D01*
X31525Y-5264D01*
X31525Y-5814D01*
X31556Y-5887D01*
X31612Y-5943D01*
X31685Y-5973D01*
X31764Y-5974D01*
X32314Y-5974D01*
X32387Y-5943D01*
X32443Y-5887D01*
X32473Y-5814D01*
X32474Y-5735D01*
X32474Y-11171D01*
X32341Y-11171D01*
X32268Y-11098D01*
X32094Y-11026D01*
X31906Y-11025D01*
X31731Y-11097D01*
X31598Y-11231D01*
X31526Y-11405D01*
X31525Y-11593D01*
X31597Y-11768D01*
X31671Y-11841D01*
X31671Y-12123D01*
X31623Y-12171D01*
X31474Y-12171D01*
X31474Y-11406D01*
X31474Y-5406D01*
X31402Y-5231D01*
X31268Y-5098D01*
X31094Y-5026D01*
X30906Y-5025D01*
X30731Y-5097D01*
X30598Y-5231D01*
X30526Y-5405D01*
X30525Y-5593D01*
X30597Y-5768D01*
X30731Y-5901D01*
X30905Y-5973D01*
X31093Y-5974D01*
X31268Y-5902D01*
X31401Y-5768D01*
X31473Y-5594D01*
X31474Y-5406D01*
X31474Y-11406D01*
X31402Y-11231D01*
X31268Y-11098D01*
X31094Y-11026D01*
X30906Y-11025D01*
X30731Y-11097D01*
X30598Y-11231D01*
X30526Y-11405D01*
X30525Y-11593D01*
X30597Y-11768D01*
X30731Y-11901D01*
X30905Y-11973D01*
X31093Y-11974D01*
X31268Y-11902D01*
X31401Y-11768D01*
X31473Y-11594D01*
X31474Y-11406D01*
X31474Y-12171D01*
X31341Y-12171D01*
X31268Y-12098D01*
X31094Y-12026D01*
X30906Y-12025D01*
X30731Y-12097D01*
X30658Y-12171D01*
X30474Y-12171D01*
X30474Y-11406D01*
X30474Y-5406D01*
X30402Y-5231D01*
X30268Y-5098D01*
X30100Y-5028D01*
X30100Y-3246D01*
X29900Y-2748D01*
X29884Y-2724D01*
X29719Y-2585D01*
X29664Y-2641D01*
X29664Y-2530D01*
X29525Y-2365D01*
X29032Y-2154D01*
X28496Y-2149D01*
X27998Y-2349D01*
X27974Y-2365D01*
X27835Y-2530D01*
X28750Y-3444D01*
X29664Y-2530D01*
X29664Y-2641D01*
X28805Y-3500D01*
X29719Y-4414D01*
X29884Y-4275D01*
X30095Y-3782D01*
X30100Y-3246D01*
X30100Y-5028D01*
X30094Y-5026D01*
X29906Y-5025D01*
X29731Y-5097D01*
X29664Y-5165D01*
X29664Y-4469D01*
X28750Y-3555D01*
X28694Y-3611D01*
X28694Y-3500D01*
X27780Y-2585D01*
X27615Y-2724D01*
X27404Y-3217D01*
X27399Y-3753D01*
X27599Y-4251D01*
X27615Y-4275D01*
X27780Y-4414D01*
X28694Y-3500D01*
X28694Y-3611D01*
X27835Y-4469D01*
X27974Y-4634D01*
X28467Y-4845D01*
X29003Y-4850D01*
X29501Y-4650D01*
X29525Y-4634D01*
X29664Y-4469D01*
X29664Y-5165D01*
X29598Y-5231D01*
X29526Y-5405D01*
X29525Y-5593D01*
X29597Y-5768D01*
X29731Y-5901D01*
X29905Y-5973D01*
X30093Y-5974D01*
X30268Y-5902D01*
X30401Y-5768D01*
X30473Y-5594D01*
X30474Y-5406D01*
X30474Y-11406D01*
X30402Y-11231D01*
X30268Y-11098D01*
X30094Y-11026D01*
X29906Y-11025D01*
X29731Y-11097D01*
X29598Y-11231D01*
X29526Y-11405D01*
X29525Y-11593D01*
X29597Y-11768D01*
X29731Y-11901D01*
X29905Y-11973D01*
X30093Y-11974D01*
X30268Y-11902D01*
X30401Y-11768D01*
X30473Y-11594D01*
X30474Y-11406D01*
X30474Y-12171D01*
X29474Y-12171D01*
X29474Y-11406D01*
X29474Y-5406D01*
X29402Y-5231D01*
X29268Y-5098D01*
X29094Y-5026D01*
X28906Y-5025D01*
X28731Y-5097D01*
X28598Y-5231D01*
X28526Y-5405D01*
X28525Y-5593D01*
X28597Y-5768D01*
X28731Y-5901D01*
X28905Y-5973D01*
X29093Y-5974D01*
X29268Y-5902D01*
X29401Y-5768D01*
X29473Y-5594D01*
X29474Y-5406D01*
X29474Y-11406D01*
X29402Y-11231D01*
X29268Y-11098D01*
X29094Y-11026D01*
X28906Y-11025D01*
X28731Y-11097D01*
X28598Y-11231D01*
X28526Y-11405D01*
X28525Y-11593D01*
X28597Y-11768D01*
X28731Y-11901D01*
X28905Y-11973D01*
X29093Y-11974D01*
X29268Y-11902D01*
X29401Y-11768D01*
X29473Y-11594D01*
X29474Y-11406D01*
X29474Y-12171D01*
X27666Y-12171D01*
X27668Y-12168D01*
X27876Y-11961D01*
X27905Y-11973D01*
X28093Y-11974D01*
X28268Y-11902D01*
X28401Y-11768D01*
X28473Y-11594D01*
X28474Y-11406D01*
X28474Y-5406D01*
X28402Y-5231D01*
X28268Y-5098D01*
X28094Y-5026D01*
X27906Y-5025D01*
X27731Y-5097D01*
X27598Y-5231D01*
X27526Y-5405D01*
X27525Y-5593D01*
X27597Y-5768D01*
X27731Y-5901D01*
X27905Y-5973D01*
X28093Y-5974D01*
X28268Y-5902D01*
X28401Y-5768D01*
X28473Y-5594D01*
X28474Y-5406D01*
X28474Y-11406D01*
X28402Y-11231D01*
X28268Y-11098D01*
X28094Y-11026D01*
X27906Y-11025D01*
X27731Y-11097D01*
X27598Y-11231D01*
X27526Y-11405D01*
X27525Y-11593D01*
X27538Y-11623D01*
X27407Y-11754D01*
X27473Y-11594D01*
X27474Y-11406D01*
X27402Y-11231D01*
X27268Y-11098D01*
X27094Y-11026D01*
X26906Y-11025D01*
X26731Y-11097D01*
X26598Y-11231D01*
X26526Y-11405D01*
X26525Y-11593D01*
X26594Y-11761D01*
X26445Y-11761D01*
X26316Y-11761D01*
X26315Y-11759D01*
X26386Y-11731D01*
X26445Y-11566D01*
X26437Y-11390D01*
X26386Y-11268D01*
X26315Y-11240D01*
X26259Y-11295D01*
X26055Y-11500D01*
X26061Y-11505D01*
X26005Y-11561D01*
X26000Y-11555D01*
X25994Y-11561D01*
X25938Y-11505D01*
X25944Y-11500D01*
X25938Y-11494D01*
X25994Y-11438D01*
X26000Y-11444D01*
X26259Y-11184D01*
X26231Y-11113D01*
X26066Y-11054D01*
X25890Y-11062D01*
X25768Y-11113D01*
X25740Y-11184D01*
X25709Y-11154D01*
X25694Y-11169D01*
X25668Y-11131D01*
X25668Y-11131D01*
X25368Y-10831D01*
X25291Y-10779D01*
X25200Y-10761D01*
X24800Y-10761D01*
X24708Y-10779D01*
X24631Y-10831D01*
X24331Y-11131D01*
X24305Y-11169D01*
X24290Y-11154D01*
X24259Y-11184D01*
X24231Y-11113D01*
X24066Y-11054D01*
X23890Y-11062D01*
X23768Y-11113D01*
X23740Y-11184D01*
X24000Y-11444D01*
X24005Y-11438D01*
X24061Y-11494D01*
X24055Y-11500D01*
X24061Y-11505D01*
X24005Y-11561D01*
X24000Y-11555D01*
X23944Y-11611D01*
X23944Y-11500D01*
X23684Y-11240D01*
X23613Y-11268D01*
X23554Y-11433D01*
X23562Y-11609D01*
X23613Y-11731D01*
X23684Y-11759D01*
X23944Y-11500D01*
X23944Y-11611D01*
X23740Y-11815D01*
X23768Y-11886D01*
X23847Y-11914D01*
X23001Y-12761D01*
X22431Y-12761D01*
X22498Y-12599D01*
X22499Y-12401D01*
X22423Y-12217D01*
X22283Y-12077D01*
X22099Y-12001D01*
X21901Y-12000D01*
X21857Y-12019D01*
X21745Y-11907D01*
X21905Y-11973D01*
X22093Y-11974D01*
X22268Y-11902D01*
X22401Y-11768D01*
X22473Y-11594D01*
X22474Y-11406D01*
X22407Y-11245D01*
X22538Y-11376D01*
X22526Y-11405D01*
X22525Y-11593D01*
X22597Y-11768D01*
X22731Y-11901D01*
X22905Y-11973D01*
X23093Y-11974D01*
X23268Y-11902D01*
X23401Y-11768D01*
X23473Y-11594D01*
X23474Y-11406D01*
X23402Y-11231D01*
X23268Y-11098D01*
X23094Y-11026D01*
X22906Y-11025D01*
X22876Y-11038D01*
X22568Y-10731D01*
X22491Y-10679D01*
X22400Y-10661D01*
X16411Y-10661D01*
X16445Y-10566D01*
X16437Y-10390D01*
X16386Y-10268D01*
X16315Y-10240D01*
X16259Y-10295D01*
X16259Y-10184D01*
X16231Y-10113D01*
X16066Y-10054D01*
X15890Y-10062D01*
X15768Y-10113D01*
X15740Y-10184D01*
X16000Y-10444D01*
X16259Y-10184D01*
X16259Y-10295D01*
X16055Y-10500D01*
X16061Y-10505D01*
X16005Y-10561D01*
X16000Y-10555D01*
X15994Y-10561D01*
X15938Y-10505D01*
X15944Y-10500D01*
X15684Y-10240D01*
X15613Y-10268D01*
X15554Y-10433D01*
X15562Y-10609D01*
X15584Y-10661D01*
X15198Y-10661D01*
X14839Y-10301D01*
X14839Y-9974D01*
X15314Y-9974D01*
X15387Y-9943D01*
X15443Y-9887D01*
X15473Y-9814D01*
X15474Y-9735D01*
X15474Y-9185D01*
X15443Y-9112D01*
X15387Y-9056D01*
X15314Y-9026D01*
X15235Y-9025D01*
X14824Y-9025D01*
X14820Y-9008D01*
X14768Y-8931D01*
X14768Y-8931D01*
X14745Y-8907D01*
X14905Y-8973D01*
X15093Y-8974D01*
X15268Y-8902D01*
X15341Y-8829D01*
X15658Y-8829D01*
X15731Y-8901D01*
X15905Y-8973D01*
X16008Y-8974D01*
X16501Y-9466D01*
X16500Y-9598D01*
X16576Y-9782D01*
X16716Y-9922D01*
X16900Y-9998D01*
X17098Y-9999D01*
X17282Y-9923D01*
X17422Y-9783D01*
X17498Y-9599D01*
X17499Y-9401D01*
X17423Y-9217D01*
X17283Y-9077D01*
X17099Y-9001D01*
X16966Y-9000D01*
X16473Y-8508D01*
X16474Y-8406D01*
X16405Y-8239D01*
X20201Y-8239D01*
X20564Y-8602D01*
X20561Y-8612D01*
X20560Y-8786D01*
X20627Y-8948D01*
X20751Y-9071D01*
X20912Y-9138D01*
X21086Y-9139D01*
X21248Y-9072D01*
X21371Y-8948D01*
X21438Y-8787D01*
X21439Y-8613D01*
X21372Y-8451D01*
X21248Y-8328D01*
X21087Y-8261D01*
X20913Y-8260D01*
X20903Y-8265D01*
X20468Y-7831D01*
X20391Y-7779D01*
X20349Y-7770D01*
X20371Y-7748D01*
X20438Y-7587D01*
X20439Y-7413D01*
X20372Y-7251D01*
X20359Y-7239D01*
X27061Y-7239D01*
X27060Y-7386D01*
X27127Y-7548D01*
X27251Y-7671D01*
X27412Y-7738D01*
X27586Y-7739D01*
X27748Y-7672D01*
X27871Y-7548D01*
X27938Y-7387D01*
X27939Y-7213D01*
X27872Y-7051D01*
X27748Y-6928D01*
X27587Y-6861D01*
X27474Y-6860D01*
X27474Y-5406D01*
X27402Y-5231D01*
X27268Y-5098D01*
X27094Y-5026D01*
X26906Y-5025D01*
X26731Y-5097D01*
X26598Y-5231D01*
X26549Y-5349D01*
X26549Y-3901D01*
X26473Y-3717D01*
X26333Y-3577D01*
X26149Y-3501D01*
X25970Y-3500D01*
X25970Y-3072D01*
X25962Y-2886D01*
X25907Y-2752D01*
X25833Y-2721D01*
X25778Y-2777D01*
X25778Y-2666D01*
X25747Y-2592D01*
X25572Y-2529D01*
X25386Y-2537D01*
X25252Y-2592D01*
X25221Y-2666D01*
X25500Y-2944D01*
X25778Y-2666D01*
X25778Y-2777D01*
X25555Y-3000D01*
X25833Y-3278D01*
X25907Y-3247D01*
X25970Y-3072D01*
X25970Y-3500D01*
X25951Y-3500D01*
X25778Y-3572D01*
X25778Y-3333D01*
X25500Y-3055D01*
X25444Y-3111D01*
X25444Y-3000D01*
X25166Y-2721D01*
X25092Y-2752D01*
X25029Y-2927D01*
X25037Y-3113D01*
X25092Y-3247D01*
X25166Y-3278D01*
X25444Y-3000D01*
X25444Y-3111D01*
X25221Y-3333D01*
X25252Y-3407D01*
X25427Y-3470D01*
X25613Y-3462D01*
X25747Y-3407D01*
X25778Y-3333D01*
X25778Y-3572D01*
X25767Y-3576D01*
X25627Y-3716D01*
X25551Y-3900D01*
X25550Y-4098D01*
X25626Y-4282D01*
X25766Y-4422D01*
X25950Y-4498D01*
X26148Y-4499D01*
X26332Y-4423D01*
X26472Y-4283D01*
X26548Y-4099D01*
X26549Y-3901D01*
X26549Y-5349D01*
X26526Y-5405D01*
X26525Y-5593D01*
X26597Y-5768D01*
X26731Y-5901D01*
X26905Y-5973D01*
X27093Y-5974D01*
X27268Y-5902D01*
X27401Y-5768D01*
X27473Y-5594D01*
X27474Y-5406D01*
X27474Y-6860D01*
X27413Y-6860D01*
X27403Y-6865D01*
X27368Y-6831D01*
X27291Y-6779D01*
X27200Y-6761D01*
X26474Y-6761D01*
X26474Y-5406D01*
X26402Y-5231D01*
X26268Y-5098D01*
X26094Y-5026D01*
X25906Y-5025D01*
X25731Y-5097D01*
X25598Y-5231D01*
X25526Y-5405D01*
X25525Y-5593D01*
X25597Y-5768D01*
X25731Y-5901D01*
X25905Y-5973D01*
X26093Y-5974D01*
X26268Y-5902D01*
X26401Y-5768D01*
X26473Y-5594D01*
X26474Y-5406D01*
X26474Y-6761D01*
X25474Y-6761D01*
X25474Y-5406D01*
X25449Y-5345D01*
X25449Y-3901D01*
X25373Y-3717D01*
X25233Y-3577D01*
X25049Y-3501D01*
X24870Y-3500D01*
X24870Y-3072D01*
X24862Y-2886D01*
X24807Y-2752D01*
X24733Y-2721D01*
X24678Y-2777D01*
X24678Y-2666D01*
X24647Y-2592D01*
X24472Y-2529D01*
X24286Y-2537D01*
X24152Y-2592D01*
X24121Y-2666D01*
X24400Y-2944D01*
X24678Y-2666D01*
X24678Y-2777D01*
X24455Y-3000D01*
X24733Y-3278D01*
X24807Y-3247D01*
X24870Y-3072D01*
X24870Y-3500D01*
X24851Y-3500D01*
X24678Y-3572D01*
X24678Y-3333D01*
X24400Y-3055D01*
X24344Y-3111D01*
X24344Y-3000D01*
X24066Y-2721D01*
X23992Y-2752D01*
X23929Y-2927D01*
X23937Y-3113D01*
X23992Y-3247D01*
X24066Y-3278D01*
X24344Y-3000D01*
X24344Y-3111D01*
X24121Y-3333D01*
X24152Y-3407D01*
X24327Y-3470D01*
X24513Y-3462D01*
X24647Y-3407D01*
X24678Y-3333D01*
X24678Y-3572D01*
X24667Y-3576D01*
X24527Y-3716D01*
X24451Y-3900D01*
X24450Y-4098D01*
X24526Y-4282D01*
X24666Y-4422D01*
X24850Y-4498D01*
X25048Y-4499D01*
X25232Y-4423D01*
X25372Y-4283D01*
X25448Y-4099D01*
X25449Y-3901D01*
X25449Y-5345D01*
X25402Y-5231D01*
X25268Y-5098D01*
X25094Y-5026D01*
X24906Y-5025D01*
X24731Y-5097D01*
X24598Y-5231D01*
X24526Y-5405D01*
X24525Y-5593D01*
X24597Y-5768D01*
X24731Y-5901D01*
X24905Y-5973D01*
X25093Y-5974D01*
X25268Y-5902D01*
X25401Y-5768D01*
X25473Y-5594D01*
X25474Y-5406D01*
X25474Y-6761D01*
X24474Y-6761D01*
X24474Y-5406D01*
X24402Y-5231D01*
X24349Y-5178D01*
X24349Y-3901D01*
X24273Y-3717D01*
X24133Y-3577D01*
X23949Y-3501D01*
X23790Y-3500D01*
X23790Y-3072D01*
X23782Y-2886D01*
X23727Y-2752D01*
X23653Y-2721D01*
X23598Y-2777D01*
X23598Y-2666D01*
X23567Y-2592D01*
X23392Y-2529D01*
X23206Y-2537D01*
X23072Y-2592D01*
X23041Y-2666D01*
X23320Y-2944D01*
X23598Y-2666D01*
X23598Y-2777D01*
X23375Y-3000D01*
X23653Y-3278D01*
X23727Y-3247D01*
X23790Y-3072D01*
X23790Y-3500D01*
X23751Y-3500D01*
X23598Y-3564D01*
X23598Y-3333D01*
X23320Y-3055D01*
X23264Y-3111D01*
X23264Y-3000D01*
X22986Y-2721D01*
X22912Y-2752D01*
X22849Y-2927D01*
X22857Y-3113D01*
X22912Y-3247D01*
X22986Y-3278D01*
X23264Y-3000D01*
X23264Y-3111D01*
X23041Y-3333D01*
X23072Y-3407D01*
X23247Y-3470D01*
X23433Y-3462D01*
X23567Y-3407D01*
X23598Y-3333D01*
X23598Y-3564D01*
X23567Y-3576D01*
X23427Y-3716D01*
X23351Y-3900D01*
X23350Y-4098D01*
X23426Y-4282D01*
X23566Y-4422D01*
X23750Y-4498D01*
X23948Y-4499D01*
X24132Y-4423D01*
X24272Y-4283D01*
X24348Y-4099D01*
X24349Y-3901D01*
X24349Y-5178D01*
X24268Y-5098D01*
X24094Y-5026D01*
X23906Y-5025D01*
X23731Y-5097D01*
X23598Y-5231D01*
X23526Y-5405D01*
X23525Y-5593D01*
X23597Y-5768D01*
X23731Y-5901D01*
X23905Y-5973D01*
X24093Y-5974D01*
X24268Y-5902D01*
X24401Y-5768D01*
X24473Y-5594D01*
X24474Y-5406D01*
X24474Y-6761D01*
X23474Y-6761D01*
X23474Y-5406D01*
X23402Y-5231D01*
X23299Y-5128D01*
X23299Y-3901D01*
X23223Y-3717D01*
X23083Y-3577D01*
X22899Y-3501D01*
X22730Y-3500D01*
X22730Y-3072D01*
X22722Y-2886D01*
X22667Y-2752D01*
X22593Y-2721D01*
X22538Y-2777D01*
X22538Y-2666D01*
X22507Y-2592D01*
X22332Y-2529D01*
X22146Y-2537D01*
X22012Y-2592D01*
X21981Y-2666D01*
X22260Y-2944D01*
X22538Y-2666D01*
X22538Y-2777D01*
X22315Y-3000D01*
X22593Y-3278D01*
X22667Y-3247D01*
X22730Y-3072D01*
X22730Y-3500D01*
X22701Y-3500D01*
X22538Y-3568D01*
X22538Y-3333D01*
X22260Y-3055D01*
X22204Y-3111D01*
X22204Y-3000D01*
X21926Y-2721D01*
X21852Y-2752D01*
X21789Y-2927D01*
X21797Y-3113D01*
X21852Y-3247D01*
X21926Y-3278D01*
X22204Y-3000D01*
X22204Y-3111D01*
X21981Y-3333D01*
X22012Y-3407D01*
X22187Y-3470D01*
X22373Y-3462D01*
X22507Y-3407D01*
X22538Y-3333D01*
X22538Y-3568D01*
X22517Y-3576D01*
X22377Y-3716D01*
X22301Y-3900D01*
X22300Y-4098D01*
X22376Y-4282D01*
X22516Y-4422D01*
X22700Y-4498D01*
X22898Y-4499D01*
X23082Y-4423D01*
X23222Y-4283D01*
X23298Y-4099D01*
X23299Y-3901D01*
X23299Y-5128D01*
X23268Y-5098D01*
X23094Y-5026D01*
X22906Y-5025D01*
X22731Y-5097D01*
X22598Y-5231D01*
X22526Y-5405D01*
X22525Y-5593D01*
X22597Y-5768D01*
X22731Y-5901D01*
X22905Y-5973D01*
X23093Y-5974D01*
X23268Y-5902D01*
X23401Y-5768D01*
X23473Y-5594D01*
X23474Y-5406D01*
X23474Y-6761D01*
X19259Y-6761D01*
X16445Y-6761D01*
X16316Y-6761D01*
X16315Y-6759D01*
X16386Y-6731D01*
X16445Y-6566D01*
X16437Y-6390D01*
X16386Y-6268D01*
X16315Y-6240D01*
X16259Y-6295D01*
X16259Y-6184D01*
X16231Y-6113D01*
X16066Y-6054D01*
X15890Y-6062D01*
X15768Y-6113D01*
X15740Y-6184D01*
X16000Y-6444D01*
X16259Y-6184D01*
X16259Y-6295D01*
X16055Y-6500D01*
X16061Y-6505D01*
X16005Y-6561D01*
X16000Y-6555D01*
X15994Y-6561D01*
X15944Y-6511D01*
X15938Y-6505D01*
X15944Y-6500D01*
X15684Y-6240D01*
X15613Y-6268D01*
X15554Y-6433D01*
X15562Y-6609D01*
X15613Y-6731D01*
X15684Y-6759D01*
X15683Y-6761D01*
X15398Y-6761D01*
X14876Y-6239D01*
X15400Y-6239D01*
X15491Y-6220D01*
X15491Y-6220D01*
X15568Y-6168D01*
X15998Y-5739D01*
X16558Y-5739D01*
X16576Y-5782D01*
X16716Y-5922D01*
X16900Y-5998D01*
X17098Y-5999D01*
X17282Y-5923D01*
X17422Y-5783D01*
X17498Y-5599D01*
X17499Y-5401D01*
X17432Y-5239D01*
X18683Y-5239D01*
X18684Y-5240D01*
X18613Y-5268D01*
X18554Y-5433D01*
X18562Y-5609D01*
X18613Y-5731D01*
X18684Y-5759D01*
X18944Y-5500D01*
X18938Y-5494D01*
X18994Y-5438D01*
X19000Y-5444D01*
X19005Y-5438D01*
X19061Y-5494D01*
X19055Y-5500D01*
X19061Y-5505D01*
X19005Y-5561D01*
X19000Y-5555D01*
X18944Y-5611D01*
X18740Y-5815D01*
X18768Y-5886D01*
X18933Y-5945D01*
X19109Y-5937D01*
X19231Y-5886D01*
X19259Y-5815D01*
X19259Y-5815D01*
X19265Y-5821D01*
X19279Y-5891D01*
X19331Y-5968D01*
X19731Y-6368D01*
X19731Y-6368D01*
X19808Y-6420D01*
X19899Y-6438D01*
X19900Y-6439D01*
X21300Y-6439D01*
X21391Y-6420D01*
X21391Y-6420D01*
X21468Y-6368D01*
X21876Y-5961D01*
X21905Y-5973D01*
X22093Y-5974D01*
X22268Y-5902D01*
X22401Y-5768D01*
X22473Y-5594D01*
X22474Y-5406D01*
X22402Y-5231D01*
X22268Y-5098D01*
X22199Y-5069D01*
X22199Y-3901D01*
X22123Y-3717D01*
X21983Y-3577D01*
X21799Y-3501D01*
X21610Y-3500D01*
X21610Y-3072D01*
X21602Y-2886D01*
X21547Y-2752D01*
X21473Y-2721D01*
X21418Y-2777D01*
X21418Y-2666D01*
X21387Y-2592D01*
X21212Y-2529D01*
X21026Y-2537D01*
X20892Y-2592D01*
X20861Y-2666D01*
X21140Y-2944D01*
X21418Y-2666D01*
X21418Y-2777D01*
X21195Y-3000D01*
X21473Y-3278D01*
X21547Y-3247D01*
X21610Y-3072D01*
X21610Y-3500D01*
X21601Y-3500D01*
X21418Y-3576D01*
X21418Y-3333D01*
X21140Y-3055D01*
X21084Y-3111D01*
X21084Y-3000D01*
X20806Y-2721D01*
X20732Y-2752D01*
X20669Y-2927D01*
X20677Y-3113D01*
X20732Y-3247D01*
X20806Y-3278D01*
X21084Y-3000D01*
X21084Y-3111D01*
X20861Y-3333D01*
X20892Y-3407D01*
X21067Y-3470D01*
X21253Y-3462D01*
X21387Y-3407D01*
X21418Y-3333D01*
X21418Y-3576D01*
X21417Y-3576D01*
X21277Y-3716D01*
X21201Y-3900D01*
X21200Y-4098D01*
X21276Y-4282D01*
X21416Y-4422D01*
X21600Y-4498D01*
X21798Y-4499D01*
X21982Y-4423D01*
X22122Y-4283D01*
X22198Y-4099D01*
X22199Y-3901D01*
X22199Y-5069D01*
X22094Y-5026D01*
X21906Y-5025D01*
X21739Y-5094D01*
X21739Y-5000D01*
X21738Y-4999D01*
X21720Y-4908D01*
X21668Y-4831D01*
X21668Y-4831D01*
X21268Y-4431D01*
X21191Y-4379D01*
X21100Y-4361D01*
X20944Y-4361D01*
X21022Y-4283D01*
X21098Y-4099D01*
X21099Y-3901D01*
X21023Y-3717D01*
X20883Y-3577D01*
X20699Y-3501D01*
X20530Y-3500D01*
X20530Y-3072D01*
X20522Y-2886D01*
X20467Y-2752D01*
X20393Y-2721D01*
X20338Y-2777D01*
X20338Y-2666D01*
X20307Y-2592D01*
X20132Y-2529D01*
X19946Y-2537D01*
X19812Y-2592D01*
X19781Y-2666D01*
X20060Y-2944D01*
X20338Y-2666D01*
X20338Y-2777D01*
X20115Y-3000D01*
X20393Y-3278D01*
X20467Y-3247D01*
X20530Y-3072D01*
X20530Y-3500D01*
X20501Y-3500D01*
X20338Y-3568D01*
X20338Y-3333D01*
X20060Y-3055D01*
X20004Y-3111D01*
X20004Y-3000D01*
X19726Y-2721D01*
X19652Y-2752D01*
X19589Y-2927D01*
X19597Y-3113D01*
X19652Y-3247D01*
X19726Y-3278D01*
X20004Y-3000D01*
X20004Y-3111D01*
X19781Y-3333D01*
X19812Y-3407D01*
X19987Y-3470D01*
X20173Y-3462D01*
X20307Y-3407D01*
X20338Y-3333D01*
X20338Y-3568D01*
X20317Y-3576D01*
X20177Y-3716D01*
X20101Y-3900D01*
X20100Y-4098D01*
X20176Y-4282D01*
X20255Y-4361D01*
X19844Y-4361D01*
X19922Y-4283D01*
X19998Y-4099D01*
X19999Y-3901D01*
X19923Y-3717D01*
X19783Y-3577D01*
X19599Y-3501D01*
X19450Y-3500D01*
X19450Y-3072D01*
X19442Y-2886D01*
X19387Y-2752D01*
X19313Y-2721D01*
X19258Y-2777D01*
X19258Y-2666D01*
X19227Y-2592D01*
X19052Y-2529D01*
X18866Y-2537D01*
X18732Y-2592D01*
X18701Y-2666D01*
X18980Y-2944D01*
X19258Y-2666D01*
X19258Y-2777D01*
X19035Y-3000D01*
X19313Y-3278D01*
X19387Y-3247D01*
X19450Y-3072D01*
X19450Y-3500D01*
X19401Y-3500D01*
X19258Y-3560D01*
X19258Y-3333D01*
X18980Y-3055D01*
X18924Y-3111D01*
X18924Y-3000D01*
X18646Y-2721D01*
X18572Y-2752D01*
X18509Y-2927D01*
X18517Y-3113D01*
X18572Y-3247D01*
X18646Y-3278D01*
X18924Y-3000D01*
X18924Y-3111D01*
X18701Y-3333D01*
X18732Y-3407D01*
X18907Y-3470D01*
X19093Y-3462D01*
X19227Y-3407D01*
X19258Y-3333D01*
X19258Y-3560D01*
X19217Y-3576D01*
X19077Y-3716D01*
X19001Y-3900D01*
X19000Y-4098D01*
X19076Y-4282D01*
X19155Y-4361D01*
X18794Y-4361D01*
X18872Y-4283D01*
X18948Y-4099D01*
X18949Y-3901D01*
X18873Y-3717D01*
X18733Y-3577D01*
X18549Y-3501D01*
X18351Y-3500D01*
X18350Y-3501D01*
X18350Y-3072D01*
X18342Y-2886D01*
X18287Y-2752D01*
X18213Y-2721D01*
X18158Y-2777D01*
X18158Y-2666D01*
X18127Y-2592D01*
X17952Y-2529D01*
X17766Y-2537D01*
X17632Y-2592D01*
X17601Y-2666D01*
X17880Y-2944D01*
X18158Y-2666D01*
X18158Y-2777D01*
X17935Y-3000D01*
X18213Y-3278D01*
X18287Y-3247D01*
X18350Y-3072D01*
X18350Y-3501D01*
X18167Y-3576D01*
X18158Y-3586D01*
X18158Y-3333D01*
X17880Y-3055D01*
X17824Y-3111D01*
X17824Y-3000D01*
X17546Y-2721D01*
X17472Y-2752D01*
X17409Y-2927D01*
X17417Y-3113D01*
X17472Y-3247D01*
X17546Y-3278D01*
X17824Y-3000D01*
X17824Y-3111D01*
X17601Y-3333D01*
X17632Y-3407D01*
X17807Y-3470D01*
X17993Y-3462D01*
X18127Y-3407D01*
X18158Y-3333D01*
X18158Y-3586D01*
X18027Y-3716D01*
X17951Y-3900D01*
X17950Y-4098D01*
X18026Y-4282D01*
X18105Y-4361D01*
X17694Y-4361D01*
X17772Y-4283D01*
X17848Y-4099D01*
X17849Y-3901D01*
X17773Y-3717D01*
X17633Y-3577D01*
X17449Y-3501D01*
X17270Y-3500D01*
X17270Y-3072D01*
X17262Y-2886D01*
X17207Y-2752D01*
X17133Y-2721D01*
X17078Y-2777D01*
X17078Y-2666D01*
X17047Y-2592D01*
X16872Y-2529D01*
X16686Y-2537D01*
X16552Y-2592D01*
X16521Y-2666D01*
X16800Y-2944D01*
X17078Y-2666D01*
X17078Y-2777D01*
X16855Y-3000D01*
X17133Y-3278D01*
X17207Y-3247D01*
X17270Y-3072D01*
X17270Y-3500D01*
X17251Y-3500D01*
X17207Y-3519D01*
X17061Y-3373D01*
X17078Y-3333D01*
X16800Y-3055D01*
X16794Y-3061D01*
X16738Y-3005D01*
X16744Y-3000D01*
X16466Y-2721D01*
X16461Y-2723D01*
X15568Y-1831D01*
X15491Y-1779D01*
X15400Y-1761D01*
X12800Y-1761D01*
X12708Y-1779D01*
X12631Y-1831D01*
X11631Y-2831D01*
X11579Y-2908D01*
X11561Y-3000D01*
X11561Y-3146D01*
X11400Y-2748D01*
X11384Y-2724D01*
X11219Y-2585D01*
X11164Y-2641D01*
X11164Y-2530D01*
X11025Y-2365D01*
X10532Y-2154D01*
X9996Y-2149D01*
X9498Y-2349D01*
X9474Y-2365D01*
X9335Y-2530D01*
X10250Y-3444D01*
X11164Y-2530D01*
X11164Y-2641D01*
X10305Y-3500D01*
X10311Y-3505D01*
X10255Y-3561D01*
X10250Y-3555D01*
X10194Y-3611D01*
X10194Y-3500D01*
X9280Y-2585D01*
X9115Y-2724D01*
X8904Y-3217D01*
X8899Y-3753D01*
X9099Y-4251D01*
X9115Y-4275D01*
X9280Y-4414D01*
X10194Y-3500D01*
X10194Y-3611D01*
X9335Y-4469D01*
X9474Y-4634D01*
X9535Y-4661D01*
X8600Y-4661D01*
X8508Y-4679D01*
X8474Y-4702D01*
X8474Y-4185D01*
X8443Y-4112D01*
X8387Y-4056D01*
X8314Y-4026D01*
X8235Y-4025D01*
X7863Y-4025D01*
X7568Y-3731D01*
X7491Y-3679D01*
X7400Y-3661D01*
X6600Y-3661D01*
X6508Y-3679D01*
X6431Y-3731D01*
X6142Y-4019D01*
X6099Y-4001D01*
X5901Y-4000D01*
X5717Y-4076D01*
X5577Y-4216D01*
X5501Y-4400D01*
X5500Y-4598D01*
X5576Y-4782D01*
X5716Y-4922D01*
X5900Y-4998D01*
X6098Y-4999D01*
X6282Y-4923D01*
X6422Y-4783D01*
X6498Y-4599D01*
X6499Y-4401D01*
X6480Y-4357D01*
X6698Y-4139D01*
X6757Y-4139D01*
X6740Y-4184D01*
X7000Y-4444D01*
X7259Y-4184D01*
X7242Y-4139D01*
X7301Y-4139D01*
X7525Y-4363D01*
X7525Y-4814D01*
X7556Y-4887D01*
X7612Y-4943D01*
X7685Y-4973D01*
X7764Y-4974D01*
X8187Y-4974D01*
X8123Y-5038D01*
X8094Y-5026D01*
X7906Y-5025D01*
X7731Y-5097D01*
X7598Y-5231D01*
X7526Y-5405D01*
X7525Y-5593D01*
X7597Y-5768D01*
X7731Y-5901D01*
X7905Y-5973D01*
X8093Y-5974D01*
X8268Y-5902D01*
X8401Y-5768D01*
X8473Y-5594D01*
X8474Y-5406D01*
X8461Y-5376D01*
X8592Y-5245D01*
X8526Y-5405D01*
X8525Y-5593D01*
X8597Y-5768D01*
X8731Y-5901D01*
X8905Y-5973D01*
X9093Y-5974D01*
X9268Y-5902D01*
X9401Y-5768D01*
X9473Y-5594D01*
X9474Y-5406D01*
X9461Y-5376D01*
X9498Y-5339D01*
X9553Y-5339D01*
X9526Y-5405D01*
X9525Y-5593D01*
X9597Y-5768D01*
X9731Y-5901D01*
X9905Y-5973D01*
X10093Y-5974D01*
X10268Y-5902D01*
X10401Y-5768D01*
X10473Y-5594D01*
X10474Y-5406D01*
X10446Y-5339D01*
X10553Y-5339D01*
X10526Y-5405D01*
X10525Y-5593D01*
X10597Y-5768D01*
X10731Y-5901D01*
X10905Y-5973D01*
X11093Y-5974D01*
X11123Y-5961D01*
X11731Y-6568D01*
X11808Y-6620D01*
X11900Y-6639D01*
X14601Y-6639D01*
X15131Y-7168D01*
X15131Y-7168D01*
X15208Y-7220D01*
X15300Y-7239D01*
X19640Y-7239D01*
X19628Y-7251D01*
X19623Y-7261D01*
X9000Y-7261D01*
X8908Y-7279D01*
X8831Y-7331D01*
X8123Y-8038D01*
X8094Y-8026D01*
X7906Y-8025D01*
X7731Y-8097D01*
X7680Y-8148D01*
X7668Y-8131D01*
X7668Y-8131D01*
X7474Y-7936D01*
X7474Y-5406D01*
X7445Y-5337D01*
X7445Y-4566D01*
X7437Y-4390D01*
X7386Y-4268D01*
X7315Y-4240D01*
X7055Y-4500D01*
X7315Y-4759D01*
X7386Y-4731D01*
X7445Y-4566D01*
X7445Y-5337D01*
X7402Y-5231D01*
X7268Y-5098D01*
X7259Y-5094D01*
X7259Y-4815D01*
X7000Y-4555D01*
X6944Y-4611D01*
X6944Y-4500D01*
X6684Y-4240D01*
X6613Y-4268D01*
X6554Y-4433D01*
X6562Y-4609D01*
X6613Y-4731D01*
X6684Y-4759D01*
X6944Y-4500D01*
X6944Y-4611D01*
X6740Y-4815D01*
X6768Y-4886D01*
X6933Y-4945D01*
X7109Y-4937D01*
X7231Y-4886D01*
X7259Y-4815D01*
X7259Y-5094D01*
X7094Y-5026D01*
X6906Y-5025D01*
X6731Y-5097D01*
X6598Y-5231D01*
X6526Y-5405D01*
X6525Y-5593D01*
X6597Y-5768D01*
X6731Y-5901D01*
X6905Y-5973D01*
X7093Y-5974D01*
X7268Y-5902D01*
X7401Y-5768D01*
X7473Y-5594D01*
X7474Y-5406D01*
X7474Y-7936D01*
X7368Y-7831D01*
X7291Y-7779D01*
X7200Y-7761D01*
X6445Y-7761D01*
X6445Y-5566D01*
X6437Y-5390D01*
X6386Y-5268D01*
X6315Y-5240D01*
X6259Y-5295D01*
X6259Y-5184D01*
X6231Y-5113D01*
X6066Y-5054D01*
X5890Y-5062D01*
X5768Y-5113D01*
X5740Y-5184D01*
X6000Y-5444D01*
X6259Y-5184D01*
X6259Y-5295D01*
X6055Y-5500D01*
X6315Y-5759D01*
X6386Y-5731D01*
X6445Y-5566D01*
X6445Y-7761D01*
X6259Y-7761D01*
X6259Y-5815D01*
X6000Y-5555D01*
X5944Y-5611D01*
X5944Y-5500D01*
X5684Y-5240D01*
X5613Y-5268D01*
X5554Y-5433D01*
X5562Y-5609D01*
X5613Y-5731D01*
X5684Y-5759D01*
X5944Y-5500D01*
X5944Y-5611D01*
X5740Y-5815D01*
X5768Y-5886D01*
X5933Y-5945D01*
X6109Y-5937D01*
X6231Y-5886D01*
X6259Y-5815D01*
X6259Y-7761D01*
X5474Y-7761D01*
X5474Y-5406D01*
X5402Y-5231D01*
X5268Y-5098D01*
X5259Y-5094D01*
X5259Y-3815D01*
X5000Y-3555D01*
X4740Y-3815D01*
X4768Y-3886D01*
X4933Y-3945D01*
X5109Y-3937D01*
X5231Y-3886D01*
X5259Y-3815D01*
X5259Y-5094D01*
X5094Y-5026D01*
X4906Y-5025D01*
X4731Y-5097D01*
X4598Y-5231D01*
X4526Y-5405D01*
X4525Y-5593D01*
X4597Y-5768D01*
X4731Y-5901D01*
X4905Y-5973D01*
X5093Y-5974D01*
X5268Y-5902D01*
X5401Y-5768D01*
X5473Y-5594D01*
X5474Y-5406D01*
X5474Y-7761D01*
X4998Y-7761D01*
X4939Y-7701D01*
X4939Y-7200D01*
X4938Y-7199D01*
X4920Y-7108D01*
X4868Y-7031D01*
X4868Y-7031D01*
X4568Y-6731D01*
X4491Y-6679D01*
X4442Y-6669D01*
X4473Y-6594D01*
X4474Y-6406D01*
X4474Y-5406D01*
X4445Y-5337D01*
X4445Y-4566D01*
X4437Y-4390D01*
X4386Y-4268D01*
X4315Y-4240D01*
X4259Y-4295D01*
X4259Y-4184D01*
X4259Y-3815D01*
X4000Y-3555D01*
X3740Y-3815D01*
X3768Y-3886D01*
X3933Y-3945D01*
X4109Y-3937D01*
X4231Y-3886D01*
X4259Y-3815D01*
X4259Y-4184D01*
X4231Y-4113D01*
X4066Y-4054D01*
X3890Y-4062D01*
X3768Y-4113D01*
X3740Y-4184D01*
X4000Y-4444D01*
X4259Y-4184D01*
X4259Y-4295D01*
X4055Y-4500D01*
X4315Y-4759D01*
X4386Y-4731D01*
X4445Y-4566D01*
X4445Y-5337D01*
X4402Y-5231D01*
X4268Y-5098D01*
X4259Y-5094D01*
X4259Y-4815D01*
X4000Y-4555D01*
X3944Y-4611D01*
X3944Y-4500D01*
X3684Y-4240D01*
X3613Y-4268D01*
X3554Y-4433D01*
X3562Y-4609D01*
X3613Y-4731D01*
X3684Y-4759D01*
X3944Y-4500D01*
X3944Y-4611D01*
X3740Y-4815D01*
X3768Y-4886D01*
X3933Y-4945D01*
X4109Y-4937D01*
X4231Y-4886D01*
X4259Y-4815D01*
X4259Y-5094D01*
X4094Y-5026D01*
X3906Y-5025D01*
X3731Y-5097D01*
X3598Y-5231D01*
X3526Y-5405D01*
X3525Y-5593D01*
X3597Y-5768D01*
X3731Y-5901D01*
X3905Y-5973D01*
X4093Y-5974D01*
X4268Y-5902D01*
X4401Y-5768D01*
X4473Y-5594D01*
X4474Y-5406D01*
X4474Y-6406D01*
X4402Y-6231D01*
X4268Y-6098D01*
X4094Y-6026D01*
X3906Y-6025D01*
X3731Y-6097D01*
X3598Y-6231D01*
X3526Y-6405D01*
X3525Y-6593D01*
X3553Y-6661D01*
X2498Y-6661D01*
X1461Y-5623D01*
X1473Y-5594D01*
X1474Y-5406D01*
X1402Y-5231D01*
X1268Y-5098D01*
X1094Y-5026D01*
X906Y-5025D01*
X745Y-5092D01*
X876Y-4961D01*
X905Y-4973D01*
X1093Y-4974D01*
X1268Y-4902D01*
X1401Y-4768D01*
X1473Y-4594D01*
X1474Y-4406D01*
X1402Y-4231D01*
X1268Y-4098D01*
X1094Y-4026D01*
X906Y-4025D01*
X731Y-4097D01*
X598Y-4231D01*
X526Y-4405D01*
X525Y-4593D01*
X538Y-4623D01*
X331Y-4831D01*
X279Y-4908D01*
X261Y-5000D01*
X261Y-8700D01*
X279Y-8791D01*
X331Y-8868D01*
X631Y-9168D01*
X631Y-9168D01*
X648Y-9180D01*
X598Y-9231D01*
X526Y-9405D01*
X525Y-9593D01*
X538Y-9623D01*
X231Y-9931D01*
X228Y-9934D01*
X228Y-1858D01*
X372Y-1972D01*
X1144Y-1200D01*
X372Y-427D01*
X228Y-541D01*
X228Y-228D01*
X541Y-228D01*
X427Y-372D01*
X1200Y-1144D01*
X1972Y-372D01*
X1858Y-228D01*
X5572Y-228D01*
X5501Y-400D01*
X5500Y-598D01*
X5576Y-782D01*
X5671Y-876D01*
X5671Y-2363D01*
X5363Y-2671D01*
X2500Y-2671D01*
X2374Y-2696D01*
X2352Y-2710D01*
X2352Y-977D01*
X2179Y-553D01*
X2172Y-542D01*
X2027Y-427D01*
X1255Y-1200D01*
X2027Y-1972D01*
X2172Y-1857D01*
X2350Y-1435D01*
X2352Y-977D01*
X2352Y-2710D01*
X2267Y-2767D01*
X2008Y-3026D01*
X1972Y-3025D01*
X1972Y-2027D01*
X1200Y-1255D01*
X427Y-2027D01*
X542Y-2172D01*
X964Y-2350D01*
X1422Y-2352D01*
X1846Y-2179D01*
X1857Y-2172D01*
X1972Y-2027D01*
X1972Y-3025D01*
X1906Y-3025D01*
X1731Y-3097D01*
X1598Y-3231D01*
X1526Y-3405D01*
X1525Y-3593D01*
X1597Y-3768D01*
X1731Y-3901D01*
X1905Y-3973D01*
X2093Y-3974D01*
X2268Y-3902D01*
X2401Y-3768D01*
X2473Y-3594D01*
X2474Y-3491D01*
X2636Y-3329D01*
X3591Y-3329D01*
X3554Y-3433D01*
X3562Y-3609D01*
X3613Y-3731D01*
X3684Y-3759D01*
X3944Y-3500D01*
X3938Y-3494D01*
X3994Y-3438D01*
X4000Y-3444D01*
X4005Y-3438D01*
X4061Y-3494D01*
X4055Y-3500D01*
X4315Y-3759D01*
X4386Y-3731D01*
X4445Y-3566D01*
X4437Y-3390D01*
X4411Y-3329D01*
X4591Y-3329D01*
X4554Y-3433D01*
X4562Y-3609D01*
X4613Y-3731D01*
X4684Y-3759D01*
X4944Y-3500D01*
X4938Y-3494D01*
X4994Y-3438D01*
X5000Y-3444D01*
X5005Y-3438D01*
X5061Y-3494D01*
X5055Y-3500D01*
X5315Y-3759D01*
X5386Y-3731D01*
X5445Y-3566D01*
X5437Y-3390D01*
X5411Y-3329D01*
X5500Y-3329D01*
X5625Y-3303D01*
X5732Y-3232D01*
X6232Y-2732D01*
X6303Y-2625D01*
X6329Y-2500D01*
X6329Y-876D01*
X6422Y-783D01*
X6498Y-599D01*
X6499Y-401D01*
X6427Y-228D01*
X31941Y-228D01*
X31827Y-372D01*
X32600Y-1144D01*
X33372Y-372D01*
X33258Y-228D01*
X36912Y-228D01*
X36912Y-1271D01*
X38771Y-1271D01*
X38771Y-8601D01*
X38768Y-8598D01*
X38644Y-8546D01*
X38644Y-5173D01*
X38613Y-5098D01*
X38613Y-2783D01*
X38445Y-2374D01*
X38440Y-2365D01*
X38299Y-2256D01*
X38243Y-2312D01*
X38243Y-2200D01*
X38134Y-2059D01*
X37726Y-1888D01*
X37283Y-1886D01*
X36874Y-2054D01*
X36865Y-2059D01*
X36756Y-2200D01*
X37500Y-2944D01*
X38243Y-2200D01*
X38243Y-2312D01*
X37555Y-3000D01*
X38299Y-3743D01*
X38440Y-3634D01*
X38611Y-3226D01*
X38613Y-2783D01*
X38613Y-5098D01*
X38470Y-4752D01*
X38243Y-4525D01*
X38243Y-3799D01*
X37500Y-3055D01*
X37444Y-3111D01*
X37444Y-3000D01*
X36700Y-2256D01*
X36559Y-2365D01*
X36388Y-2773D01*
X36387Y-3066D01*
X36197Y-2781D01*
X35877Y-2567D01*
X35500Y-2492D01*
X35122Y-2567D01*
X34802Y-2781D01*
X34588Y-3101D01*
X34513Y-3479D01*
X34513Y-4320D01*
X34588Y-4698D01*
X34802Y-5018D01*
X35122Y-5232D01*
X35500Y-5307D01*
X35877Y-5232D01*
X36197Y-5018D01*
X36411Y-4698D01*
X36486Y-4320D01*
X36486Y-3479D01*
X36478Y-3440D01*
X36554Y-3625D01*
X36559Y-3634D01*
X36700Y-3743D01*
X37444Y-3000D01*
X37444Y-3111D01*
X36756Y-3799D01*
X36865Y-3940D01*
X37273Y-4111D01*
X37716Y-4113D01*
X38125Y-3945D01*
X38134Y-3940D01*
X38243Y-3799D01*
X38243Y-4525D01*
X38148Y-4430D01*
X37728Y-4256D01*
X37273Y-4255D01*
X36852Y-4429D01*
X36530Y-4751D01*
X36356Y-5171D01*
X36355Y-5626D01*
X36488Y-5946D01*
X35513Y-6921D01*
X34447Y-6921D01*
X34311Y-6784D01*
X34109Y-6701D01*
X33891Y-6700D01*
X33752Y-6758D01*
X33752Y-977D01*
X33579Y-553D01*
X33572Y-542D01*
X33427Y-427D01*
X32655Y-1200D01*
X33427Y-1972D01*
X33572Y-1857D01*
X33750Y-1435D01*
X33752Y-977D01*
X33752Y-6758D01*
X33689Y-6784D01*
X33632Y-6841D01*
X33632Y-4393D01*
X33632Y-3527D01*
X33601Y-3454D01*
X33545Y-3398D01*
X33472Y-3367D01*
X33393Y-3367D01*
X33372Y-3367D01*
X33372Y-2027D01*
X32600Y-1255D01*
X32544Y-1311D01*
X32544Y-1200D01*
X31772Y-427D01*
X31627Y-542D01*
X31449Y-964D01*
X31447Y-1422D01*
X31620Y-1846D01*
X31627Y-1857D01*
X31772Y-1972D01*
X32544Y-1200D01*
X32544Y-1311D01*
X31827Y-2027D01*
X31942Y-2172D01*
X32364Y-2350D01*
X32822Y-2352D01*
X33246Y-2179D01*
X33257Y-2172D01*
X33372Y-2027D01*
X33372Y-3367D01*
X32527Y-3367D01*
X32500Y-3379D01*
X32472Y-3367D01*
X32393Y-3367D01*
X31527Y-3367D01*
X31454Y-3398D01*
X31398Y-3454D01*
X31367Y-3527D01*
X31367Y-3606D01*
X31367Y-4472D01*
X31398Y-4545D01*
X31454Y-4601D01*
X31527Y-4632D01*
X31606Y-4632D01*
X32472Y-4632D01*
X32499Y-4620D01*
X32527Y-4632D01*
X32606Y-4632D01*
X33472Y-4632D01*
X33545Y-4601D01*
X33601Y-4545D01*
X33632Y-4472D01*
X33632Y-4393D01*
X33632Y-6841D01*
X33534Y-6938D01*
X33451Y-7140D01*
X33450Y-7358D01*
X33534Y-7560D01*
X33688Y-7715D01*
X33890Y-7798D01*
X34108Y-7799D01*
X34310Y-7715D01*
X34447Y-7579D01*
X35650Y-7579D01*
X35775Y-7553D01*
X35882Y-7482D01*
X36953Y-6411D01*
X37271Y-6543D01*
X37726Y-6544D01*
X38147Y-6370D01*
X38469Y-6048D01*
X38643Y-5628D01*
X38644Y-5173D01*
X38644Y-8546D01*
X38594Y-8526D01*
X38491Y-8525D01*
X38329Y-8363D01*
X38329Y-7799D01*
X38389Y-7799D01*
X38462Y-7768D01*
X38518Y-7712D01*
X38548Y-7639D01*
X38549Y-7560D01*
X38549Y-6860D01*
X38518Y-6787D01*
X38462Y-6731D01*
X38389Y-6701D01*
X38310Y-6700D01*
X37610Y-6700D01*
X37537Y-6731D01*
X37481Y-6787D01*
X37451Y-6860D01*
X37450Y-6939D01*
X37450Y-7639D01*
X37481Y-7712D01*
X37537Y-7768D01*
X37610Y-7798D01*
X37671Y-7799D01*
X37671Y-8500D01*
X37690Y-8598D01*
X37566Y-8554D01*
X37390Y-8562D01*
X37268Y-8613D01*
X37240Y-8684D01*
X37500Y-8944D01*
X37505Y-8938D01*
X37561Y-8994D01*
X37555Y-9000D01*
X37561Y-9005D01*
X37505Y-9061D01*
X37500Y-9055D01*
X37444Y-9111D01*
X37444Y-9000D01*
X37184Y-8740D01*
X37113Y-8768D01*
X37054Y-8933D01*
X37062Y-9109D01*
X37113Y-9231D01*
X37184Y-9259D01*
X37444Y-9000D01*
X37444Y-9111D01*
X37240Y-9315D01*
X37268Y-9386D01*
X37433Y-9445D01*
X37596Y-9437D01*
X37083Y-9951D01*
X36974Y-9950D01*
X36974Y-8406D01*
X36902Y-8231D01*
X36768Y-8098D01*
X36594Y-8026D01*
X36406Y-8025D01*
X36231Y-8097D01*
X36098Y-8231D01*
X36026Y-8405D01*
X36025Y-8593D01*
X36097Y-8768D01*
X36231Y-8901D01*
X36405Y-8973D01*
X36593Y-8974D01*
X36768Y-8902D01*
X36901Y-8768D01*
X36973Y-8594D01*
X36974Y-8406D01*
X36974Y-9950D01*
X36945Y-9950D01*
X36945Y-9566D01*
X36937Y-9390D01*
X36886Y-9268D01*
X36815Y-9240D01*
X36759Y-9295D01*
X36759Y-9184D01*
X36731Y-9113D01*
X36566Y-9054D01*
X36390Y-9062D01*
X36268Y-9113D01*
X36240Y-9184D01*
X36500Y-9444D01*
X36759Y-9184D01*
X36759Y-9295D01*
X36555Y-9500D01*
X36815Y-9759D01*
X36886Y-9731D01*
X36945Y-9566D01*
X36945Y-9950D01*
X36891Y-9950D01*
X36759Y-10005D01*
X36759Y-9815D01*
X36500Y-9555D01*
X36444Y-9611D01*
X36444Y-9500D01*
X36184Y-9240D01*
X36113Y-9268D01*
X36054Y-9433D01*
X36062Y-9609D01*
X36113Y-9731D01*
X36184Y-9759D01*
X36444Y-9500D01*
X36444Y-9611D01*
X36240Y-9815D01*
X36268Y-9886D01*
X36433Y-9945D01*
X36609Y-9937D01*
X36731Y-9886D01*
X36759Y-9815D01*
X36759Y-10005D01*
X36689Y-10034D01*
X36534Y-10188D01*
X36484Y-10309D01*
X36448Y-10222D01*
X36370Y-10185D01*
X36314Y-10241D01*
X36314Y-10129D01*
X36277Y-10051D01*
X36084Y-9979D01*
X35878Y-9986D01*
X35722Y-10051D01*
X35685Y-10129D01*
X36000Y-10444D01*
X36314Y-10129D01*
X36314Y-10241D01*
X36055Y-10500D01*
X36370Y-10814D01*
X36448Y-10777D01*
X36482Y-10685D01*
X36534Y-10810D01*
X36688Y-10965D01*
X36890Y-11048D01*
X37108Y-11049D01*
X37310Y-10965D01*
X37465Y-10811D01*
X37548Y-10609D01*
X37549Y-10416D01*
X38491Y-9473D01*
X38593Y-9474D01*
X38768Y-9402D01*
X38771Y-9398D01*
X38771Y-19271D01*
X38771Y-19271D01*
G37*
G54D30*
X38771Y-19271D02*
X37917Y-19271D01*
X37917Y-18783D01*
X37917Y-15216D01*
X37891Y-15155D01*
X37844Y-15108D01*
X37783Y-15082D01*
X37716Y-15082D01*
X36314Y-15082D01*
X36314Y-10870D01*
X36000Y-10555D01*
X35685Y-10870D01*
X35722Y-10948D01*
X35915Y-11020D01*
X36121Y-11013D01*
X36277Y-10948D01*
X36314Y-10870D01*
X36314Y-15082D01*
X36081Y-15082D01*
X36039Y-15124D01*
X36039Y-16960D01*
X37875Y-16960D01*
X37917Y-16918D01*
X37917Y-15216D01*
X37917Y-18783D01*
X37917Y-17081D01*
X37875Y-17039D01*
X36039Y-17039D01*
X36039Y-18875D01*
X36081Y-18917D01*
X37716Y-18917D01*
X37783Y-18917D01*
X37844Y-18891D01*
X37891Y-18844D01*
X37917Y-18783D01*
X37917Y-19271D01*
X35960Y-19271D01*
X35960Y-18875D01*
X35960Y-17039D01*
X35960Y-16960D01*
X35960Y-15124D01*
X35918Y-15082D01*
X34283Y-15082D01*
X34216Y-15082D01*
X34155Y-15108D01*
X34108Y-15155D01*
X34082Y-15216D01*
X34082Y-16918D01*
X34124Y-16960D01*
X35960Y-16960D01*
X35960Y-17039D01*
X34124Y-17039D01*
X34082Y-17081D01*
X34082Y-18783D01*
X34108Y-18844D01*
X34155Y-18891D01*
X34216Y-18917D01*
X34283Y-18917D01*
X35918Y-18917D01*
X35960Y-18875D01*
X35960Y-19271D01*
X31445Y-19271D01*
X31445Y-18066D01*
X31437Y-17890D01*
X31386Y-17768D01*
X31315Y-17740D01*
X31259Y-17795D01*
X31259Y-17684D01*
X31231Y-17613D01*
X31066Y-17554D01*
X30890Y-17562D01*
X30768Y-17613D01*
X30740Y-17684D01*
X31000Y-17944D01*
X31259Y-17684D01*
X31259Y-17795D01*
X31055Y-18000D01*
X31315Y-18259D01*
X31386Y-18231D01*
X31445Y-18066D01*
X31445Y-19271D01*
X31259Y-19271D01*
X31259Y-18315D01*
X31000Y-18055D01*
X30944Y-18111D01*
X30944Y-18000D01*
X30684Y-17740D01*
X30613Y-17768D01*
X30554Y-17933D01*
X30562Y-18109D01*
X30613Y-18231D01*
X30684Y-18259D01*
X30944Y-18000D01*
X30944Y-18111D01*
X30740Y-18315D01*
X30768Y-18386D01*
X30933Y-18445D01*
X31109Y-18437D01*
X31231Y-18386D01*
X31259Y-18315D01*
X31259Y-19271D01*
X30029Y-19271D01*
X30029Y-15750D01*
X29833Y-15264D01*
X29819Y-15242D01*
X29657Y-15108D01*
X29601Y-15164D01*
X29601Y-15052D01*
X29467Y-14890D01*
X28984Y-14685D01*
X28460Y-14680D01*
X27974Y-14876D01*
X27952Y-14890D01*
X27818Y-15052D01*
X28710Y-15944D01*
X29601Y-15052D01*
X29601Y-15164D01*
X28765Y-16000D01*
X29657Y-16891D01*
X29819Y-16757D01*
X30024Y-16274D01*
X30029Y-15750D01*
X30029Y-19271D01*
X29601Y-19271D01*
X29601Y-16947D01*
X28710Y-16055D01*
X28654Y-16111D01*
X28654Y-16000D01*
X27762Y-15108D01*
X27600Y-15242D01*
X27395Y-15725D01*
X27390Y-16249D01*
X27586Y-16735D01*
X27600Y-16757D01*
X27762Y-16891D01*
X28654Y-16000D01*
X28654Y-16111D01*
X27818Y-16947D01*
X27952Y-17109D01*
X28435Y-17314D01*
X28959Y-17319D01*
X29445Y-17123D01*
X29467Y-17109D01*
X29601Y-16947D01*
X29601Y-19271D01*
X24634Y-19271D01*
X24634Y-17124D01*
X24634Y-16575D01*
X24599Y-16400D01*
X24499Y-16251D01*
X24350Y-16151D01*
X24175Y-16116D01*
X23999Y-16151D01*
X23850Y-16251D01*
X23750Y-16400D01*
X23750Y-16404D01*
X23749Y-16400D01*
X23649Y-16251D01*
X23500Y-16151D01*
X23325Y-16116D01*
X23149Y-16151D01*
X23000Y-16251D01*
X22900Y-16400D01*
X22900Y-16404D01*
X22899Y-16400D01*
X22799Y-16251D01*
X22650Y-16151D01*
X22475Y-16116D01*
X22299Y-16151D01*
X22150Y-16251D01*
X22050Y-16400D01*
X22050Y-16404D01*
X22049Y-16400D01*
X21949Y-16251D01*
X21800Y-16151D01*
X21625Y-16116D01*
X21449Y-16151D01*
X21300Y-16251D01*
X21200Y-16400D01*
X21200Y-16404D01*
X21199Y-16400D01*
X21099Y-16251D01*
X20950Y-16151D01*
X20775Y-16116D01*
X20599Y-16151D01*
X20450Y-16251D01*
X20350Y-16400D01*
X20333Y-16487D01*
X20304Y-16390D01*
X20199Y-16260D01*
X20051Y-16180D01*
X20030Y-16176D01*
X19964Y-16206D01*
X19964Y-16810D01*
X19972Y-16810D01*
X19972Y-16889D01*
X19964Y-16889D01*
X19964Y-17493D01*
X20030Y-17523D01*
X20051Y-17519D01*
X20199Y-17439D01*
X20304Y-17309D01*
X20333Y-17212D01*
X20350Y-17299D01*
X20450Y-17448D01*
X20599Y-17548D01*
X20775Y-17583D01*
X20950Y-17548D01*
X21099Y-17448D01*
X21199Y-17299D01*
X21200Y-17295D01*
X21200Y-17299D01*
X21300Y-17448D01*
X21449Y-17548D01*
X21625Y-17583D01*
X21800Y-17548D01*
X21949Y-17448D01*
X22049Y-17299D01*
X22050Y-17295D01*
X22050Y-17299D01*
X22150Y-17448D01*
X22299Y-17548D01*
X22475Y-17583D01*
X22650Y-17548D01*
X22799Y-17448D01*
X22899Y-17299D01*
X22900Y-17295D01*
X22900Y-17299D01*
X23000Y-17448D01*
X23149Y-17548D01*
X23325Y-17583D01*
X23500Y-17548D01*
X23649Y-17448D01*
X23749Y-17299D01*
X23750Y-17295D01*
X23750Y-17299D01*
X23850Y-17448D01*
X23999Y-17548D01*
X24175Y-17583D01*
X24350Y-17548D01*
X24499Y-17448D01*
X24599Y-17299D01*
X24634Y-17124D01*
X24634Y-19271D01*
X19885Y-19271D01*
X19885Y-17493D01*
X19885Y-16889D01*
X19885Y-16810D01*
X19885Y-16206D01*
X19819Y-16176D01*
X19798Y-16180D01*
X19650Y-16260D01*
X19545Y-16390D01*
X19500Y-16543D01*
X19454Y-16390D01*
X19349Y-16260D01*
X19201Y-16180D01*
X19180Y-16176D01*
X19114Y-16206D01*
X19114Y-16810D01*
X19497Y-16810D01*
X19502Y-16810D01*
X19885Y-16810D01*
X19885Y-16889D01*
X19502Y-16889D01*
X19497Y-16889D01*
X19114Y-16889D01*
X19114Y-17493D01*
X19180Y-17523D01*
X19201Y-17519D01*
X19349Y-17439D01*
X19454Y-17309D01*
X19500Y-17156D01*
X19545Y-17309D01*
X19650Y-17439D01*
X19798Y-17519D01*
X19819Y-17523D01*
X19885Y-17493D01*
X19885Y-19271D01*
X19035Y-19271D01*
X19035Y-17493D01*
X19035Y-16889D01*
X19035Y-16810D01*
X19035Y-16206D01*
X18969Y-16176D01*
X18948Y-16180D01*
X18800Y-16260D01*
X18695Y-16390D01*
X18650Y-16543D01*
X18604Y-16390D01*
X18499Y-16260D01*
X18351Y-16180D01*
X18330Y-16176D01*
X18264Y-16206D01*
X18264Y-16810D01*
X18647Y-16810D01*
X18652Y-16810D01*
X19035Y-16810D01*
X19035Y-16889D01*
X18652Y-16889D01*
X18647Y-16889D01*
X18264Y-16889D01*
X18264Y-17493D01*
X18330Y-17523D01*
X18351Y-17519D01*
X18499Y-17439D01*
X18604Y-17309D01*
X18650Y-17156D01*
X18695Y-17309D01*
X18800Y-17439D01*
X18948Y-17519D01*
X18969Y-17523D01*
X19035Y-17493D01*
X19035Y-19271D01*
X18185Y-19271D01*
X18185Y-17493D01*
X18185Y-16889D01*
X18185Y-16810D01*
X18185Y-16206D01*
X18119Y-16176D01*
X18098Y-16180D01*
X17950Y-16260D01*
X17845Y-16390D01*
X17800Y-16543D01*
X17754Y-16390D01*
X17649Y-16260D01*
X17501Y-16180D01*
X17480Y-16176D01*
X17414Y-16206D01*
X17414Y-16810D01*
X17797Y-16810D01*
X17802Y-16810D01*
X18185Y-16810D01*
X18185Y-16889D01*
X17802Y-16889D01*
X17797Y-16889D01*
X17414Y-16889D01*
X17414Y-17493D01*
X17480Y-17523D01*
X17501Y-17519D01*
X17649Y-17439D01*
X17754Y-17309D01*
X17800Y-17156D01*
X17845Y-17309D01*
X17950Y-17439D01*
X18098Y-17519D01*
X18119Y-17523D01*
X18185Y-17493D01*
X18185Y-19271D01*
X17335Y-19271D01*
X17335Y-17493D01*
X17335Y-16889D01*
X17335Y-16810D01*
X17335Y-16206D01*
X17269Y-16176D01*
X17248Y-16180D01*
X17100Y-16260D01*
X16995Y-16390D01*
X16950Y-16543D01*
X16904Y-16390D01*
X16799Y-16260D01*
X16651Y-16180D01*
X16630Y-16176D01*
X16564Y-16206D01*
X16564Y-16810D01*
X16947Y-16810D01*
X16952Y-16810D01*
X17335Y-16810D01*
X17335Y-16889D01*
X16952Y-16889D01*
X16947Y-16889D01*
X16564Y-16889D01*
X16564Y-17493D01*
X16630Y-17523D01*
X16651Y-17519D01*
X16799Y-17439D01*
X16904Y-17309D01*
X16950Y-17156D01*
X16995Y-17309D01*
X17100Y-17439D01*
X17248Y-17519D01*
X17269Y-17523D01*
X17335Y-17493D01*
X17335Y-19271D01*
X16485Y-19271D01*
X16485Y-17493D01*
X16485Y-16889D01*
X16485Y-16810D01*
X16485Y-16206D01*
X16419Y-16176D01*
X16398Y-16180D01*
X16250Y-16260D01*
X16145Y-16390D01*
X16100Y-16543D01*
X16054Y-16390D01*
X15949Y-16260D01*
X15801Y-16180D01*
X15780Y-16176D01*
X15714Y-16206D01*
X15714Y-16810D01*
X16097Y-16810D01*
X16102Y-16810D01*
X16485Y-16810D01*
X16485Y-16889D01*
X16102Y-16889D01*
X16097Y-16889D01*
X15714Y-16889D01*
X15714Y-17493D01*
X15780Y-17523D01*
X15801Y-17519D01*
X15949Y-17439D01*
X16054Y-17309D01*
X16100Y-17156D01*
X16145Y-17309D01*
X16250Y-17439D01*
X16398Y-17519D01*
X16419Y-17523D01*
X16485Y-17493D01*
X16485Y-19271D01*
X15635Y-19271D01*
X15635Y-17493D01*
X15635Y-16889D01*
X15635Y-16810D01*
X15635Y-16206D01*
X15569Y-16176D01*
X15548Y-16180D01*
X15400Y-16260D01*
X15295Y-16390D01*
X15250Y-16543D01*
X15204Y-16390D01*
X15099Y-16260D01*
X14951Y-16180D01*
X14930Y-16176D01*
X14864Y-16206D01*
X14864Y-16810D01*
X15247Y-16810D01*
X15252Y-16810D01*
X15635Y-16810D01*
X15635Y-16889D01*
X15252Y-16889D01*
X15247Y-16889D01*
X14864Y-16889D01*
X14864Y-17493D01*
X14930Y-17523D01*
X14951Y-17519D01*
X15099Y-17439D01*
X15204Y-17309D01*
X15250Y-17156D01*
X15295Y-17309D01*
X15400Y-17439D01*
X15548Y-17519D01*
X15569Y-17523D01*
X15635Y-17493D01*
X15635Y-19271D01*
X14785Y-19271D01*
X14785Y-17493D01*
X14785Y-16889D01*
X14785Y-16810D01*
X14785Y-16206D01*
X14785Y-15793D01*
X14785Y-15189D01*
X14397Y-15189D01*
X14397Y-15449D01*
X14445Y-15609D01*
X14550Y-15739D01*
X14698Y-15819D01*
X14719Y-15823D01*
X14785Y-15793D01*
X14785Y-16206D01*
X14719Y-16176D01*
X14698Y-16180D01*
X14550Y-16260D01*
X14445Y-16390D01*
X14397Y-16550D01*
X14397Y-16810D01*
X14785Y-16810D01*
X14785Y-16889D01*
X14397Y-16889D01*
X14397Y-17149D01*
X14445Y-17309D01*
X14550Y-17439D01*
X14698Y-17519D01*
X14719Y-17523D01*
X14785Y-17493D01*
X14785Y-19271D01*
X11609Y-19271D01*
X11609Y-15750D01*
X11413Y-15264D01*
X11399Y-15242D01*
X11237Y-15108D01*
X11181Y-15164D01*
X11181Y-15052D01*
X11047Y-14890D01*
X10564Y-14685D01*
X10040Y-14680D01*
X9554Y-14876D01*
X9532Y-14890D01*
X9398Y-15052D01*
X10290Y-15944D01*
X11181Y-15052D01*
X11181Y-15164D01*
X10345Y-16000D01*
X11237Y-16891D01*
X11399Y-16757D01*
X11604Y-16274D01*
X11609Y-15750D01*
X11609Y-19271D01*
X11181Y-19271D01*
X11181Y-16947D01*
X10290Y-16055D01*
X10234Y-16111D01*
X10234Y-16000D01*
X9342Y-15108D01*
X9180Y-15242D01*
X8975Y-15725D01*
X8970Y-16249D01*
X9166Y-16735D01*
X9180Y-16757D01*
X9342Y-16891D01*
X10234Y-16000D01*
X10234Y-16111D01*
X9398Y-16947D01*
X9532Y-17109D01*
X10015Y-17314D01*
X10539Y-17319D01*
X11025Y-17123D01*
X11047Y-17109D01*
X11181Y-16947D01*
X11181Y-19271D01*
X7499Y-19271D01*
X7499Y-16401D01*
X7423Y-16217D01*
X7283Y-16077D01*
X7099Y-16001D01*
X6901Y-16000D01*
X6717Y-16076D01*
X6577Y-16216D01*
X6501Y-16400D01*
X6500Y-16598D01*
X6519Y-16642D01*
X6470Y-16691D01*
X6358Y-16803D01*
X6333Y-16778D01*
X6407Y-16747D01*
X6470Y-16572D01*
X6462Y-16386D01*
X6407Y-16252D01*
X6333Y-16221D01*
X6278Y-16277D01*
X6278Y-16166D01*
X6247Y-16092D01*
X6072Y-16029D01*
X5886Y-16037D01*
X5752Y-16092D01*
X5721Y-16166D01*
X6000Y-16444D01*
X6278Y-16166D01*
X6278Y-16277D01*
X6055Y-16500D01*
X6061Y-16505D01*
X6005Y-16561D01*
X6000Y-16555D01*
X5944Y-16611D01*
X5944Y-16500D01*
X5666Y-16221D01*
X5592Y-16252D01*
X5529Y-16427D01*
X5537Y-16613D01*
X5592Y-16747D01*
X5666Y-16778D01*
X5944Y-16500D01*
X5944Y-16611D01*
X5721Y-16833D01*
X5752Y-16907D01*
X5927Y-16970D01*
X6113Y-16962D01*
X6247Y-16907D01*
X6278Y-16833D01*
X6278Y-16833D01*
X6303Y-16858D01*
X6278Y-16883D01*
X5499Y-17662D01*
X5499Y-16401D01*
X5423Y-16217D01*
X5283Y-16077D01*
X5099Y-16001D01*
X4901Y-16000D01*
X4717Y-16076D01*
X4577Y-16216D01*
X4501Y-16400D01*
X4500Y-16598D01*
X4576Y-16782D01*
X4716Y-16922D01*
X4900Y-16998D01*
X5098Y-16999D01*
X5282Y-16923D01*
X5422Y-16783D01*
X5498Y-16599D01*
X5499Y-16401D01*
X5499Y-17662D01*
X4901Y-18261D01*
X2348Y-18261D01*
X2239Y-18151D01*
X2239Y-18132D01*
X2433Y-18132D01*
X2500Y-18104D01*
X2566Y-18132D01*
X2645Y-18132D01*
X3433Y-18132D01*
X3506Y-18101D01*
X3562Y-18045D01*
X3592Y-17972D01*
X3592Y-17893D01*
X3592Y-17027D01*
X3581Y-17000D01*
X3592Y-16972D01*
X3592Y-16893D01*
X3592Y-16027D01*
X3562Y-15954D01*
X3506Y-15898D01*
X3433Y-15867D01*
X3354Y-15867D01*
X3337Y-15867D01*
X3422Y-15783D01*
X3498Y-15599D01*
X3499Y-15401D01*
X3423Y-15217D01*
X3283Y-15077D01*
X3099Y-15001D01*
X2901Y-15000D01*
X2717Y-15076D01*
X2577Y-15216D01*
X2501Y-15400D01*
X2500Y-15598D01*
X2576Y-15782D01*
X2662Y-15867D01*
X2566Y-15867D01*
X2499Y-15895D01*
X2433Y-15867D01*
X2354Y-15867D01*
X2337Y-15867D01*
X2422Y-15783D01*
X2498Y-15599D01*
X2499Y-15401D01*
X2423Y-15217D01*
X2283Y-15077D01*
X2099Y-15001D01*
X1901Y-15000D01*
X1717Y-15076D01*
X1577Y-15216D01*
X1501Y-15400D01*
X1500Y-15598D01*
X1576Y-15782D01*
X1662Y-15867D01*
X1566Y-15867D01*
X1499Y-15895D01*
X1433Y-15867D01*
X1354Y-15867D01*
X1337Y-15867D01*
X1422Y-15783D01*
X1498Y-15599D01*
X1499Y-15401D01*
X1423Y-15217D01*
X1283Y-15077D01*
X1099Y-15001D01*
X901Y-15000D01*
X717Y-15076D01*
X577Y-15216D01*
X501Y-15400D01*
X500Y-15598D01*
X576Y-15782D01*
X662Y-15867D01*
X566Y-15867D01*
X493Y-15898D01*
X437Y-15954D01*
X407Y-16027D01*
X407Y-16106D01*
X407Y-16972D01*
X418Y-16999D01*
X407Y-17027D01*
X407Y-17106D01*
X407Y-17972D01*
X437Y-18045D01*
X493Y-18101D01*
X566Y-18132D01*
X645Y-18132D01*
X1433Y-18132D01*
X1500Y-18104D01*
X1566Y-18132D01*
X1645Y-18132D01*
X1761Y-18132D01*
X1761Y-18250D01*
X1779Y-18341D01*
X1831Y-18418D01*
X2081Y-18668D01*
X2081Y-18668D01*
X2158Y-18720D01*
X2250Y-18739D01*
X5000Y-18739D01*
X5091Y-18720D01*
X5091Y-18720D01*
X5168Y-18668D01*
X6857Y-16980D01*
X6900Y-16998D01*
X7098Y-16999D01*
X7282Y-16923D01*
X7422Y-16783D01*
X7498Y-16599D01*
X7499Y-16401D01*
X7499Y-19271D01*
X228Y-19271D01*
X228Y-12065D01*
X231Y-12068D01*
X631Y-12468D01*
X631Y-12468D01*
X708Y-12520D01*
X799Y-12538D01*
X800Y-12539D01*
X2501Y-12539D01*
X4161Y-14198D01*
X4161Y-14700D01*
X4179Y-14791D01*
X4231Y-14868D01*
X4531Y-15168D01*
X4531Y-15168D01*
X4608Y-15220D01*
X4699Y-15238D01*
X4700Y-15239D01*
X7300Y-15239D01*
X7391Y-15220D01*
X7391Y-15220D01*
X7468Y-15168D01*
X8098Y-14539D01*
X14400Y-14539D01*
X14589Y-14539D01*
X14550Y-14560D01*
X14445Y-14690D01*
X14397Y-14850D01*
X14397Y-15110D01*
X14785Y-15110D01*
X14785Y-15102D01*
X14864Y-15102D01*
X14864Y-15110D01*
X14872Y-15110D01*
X14872Y-15189D01*
X14864Y-15189D01*
X14864Y-15793D01*
X14930Y-15823D01*
X14951Y-15819D01*
X15099Y-15739D01*
X15204Y-15609D01*
X15233Y-15512D01*
X15250Y-15599D01*
X15350Y-15748D01*
X15499Y-15848D01*
X15675Y-15883D01*
X15850Y-15848D01*
X15999Y-15748D01*
X16099Y-15599D01*
X16100Y-15595D01*
X16100Y-15599D01*
X16200Y-15748D01*
X16349Y-15848D01*
X16525Y-15883D01*
X16700Y-15848D01*
X16849Y-15748D01*
X16949Y-15599D01*
X16950Y-15595D01*
X16950Y-15599D01*
X17050Y-15748D01*
X17199Y-15848D01*
X17375Y-15883D01*
X17550Y-15848D01*
X17699Y-15748D01*
X17799Y-15599D01*
X17800Y-15595D01*
X17800Y-15599D01*
X17900Y-15748D01*
X18049Y-15848D01*
X18225Y-15883D01*
X18400Y-15848D01*
X18549Y-15748D01*
X18649Y-15599D01*
X18650Y-15595D01*
X18650Y-15599D01*
X18750Y-15748D01*
X18899Y-15848D01*
X19075Y-15883D01*
X19250Y-15848D01*
X19399Y-15748D01*
X19499Y-15599D01*
X19500Y-15595D01*
X19500Y-15599D01*
X19600Y-15748D01*
X19749Y-15848D01*
X19925Y-15883D01*
X20100Y-15848D01*
X20249Y-15748D01*
X20349Y-15599D01*
X20350Y-15595D01*
X20350Y-15599D01*
X20450Y-15748D01*
X20599Y-15848D01*
X20775Y-15883D01*
X20950Y-15848D01*
X21099Y-15748D01*
X21199Y-15599D01*
X21200Y-15595D01*
X21200Y-15599D01*
X21300Y-15748D01*
X21449Y-15848D01*
X21625Y-15883D01*
X21800Y-15848D01*
X21949Y-15748D01*
X22049Y-15599D01*
X22050Y-15595D01*
X22050Y-15599D01*
X22150Y-15748D01*
X22299Y-15848D01*
X22475Y-15883D01*
X22650Y-15848D01*
X22799Y-15748D01*
X22899Y-15599D01*
X22900Y-15595D01*
X22900Y-15599D01*
X23000Y-15748D01*
X23149Y-15848D01*
X23325Y-15883D01*
X23500Y-15848D01*
X23649Y-15748D01*
X23749Y-15599D01*
X23750Y-15595D01*
X23750Y-15599D01*
X23850Y-15748D01*
X23999Y-15848D01*
X24175Y-15883D01*
X24350Y-15848D01*
X24499Y-15748D01*
X24599Y-15599D01*
X24634Y-15424D01*
X24634Y-14875D01*
X24599Y-14700D01*
X24499Y-14551D01*
X24350Y-14451D01*
X24175Y-14416D01*
X23999Y-14451D01*
X23850Y-14551D01*
X23750Y-14700D01*
X23750Y-14704D01*
X23749Y-14700D01*
X23649Y-14551D01*
X23500Y-14451D01*
X23325Y-14416D01*
X23149Y-14451D01*
X23000Y-14551D01*
X22900Y-14700D01*
X22900Y-14704D01*
X22899Y-14700D01*
X22799Y-14551D01*
X22650Y-14451D01*
X22475Y-14416D01*
X22299Y-14451D01*
X22150Y-14551D01*
X22050Y-14700D01*
X22050Y-14704D01*
X22049Y-14700D01*
X21949Y-14551D01*
X21800Y-14451D01*
X21625Y-14416D01*
X21449Y-14451D01*
X21300Y-14551D01*
X21200Y-14700D01*
X21200Y-14704D01*
X21199Y-14700D01*
X21099Y-14551D01*
X20950Y-14451D01*
X20775Y-14416D01*
X20599Y-14451D01*
X20450Y-14551D01*
X20350Y-14700D01*
X20350Y-14704D01*
X20349Y-14700D01*
X20249Y-14551D01*
X20100Y-14451D01*
X19925Y-14416D01*
X19749Y-14451D01*
X19600Y-14551D01*
X19500Y-14700D01*
X19500Y-14704D01*
X19499Y-14700D01*
X19399Y-14551D01*
X19250Y-14451D01*
X19075Y-14416D01*
X18899Y-14451D01*
X18750Y-14551D01*
X18650Y-14700D01*
X18650Y-14704D01*
X18649Y-14700D01*
X18549Y-14551D01*
X18400Y-14451D01*
X18225Y-14416D01*
X18049Y-14451D01*
X17900Y-14551D01*
X17800Y-14700D01*
X17800Y-14704D01*
X17799Y-14700D01*
X17699Y-14551D01*
X17550Y-14451D01*
X17474Y-14436D01*
X17276Y-14239D01*
X29401Y-14239D01*
X30525Y-15363D01*
X30525Y-15814D01*
X30556Y-15887D01*
X30612Y-15943D01*
X30685Y-15973D01*
X30764Y-15974D01*
X31136Y-15974D01*
X31519Y-16357D01*
X31501Y-16400D01*
X31500Y-16598D01*
X31576Y-16782D01*
X31716Y-16922D01*
X31761Y-16941D01*
X31761Y-17585D01*
X31731Y-17597D01*
X31598Y-17731D01*
X31526Y-17905D01*
X31525Y-18093D01*
X31597Y-18268D01*
X31731Y-18401D01*
X31905Y-18473D01*
X32093Y-18474D01*
X32268Y-18402D01*
X32401Y-18268D01*
X32473Y-18094D01*
X32474Y-17906D01*
X32402Y-17731D01*
X32268Y-17598D01*
X32239Y-17586D01*
X32239Y-16941D01*
X32282Y-16923D01*
X32422Y-16783D01*
X32498Y-16599D01*
X32499Y-16401D01*
X32423Y-16217D01*
X32283Y-16077D01*
X32099Y-16001D01*
X31901Y-16000D01*
X31857Y-16019D01*
X31474Y-15636D01*
X31474Y-15185D01*
X31443Y-15112D01*
X31387Y-15056D01*
X31314Y-15026D01*
X31235Y-15025D01*
X30863Y-15025D01*
X29668Y-13831D01*
X29591Y-13779D01*
X29500Y-13761D01*
X23690Y-13761D01*
X23732Y-13732D01*
X24636Y-12829D01*
X25623Y-12829D01*
X25716Y-12922D01*
X25900Y-12998D01*
X26098Y-12999D01*
X26282Y-12923D01*
X26376Y-12829D01*
X30658Y-12829D01*
X30731Y-12901D01*
X30905Y-12973D01*
X31093Y-12974D01*
X31268Y-12902D01*
X31341Y-12829D01*
X31623Y-12829D01*
X31716Y-12922D01*
X31900Y-12998D01*
X32098Y-12999D01*
X32282Y-12923D01*
X32422Y-12783D01*
X32498Y-12599D01*
X32499Y-12401D01*
X32423Y-12217D01*
X32329Y-12123D01*
X32329Y-11841D01*
X32341Y-11829D01*
X32658Y-11829D01*
X32731Y-11901D01*
X32905Y-11973D01*
X33093Y-11974D01*
X33268Y-11902D01*
X33341Y-11829D01*
X34000Y-11829D01*
X34125Y-11803D01*
X34232Y-11732D01*
X34916Y-11049D01*
X35389Y-11049D01*
X35462Y-11018D01*
X35518Y-10962D01*
X35548Y-10889D01*
X35549Y-10810D01*
X35549Y-10771D01*
X35551Y-10777D01*
X35629Y-10814D01*
X35944Y-10500D01*
X35629Y-10185D01*
X35551Y-10222D01*
X35549Y-10229D01*
X35549Y-10110D01*
X35518Y-10037D01*
X35462Y-9981D01*
X35389Y-9951D01*
X35310Y-9950D01*
X34916Y-9950D01*
X34829Y-9863D01*
X34829Y-9841D01*
X34901Y-9768D01*
X34973Y-9594D01*
X34974Y-9406D01*
X34945Y-9337D01*
X34945Y-8566D01*
X34937Y-8390D01*
X34886Y-8268D01*
X34815Y-8240D01*
X34759Y-8295D01*
X34759Y-8184D01*
X34731Y-8113D01*
X34566Y-8054D01*
X34390Y-8062D01*
X34268Y-8113D01*
X34240Y-8184D01*
X34500Y-8444D01*
X34759Y-8184D01*
X34759Y-8295D01*
X34555Y-8500D01*
X34815Y-8759D01*
X34886Y-8731D01*
X34945Y-8566D01*
X34945Y-9337D01*
X34902Y-9231D01*
X34768Y-9098D01*
X34759Y-9094D01*
X34759Y-8815D01*
X34500Y-8555D01*
X34444Y-8611D01*
X34444Y-8500D01*
X34184Y-8240D01*
X34113Y-8268D01*
X34054Y-8433D01*
X34062Y-8609D01*
X34113Y-8731D01*
X34184Y-8759D01*
X34444Y-8500D01*
X34444Y-8611D01*
X34240Y-8815D01*
X34268Y-8886D01*
X34433Y-8945D01*
X34609Y-8937D01*
X34731Y-8886D01*
X34759Y-8815D01*
X34759Y-9094D01*
X34594Y-9026D01*
X34406Y-9025D01*
X34231Y-9097D01*
X34098Y-9231D01*
X34026Y-9405D01*
X34025Y-9593D01*
X34097Y-9768D01*
X34171Y-9841D01*
X34171Y-10000D01*
X34196Y-10125D01*
X34267Y-10232D01*
X34450Y-10416D01*
X34450Y-10583D01*
X33863Y-11171D01*
X33445Y-11171D01*
X33445Y-9566D01*
X33437Y-9390D01*
X33386Y-9268D01*
X33315Y-9240D01*
X33259Y-9295D01*
X33259Y-9184D01*
X33231Y-9113D01*
X33066Y-9054D01*
X32890Y-9062D01*
X32768Y-9113D01*
X32740Y-9184D01*
X33000Y-9444D01*
X33259Y-9184D01*
X33259Y-9295D01*
X33055Y-9500D01*
X33315Y-9759D01*
X33386Y-9731D01*
X33445Y-9566D01*
X33445Y-11171D01*
X33341Y-11171D01*
X33268Y-11098D01*
X33259Y-11094D01*
X33259Y-9815D01*
X33000Y-9555D01*
X32944Y-9611D01*
X32944Y-9500D01*
X32684Y-9240D01*
X32613Y-9268D01*
X32554Y-9433D01*
X32562Y-9609D01*
X32613Y-9731D01*
X32684Y-9759D01*
X32944Y-9500D01*
X32944Y-9611D01*
X32740Y-9815D01*
X32768Y-9886D01*
X32933Y-9945D01*
X33109Y-9937D01*
X33231Y-9886D01*
X33259Y-9815D01*
X33259Y-11094D01*
X33094Y-11026D01*
X32906Y-11025D01*
X32731Y-11097D01*
X32658Y-11171D01*
X32474Y-11171D01*
X32474Y-5735D01*
X32474Y-5185D01*
X32443Y-5112D01*
X32387Y-5056D01*
X32314Y-5026D01*
X32235Y-5025D01*
X31685Y-5025D01*
X31612Y-5056D01*
X31556Y-5112D01*
X31526Y-5185D01*
X31525Y-5264D01*
X31525Y-5814D01*
X31556Y-5887D01*
X31612Y-5943D01*
X31685Y-5973D01*
X31764Y-5974D01*
X32314Y-5974D01*
X32387Y-5943D01*
X32443Y-5887D01*
X32473Y-5814D01*
X32474Y-5735D01*
X32474Y-11171D01*
X32341Y-11171D01*
X32268Y-11098D01*
X32094Y-11026D01*
X31906Y-11025D01*
X31731Y-11097D01*
X31598Y-11231D01*
X31526Y-11405D01*
X31525Y-11593D01*
X31597Y-11768D01*
X31671Y-11841D01*
X31671Y-12123D01*
X31623Y-12171D01*
X31474Y-12171D01*
X31474Y-11406D01*
X31474Y-5406D01*
X31402Y-5231D01*
X31268Y-5098D01*
X31094Y-5026D01*
X30906Y-5025D01*
X30731Y-5097D01*
X30598Y-5231D01*
X30526Y-5405D01*
X30525Y-5593D01*
X30597Y-5768D01*
X30731Y-5901D01*
X30905Y-5973D01*
X31093Y-5974D01*
X31268Y-5902D01*
X31401Y-5768D01*
X31473Y-5594D01*
X31474Y-5406D01*
X31474Y-11406D01*
X31402Y-11231D01*
X31268Y-11098D01*
X31094Y-11026D01*
X30906Y-11025D01*
X30731Y-11097D01*
X30598Y-11231D01*
X30526Y-11405D01*
X30525Y-11593D01*
X30597Y-11768D01*
X30731Y-11901D01*
X30905Y-11973D01*
X31093Y-11974D01*
X31268Y-11902D01*
X31401Y-11768D01*
X31473Y-11594D01*
X31474Y-11406D01*
X31474Y-12171D01*
X31341Y-12171D01*
X31268Y-12098D01*
X31094Y-12026D01*
X30906Y-12025D01*
X30731Y-12097D01*
X30658Y-12171D01*
X30474Y-12171D01*
X30474Y-11406D01*
X30474Y-5406D01*
X30402Y-5231D01*
X30268Y-5098D01*
X30100Y-5028D01*
X30100Y-3246D01*
X29900Y-2748D01*
X29884Y-2724D01*
X29719Y-2585D01*
X29664Y-2641D01*
X29664Y-2530D01*
X29525Y-2365D01*
X29032Y-2154D01*
X28496Y-2149D01*
X27998Y-2349D01*
X27974Y-2365D01*
X27835Y-2530D01*
X28750Y-3444D01*
X29664Y-2530D01*
X29664Y-2641D01*
X28805Y-3500D01*
X29719Y-4414D01*
X29884Y-4275D01*
X30095Y-3782D01*
X30100Y-3246D01*
X30100Y-5028D01*
X30094Y-5026D01*
X29906Y-5025D01*
X29731Y-5097D01*
X29664Y-5165D01*
X29664Y-4469D01*
X28750Y-3555D01*
X28694Y-3611D01*
X28694Y-3500D01*
X27780Y-2585D01*
X27615Y-2724D01*
X27404Y-3217D01*
X27399Y-3753D01*
X27599Y-4251D01*
X27615Y-4275D01*
X27780Y-4414D01*
X28694Y-3500D01*
X28694Y-3611D01*
X27835Y-4469D01*
X27974Y-4634D01*
X28467Y-4845D01*
X29003Y-4850D01*
X29501Y-4650D01*
X29525Y-4634D01*
X29664Y-4469D01*
X29664Y-5165D01*
X29598Y-5231D01*
X29526Y-5405D01*
X29525Y-5593D01*
X29597Y-5768D01*
X29731Y-5901D01*
X29905Y-5973D01*
X30093Y-5974D01*
X30268Y-5902D01*
X30401Y-5768D01*
X30473Y-5594D01*
X30474Y-5406D01*
X30474Y-11406D01*
X30402Y-11231D01*
X30268Y-11098D01*
X30094Y-11026D01*
X29906Y-11025D01*
X29731Y-11097D01*
X29598Y-11231D01*
X29526Y-11405D01*
X29525Y-11593D01*
X29597Y-11768D01*
X29731Y-11901D01*
X29905Y-11973D01*
X30093Y-11974D01*
X30268Y-11902D01*
X30401Y-11768D01*
X30473Y-11594D01*
X30474Y-11406D01*
X30474Y-12171D01*
X29474Y-12171D01*
X29474Y-11406D01*
X29474Y-5406D01*
X29402Y-5231D01*
X29268Y-5098D01*
X29094Y-5026D01*
X28906Y-5025D01*
X28731Y-5097D01*
X28598Y-5231D01*
X28526Y-5405D01*
X28525Y-5593D01*
X28597Y-5768D01*
X28731Y-5901D01*
X28905Y-5973D01*
X29093Y-5974D01*
X29268Y-5902D01*
X29401Y-5768D01*
X29473Y-5594D01*
X29474Y-5406D01*
X29474Y-11406D01*
X29402Y-11231D01*
X29268Y-11098D01*
X29094Y-11026D01*
X28906Y-11025D01*
X28731Y-11097D01*
X28598Y-11231D01*
X28526Y-11405D01*
X28525Y-11593D01*
X28597Y-11768D01*
X28731Y-11901D01*
X28905Y-11973D01*
X29093Y-11974D01*
X29268Y-11902D01*
X29401Y-11768D01*
X29473Y-11594D01*
X29474Y-11406D01*
X29474Y-12171D01*
X27666Y-12171D01*
X27668Y-12168D01*
X27876Y-11961D01*
X27905Y-11973D01*
X28093Y-11974D01*
X28268Y-11902D01*
X28401Y-11768D01*
X28473Y-11594D01*
X28474Y-11406D01*
X28474Y-5406D01*
X28402Y-5231D01*
X28268Y-5098D01*
X28094Y-5026D01*
X27906Y-5025D01*
X27731Y-5097D01*
X27598Y-5231D01*
X27526Y-5405D01*
X27525Y-5593D01*
X27597Y-5768D01*
X27731Y-5901D01*
X27905Y-5973D01*
X28093Y-5974D01*
X28268Y-5902D01*
X28401Y-5768D01*
X28473Y-5594D01*
X28474Y-5406D01*
X28474Y-11406D01*
X28402Y-11231D01*
X28268Y-11098D01*
X28094Y-11026D01*
X27906Y-11025D01*
X27731Y-11097D01*
X27598Y-11231D01*
X27526Y-11405D01*
X27525Y-11593D01*
X27538Y-11623D01*
X27407Y-11754D01*
X27473Y-11594D01*
X27474Y-11406D01*
X27402Y-11231D01*
X27268Y-11098D01*
X27094Y-11026D01*
X26906Y-11025D01*
X26731Y-11097D01*
X26598Y-11231D01*
X26526Y-11405D01*
X26525Y-11593D01*
X26594Y-11761D01*
X26445Y-11761D01*
X26316Y-11761D01*
X26315Y-11759D01*
X26386Y-11731D01*
X26445Y-11566D01*
X26437Y-11390D01*
X26386Y-11268D01*
X26315Y-11240D01*
X26259Y-11295D01*
X26055Y-11500D01*
X26061Y-11505D01*
X26005Y-11561D01*
X26000Y-11555D01*
X25994Y-11561D01*
X25938Y-11505D01*
X25944Y-11500D01*
X25938Y-11494D01*
X25994Y-11438D01*
X26000Y-11444D01*
X26259Y-11184D01*
X26231Y-11113D01*
X26066Y-11054D01*
X25890Y-11062D01*
X25768Y-11113D01*
X25740Y-11184D01*
X25709Y-11154D01*
X25694Y-11169D01*
X25668Y-11131D01*
X25668Y-11131D01*
X25368Y-10831D01*
X25291Y-10779D01*
X25200Y-10761D01*
X24800Y-10761D01*
X24708Y-10779D01*
X24631Y-10831D01*
X24331Y-11131D01*
X24305Y-11169D01*
X24290Y-11154D01*
X24259Y-11184D01*
X24231Y-11113D01*
X24066Y-11054D01*
X23890Y-11062D01*
X23768Y-11113D01*
X23740Y-11184D01*
X24000Y-11444D01*
X24005Y-11438D01*
X24061Y-11494D01*
X24055Y-11500D01*
X24061Y-11505D01*
X24005Y-11561D01*
X24000Y-11555D01*
X23944Y-11611D01*
X23944Y-11500D01*
X23684Y-11240D01*
X23613Y-11268D01*
X23554Y-11433D01*
X23562Y-11609D01*
X23613Y-11731D01*
X23684Y-11759D01*
X23944Y-11500D01*
X23944Y-11611D01*
X23740Y-11815D01*
X23768Y-11886D01*
X23847Y-11914D01*
X23001Y-12761D01*
X22431Y-12761D01*
X22498Y-12599D01*
X22499Y-12401D01*
X22423Y-12217D01*
X22283Y-12077D01*
X22099Y-12001D01*
X21901Y-12000D01*
X21857Y-12019D01*
X21745Y-11907D01*
X21905Y-11973D01*
X22093Y-11974D01*
X22268Y-11902D01*
X22401Y-11768D01*
X22473Y-11594D01*
X22474Y-11406D01*
X22407Y-11245D01*
X22538Y-11376D01*
X22526Y-11405D01*
X22525Y-11593D01*
X22597Y-11768D01*
X22731Y-11901D01*
X22905Y-11973D01*
X23093Y-11974D01*
X23268Y-11902D01*
X23401Y-11768D01*
X23473Y-11594D01*
X23474Y-11406D01*
X23402Y-11231D01*
X23268Y-11098D01*
X23094Y-11026D01*
X22906Y-11025D01*
X22876Y-11038D01*
X22568Y-10731D01*
X22491Y-10679D01*
X22400Y-10661D01*
X16411Y-10661D01*
X16445Y-10566D01*
X16437Y-10390D01*
X16386Y-10268D01*
X16315Y-10240D01*
X16259Y-10295D01*
X16259Y-10184D01*
X16231Y-10113D01*
X16066Y-10054D01*
X15890Y-10062D01*
X15768Y-10113D01*
X15740Y-10184D01*
X16000Y-10444D01*
X16259Y-10184D01*
X16259Y-10295D01*
X16055Y-10500D01*
X16061Y-10505D01*
X16005Y-10561D01*
X16000Y-10555D01*
X15994Y-10561D01*
X15938Y-10505D01*
X15944Y-10500D01*
X15684Y-10240D01*
X15613Y-10268D01*
X15554Y-10433D01*
X15562Y-10609D01*
X15584Y-10661D01*
X15198Y-10661D01*
X14839Y-10301D01*
X14839Y-9974D01*
X15314Y-9974D01*
X15387Y-9943D01*
X15443Y-9887D01*
X15473Y-9814D01*
X15474Y-9735D01*
X15474Y-9185D01*
X15443Y-9112D01*
X15387Y-9056D01*
X15314Y-9026D01*
X15235Y-9025D01*
X14824Y-9025D01*
X14820Y-9008D01*
X14768Y-8931D01*
X14768Y-8931D01*
X14745Y-8907D01*
X14905Y-8973D01*
X15093Y-8974D01*
X15268Y-8902D01*
X15341Y-8829D01*
X15658Y-8829D01*
X15731Y-8901D01*
X15905Y-8973D01*
X16008Y-8974D01*
X16501Y-9466D01*
X16500Y-9598D01*
X16576Y-9782D01*
X16716Y-9922D01*
X16900Y-9998D01*
X17098Y-9999D01*
X17282Y-9923D01*
X17422Y-9783D01*
X17498Y-9599D01*
X17499Y-9401D01*
X17423Y-9217D01*
X17283Y-9077D01*
X17099Y-9001D01*
X16966Y-9000D01*
X16473Y-8508D01*
X16474Y-8406D01*
X16405Y-8239D01*
X20201Y-8239D01*
X20564Y-8602D01*
X20561Y-8612D01*
X20560Y-8786D01*
X20627Y-8948D01*
X20751Y-9071D01*
X20912Y-9138D01*
X21086Y-9139D01*
X21248Y-9072D01*
X21371Y-8948D01*
X21438Y-8787D01*
X21439Y-8613D01*
X21372Y-8451D01*
X21248Y-8328D01*
X21087Y-8261D01*
X20913Y-8260D01*
X20903Y-8265D01*
X20468Y-7831D01*
X20391Y-7779D01*
X20349Y-7770D01*
X20371Y-7748D01*
X20438Y-7587D01*
X20439Y-7413D01*
X20372Y-7251D01*
X20359Y-7239D01*
X27061Y-7239D01*
X27060Y-7386D01*
X27127Y-7548D01*
X27251Y-7671D01*
X27412Y-7738D01*
X27586Y-7739D01*
X27748Y-7672D01*
X27871Y-7548D01*
X27938Y-7387D01*
X27939Y-7213D01*
X27872Y-7051D01*
X27748Y-6928D01*
X27587Y-6861D01*
X27474Y-6860D01*
X27474Y-5406D01*
X27402Y-5231D01*
X27268Y-5098D01*
X27094Y-5026D01*
X26906Y-5025D01*
X26731Y-5097D01*
X26598Y-5231D01*
X26549Y-5349D01*
X26549Y-3901D01*
X26473Y-3717D01*
X26333Y-3577D01*
X26149Y-3501D01*
X25970Y-3500D01*
X25970Y-3072D01*
X25962Y-2886D01*
X25907Y-2752D01*
X25833Y-2721D01*
X25778Y-2777D01*
X25778Y-2666D01*
X25747Y-2592D01*
X25572Y-2529D01*
X25386Y-2537D01*
X25252Y-2592D01*
X25221Y-2666D01*
X25500Y-2944D01*
X25778Y-2666D01*
X25778Y-2777D01*
X25555Y-3000D01*
X25833Y-3278D01*
X25907Y-3247D01*
X25970Y-3072D01*
X25970Y-3500D01*
X25951Y-3500D01*
X25778Y-3572D01*
X25778Y-3333D01*
X25500Y-3055D01*
X25444Y-3111D01*
X25444Y-3000D01*
X25166Y-2721D01*
X25092Y-2752D01*
X25029Y-2927D01*
X25037Y-3113D01*
X25092Y-3247D01*
X25166Y-3278D01*
X25444Y-3000D01*
X25444Y-3111D01*
X25221Y-3333D01*
X25252Y-3407D01*
X25427Y-3470D01*
X25613Y-3462D01*
X25747Y-3407D01*
X25778Y-3333D01*
X25778Y-3572D01*
X25767Y-3576D01*
X25627Y-3716D01*
X25551Y-3900D01*
X25550Y-4098D01*
X25626Y-4282D01*
X25766Y-4422D01*
X25950Y-4498D01*
X26148Y-4499D01*
X26332Y-4423D01*
X26472Y-4283D01*
X26548Y-4099D01*
X26549Y-3901D01*
X26549Y-5349D01*
X26526Y-5405D01*
X26525Y-5593D01*
X26597Y-5768D01*
X26731Y-5901D01*
X26905Y-5973D01*
X27093Y-5974D01*
X27268Y-5902D01*
X27401Y-5768D01*
X27473Y-5594D01*
X27474Y-5406D01*
X27474Y-6860D01*
X27413Y-6860D01*
X27403Y-6865D01*
X27368Y-6831D01*
X27291Y-6779D01*
X27200Y-6761D01*
X26474Y-6761D01*
X26474Y-5406D01*
X26402Y-5231D01*
X26268Y-5098D01*
X26094Y-5026D01*
X25906Y-5025D01*
X25731Y-5097D01*
X25598Y-5231D01*
X25526Y-5405D01*
X25525Y-5593D01*
X25597Y-5768D01*
X25731Y-5901D01*
X25905Y-5973D01*
X26093Y-5974D01*
X26268Y-5902D01*
X26401Y-5768D01*
X26473Y-5594D01*
X26474Y-5406D01*
X26474Y-6761D01*
X25474Y-6761D01*
X25474Y-5406D01*
X25449Y-5345D01*
X25449Y-3901D01*
X25373Y-3717D01*
X25233Y-3577D01*
X25049Y-3501D01*
X24870Y-3500D01*
X24870Y-3072D01*
X24862Y-2886D01*
X24807Y-2752D01*
X24733Y-2721D01*
X24678Y-2777D01*
X24678Y-2666D01*
X24647Y-2592D01*
X24472Y-2529D01*
X24286Y-2537D01*
X24152Y-2592D01*
X24121Y-2666D01*
X24400Y-2944D01*
X24678Y-2666D01*
X24678Y-2777D01*
X24455Y-3000D01*
X24733Y-3278D01*
X24807Y-3247D01*
X24870Y-3072D01*
X24870Y-3500D01*
X24851Y-3500D01*
X24678Y-3572D01*
X24678Y-3333D01*
X24400Y-3055D01*
X24344Y-3111D01*
X24344Y-3000D01*
X24066Y-2721D01*
X23992Y-2752D01*
X23929Y-2927D01*
X23937Y-3113D01*
X23992Y-3247D01*
X24066Y-3278D01*
X24344Y-3000D01*
X24344Y-3111D01*
X24121Y-3333D01*
X24152Y-3407D01*
X24327Y-3470D01*
X24513Y-3462D01*
X24647Y-3407D01*
X24678Y-3333D01*
X24678Y-3572D01*
X24667Y-3576D01*
X24527Y-3716D01*
X24451Y-3900D01*
X24450Y-4098D01*
X24526Y-4282D01*
X24666Y-4422D01*
X24850Y-4498D01*
X25048Y-4499D01*
X25232Y-4423D01*
X25372Y-4283D01*
X25448Y-4099D01*
X25449Y-3901D01*
X25449Y-5345D01*
X25402Y-5231D01*
X25268Y-5098D01*
X25094Y-5026D01*
X24906Y-5025D01*
X24731Y-5097D01*
X24598Y-5231D01*
X24526Y-5405D01*
X24525Y-5593D01*
X24597Y-5768D01*
X24731Y-5901D01*
X24905Y-5973D01*
X25093Y-5974D01*
X25268Y-5902D01*
X25401Y-5768D01*
X25473Y-5594D01*
X25474Y-5406D01*
X25474Y-6761D01*
X24474Y-6761D01*
X24474Y-5406D01*
X24402Y-5231D01*
X24349Y-5178D01*
X24349Y-3901D01*
X24273Y-3717D01*
X24133Y-3577D01*
X23949Y-3501D01*
X23790Y-3500D01*
X23790Y-3072D01*
X23782Y-2886D01*
X23727Y-2752D01*
X23653Y-2721D01*
X23598Y-2777D01*
X23598Y-2666D01*
X23567Y-2592D01*
X23392Y-2529D01*
X23206Y-2537D01*
X23072Y-2592D01*
X23041Y-2666D01*
X23320Y-2944D01*
X23598Y-2666D01*
X23598Y-2777D01*
X23375Y-3000D01*
X23653Y-3278D01*
X23727Y-3247D01*
X23790Y-3072D01*
X23790Y-3500D01*
X23751Y-3500D01*
X23598Y-3564D01*
X23598Y-3333D01*
X23320Y-3055D01*
X23264Y-3111D01*
X23264Y-3000D01*
X22986Y-2721D01*
X22912Y-2752D01*
X22849Y-2927D01*
X22857Y-3113D01*
X22912Y-3247D01*
X22986Y-3278D01*
X23264Y-3000D01*
X23264Y-3111D01*
X23041Y-3333D01*
X23072Y-3407D01*
X23247Y-3470D01*
X23433Y-3462D01*
X23567Y-3407D01*
X23598Y-3333D01*
X23598Y-3564D01*
X23567Y-3576D01*
X23427Y-3716D01*
X23351Y-3900D01*
X23350Y-4098D01*
X23426Y-4282D01*
X23566Y-4422D01*
X23750Y-4498D01*
X23948Y-4499D01*
X24132Y-4423D01*
X24272Y-4283D01*
X24348Y-4099D01*
X24349Y-3901D01*
X24349Y-5178D01*
X24268Y-5098D01*
X24094Y-5026D01*
X23906Y-5025D01*
X23731Y-5097D01*
X23598Y-5231D01*
X23526Y-5405D01*
X23525Y-5593D01*
X23597Y-5768D01*
X23731Y-5901D01*
X23905Y-5973D01*
X24093Y-5974D01*
X24268Y-5902D01*
X24401Y-5768D01*
X24473Y-5594D01*
X24474Y-5406D01*
X24474Y-6761D01*
X23474Y-6761D01*
X23474Y-5406D01*
X23402Y-5231D01*
X23299Y-5128D01*
X23299Y-3901D01*
X23223Y-3717D01*
X23083Y-3577D01*
X22899Y-3501D01*
X22730Y-3500D01*
X22730Y-3072D01*
X22722Y-2886D01*
X22667Y-2752D01*
X22593Y-2721D01*
X22538Y-2777D01*
X22538Y-2666D01*
X22507Y-2592D01*
X22332Y-2529D01*
X22146Y-2537D01*
X22012Y-2592D01*
X21981Y-2666D01*
X22260Y-2944D01*
X22538Y-2666D01*
X22538Y-2777D01*
X22315Y-3000D01*
X22593Y-3278D01*
X22667Y-3247D01*
X22730Y-3072D01*
X22730Y-3500D01*
X22701Y-3500D01*
X22538Y-3568D01*
X22538Y-3333D01*
X22260Y-3055D01*
X22204Y-3111D01*
X22204Y-3000D01*
X21926Y-2721D01*
X21852Y-2752D01*
X21789Y-2927D01*
X21797Y-3113D01*
X21852Y-3247D01*
X21926Y-3278D01*
X22204Y-3000D01*
X22204Y-3111D01*
X21981Y-3333D01*
X22012Y-3407D01*
X22187Y-3470D01*
X22373Y-3462D01*
X22507Y-3407D01*
X22538Y-3333D01*
X22538Y-3568D01*
X22517Y-3576D01*
X22377Y-3716D01*
X22301Y-3900D01*
X22300Y-4098D01*
X22376Y-4282D01*
X22516Y-4422D01*
X22700Y-4498D01*
X22898Y-4499D01*
X23082Y-4423D01*
X23222Y-4283D01*
X23298Y-4099D01*
X23299Y-3901D01*
X23299Y-5128D01*
X23268Y-5098D01*
X23094Y-5026D01*
X22906Y-5025D01*
X22731Y-5097D01*
X22598Y-5231D01*
X22526Y-5405D01*
X22525Y-5593D01*
X22597Y-5768D01*
X22731Y-5901D01*
X22905Y-5973D01*
X23093Y-5974D01*
X23268Y-5902D01*
X23401Y-5768D01*
X23473Y-5594D01*
X23474Y-5406D01*
X23474Y-6761D01*
X19259Y-6761D01*
X16445Y-6761D01*
X16316Y-6761D01*
X16315Y-6759D01*
X16386Y-6731D01*
X16445Y-6566D01*
X16437Y-6390D01*
X16386Y-6268D01*
X16315Y-6240D01*
X16259Y-6295D01*
X16259Y-6184D01*
X16231Y-6113D01*
X16066Y-6054D01*
X15890Y-6062D01*
X15768Y-6113D01*
X15740Y-6184D01*
X16000Y-6444D01*
X16259Y-6184D01*
X16259Y-6295D01*
X16055Y-6500D01*
X16061Y-6505D01*
X16005Y-6561D01*
X16000Y-6555D01*
X15994Y-6561D01*
X15944Y-6511D01*
X15938Y-6505D01*
X15944Y-6500D01*
X15684Y-6240D01*
X15613Y-6268D01*
X15554Y-6433D01*
X15562Y-6609D01*
X15613Y-6731D01*
X15684Y-6759D01*
X15683Y-6761D01*
X15398Y-6761D01*
X14876Y-6239D01*
X15400Y-6239D01*
X15491Y-6220D01*
X15491Y-6220D01*
X15568Y-6168D01*
X15998Y-5739D01*
X16558Y-5739D01*
X16576Y-5782D01*
X16716Y-5922D01*
X16900Y-5998D01*
X17098Y-5999D01*
X17282Y-5923D01*
X17422Y-5783D01*
X17498Y-5599D01*
X17499Y-5401D01*
X17432Y-5239D01*
X18683Y-5239D01*
X18684Y-5240D01*
X18613Y-5268D01*
X18554Y-5433D01*
X18562Y-5609D01*
X18613Y-5731D01*
X18684Y-5759D01*
X18944Y-5500D01*
X18938Y-5494D01*
X18994Y-5438D01*
X19000Y-5444D01*
X19005Y-5438D01*
X19061Y-5494D01*
X19055Y-5500D01*
X19061Y-5505D01*
X19005Y-5561D01*
X19000Y-5555D01*
X18944Y-5611D01*
X18740Y-5815D01*
X18768Y-5886D01*
X18933Y-5945D01*
X19109Y-5937D01*
X19231Y-5886D01*
X19259Y-5815D01*
X19259Y-5815D01*
X19265Y-5821D01*
X19279Y-5891D01*
X19331Y-5968D01*
X19731Y-6368D01*
X19731Y-6368D01*
X19808Y-6420D01*
X19899Y-6438D01*
X19900Y-6439D01*
X21300Y-6439D01*
X21391Y-6420D01*
X21391Y-6420D01*
X21468Y-6368D01*
X21876Y-5961D01*
X21905Y-5973D01*
X22093Y-5974D01*
X22268Y-5902D01*
X22401Y-5768D01*
X22473Y-5594D01*
X22474Y-5406D01*
X22402Y-5231D01*
X22268Y-5098D01*
X22199Y-5069D01*
X22199Y-3901D01*
X22123Y-3717D01*
X21983Y-3577D01*
X21799Y-3501D01*
X21610Y-3500D01*
X21610Y-3072D01*
X21602Y-2886D01*
X21547Y-2752D01*
X21473Y-2721D01*
X21418Y-2777D01*
X21418Y-2666D01*
X21387Y-2592D01*
X21212Y-2529D01*
X21026Y-2537D01*
X20892Y-2592D01*
X20861Y-2666D01*
X21140Y-2944D01*
X21418Y-2666D01*
X21418Y-2777D01*
X21195Y-3000D01*
X21473Y-3278D01*
X21547Y-3247D01*
X21610Y-3072D01*
X21610Y-3500D01*
X21601Y-3500D01*
X21418Y-3576D01*
X21418Y-3333D01*
X21140Y-3055D01*
X21084Y-3111D01*
X21084Y-3000D01*
X20806Y-2721D01*
X20732Y-2752D01*
X20669Y-2927D01*
X20677Y-3113D01*
X20732Y-3247D01*
X20806Y-3278D01*
X21084Y-3000D01*
X21084Y-3111D01*
X20861Y-3333D01*
X20892Y-3407D01*
X21067Y-3470D01*
X21253Y-3462D01*
X21387Y-3407D01*
X21418Y-3333D01*
X21418Y-3576D01*
X21417Y-3576D01*
X21277Y-3716D01*
X21201Y-3900D01*
X21200Y-4098D01*
X21276Y-4282D01*
X21416Y-4422D01*
X21600Y-4498D01*
X21798Y-4499D01*
X21982Y-4423D01*
X22122Y-4283D01*
X22198Y-4099D01*
X22199Y-3901D01*
X22199Y-5069D01*
X22094Y-5026D01*
X21906Y-5025D01*
X21739Y-5094D01*
X21739Y-5000D01*
X21738Y-4999D01*
X21720Y-4908D01*
X21668Y-4831D01*
X21668Y-4831D01*
X21268Y-4431D01*
X21191Y-4379D01*
X21100Y-4361D01*
X20944Y-4361D01*
X21022Y-4283D01*
X21098Y-4099D01*
X21099Y-3901D01*
X21023Y-3717D01*
X20883Y-3577D01*
X20699Y-3501D01*
X20530Y-3500D01*
X20530Y-3072D01*
X20522Y-2886D01*
X20467Y-2752D01*
X20393Y-2721D01*
X20338Y-2777D01*
X20338Y-2666D01*
X20307Y-2592D01*
X20132Y-2529D01*
X19946Y-2537D01*
X19812Y-2592D01*
X19781Y-2666D01*
X20060Y-2944D01*
X20338Y-2666D01*
X20338Y-2777D01*
X20115Y-3000D01*
X20393Y-3278D01*
X20467Y-3247D01*
X20530Y-3072D01*
X20530Y-3500D01*
X20501Y-3500D01*
X20338Y-3568D01*
X20338Y-3333D01*
X20060Y-3055D01*
X20004Y-3111D01*
X20004Y-3000D01*
X19726Y-2721D01*
X19652Y-2752D01*
X19589Y-2927D01*
X19597Y-3113D01*
X19652Y-3247D01*
X19726Y-3278D01*
X20004Y-3000D01*
X20004Y-3111D01*
X19781Y-3333D01*
X19812Y-3407D01*
X19987Y-3470D01*
X20173Y-3462D01*
X20307Y-3407D01*
X20338Y-3333D01*
X20338Y-3568D01*
X20317Y-3576D01*
X20177Y-3716D01*
X20101Y-3900D01*
X20100Y-4098D01*
X20176Y-4282D01*
X20255Y-4361D01*
X19844Y-4361D01*
X19922Y-4283D01*
X19998Y-4099D01*
X19999Y-3901D01*
X19923Y-3717D01*
X19783Y-3577D01*
X19599Y-3501D01*
X19450Y-3500D01*
X19450Y-3072D01*
X19442Y-2886D01*
X19387Y-2752D01*
X19313Y-2721D01*
X19258Y-2777D01*
X19258Y-2666D01*
X19227Y-2592D01*
X19052Y-2529D01*
X18866Y-2537D01*
X18732Y-2592D01*
X18701Y-2666D01*
X18980Y-2944D01*
X19258Y-2666D01*
X19258Y-2777D01*
X19035Y-3000D01*
X19313Y-3278D01*
X19387Y-3247D01*
X19450Y-3072D01*
X19450Y-3500D01*
X19401Y-3500D01*
X19258Y-3560D01*
X19258Y-3333D01*
X18980Y-3055D01*
X18924Y-3111D01*
X18924Y-3000D01*
X18646Y-2721D01*
X18572Y-2752D01*
X18509Y-2927D01*
X18517Y-3113D01*
X18572Y-3247D01*
X18646Y-3278D01*
X18924Y-3000D01*
X18924Y-3111D01*
X18701Y-3333D01*
X18732Y-3407D01*
X18907Y-3470D01*
X19093Y-3462D01*
X19227Y-3407D01*
X19258Y-3333D01*
X19258Y-3560D01*
X19217Y-3576D01*
X19077Y-3716D01*
X19001Y-3900D01*
X19000Y-4098D01*
X19076Y-4282D01*
X19155Y-4361D01*
X18794Y-4361D01*
X18872Y-4283D01*
X18948Y-4099D01*
X18949Y-3901D01*
X18873Y-3717D01*
X18733Y-3577D01*
X18549Y-3501D01*
X18351Y-3500D01*
X18350Y-3501D01*
X18350Y-3072D01*
X18342Y-2886D01*
X18287Y-2752D01*
X18213Y-2721D01*
X18158Y-2777D01*
X18158Y-2666D01*
X18127Y-2592D01*
X17952Y-2529D01*
X17766Y-2537D01*
X17632Y-2592D01*
X17601Y-2666D01*
X17880Y-2944D01*
X18158Y-2666D01*
X18158Y-2777D01*
X17935Y-3000D01*
X18213Y-3278D01*
X18287Y-3247D01*
X18350Y-3072D01*
X18350Y-3501D01*
X18167Y-3576D01*
X18158Y-3586D01*
X18158Y-3333D01*
X17880Y-3055D01*
X17824Y-3111D01*
X17824Y-3000D01*
X17546Y-2721D01*
X17472Y-2752D01*
X17409Y-2927D01*
X17417Y-3113D01*
X17472Y-3247D01*
X17546Y-3278D01*
X17824Y-3000D01*
X17824Y-3111D01*
X17601Y-3333D01*
X17632Y-3407D01*
X17807Y-3470D01*
X17993Y-3462D01*
X18127Y-3407D01*
X18158Y-3333D01*
X18158Y-3586D01*
X18027Y-3716D01*
X17951Y-3900D01*
X17950Y-4098D01*
X18026Y-4282D01*
X18105Y-4361D01*
X17694Y-4361D01*
X17772Y-4283D01*
X17848Y-4099D01*
X17849Y-3901D01*
X17773Y-3717D01*
X17633Y-3577D01*
X17449Y-3501D01*
X17270Y-3500D01*
X17270Y-3072D01*
X17262Y-2886D01*
X17207Y-2752D01*
X17133Y-2721D01*
X17078Y-2777D01*
X17078Y-2666D01*
X17047Y-2592D01*
X16872Y-2529D01*
X16686Y-2537D01*
X16552Y-2592D01*
X16521Y-2666D01*
X16800Y-2944D01*
X17078Y-2666D01*
X17078Y-2777D01*
X16855Y-3000D01*
X17133Y-3278D01*
X17207Y-3247D01*
X17270Y-3072D01*
X17270Y-3500D01*
X17251Y-3500D01*
X17207Y-3519D01*
X17061Y-3373D01*
X17078Y-3333D01*
X16800Y-3055D01*
X16794Y-3061D01*
X16738Y-3005D01*
X16744Y-3000D01*
X16466Y-2721D01*
X16461Y-2723D01*
X15568Y-1831D01*
X15491Y-1779D01*
X15400Y-1761D01*
X12800Y-1761D01*
X12708Y-1779D01*
X12631Y-1831D01*
X11631Y-2831D01*
X11579Y-2908D01*
X11561Y-3000D01*
X11561Y-3146D01*
X11400Y-2748D01*
X11384Y-2724D01*
X11219Y-2585D01*
X11164Y-2641D01*
X11164Y-2530D01*
X11025Y-2365D01*
X10532Y-2154D01*
X9996Y-2149D01*
X9498Y-2349D01*
X9474Y-2365D01*
X9335Y-2530D01*
X10250Y-3444D01*
X11164Y-2530D01*
X11164Y-2641D01*
X10305Y-3500D01*
X10311Y-3505D01*
X10255Y-3561D01*
X10250Y-3555D01*
X10194Y-3611D01*
X10194Y-3500D01*
X9280Y-2585D01*
X9115Y-2724D01*
X8904Y-3217D01*
X8899Y-3753D01*
X9099Y-4251D01*
X9115Y-4275D01*
X9280Y-4414D01*
X10194Y-3500D01*
X10194Y-3611D01*
X9335Y-4469D01*
X9474Y-4634D01*
X9535Y-4661D01*
X8600Y-4661D01*
X8508Y-4679D01*
X8474Y-4702D01*
X8474Y-4185D01*
X8443Y-4112D01*
X8387Y-4056D01*
X8314Y-4026D01*
X8235Y-4025D01*
X7863Y-4025D01*
X7568Y-3731D01*
X7491Y-3679D01*
X7400Y-3661D01*
X6600Y-3661D01*
X6508Y-3679D01*
X6431Y-3731D01*
X6142Y-4019D01*
X6099Y-4001D01*
X5901Y-4000D01*
X5717Y-4076D01*
X5577Y-4216D01*
X5501Y-4400D01*
X5500Y-4598D01*
X5576Y-4782D01*
X5716Y-4922D01*
X5900Y-4998D01*
X6098Y-4999D01*
X6282Y-4923D01*
X6422Y-4783D01*
X6498Y-4599D01*
X6499Y-4401D01*
X6480Y-4357D01*
X6698Y-4139D01*
X6757Y-4139D01*
X6740Y-4184D01*
X7000Y-4444D01*
X7259Y-4184D01*
X7242Y-4139D01*
X7301Y-4139D01*
X7525Y-4363D01*
X7525Y-4814D01*
X7556Y-4887D01*
X7612Y-4943D01*
X7685Y-4973D01*
X7764Y-4974D01*
X8187Y-4974D01*
X8123Y-5038D01*
X8094Y-5026D01*
X7906Y-5025D01*
X7731Y-5097D01*
X7598Y-5231D01*
X7526Y-5405D01*
X7525Y-5593D01*
X7597Y-5768D01*
X7731Y-5901D01*
X7905Y-5973D01*
X8093Y-5974D01*
X8268Y-5902D01*
X8401Y-5768D01*
X8473Y-5594D01*
X8474Y-5406D01*
X8461Y-5376D01*
X8592Y-5245D01*
X8526Y-5405D01*
X8525Y-5593D01*
X8597Y-5768D01*
X8731Y-5901D01*
X8905Y-5973D01*
X9093Y-5974D01*
X9268Y-5902D01*
X9401Y-5768D01*
X9473Y-5594D01*
X9474Y-5406D01*
X9461Y-5376D01*
X9498Y-5339D01*
X9553Y-5339D01*
X9526Y-5405D01*
X9525Y-5593D01*
X9597Y-5768D01*
X9731Y-5901D01*
X9905Y-5973D01*
X10093Y-5974D01*
X10268Y-5902D01*
X10401Y-5768D01*
X10473Y-5594D01*
X10474Y-5406D01*
X10446Y-5339D01*
X10553Y-5339D01*
X10526Y-5405D01*
X10525Y-5593D01*
X10597Y-5768D01*
X10731Y-5901D01*
X10905Y-5973D01*
X11093Y-5974D01*
X11123Y-5961D01*
X11731Y-6568D01*
X11808Y-6620D01*
X11900Y-6639D01*
X14601Y-6639D01*
X15131Y-7168D01*
X15131Y-7168D01*
X15208Y-7220D01*
X15300Y-7239D01*
X19640Y-7239D01*
X19628Y-7251D01*
X19623Y-7261D01*
X9000Y-7261D01*
X8908Y-7279D01*
X8831Y-7331D01*
X8123Y-8038D01*
X8094Y-8026D01*
X7906Y-8025D01*
X7731Y-8097D01*
X7680Y-8148D01*
X7668Y-8131D01*
X7668Y-8131D01*
X7474Y-7936D01*
X7474Y-5406D01*
X7445Y-5337D01*
X7445Y-4566D01*
X7437Y-4390D01*
X7386Y-4268D01*
X7315Y-4240D01*
X7055Y-4500D01*
X7315Y-4759D01*
X7386Y-4731D01*
X7445Y-4566D01*
X7445Y-5337D01*
X7402Y-5231D01*
X7268Y-5098D01*
X7259Y-5094D01*
X7259Y-4815D01*
X7000Y-4555D01*
X6944Y-4611D01*
X6944Y-4500D01*
X6684Y-4240D01*
X6613Y-4268D01*
X6554Y-4433D01*
X6562Y-4609D01*
X6613Y-4731D01*
X6684Y-4759D01*
X6944Y-4500D01*
X6944Y-4611D01*
X6740Y-4815D01*
X6768Y-4886D01*
X6933Y-4945D01*
X7109Y-4937D01*
X7231Y-4886D01*
X7259Y-4815D01*
X7259Y-5094D01*
X7094Y-5026D01*
X6906Y-5025D01*
X6731Y-5097D01*
X6598Y-5231D01*
X6526Y-5405D01*
X6525Y-5593D01*
X6597Y-5768D01*
X6731Y-5901D01*
X6905Y-5973D01*
X7093Y-5974D01*
X7268Y-5902D01*
X7401Y-5768D01*
X7473Y-5594D01*
X7474Y-5406D01*
X7474Y-7936D01*
X7368Y-7831D01*
X7291Y-7779D01*
X7200Y-7761D01*
X6445Y-7761D01*
X6445Y-5566D01*
X6437Y-5390D01*
X6386Y-5268D01*
X6315Y-5240D01*
X6259Y-5295D01*
X6259Y-5184D01*
X6231Y-5113D01*
X6066Y-5054D01*
X5890Y-5062D01*
X5768Y-5113D01*
X5740Y-5184D01*
X6000Y-5444D01*
X6259Y-5184D01*
X6259Y-5295D01*
X6055Y-5500D01*
X6315Y-5759D01*
X6386Y-5731D01*
X6445Y-5566D01*
X6445Y-7761D01*
X6259Y-7761D01*
X6259Y-5815D01*
X6000Y-5555D01*
X5944Y-5611D01*
X5944Y-5500D01*
X5684Y-5240D01*
X5613Y-5268D01*
X5554Y-5433D01*
X5562Y-5609D01*
X5613Y-5731D01*
X5684Y-5759D01*
X5944Y-5500D01*
X5944Y-5611D01*
X5740Y-5815D01*
X5768Y-5886D01*
X5933Y-5945D01*
X6109Y-5937D01*
X6231Y-5886D01*
X6259Y-5815D01*
X6259Y-7761D01*
X5474Y-7761D01*
X5474Y-5406D01*
X5402Y-5231D01*
X5268Y-5098D01*
X5259Y-5094D01*
X5259Y-3815D01*
X5000Y-3555D01*
X4740Y-3815D01*
X4768Y-3886D01*
X4933Y-3945D01*
X5109Y-3937D01*
X5231Y-3886D01*
X5259Y-3815D01*
X5259Y-5094D01*
X5094Y-5026D01*
X4906Y-5025D01*
X4731Y-5097D01*
X4598Y-5231D01*
X4526Y-5405D01*
X4525Y-5593D01*
X4597Y-5768D01*
X4731Y-5901D01*
X4905Y-5973D01*
X5093Y-5974D01*
X5268Y-5902D01*
X5401Y-5768D01*
X5473Y-5594D01*
X5474Y-5406D01*
X5474Y-7761D01*
X4998Y-7761D01*
X4939Y-7701D01*
X4939Y-7200D01*
X4938Y-7199D01*
X4920Y-7108D01*
X4868Y-7031D01*
X4868Y-7031D01*
X4568Y-6731D01*
X4491Y-6679D01*
X4442Y-6669D01*
X4473Y-6594D01*
X4474Y-6406D01*
X4474Y-5406D01*
X4445Y-5337D01*
X4445Y-4566D01*
X4437Y-4390D01*
X4386Y-4268D01*
X4315Y-4240D01*
X4259Y-4295D01*
X4259Y-4184D01*
X4259Y-3815D01*
X4000Y-3555D01*
X3740Y-3815D01*
X3768Y-3886D01*
X3933Y-3945D01*
X4109Y-3937D01*
X4231Y-3886D01*
X4259Y-3815D01*
X4259Y-4184D01*
X4231Y-4113D01*
X4066Y-4054D01*
X3890Y-4062D01*
X3768Y-4113D01*
X3740Y-4184D01*
X4000Y-4444D01*
X4259Y-4184D01*
X4259Y-4295D01*
X4055Y-4500D01*
X4315Y-4759D01*
X4386Y-4731D01*
X4445Y-4566D01*
X4445Y-5337D01*
X4402Y-5231D01*
X4268Y-5098D01*
X4259Y-5094D01*
X4259Y-4815D01*
X4000Y-4555D01*
X3944Y-4611D01*
X3944Y-4500D01*
X3684Y-4240D01*
X3613Y-4268D01*
X3554Y-4433D01*
X3562Y-4609D01*
X3613Y-4731D01*
X3684Y-4759D01*
X3944Y-4500D01*
X3944Y-4611D01*
X3740Y-4815D01*
X3768Y-4886D01*
X3933Y-4945D01*
X4109Y-4937D01*
X4231Y-4886D01*
X4259Y-4815D01*
X4259Y-5094D01*
X4094Y-5026D01*
X3906Y-5025D01*
X3731Y-5097D01*
X3598Y-5231D01*
X3526Y-5405D01*
X3525Y-5593D01*
X3597Y-5768D01*
X3731Y-5901D01*
X3905Y-5973D01*
X4093Y-5974D01*
X4268Y-5902D01*
X4401Y-5768D01*
X4473Y-5594D01*
X4474Y-5406D01*
X4474Y-6406D01*
X4402Y-6231D01*
X4268Y-6098D01*
X4094Y-6026D01*
X3906Y-6025D01*
X3731Y-6097D01*
X3598Y-6231D01*
X3526Y-6405D01*
X3525Y-6593D01*
X3553Y-6661D01*
X2498Y-6661D01*
X1461Y-5623D01*
X1473Y-5594D01*
X1474Y-5406D01*
X1402Y-5231D01*
X1268Y-5098D01*
X1094Y-5026D01*
X906Y-5025D01*
X745Y-5092D01*
X876Y-4961D01*
X905Y-4973D01*
X1093Y-4974D01*
X1268Y-4902D01*
X1401Y-4768D01*
X1473Y-4594D01*
X1474Y-4406D01*
X1402Y-4231D01*
X1268Y-4098D01*
X1094Y-4026D01*
X906Y-4025D01*
X731Y-4097D01*
X598Y-4231D01*
X526Y-4405D01*
X525Y-4593D01*
X538Y-4623D01*
X331Y-4831D01*
X279Y-4908D01*
X261Y-5000D01*
X261Y-8700D01*
X279Y-8791D01*
X331Y-8868D01*
X631Y-9168D01*
X631Y-9168D01*
X648Y-9180D01*
X598Y-9231D01*
X526Y-9405D01*
X525Y-9593D01*
X538Y-9623D01*
X231Y-9931D01*
X228Y-9934D01*
X228Y-1858D01*
X372Y-1972D01*
X1144Y-1200D01*
X372Y-427D01*
X228Y-541D01*
X228Y-228D01*
X541Y-228D01*
X427Y-372D01*
X1200Y-1144D01*
X1972Y-372D01*
X1858Y-228D01*
X5572Y-228D01*
X5501Y-400D01*
X5500Y-598D01*
X5576Y-782D01*
X5671Y-876D01*
X5671Y-2363D01*
X5363Y-2671D01*
X2500Y-2671D01*
X2374Y-2696D01*
X2352Y-2710D01*
X2352Y-977D01*
X2179Y-553D01*
X2172Y-542D01*
X2027Y-427D01*
X1255Y-1200D01*
X2027Y-1972D01*
X2172Y-1857D01*
X2350Y-1435D01*
X2352Y-977D01*
X2352Y-2710D01*
X2267Y-2767D01*
X2008Y-3026D01*
X1972Y-3025D01*
X1972Y-2027D01*
X1200Y-1255D01*
X427Y-2027D01*
X542Y-2172D01*
X964Y-2350D01*
X1422Y-2352D01*
X1846Y-2179D01*
X1857Y-2172D01*
X1972Y-2027D01*
X1972Y-3025D01*
X1906Y-3025D01*
X1731Y-3097D01*
X1598Y-3231D01*
X1526Y-3405D01*
X1525Y-3593D01*
X1597Y-3768D01*
X1731Y-3901D01*
X1905Y-3973D01*
X2093Y-3974D01*
X2268Y-3902D01*
X2401Y-3768D01*
X2473Y-3594D01*
X2474Y-3491D01*
X2636Y-3329D01*
X3591Y-3329D01*
X3554Y-3433D01*
X3562Y-3609D01*
X3613Y-3731D01*
X3684Y-3759D01*
X3944Y-3500D01*
X3938Y-3494D01*
X3994Y-3438D01*
X4000Y-3444D01*
X4005Y-3438D01*
X4061Y-3494D01*
X4055Y-3500D01*
X4315Y-3759D01*
X4386Y-3731D01*
X4445Y-3566D01*
X4437Y-3390D01*
X4411Y-3329D01*
X4591Y-3329D01*
X4554Y-3433D01*
X4562Y-3609D01*
X4613Y-3731D01*
X4684Y-3759D01*
X4944Y-3500D01*
X4938Y-3494D01*
X4994Y-3438D01*
X5000Y-3444D01*
X5005Y-3438D01*
X5061Y-3494D01*
X5055Y-3500D01*
X5315Y-3759D01*
X5386Y-3731D01*
X5445Y-3566D01*
X5437Y-3390D01*
X5411Y-3329D01*
X5500Y-3329D01*
X5625Y-3303D01*
X5732Y-3232D01*
X6232Y-2732D01*
X6303Y-2625D01*
X6329Y-2500D01*
X6329Y-876D01*
X6422Y-783D01*
X6498Y-599D01*
X6499Y-401D01*
X6427Y-228D01*
X31941Y-228D01*
X31827Y-372D01*
X32600Y-1144D01*
X33372Y-372D01*
X33258Y-228D01*
X36912Y-228D01*
X36912Y-1271D01*
X38771Y-1271D01*
X38771Y-8601D01*
X38768Y-8598D01*
X38644Y-8546D01*
X38644Y-5173D01*
X38613Y-5098D01*
X38613Y-2783D01*
X38445Y-2374D01*
X38440Y-2365D01*
X38299Y-2256D01*
X38243Y-2312D01*
X38243Y-2200D01*
X38134Y-2059D01*
X37726Y-1888D01*
X37283Y-1886D01*
X36874Y-2054D01*
X36865Y-2059D01*
X36756Y-2200D01*
X37500Y-2944D01*
X38243Y-2200D01*
X38243Y-2312D01*
X37555Y-3000D01*
X38299Y-3743D01*
X38440Y-3634D01*
X38611Y-3226D01*
X38613Y-2783D01*
X38613Y-5098D01*
X38470Y-4752D01*
X38243Y-4525D01*
X38243Y-3799D01*
X37500Y-3055D01*
X37444Y-3111D01*
X37444Y-3000D01*
X36700Y-2256D01*
X36559Y-2365D01*
X36388Y-2773D01*
X36387Y-3066D01*
X36197Y-2781D01*
X35877Y-2567D01*
X35500Y-2492D01*
X35122Y-2567D01*
X34802Y-2781D01*
X34588Y-3101D01*
X34513Y-3479D01*
X34513Y-4320D01*
X34588Y-4698D01*
X34802Y-5018D01*
X35122Y-5232D01*
X35500Y-5307D01*
X35877Y-5232D01*
X36197Y-5018D01*
X36411Y-4698D01*
X36486Y-4320D01*
X36486Y-3479D01*
X36478Y-3440D01*
X36554Y-3625D01*
X36559Y-3634D01*
X36700Y-3743D01*
X37444Y-3000D01*
X37444Y-3111D01*
X36756Y-3799D01*
X36865Y-3940D01*
X37273Y-4111D01*
X37716Y-4113D01*
X38125Y-3945D01*
X38134Y-3940D01*
X38243Y-3799D01*
X38243Y-4525D01*
X38148Y-4430D01*
X37728Y-4256D01*
X37273Y-4255D01*
X36852Y-4429D01*
X36530Y-4751D01*
X36356Y-5171D01*
X36355Y-5626D01*
X36488Y-5946D01*
X35513Y-6921D01*
X34447Y-6921D01*
X34311Y-6784D01*
X34109Y-6701D01*
X33891Y-6700D01*
X33752Y-6758D01*
X33752Y-977D01*
X33579Y-553D01*
X33572Y-542D01*
X33427Y-427D01*
X32655Y-1200D01*
X33427Y-1972D01*
X33572Y-1857D01*
X33750Y-1435D01*
X33752Y-977D01*
X33752Y-6758D01*
X33689Y-6784D01*
X33632Y-6841D01*
X33632Y-4393D01*
X33632Y-3527D01*
X33601Y-3454D01*
X33545Y-3398D01*
X33472Y-3367D01*
X33393Y-3367D01*
X33372Y-3367D01*
X33372Y-2027D01*
X32600Y-1255D01*
X32544Y-1311D01*
X32544Y-1200D01*
X31772Y-427D01*
X31627Y-542D01*
X31449Y-964D01*
X31447Y-1422D01*
X31620Y-1846D01*
X31627Y-1857D01*
X31772Y-1972D01*
X32544Y-1200D01*
X32544Y-1311D01*
X31827Y-2027D01*
X31942Y-2172D01*
X32364Y-2350D01*
X32822Y-2352D01*
X33246Y-2179D01*
X33257Y-2172D01*
X33372Y-2027D01*
X33372Y-3367D01*
X32527Y-3367D01*
X32500Y-3379D01*
X32472Y-3367D01*
X32393Y-3367D01*
X31527Y-3367D01*
X31454Y-3398D01*
X31398Y-3454D01*
X31367Y-3527D01*
X31367Y-3606D01*
X31367Y-4472D01*
X31398Y-4545D01*
X31454Y-4601D01*
X31527Y-4632D01*
X31606Y-4632D01*
X32472Y-4632D01*
X32499Y-4620D01*
X32527Y-4632D01*
X32606Y-4632D01*
X33472Y-4632D01*
X33545Y-4601D01*
X33601Y-4545D01*
X33632Y-4472D01*
X33632Y-4393D01*
X33632Y-6841D01*
X33534Y-6938D01*
X33451Y-7140D01*
X33450Y-7358D01*
X33534Y-7560D01*
X33688Y-7715D01*
X33890Y-7798D01*
X34108Y-7799D01*
X34310Y-7715D01*
X34447Y-7579D01*
X35650Y-7579D01*
X35775Y-7553D01*
X35882Y-7482D01*
X36953Y-6411D01*
X37271Y-6543D01*
X37726Y-6544D01*
X38147Y-6370D01*
X38469Y-6048D01*
X38643Y-5628D01*
X38644Y-5173D01*
X38644Y-8546D01*
X38594Y-8526D01*
X38491Y-8525D01*
X38329Y-8363D01*
X38329Y-7799D01*
X38389Y-7799D01*
X38462Y-7768D01*
X38518Y-7712D01*
X38548Y-7639D01*
X38549Y-7560D01*
X38549Y-6860D01*
X38518Y-6787D01*
X38462Y-6731D01*
X38389Y-6701D01*
X38310Y-6700D01*
X37610Y-6700D01*
X37537Y-6731D01*
X37481Y-6787D01*
X37451Y-6860D01*
X37450Y-6939D01*
X37450Y-7639D01*
X37481Y-7712D01*
X37537Y-7768D01*
X37610Y-7798D01*
X37671Y-7799D01*
X37671Y-8500D01*
X37690Y-8598D01*
X37566Y-8554D01*
X37390Y-8562D01*
X37268Y-8613D01*
X37240Y-8684D01*
X37500Y-8944D01*
X37505Y-8938D01*
X37561Y-8994D01*
X37555Y-9000D01*
X37561Y-9005D01*
X37505Y-9061D01*
X37500Y-9055D01*
X37444Y-9111D01*
X37444Y-9000D01*
X37184Y-8740D01*
X37113Y-8768D01*
X37054Y-8933D01*
X37062Y-9109D01*
X37113Y-9231D01*
X37184Y-9259D01*
X37444Y-9000D01*
X37444Y-9111D01*
X37240Y-9315D01*
X37268Y-9386D01*
X37433Y-9445D01*
X37596Y-9437D01*
X37083Y-9951D01*
X36974Y-9950D01*
X36974Y-8406D01*
X36902Y-8231D01*
X36768Y-8098D01*
X36594Y-8026D01*
X36406Y-8025D01*
X36231Y-8097D01*
X36098Y-8231D01*
X36026Y-8405D01*
X36025Y-8593D01*
X36097Y-8768D01*
X36231Y-8901D01*
X36405Y-8973D01*
X36593Y-8974D01*
X36768Y-8902D01*
X36901Y-8768D01*
X36973Y-8594D01*
X36974Y-8406D01*
X36974Y-9950D01*
X36945Y-9950D01*
X36945Y-9566D01*
X36937Y-9390D01*
X36886Y-9268D01*
X36815Y-9240D01*
X36759Y-9295D01*
X36759Y-9184D01*
X36731Y-9113D01*
X36566Y-9054D01*
X36390Y-9062D01*
X36268Y-9113D01*
X36240Y-9184D01*
X36500Y-9444D01*
X36759Y-9184D01*
X36759Y-9295D01*
X36555Y-9500D01*
X36815Y-9759D01*
X36886Y-9731D01*
X36945Y-9566D01*
X36945Y-9950D01*
X36891Y-9950D01*
X36759Y-10005D01*
X36759Y-9815D01*
X36500Y-9555D01*
X36444Y-9611D01*
X36444Y-9500D01*
X36184Y-9240D01*
X36113Y-9268D01*
X36054Y-9433D01*
X36062Y-9609D01*
X36113Y-9731D01*
X36184Y-9759D01*
X36444Y-9500D01*
X36444Y-9611D01*
X36240Y-9815D01*
X36268Y-9886D01*
X36433Y-9945D01*
X36609Y-9937D01*
X36731Y-9886D01*
X36759Y-9815D01*
X36759Y-10005D01*
X36689Y-10034D01*
X36534Y-10188D01*
X36484Y-10309D01*
X36448Y-10222D01*
X36370Y-10185D01*
X36314Y-10241D01*
X36314Y-10129D01*
X36277Y-10051D01*
X36084Y-9979D01*
X35878Y-9986D01*
X35722Y-10051D01*
X35685Y-10129D01*
X36000Y-10444D01*
X36314Y-10129D01*
X36314Y-10241D01*
X36055Y-10500D01*
X36370Y-10814D01*
X36448Y-10777D01*
X36482Y-10685D01*
X36534Y-10810D01*
X36688Y-10965D01*
X36890Y-11048D01*
X37108Y-11049D01*
X37310Y-10965D01*
X37465Y-10811D01*
X37548Y-10609D01*
X37549Y-10416D01*
X38491Y-9473D01*
X38593Y-9474D01*
X38768Y-9402D01*
X38771Y-9398D01*
X38771Y-19271D01*
M02*
