G04 (created by PCBNEW (2013-07-07 BZR 4022)-stable) date 28.12.2015 18:38:58*
%MOIN*%
G04 Gerber Fmt 3.4, Leading zero omitted, Abs format*
%FSLAX34Y34*%
G01*
G70*
G90*
G04 APERTURE LIST*
%ADD10C,0.00393701*%
%ADD11C,0.008*%
%ADD12C,0.011811*%
%ADD13C,0.00787402*%
G04 APERTURE END LIST*
G54D10*
G54D11*
X5466Y-17792D02*
X5523Y-17811D01*
X5619Y-17811D01*
X5657Y-17792D01*
X5676Y-17773D01*
X5695Y-17735D01*
X5695Y-17697D01*
X5676Y-17659D01*
X5657Y-17640D01*
X5619Y-17621D01*
X5542Y-17602D01*
X5504Y-17583D01*
X5485Y-17564D01*
X5466Y-17526D01*
X5466Y-17488D01*
X5485Y-17450D01*
X5504Y-17430D01*
X5542Y-17411D01*
X5638Y-17411D01*
X5695Y-17430D01*
X5828Y-17411D02*
X5923Y-17811D01*
X6000Y-17526D01*
X6076Y-17811D01*
X6171Y-17411D01*
X6533Y-17811D02*
X6304Y-17811D01*
X6419Y-17811D02*
X6419Y-17411D01*
X6380Y-17469D01*
X6342Y-17507D01*
X6304Y-17526D01*
X9366Y-13711D02*
X9366Y-13997D01*
X9347Y-14054D01*
X9309Y-14092D01*
X9252Y-14111D01*
X9214Y-14111D01*
X9538Y-13750D02*
X9557Y-13730D01*
X9595Y-13711D01*
X9690Y-13711D01*
X9728Y-13730D01*
X9747Y-13750D01*
X9766Y-13788D01*
X9766Y-13826D01*
X9747Y-13883D01*
X9519Y-14111D01*
X9766Y-14111D01*
X9416Y-911D02*
X9416Y-1197D01*
X9397Y-1254D01*
X9359Y-1292D01*
X9302Y-1311D01*
X9264Y-1311D01*
X9816Y-1311D02*
X9588Y-1311D01*
X9702Y-1311D02*
X9702Y-911D01*
X9664Y-969D01*
X9626Y-1007D01*
X9588Y-1026D01*
G54D12*
X16012Y-1682D02*
X15984Y-1710D01*
X15900Y-1739D01*
X15844Y-1739D01*
X15759Y-1710D01*
X15703Y-1654D01*
X15675Y-1598D01*
X15647Y-1485D01*
X15647Y-1401D01*
X15675Y-1289D01*
X15703Y-1232D01*
X15759Y-1176D01*
X15844Y-1148D01*
X15900Y-1148D01*
X15984Y-1176D01*
X16012Y-1204D01*
X16491Y-1710D02*
X16434Y-1739D01*
X16322Y-1739D01*
X16266Y-1710D01*
X16237Y-1654D01*
X16237Y-1429D01*
X16266Y-1373D01*
X16322Y-1345D01*
X16434Y-1345D01*
X16491Y-1373D01*
X16519Y-1429D01*
X16519Y-1485D01*
X16237Y-1542D01*
X16772Y-1345D02*
X16772Y-1739D01*
X16772Y-1401D02*
X16800Y-1373D01*
X16856Y-1345D01*
X16940Y-1345D01*
X16997Y-1373D01*
X17025Y-1429D01*
X17025Y-1739D01*
X17222Y-1345D02*
X17447Y-1345D01*
X17306Y-1148D02*
X17306Y-1654D01*
X17334Y-1710D01*
X17390Y-1739D01*
X17447Y-1739D01*
X17643Y-1739D02*
X17643Y-1345D01*
X17643Y-1457D02*
X17672Y-1401D01*
X17700Y-1373D01*
X17756Y-1345D01*
X17812Y-1345D01*
X18093Y-1739D02*
X18037Y-1710D01*
X18009Y-1682D01*
X17981Y-1626D01*
X17981Y-1457D01*
X18009Y-1401D01*
X18037Y-1373D01*
X18093Y-1345D01*
X18178Y-1345D01*
X18234Y-1373D01*
X18262Y-1401D01*
X18290Y-1457D01*
X18290Y-1626D01*
X18262Y-1682D01*
X18234Y-1710D01*
X18178Y-1739D01*
X18093Y-1739D01*
X18543Y-1345D02*
X18543Y-1739D01*
X18543Y-1401D02*
X18571Y-1373D01*
X18628Y-1345D01*
X18712Y-1345D01*
X18768Y-1373D01*
X18796Y-1429D01*
X18796Y-1739D01*
X19078Y-1739D02*
X19078Y-1345D01*
X19078Y-1148D02*
X19050Y-1176D01*
X19078Y-1204D01*
X19106Y-1176D01*
X19078Y-1148D01*
X19078Y-1204D01*
X19612Y-1710D02*
X19556Y-1739D01*
X19443Y-1739D01*
X19387Y-1710D01*
X19359Y-1682D01*
X19331Y-1626D01*
X19331Y-1457D01*
X19359Y-1401D01*
X19387Y-1373D01*
X19443Y-1345D01*
X19556Y-1345D01*
X19612Y-1373D01*
X19837Y-1710D02*
X19893Y-1739D01*
X20006Y-1739D01*
X20062Y-1710D01*
X20090Y-1654D01*
X20090Y-1626D01*
X20062Y-1570D01*
X20006Y-1542D01*
X19921Y-1542D01*
X19865Y-1514D01*
X19837Y-1457D01*
X19837Y-1429D01*
X19865Y-1373D01*
X19921Y-1345D01*
X20006Y-1345D01*
X20062Y-1373D01*
X20793Y-1739D02*
X20793Y-1148D01*
X20934Y-1148D01*
X21018Y-1176D01*
X21074Y-1232D01*
X21102Y-1289D01*
X21131Y-1401D01*
X21131Y-1485D01*
X21102Y-1598D01*
X21074Y-1654D01*
X21018Y-1710D01*
X20934Y-1739D01*
X20793Y-1739D01*
X21580Y-1429D02*
X21665Y-1457D01*
X21693Y-1485D01*
X21721Y-1542D01*
X21721Y-1626D01*
X21693Y-1682D01*
X21665Y-1710D01*
X21609Y-1739D01*
X21384Y-1739D01*
X21384Y-1148D01*
X21580Y-1148D01*
X21637Y-1176D01*
X21665Y-1204D01*
X21693Y-1260D01*
X21693Y-1317D01*
X21665Y-1373D01*
X21637Y-1401D01*
X21580Y-1429D01*
X21384Y-1429D01*
X21946Y-1204D02*
X21974Y-1176D01*
X22030Y-1148D01*
X22171Y-1148D01*
X22227Y-1176D01*
X22255Y-1204D01*
X22284Y-1260D01*
X22284Y-1317D01*
X22255Y-1401D01*
X21918Y-1739D01*
X22284Y-1739D01*
X22818Y-1148D02*
X22537Y-1148D01*
X22508Y-1429D01*
X22537Y-1401D01*
X22593Y-1373D01*
X22733Y-1373D01*
X22790Y-1401D01*
X22818Y-1429D01*
X22846Y-1485D01*
X22846Y-1626D01*
X22818Y-1682D01*
X22790Y-1710D01*
X22733Y-1739D01*
X22593Y-1739D01*
X22537Y-1710D01*
X22508Y-1682D01*
X23296Y-1429D02*
X23099Y-1429D01*
X23099Y-1739D02*
X23099Y-1148D01*
X23380Y-1148D01*
X17489Y-18739D02*
X17489Y-18148D01*
X17770Y-18429D02*
X17967Y-18429D01*
X18051Y-18739D02*
X17770Y-18739D01*
X17770Y-18148D01*
X18051Y-18148D01*
X18304Y-18429D02*
X18501Y-18429D01*
X18586Y-18739D02*
X18304Y-18739D01*
X18304Y-18148D01*
X18586Y-18148D01*
X18839Y-18429D02*
X19035Y-18429D01*
X19120Y-18739D02*
X18839Y-18739D01*
X18839Y-18148D01*
X19120Y-18148D01*
X19373Y-18514D02*
X19823Y-18514D01*
X20357Y-18345D02*
X20357Y-18739D01*
X20217Y-18120D02*
X20076Y-18542D01*
X20442Y-18542D01*
X20751Y-18401D02*
X20695Y-18373D01*
X20667Y-18345D01*
X20638Y-18289D01*
X20638Y-18260D01*
X20667Y-18204D01*
X20695Y-18176D01*
X20751Y-18148D01*
X20863Y-18148D01*
X20920Y-18176D01*
X20948Y-18204D01*
X20976Y-18260D01*
X20976Y-18289D01*
X20948Y-18345D01*
X20920Y-18373D01*
X20863Y-18401D01*
X20751Y-18401D01*
X20695Y-18429D01*
X20667Y-18457D01*
X20638Y-18514D01*
X20638Y-18626D01*
X20667Y-18682D01*
X20695Y-18710D01*
X20751Y-18739D01*
X20863Y-18739D01*
X20920Y-18710D01*
X20948Y-18682D01*
X20976Y-18626D01*
X20976Y-18514D01*
X20948Y-18457D01*
X20920Y-18429D01*
X20863Y-18401D01*
X21313Y-18401D02*
X21257Y-18373D01*
X21229Y-18345D01*
X21201Y-18289D01*
X21201Y-18260D01*
X21229Y-18204D01*
X21257Y-18176D01*
X21313Y-18148D01*
X21426Y-18148D01*
X21482Y-18176D01*
X21510Y-18204D01*
X21538Y-18260D01*
X21538Y-18289D01*
X21510Y-18345D01*
X21482Y-18373D01*
X21426Y-18401D01*
X21313Y-18401D01*
X21257Y-18429D01*
X21229Y-18457D01*
X21201Y-18514D01*
X21201Y-18626D01*
X21229Y-18682D01*
X21257Y-18710D01*
X21313Y-18739D01*
X21426Y-18739D01*
X21482Y-18710D01*
X21510Y-18682D01*
X21538Y-18626D01*
X21538Y-18514D01*
X21510Y-18457D01*
X21482Y-18429D01*
X21426Y-18401D01*
G54D13*
X7800Y-2450D02*
X7400Y-2050D01*
X7400Y-2050D02*
X7450Y-2250D01*
X7400Y-2050D02*
X7600Y-2100D01*
X7150Y-2300D02*
X7350Y-2350D01*
X7150Y-2300D02*
X7200Y-2500D01*
X7550Y-2700D02*
X7150Y-2300D01*
X7250Y-2700D02*
X7250Y-3700D01*
X7750Y-3700D02*
X7750Y-2700D01*
X7250Y-3200D02*
X7750Y-3700D01*
X7250Y-3200D02*
X7750Y-2700D01*
X8000Y-3200D02*
X8000Y-4100D01*
X7000Y-3200D02*
X8000Y-3200D01*
X7000Y-4100D02*
X7000Y-3200D01*
G54D11*
X7204Y-1811D02*
X7204Y-1411D01*
X7300Y-1411D01*
X7357Y-1430D01*
X7395Y-1469D01*
X7414Y-1507D01*
X7433Y-1583D01*
X7433Y-1640D01*
X7414Y-1716D01*
X7395Y-1754D01*
X7357Y-1792D01*
X7300Y-1811D01*
X7204Y-1811D01*
X7566Y-1411D02*
X7814Y-1411D01*
X7680Y-1564D01*
X7738Y-1564D01*
X7776Y-1583D01*
X7795Y-1602D01*
X7814Y-1640D01*
X7814Y-1735D01*
X7795Y-1773D01*
X7776Y-1792D01*
X7738Y-1811D01*
X7623Y-1811D01*
X7585Y-1792D01*
X7566Y-1773D01*
G54D13*
X31000Y-12950D02*
X31000Y-15050D01*
X31400Y-14250D02*
X31000Y-13850D01*
X31000Y-13850D02*
X30600Y-14250D01*
X30600Y-14250D02*
X31400Y-14250D01*
X31400Y-13850D02*
X30600Y-13850D01*
G54D11*
X31204Y-13361D02*
X31204Y-12961D01*
X31300Y-12961D01*
X31357Y-12980D01*
X31395Y-13019D01*
X31414Y-13057D01*
X31433Y-13133D01*
X31433Y-13190D01*
X31414Y-13266D01*
X31395Y-13304D01*
X31357Y-13342D01*
X31300Y-13361D01*
X31204Y-13361D01*
X31814Y-13361D02*
X31585Y-13361D01*
X31700Y-13361D02*
X31700Y-12961D01*
X31661Y-13019D01*
X31623Y-13057D01*
X31585Y-13076D01*
X36404Y-7061D02*
X36404Y-6661D01*
X36500Y-6661D01*
X36557Y-6680D01*
X36595Y-6719D01*
X36614Y-6757D01*
X36633Y-6833D01*
X36633Y-6890D01*
X36614Y-6966D01*
X36595Y-7004D01*
X36557Y-7042D01*
X36500Y-7061D01*
X36404Y-7061D01*
X36785Y-6700D02*
X36804Y-6680D01*
X36842Y-6661D01*
X36938Y-6661D01*
X36976Y-6680D01*
X36995Y-6700D01*
X37014Y-6738D01*
X37014Y-6776D01*
X36995Y-6833D01*
X36766Y-7061D01*
X37014Y-7061D01*
G54D13*
X36200Y-6850D02*
X36200Y-7650D01*
X35800Y-7650D02*
X35800Y-6850D01*
X36200Y-7250D02*
X35800Y-7650D01*
X35800Y-6850D02*
X36200Y-7250D01*
X34500Y-7250D02*
X37500Y-7250D01*
X32386Y-18000D02*
G75*
G03X32386Y-18000I-886J0D01*
G74*
G01*
X31500Y-17150D02*
X31500Y-18850D01*
X31450Y-17150D02*
X31450Y-18850D01*
X31350Y-18000D02*
G75*
G03X31350Y-18000I-350J0D01*
G74*
G01*
X31400Y-18850D02*
X31400Y-17150D01*
X31350Y-17150D02*
X31350Y-17850D01*
X31300Y-17150D02*
X31300Y-17750D01*
X31250Y-17150D02*
X31250Y-17700D01*
X31200Y-17200D02*
X31200Y-17700D01*
X31150Y-17200D02*
X31150Y-17650D01*
X31100Y-17250D02*
X31100Y-17650D01*
X31050Y-17300D02*
X31050Y-17600D01*
X31000Y-17300D02*
X31000Y-17600D01*
X30950Y-17350D02*
X30950Y-17600D01*
X30900Y-17400D02*
X30900Y-17650D01*
X30850Y-17450D02*
X30850Y-17650D01*
X30800Y-17500D02*
X30800Y-17700D01*
X30750Y-17600D02*
X30750Y-17700D01*
X30750Y-17650D02*
X30700Y-17800D01*
X31350Y-18150D02*
X31350Y-18850D01*
X31300Y-18250D02*
X31300Y-18850D01*
X31250Y-18300D02*
X31250Y-18800D01*
X31200Y-18350D02*
X31200Y-18800D01*
X31150Y-18350D02*
X31150Y-18750D01*
X31100Y-18350D02*
X31100Y-18750D01*
X31050Y-18350D02*
X31050Y-18750D01*
X31000Y-18350D02*
X31000Y-18700D01*
X30950Y-18350D02*
X30950Y-18650D01*
X30900Y-18350D02*
X30900Y-18600D01*
X30850Y-18350D02*
X30850Y-18550D01*
X30800Y-18300D02*
X30800Y-18500D01*
X30750Y-18300D02*
X30750Y-18400D01*
X30650Y-18200D02*
X30750Y-18300D01*
G54D11*
X31647Y-17459D02*
X31952Y-17459D01*
X31800Y-17611D02*
X31800Y-17307D01*
X32483Y-18973D02*
X32464Y-18992D01*
X32407Y-19011D01*
X32369Y-19011D01*
X32311Y-18992D01*
X32273Y-18954D01*
X32254Y-18916D01*
X32235Y-18840D01*
X32235Y-18783D01*
X32254Y-18707D01*
X32273Y-18669D01*
X32311Y-18630D01*
X32369Y-18611D01*
X32407Y-18611D01*
X32464Y-18630D01*
X32483Y-18650D01*
X32864Y-19011D02*
X32635Y-19011D01*
X32750Y-19011D02*
X32750Y-18611D01*
X32711Y-18669D01*
X32673Y-18707D01*
X32635Y-18726D01*
X37933Y-10373D02*
X37914Y-10392D01*
X37857Y-10411D01*
X37819Y-10411D01*
X37761Y-10392D01*
X37723Y-10354D01*
X37704Y-10316D01*
X37685Y-10240D01*
X37685Y-10183D01*
X37704Y-10107D01*
X37723Y-10069D01*
X37761Y-10030D01*
X37819Y-10011D01*
X37857Y-10011D01*
X37914Y-10030D01*
X37933Y-10050D01*
X38066Y-10011D02*
X38333Y-10011D01*
X38161Y-10411D01*
X38147Y-8459D02*
X38452Y-8459D01*
X38300Y-8611D02*
X38300Y-8307D01*
G54D13*
X37150Y-9200D02*
X37250Y-9300D01*
X37250Y-9300D02*
X37250Y-9400D01*
X37300Y-9300D02*
X37300Y-9500D01*
X37350Y-9350D02*
X37350Y-9550D01*
X37400Y-9350D02*
X37400Y-9600D01*
X37450Y-9350D02*
X37450Y-9650D01*
X37500Y-9350D02*
X37500Y-9700D01*
X37550Y-9350D02*
X37550Y-9750D01*
X37600Y-9350D02*
X37600Y-9750D01*
X37650Y-9350D02*
X37650Y-9750D01*
X37700Y-9350D02*
X37700Y-9800D01*
X37750Y-9300D02*
X37750Y-9800D01*
X37800Y-9250D02*
X37800Y-9850D01*
X37850Y-9150D02*
X37850Y-9850D01*
X37250Y-8650D02*
X37200Y-8800D01*
X37250Y-8600D02*
X37250Y-8700D01*
X37300Y-8500D02*
X37300Y-8700D01*
X37350Y-8450D02*
X37350Y-8650D01*
X37400Y-8400D02*
X37400Y-8650D01*
X37450Y-8350D02*
X37450Y-8600D01*
X37500Y-8300D02*
X37500Y-8600D01*
X37550Y-8300D02*
X37550Y-8600D01*
X37600Y-8250D02*
X37600Y-8650D01*
X37650Y-8200D02*
X37650Y-8650D01*
X37700Y-8200D02*
X37700Y-8700D01*
X37750Y-8150D02*
X37750Y-8700D01*
X37800Y-8150D02*
X37800Y-8750D01*
X37850Y-8150D02*
X37850Y-8850D01*
X37900Y-9850D02*
X37900Y-8150D01*
X37850Y-9000D02*
G75*
G03X37850Y-9000I-350J0D01*
G74*
G01*
X37950Y-8150D02*
X37950Y-9850D01*
X38000Y-8150D02*
X38000Y-9850D01*
X38886Y-9000D02*
G75*
G03X38886Y-9000I-886J0D01*
G74*
G01*
X35750Y-2500D02*
X35750Y-2650D01*
X38750Y-5400D02*
X38550Y-5400D01*
X38750Y-5250D02*
X38750Y-5400D01*
X35700Y-5400D02*
X35700Y-5150D01*
G54D11*
X17211Y-7757D02*
X17021Y-7890D01*
X17211Y-7985D02*
X16811Y-7985D01*
X16811Y-7833D01*
X16830Y-7795D01*
X16850Y-7776D01*
X16888Y-7757D01*
X16945Y-7757D01*
X16983Y-7776D01*
X17002Y-7795D01*
X17021Y-7833D01*
X17021Y-7985D01*
X17211Y-7376D02*
X17211Y-7604D01*
X17211Y-7490D02*
X16811Y-7490D01*
X16869Y-7528D01*
X16907Y-7566D01*
X16926Y-7604D01*
X16811Y-7128D02*
X16811Y-7090D01*
X16830Y-7052D01*
X16850Y-7033D01*
X16888Y-7014D01*
X16964Y-6995D01*
X17059Y-6995D01*
X17135Y-7014D01*
X17173Y-7033D01*
X17192Y-7052D01*
X17211Y-7090D01*
X17211Y-7128D01*
X17192Y-7166D01*
X17173Y-7185D01*
X17135Y-7204D01*
X17059Y-7223D01*
X16964Y-7223D01*
X16888Y-7204D01*
X16850Y-7185D01*
X16830Y-7166D01*
X16811Y-7128D01*
G54D13*
X16650Y-6500D02*
X16650Y-8500D01*
X17350Y-6500D02*
X17350Y-8500D01*
X16650Y-6500D02*
X17350Y-6500D01*
X16650Y-8500D02*
X17350Y-8500D01*
X17000Y-8500D02*
X17000Y-9050D01*
X17000Y-6500D02*
X17000Y-5950D01*
X5000Y-10500D02*
X5000Y-9950D01*
X5000Y-12500D02*
X5000Y-13050D01*
X4650Y-12500D02*
X5350Y-12500D01*
X4650Y-10500D02*
X5350Y-10500D01*
X5350Y-10500D02*
X5350Y-12500D01*
X4650Y-10500D02*
X4650Y-12500D01*
G54D11*
X5161Y-11757D02*
X4971Y-11890D01*
X5161Y-11985D02*
X4761Y-11985D01*
X4761Y-11833D01*
X4780Y-11795D01*
X4800Y-11776D01*
X4838Y-11757D01*
X4895Y-11757D01*
X4933Y-11776D01*
X4952Y-11795D01*
X4971Y-11833D01*
X4971Y-11985D01*
X5161Y-11376D02*
X5161Y-11604D01*
X5161Y-11490D02*
X4761Y-11490D01*
X4819Y-11528D01*
X4857Y-11566D01*
X4876Y-11604D01*
X5161Y-10995D02*
X5161Y-11223D01*
X5161Y-11109D02*
X4761Y-11109D01*
X4819Y-11147D01*
X4857Y-11185D01*
X4876Y-11223D01*
X6161Y-11566D02*
X5971Y-11699D01*
X6161Y-11795D02*
X5761Y-11795D01*
X5761Y-11642D01*
X5780Y-11604D01*
X5800Y-11585D01*
X5838Y-11566D01*
X5895Y-11566D01*
X5933Y-11585D01*
X5952Y-11604D01*
X5971Y-11642D01*
X5971Y-11795D01*
X5895Y-11223D02*
X6161Y-11223D01*
X5742Y-11319D02*
X6028Y-11414D01*
X6028Y-11166D01*
G54D13*
X5650Y-10500D02*
X5650Y-12500D01*
X6350Y-10500D02*
X6350Y-12500D01*
X5650Y-10500D02*
X6350Y-10500D01*
X5650Y-12500D02*
X6350Y-12500D01*
X6000Y-12500D02*
X6000Y-13050D01*
X6000Y-10500D02*
X6000Y-9950D01*
X7000Y-10500D02*
X7000Y-9950D01*
X7000Y-12500D02*
X7000Y-13050D01*
X6650Y-12500D02*
X7350Y-12500D01*
X6650Y-10500D02*
X7350Y-10500D01*
X7350Y-10500D02*
X7350Y-12500D01*
X6650Y-10500D02*
X6650Y-12500D01*
G54D11*
X7161Y-11566D02*
X6971Y-11699D01*
X7161Y-11795D02*
X6761Y-11795D01*
X6761Y-11642D01*
X6780Y-11604D01*
X6800Y-11585D01*
X6838Y-11566D01*
X6895Y-11566D01*
X6933Y-11585D01*
X6952Y-11604D01*
X6971Y-11642D01*
X6971Y-11795D01*
X7161Y-11376D02*
X7161Y-11299D01*
X7142Y-11261D01*
X7123Y-11242D01*
X7066Y-11204D01*
X6990Y-11185D01*
X6838Y-11185D01*
X6800Y-11204D01*
X6780Y-11223D01*
X6761Y-11261D01*
X6761Y-11338D01*
X6780Y-11376D01*
X6800Y-11395D01*
X6838Y-11414D01*
X6933Y-11414D01*
X6971Y-11395D01*
X6990Y-11376D01*
X7009Y-11338D01*
X7009Y-11261D01*
X6990Y-11223D01*
X6971Y-11204D01*
X6933Y-11185D01*
X3161Y-13566D02*
X2971Y-13699D01*
X3161Y-13795D02*
X2761Y-13795D01*
X2761Y-13642D01*
X2780Y-13604D01*
X2800Y-13585D01*
X2838Y-13566D01*
X2895Y-13566D01*
X2933Y-13585D01*
X2952Y-13604D01*
X2971Y-13642D01*
X2971Y-13795D01*
X2761Y-13433D02*
X2761Y-13166D01*
X3161Y-13338D01*
G54D13*
X2650Y-12500D02*
X2650Y-14500D01*
X3350Y-12500D02*
X3350Y-14500D01*
X2650Y-12500D02*
X3350Y-12500D01*
X2650Y-14500D02*
X3350Y-14500D01*
X3000Y-14500D02*
X3000Y-15050D01*
X3000Y-12500D02*
X3000Y-11950D01*
X2000Y-12500D02*
X2000Y-11950D01*
X2000Y-14500D02*
X2000Y-15050D01*
X1650Y-14500D02*
X2350Y-14500D01*
X1650Y-12500D02*
X2350Y-12500D01*
X2350Y-12500D02*
X2350Y-14500D01*
X1650Y-12500D02*
X1650Y-14500D01*
G54D11*
X2161Y-13566D02*
X1971Y-13699D01*
X2161Y-13795D02*
X1761Y-13795D01*
X1761Y-13642D01*
X1780Y-13604D01*
X1800Y-13585D01*
X1838Y-13566D01*
X1895Y-13566D01*
X1933Y-13585D01*
X1952Y-13604D01*
X1971Y-13642D01*
X1971Y-13795D01*
X1761Y-13223D02*
X1761Y-13299D01*
X1780Y-13338D01*
X1800Y-13357D01*
X1857Y-13395D01*
X1933Y-13414D01*
X2085Y-13414D01*
X2123Y-13395D01*
X2142Y-13376D01*
X2161Y-13338D01*
X2161Y-13261D01*
X2142Y-13223D01*
X2123Y-13204D01*
X2085Y-13185D01*
X1990Y-13185D01*
X1952Y-13204D01*
X1933Y-13223D01*
X1914Y-13261D01*
X1914Y-13338D01*
X1933Y-13376D01*
X1952Y-13395D01*
X1990Y-13414D01*
X1161Y-13566D02*
X971Y-13699D01*
X1161Y-13795D02*
X761Y-13795D01*
X761Y-13642D01*
X780Y-13604D01*
X800Y-13585D01*
X838Y-13566D01*
X895Y-13566D01*
X933Y-13585D01*
X952Y-13604D01*
X971Y-13642D01*
X971Y-13795D01*
X761Y-13204D02*
X761Y-13395D01*
X952Y-13414D01*
X933Y-13395D01*
X914Y-13357D01*
X914Y-13261D01*
X933Y-13223D01*
X952Y-13204D01*
X990Y-13185D01*
X1085Y-13185D01*
X1123Y-13204D01*
X1142Y-13223D01*
X1161Y-13261D01*
X1161Y-13357D01*
X1142Y-13395D01*
X1123Y-13414D01*
G54D13*
X650Y-12500D02*
X650Y-14500D01*
X1350Y-12500D02*
X1350Y-14500D01*
X650Y-12500D02*
X1350Y-12500D01*
X650Y-14500D02*
X1350Y-14500D01*
X1000Y-14500D02*
X1000Y-15050D01*
X1000Y-12500D02*
X1000Y-11950D01*
G54D11*
X6161Y-2566D02*
X5971Y-2699D01*
X6161Y-2795D02*
X5761Y-2795D01*
X5761Y-2642D01*
X5780Y-2604D01*
X5800Y-2585D01*
X5838Y-2566D01*
X5895Y-2566D01*
X5933Y-2585D01*
X5952Y-2604D01*
X5971Y-2642D01*
X5971Y-2795D01*
X5800Y-2414D02*
X5780Y-2395D01*
X5761Y-2357D01*
X5761Y-2261D01*
X5780Y-2223D01*
X5800Y-2204D01*
X5838Y-2185D01*
X5876Y-2185D01*
X5933Y-2204D01*
X6161Y-2433D01*
X6161Y-2185D01*
G54D13*
X5650Y-1500D02*
X5650Y-3500D01*
X6350Y-1500D02*
X6350Y-3500D01*
X5650Y-1500D02*
X6350Y-1500D01*
X5650Y-3500D02*
X6350Y-3500D01*
X6000Y-3500D02*
X6000Y-4050D01*
X6000Y-1500D02*
X6000Y-950D01*
X32000Y-13500D02*
X32000Y-12950D01*
X32000Y-15500D02*
X32000Y-16050D01*
X31650Y-15500D02*
X32350Y-15500D01*
X31650Y-13500D02*
X32350Y-13500D01*
X32350Y-13500D02*
X32350Y-15500D01*
X31650Y-13500D02*
X31650Y-15500D01*
G54D11*
X32161Y-14566D02*
X31971Y-14699D01*
X32161Y-14795D02*
X31761Y-14795D01*
X31761Y-14642D01*
X31780Y-14604D01*
X31800Y-14585D01*
X31838Y-14566D01*
X31895Y-14566D01*
X31933Y-14585D01*
X31952Y-14604D01*
X31971Y-14642D01*
X31971Y-14795D01*
X32161Y-14185D02*
X32161Y-14414D01*
X32161Y-14299D02*
X31761Y-14299D01*
X31819Y-14338D01*
X31857Y-14376D01*
X31876Y-14414D01*
X18933Y-12661D02*
X18800Y-12471D01*
X18704Y-12661D02*
X18704Y-12261D01*
X18857Y-12261D01*
X18895Y-12280D01*
X18914Y-12300D01*
X18933Y-12338D01*
X18933Y-12395D01*
X18914Y-12433D01*
X18895Y-12452D01*
X18857Y-12471D01*
X18704Y-12471D01*
X19161Y-12433D02*
X19123Y-12414D01*
X19104Y-12395D01*
X19085Y-12357D01*
X19085Y-12338D01*
X19104Y-12300D01*
X19123Y-12280D01*
X19161Y-12261D01*
X19238Y-12261D01*
X19276Y-12280D01*
X19295Y-12300D01*
X19314Y-12338D01*
X19314Y-12357D01*
X19295Y-12395D01*
X19276Y-12414D01*
X19238Y-12433D01*
X19161Y-12433D01*
X19123Y-12452D01*
X19104Y-12471D01*
X19085Y-12509D01*
X19085Y-12585D01*
X19104Y-12623D01*
X19123Y-12642D01*
X19161Y-12661D01*
X19238Y-12661D01*
X19276Y-12642D01*
X19295Y-12623D01*
X19314Y-12585D01*
X19314Y-12509D01*
X19295Y-12471D01*
X19276Y-12452D01*
X19238Y-12433D01*
G54D13*
X20000Y-12150D02*
X18000Y-12150D01*
X20000Y-12850D02*
X18000Y-12850D01*
X20000Y-12150D02*
X20000Y-12850D01*
X18000Y-12150D02*
X18000Y-12850D01*
X18000Y-12500D02*
X17450Y-12500D01*
X20000Y-12500D02*
X20550Y-12500D01*
X25000Y-12500D02*
X25550Y-12500D01*
X23000Y-12500D02*
X22450Y-12500D01*
X23000Y-12150D02*
X23000Y-12850D01*
X25000Y-12150D02*
X25000Y-12850D01*
X25000Y-12850D02*
X23000Y-12850D01*
X25000Y-12150D02*
X23000Y-12150D01*
G54D11*
X23933Y-12661D02*
X23800Y-12471D01*
X23704Y-12661D02*
X23704Y-12261D01*
X23857Y-12261D01*
X23895Y-12280D01*
X23914Y-12300D01*
X23933Y-12338D01*
X23933Y-12395D01*
X23914Y-12433D01*
X23895Y-12452D01*
X23857Y-12471D01*
X23704Y-12471D01*
X24066Y-12261D02*
X24314Y-12261D01*
X24180Y-12414D01*
X24238Y-12414D01*
X24276Y-12433D01*
X24295Y-12452D01*
X24314Y-12490D01*
X24314Y-12585D01*
X24295Y-12623D01*
X24276Y-12642D01*
X24238Y-12661D01*
X24123Y-12661D01*
X24085Y-12642D01*
X24066Y-12623D01*
X2761Y-19033D02*
X3047Y-19033D01*
X3104Y-19052D01*
X3142Y-19090D01*
X3161Y-19147D01*
X3161Y-19185D01*
X3161Y-18842D02*
X2761Y-18842D01*
X2761Y-18690D01*
X2780Y-18652D01*
X2800Y-18633D01*
X2838Y-18614D01*
X2895Y-18614D01*
X2933Y-18633D01*
X2952Y-18652D01*
X2971Y-18690D01*
X2971Y-18842D01*
X2895Y-18271D02*
X3161Y-18271D01*
X2742Y-18366D02*
X3028Y-18461D01*
X3028Y-18214D01*
X1761Y-19033D02*
X2047Y-19033D01*
X2104Y-19052D01*
X2142Y-19090D01*
X2161Y-19147D01*
X2161Y-19185D01*
X2161Y-18842D02*
X1761Y-18842D01*
X1761Y-18690D01*
X1780Y-18652D01*
X1800Y-18633D01*
X1838Y-18614D01*
X1895Y-18614D01*
X1933Y-18633D01*
X1952Y-18652D01*
X1971Y-18690D01*
X1971Y-18842D01*
X1761Y-18480D02*
X1761Y-18233D01*
X1914Y-18366D01*
X1914Y-18309D01*
X1933Y-18271D01*
X1952Y-18252D01*
X1990Y-18233D01*
X2085Y-18233D01*
X2123Y-18252D01*
X2142Y-18271D01*
X2161Y-18309D01*
X2161Y-18423D01*
X2142Y-18461D01*
X2123Y-18480D01*
X811Y-19033D02*
X1097Y-19033D01*
X1154Y-19052D01*
X1192Y-19090D01*
X1211Y-19147D01*
X1211Y-19185D01*
X1211Y-18842D02*
X811Y-18842D01*
X811Y-18690D01*
X830Y-18652D01*
X850Y-18633D01*
X888Y-18614D01*
X945Y-18614D01*
X983Y-18633D01*
X1002Y-18652D01*
X1021Y-18690D01*
X1021Y-18842D01*
X850Y-18461D02*
X830Y-18442D01*
X811Y-18404D01*
X811Y-18309D01*
X830Y-18271D01*
X850Y-18252D01*
X888Y-18233D01*
X926Y-18233D01*
X983Y-18252D01*
X1211Y-18480D01*
X1211Y-18233D01*
G54D13*
X35650Y-9850D02*
X35650Y-9650D01*
X35650Y-9850D02*
X35650Y-10050D01*
X35450Y-10050D02*
X35450Y-9650D01*
X35450Y-9850D02*
X35000Y-9850D01*
X35650Y-9850D02*
X36100Y-9850D01*
G54D11*
X35483Y-9473D02*
X35464Y-9492D01*
X35407Y-9511D01*
X35369Y-9511D01*
X35311Y-9492D01*
X35273Y-9454D01*
X35254Y-9416D01*
X35235Y-9340D01*
X35235Y-9283D01*
X35254Y-9207D01*
X35273Y-9169D01*
X35311Y-9130D01*
X35369Y-9111D01*
X35407Y-9111D01*
X35464Y-9130D01*
X35483Y-9150D01*
X35673Y-9511D02*
X35750Y-9511D01*
X35788Y-9492D01*
X35807Y-9473D01*
X35845Y-9416D01*
X35864Y-9340D01*
X35864Y-9188D01*
X35845Y-9150D01*
X35826Y-9130D01*
X35788Y-9111D01*
X35711Y-9111D01*
X35673Y-9130D01*
X35654Y-9150D01*
X35635Y-9188D01*
X35635Y-9283D01*
X35654Y-9321D01*
X35673Y-9340D01*
X35711Y-9359D01*
X35788Y-9359D01*
X35826Y-9340D01*
X35845Y-9321D01*
X35864Y-9283D01*
X34023Y-10616D02*
X34042Y-10635D01*
X34061Y-10692D01*
X34061Y-10730D01*
X34042Y-10788D01*
X34004Y-10826D01*
X33966Y-10845D01*
X33890Y-10864D01*
X33833Y-10864D01*
X33757Y-10845D01*
X33719Y-10826D01*
X33680Y-10788D01*
X33661Y-10730D01*
X33661Y-10692D01*
X33680Y-10635D01*
X33700Y-10616D01*
X33661Y-10273D02*
X33661Y-10349D01*
X33680Y-10388D01*
X33700Y-10407D01*
X33757Y-10445D01*
X33833Y-10464D01*
X33985Y-10464D01*
X34023Y-10445D01*
X34042Y-10426D01*
X34061Y-10388D01*
X34061Y-10311D01*
X34042Y-10273D01*
X34023Y-10254D01*
X33985Y-10235D01*
X33890Y-10235D01*
X33852Y-10254D01*
X33833Y-10273D01*
X33814Y-10311D01*
X33814Y-10388D01*
X33833Y-10426D01*
X33852Y-10445D01*
X33890Y-10464D01*
G54D13*
X33325Y-10425D02*
X33325Y-9975D01*
X33325Y-10625D02*
X33325Y-11075D01*
X33525Y-10625D02*
X33125Y-10625D01*
X33325Y-10425D02*
X33525Y-10425D01*
X33325Y-10425D02*
X33125Y-10425D01*
G54D11*
X16523Y-7516D02*
X16542Y-7535D01*
X16561Y-7592D01*
X16561Y-7630D01*
X16542Y-7688D01*
X16504Y-7726D01*
X16466Y-7745D01*
X16390Y-7764D01*
X16333Y-7764D01*
X16257Y-7745D01*
X16219Y-7726D01*
X16180Y-7688D01*
X16161Y-7630D01*
X16161Y-7592D01*
X16180Y-7535D01*
X16200Y-7516D01*
X16295Y-7173D02*
X16561Y-7173D01*
X16142Y-7269D02*
X16428Y-7364D01*
X16428Y-7116D01*
G54D13*
X15825Y-7325D02*
X15825Y-6875D01*
X15825Y-7525D02*
X15825Y-7975D01*
X16025Y-7525D02*
X15625Y-7525D01*
X15825Y-7325D02*
X16025Y-7325D01*
X15825Y-7325D02*
X15625Y-7325D01*
G54D11*
X16523Y-11566D02*
X16542Y-11585D01*
X16561Y-11642D01*
X16561Y-11680D01*
X16542Y-11738D01*
X16504Y-11776D01*
X16466Y-11795D01*
X16390Y-11814D01*
X16333Y-11814D01*
X16257Y-11795D01*
X16219Y-11776D01*
X16180Y-11738D01*
X16161Y-11680D01*
X16161Y-11642D01*
X16180Y-11585D01*
X16200Y-11566D01*
X16161Y-11204D02*
X16161Y-11395D01*
X16352Y-11414D01*
X16333Y-11395D01*
X16314Y-11357D01*
X16314Y-11261D01*
X16333Y-11223D01*
X16352Y-11204D01*
X16390Y-11185D01*
X16485Y-11185D01*
X16523Y-11204D01*
X16542Y-11223D01*
X16561Y-11261D01*
X16561Y-11357D01*
X16542Y-11395D01*
X16523Y-11414D01*
G54D13*
X15825Y-11375D02*
X15825Y-10925D01*
X15825Y-11575D02*
X15825Y-12025D01*
X16025Y-11575D02*
X15625Y-11575D01*
X15825Y-11375D02*
X16025Y-11375D01*
X15825Y-11375D02*
X15625Y-11375D01*
G54D11*
X5423Y-4566D02*
X5442Y-4585D01*
X5461Y-4642D01*
X5461Y-4680D01*
X5442Y-4738D01*
X5404Y-4776D01*
X5366Y-4795D01*
X5290Y-4814D01*
X5233Y-4814D01*
X5157Y-4795D01*
X5119Y-4776D01*
X5080Y-4738D01*
X5061Y-4680D01*
X5061Y-4642D01*
X5080Y-4585D01*
X5100Y-4566D01*
X5100Y-4414D02*
X5080Y-4395D01*
X5061Y-4357D01*
X5061Y-4261D01*
X5080Y-4223D01*
X5100Y-4204D01*
X5138Y-4185D01*
X5176Y-4185D01*
X5233Y-4204D01*
X5461Y-4433D01*
X5461Y-4185D01*
G54D13*
X4725Y-4425D02*
X4725Y-3975D01*
X4725Y-4625D02*
X4725Y-5075D01*
X4925Y-4625D02*
X4525Y-4625D01*
X4725Y-4425D02*
X4925Y-4425D01*
X4725Y-4425D02*
X4525Y-4425D01*
G54D11*
X35483Y-8423D02*
X35464Y-8442D01*
X35407Y-8461D01*
X35369Y-8461D01*
X35311Y-8442D01*
X35273Y-8404D01*
X35254Y-8366D01*
X35235Y-8290D01*
X35235Y-8233D01*
X35254Y-8157D01*
X35273Y-8119D01*
X35311Y-8080D01*
X35369Y-8061D01*
X35407Y-8061D01*
X35464Y-8080D01*
X35483Y-8100D01*
X35711Y-8233D02*
X35673Y-8214D01*
X35654Y-8195D01*
X35635Y-8157D01*
X35635Y-8138D01*
X35654Y-8100D01*
X35673Y-8080D01*
X35711Y-8061D01*
X35788Y-8061D01*
X35826Y-8080D01*
X35845Y-8100D01*
X35864Y-8138D01*
X35864Y-8157D01*
X35845Y-8195D01*
X35826Y-8214D01*
X35788Y-8233D01*
X35711Y-8233D01*
X35673Y-8252D01*
X35654Y-8271D01*
X35635Y-8309D01*
X35635Y-8385D01*
X35654Y-8423D01*
X35673Y-8442D01*
X35711Y-8461D01*
X35788Y-8461D01*
X35826Y-8442D01*
X35845Y-8423D01*
X35864Y-8385D01*
X35864Y-8309D01*
X35845Y-8271D01*
X35826Y-8252D01*
X35788Y-8233D01*
G54D13*
X35650Y-8800D02*
X36100Y-8800D01*
X35450Y-8800D02*
X35000Y-8800D01*
X35450Y-9000D02*
X35450Y-8600D01*
X35650Y-8800D02*
X35650Y-9000D01*
X35650Y-8800D02*
X35650Y-8600D01*
G54D11*
X2933Y-3373D02*
X2914Y-3392D01*
X2857Y-3411D01*
X2819Y-3411D01*
X2761Y-3392D01*
X2723Y-3354D01*
X2704Y-3316D01*
X2685Y-3240D01*
X2685Y-3183D01*
X2704Y-3107D01*
X2723Y-3069D01*
X2761Y-3030D01*
X2819Y-3011D01*
X2857Y-3011D01*
X2914Y-3030D01*
X2933Y-3050D01*
X3066Y-3011D02*
X3314Y-3011D01*
X3180Y-3164D01*
X3238Y-3164D01*
X3276Y-3183D01*
X3295Y-3202D01*
X3314Y-3240D01*
X3314Y-3335D01*
X3295Y-3373D01*
X3276Y-3392D01*
X3238Y-3411D01*
X3123Y-3411D01*
X3085Y-3392D01*
X3066Y-3373D01*
G54D13*
X3100Y-3750D02*
X3550Y-3750D01*
X2900Y-3750D02*
X2450Y-3750D01*
X2900Y-3950D02*
X2900Y-3550D01*
X3100Y-3750D02*
X3100Y-3950D01*
X3100Y-3750D02*
X3100Y-3550D01*
X35750Y-2500D02*
X35750Y-500D01*
X36450Y-5400D02*
X35700Y-5400D01*
X38750Y-500D02*
X38750Y-5250D01*
X35750Y-500D02*
X38750Y-500D01*
X31500Y-4500D02*
X31500Y-3500D01*
X33500Y-4500D02*
X31500Y-4500D01*
X33500Y-3500D02*
X33500Y-4500D01*
X31500Y-3500D02*
X33500Y-3500D01*
G54D11*
X32166Y-2761D02*
X32166Y-3047D01*
X32147Y-3104D01*
X32109Y-3142D01*
X32052Y-3161D01*
X32014Y-3161D01*
X32357Y-3161D02*
X32357Y-2761D01*
X32509Y-2761D01*
X32547Y-2780D01*
X32566Y-2800D01*
X32585Y-2838D01*
X32585Y-2895D01*
X32566Y-2933D01*
X32547Y-2952D01*
X32509Y-2971D01*
X32357Y-2971D01*
X32966Y-3161D02*
X32738Y-3161D01*
X32852Y-3161D02*
X32852Y-2761D01*
X32814Y-2819D01*
X32776Y-2857D01*
X32738Y-2876D01*
G54D13*
X2500Y-16000D02*
X2500Y-18000D01*
X1500Y-16000D02*
X1500Y-18000D01*
X500Y-18000D02*
X500Y-16000D01*
X3500Y-18000D02*
X500Y-18000D01*
X3500Y-16000D02*
X3500Y-18000D01*
X500Y-16000D02*
X3500Y-16000D01*
X30250Y-5000D02*
X8750Y-5000D01*
X30250Y-5000D02*
X30250Y-4750D01*
X30250Y-4750D02*
X30250Y-500D01*
X8750Y-500D02*
X8750Y-5000D01*
X30250Y-500D02*
X8750Y-500D01*
X30500Y-19000D02*
X8500Y-19000D01*
X30500Y-13250D02*
X30500Y-19000D01*
X8500Y-13250D02*
X30500Y-13250D01*
X8500Y-19000D02*
X8500Y-13250D01*
X4000Y-19000D02*
X4000Y-14000D01*
X8000Y-19000D02*
X4000Y-19000D01*
X8000Y-14000D02*
X8000Y-19000D01*
X4000Y-14000D02*
X8000Y-14000D01*
G54D12*
X35550Y-12898D02*
X35550Y-13376D01*
X35578Y-13432D01*
X35606Y-13460D01*
X35662Y-13489D01*
X35775Y-13489D01*
X35831Y-13460D01*
X35859Y-13432D01*
X35887Y-13376D01*
X35887Y-12898D01*
X36449Y-12898D02*
X36168Y-12898D01*
X36140Y-13179D01*
X36168Y-13151D01*
X36224Y-13123D01*
X36365Y-13123D01*
X36421Y-13151D01*
X36449Y-13179D01*
X36478Y-13235D01*
X36478Y-13376D01*
X36449Y-13432D01*
X36421Y-13460D01*
X36365Y-13489D01*
X36224Y-13489D01*
X36168Y-13460D01*
X36140Y-13432D01*
X34959Y-13843D02*
X35353Y-13843D01*
X35100Y-14433D01*
X35662Y-14096D02*
X35606Y-14068D01*
X35578Y-14040D01*
X35550Y-13983D01*
X35550Y-13955D01*
X35578Y-13899D01*
X35606Y-13871D01*
X35662Y-13843D01*
X35775Y-13843D01*
X35831Y-13871D01*
X35859Y-13899D01*
X35887Y-13955D01*
X35887Y-13983D01*
X35859Y-14040D01*
X35831Y-14068D01*
X35775Y-14096D01*
X35662Y-14096D01*
X35606Y-14124D01*
X35578Y-14152D01*
X35550Y-14208D01*
X35550Y-14321D01*
X35578Y-14377D01*
X35606Y-14405D01*
X35662Y-14433D01*
X35775Y-14433D01*
X35831Y-14405D01*
X35859Y-14377D01*
X35887Y-14321D01*
X35887Y-14208D01*
X35859Y-14152D01*
X35831Y-14124D01*
X35775Y-14096D01*
X36253Y-13843D02*
X36309Y-13843D01*
X36365Y-13871D01*
X36393Y-13899D01*
X36421Y-13955D01*
X36449Y-14068D01*
X36449Y-14208D01*
X36421Y-14321D01*
X36393Y-14377D01*
X36365Y-14405D01*
X36309Y-14433D01*
X36253Y-14433D01*
X36196Y-14405D01*
X36168Y-14377D01*
X36140Y-14321D01*
X36112Y-14208D01*
X36112Y-14068D01*
X36140Y-13955D01*
X36168Y-13899D01*
X36196Y-13871D01*
X36253Y-13843D01*
X36984Y-13843D02*
X36703Y-13843D01*
X36674Y-14124D01*
X36703Y-14096D01*
X36759Y-14068D01*
X36899Y-14068D01*
X36956Y-14096D01*
X36984Y-14124D01*
X37012Y-14180D01*
X37012Y-14321D01*
X36984Y-14377D01*
X36956Y-14405D01*
X36899Y-14433D01*
X36759Y-14433D01*
X36703Y-14405D01*
X36674Y-14377D01*
G54D13*
X37000Y-11000D02*
X37000Y-12500D01*
X36000Y-11000D02*
X36000Y-12500D01*
X35000Y-11000D02*
X35000Y-12500D01*
X38000Y-15000D02*
X34000Y-15000D01*
X34000Y-19000D02*
X34000Y-12500D01*
X38000Y-19000D02*
X34000Y-19000D01*
X38000Y-12500D02*
X38000Y-19000D01*
X34000Y-12500D02*
X38000Y-12500D01*
G54D12*
X2148Y-10269D02*
X2626Y-10269D01*
X2682Y-10241D01*
X2710Y-10213D01*
X2739Y-10157D01*
X2739Y-10044D01*
X2710Y-9988D01*
X2682Y-9960D01*
X2626Y-9932D01*
X2148Y-9932D01*
X2739Y-9341D02*
X2739Y-9679D01*
X2739Y-9510D02*
X2148Y-9510D01*
X2232Y-9566D01*
X2289Y-9623D01*
X2317Y-9679D01*
X2148Y-7795D02*
X2148Y-7401D01*
X2739Y-7654D01*
X2345Y-6923D02*
X2739Y-6923D01*
X2120Y-7064D02*
X2542Y-7204D01*
X2542Y-6839D01*
X2739Y-6332D02*
X2739Y-6614D01*
X2148Y-6614D01*
X2710Y-6164D02*
X2739Y-6079D01*
X2739Y-5939D01*
X2710Y-5883D01*
X2682Y-5854D01*
X2626Y-5826D01*
X2570Y-5826D01*
X2514Y-5854D01*
X2485Y-5883D01*
X2457Y-5939D01*
X2429Y-6051D01*
X2401Y-6107D01*
X2373Y-6136D01*
X2317Y-6164D01*
X2260Y-6164D01*
X2204Y-6136D01*
X2176Y-6107D01*
X2148Y-6051D01*
X2148Y-5911D01*
X2176Y-5826D01*
X2739Y-5264D02*
X2739Y-5601D01*
X2739Y-5433D02*
X2148Y-5433D01*
X2232Y-5489D01*
X2289Y-5545D01*
X2317Y-5601D01*
X2739Y-4701D02*
X2739Y-5039D01*
X2739Y-4870D02*
X2148Y-4870D01*
X2232Y-4926D01*
X2289Y-4983D01*
X2317Y-5039D01*
G54D13*
X1500Y-11000D02*
X2250Y-11000D01*
X1500Y-4000D02*
X1500Y-11000D01*
X3500Y-4000D02*
X1500Y-4000D01*
X3500Y-11000D02*
X3500Y-4000D01*
X2750Y-11000D02*
X3500Y-11000D01*
X2750Y-11000D02*
G75*
G03X2500Y-10750I-250J0D01*
G74*
G01*
X2500Y-10750D02*
G75*
G03X2250Y-11000I0J-250D01*
G74*
G01*
G54D12*
X8980Y-10648D02*
X8980Y-11126D01*
X9008Y-11182D01*
X9036Y-11210D01*
X9092Y-11239D01*
X9205Y-11239D01*
X9261Y-11210D01*
X9289Y-11182D01*
X9317Y-11126D01*
X9317Y-10648D01*
X9542Y-10648D02*
X9908Y-10648D01*
X9711Y-10873D01*
X9795Y-10873D01*
X9851Y-10901D01*
X9879Y-10929D01*
X9908Y-10985D01*
X9908Y-11126D01*
X9879Y-11182D01*
X9851Y-11210D01*
X9795Y-11239D01*
X9626Y-11239D01*
X9570Y-11210D01*
X9542Y-11182D01*
X11454Y-10648D02*
X11848Y-10648D01*
X11595Y-11239D01*
X12326Y-10845D02*
X12326Y-11239D01*
X12185Y-10620D02*
X12045Y-11042D01*
X12410Y-11042D01*
X12917Y-11239D02*
X12635Y-11239D01*
X12635Y-10648D01*
X13085Y-11210D02*
X13170Y-11239D01*
X13310Y-11239D01*
X13366Y-11210D01*
X13395Y-11182D01*
X13423Y-11126D01*
X13423Y-11070D01*
X13395Y-11014D01*
X13366Y-10985D01*
X13310Y-10957D01*
X13198Y-10929D01*
X13142Y-10901D01*
X13113Y-10873D01*
X13085Y-10817D01*
X13085Y-10760D01*
X13113Y-10704D01*
X13142Y-10676D01*
X13198Y-10648D01*
X13338Y-10648D01*
X13423Y-10676D01*
X13788Y-10648D02*
X13845Y-10648D01*
X13901Y-10676D01*
X13929Y-10704D01*
X13957Y-10760D01*
X13985Y-10873D01*
X13985Y-11014D01*
X13957Y-11126D01*
X13929Y-11182D01*
X13901Y-11210D01*
X13845Y-11239D01*
X13788Y-11239D01*
X13732Y-11210D01*
X13704Y-11182D01*
X13676Y-11126D01*
X13648Y-11014D01*
X13648Y-10873D01*
X13676Y-10760D01*
X13704Y-10704D01*
X13732Y-10676D01*
X13788Y-10648D01*
X14491Y-10648D02*
X14379Y-10648D01*
X14323Y-10676D01*
X14294Y-10704D01*
X14238Y-10789D01*
X14210Y-10901D01*
X14210Y-11126D01*
X14238Y-11182D01*
X14266Y-11210D01*
X14323Y-11239D01*
X14435Y-11239D01*
X14491Y-11210D01*
X14519Y-11182D01*
X14548Y-11126D01*
X14548Y-10985D01*
X14519Y-10929D01*
X14491Y-10901D01*
X14435Y-10873D01*
X14323Y-10873D01*
X14266Y-10901D01*
X14238Y-10929D01*
X14210Y-10985D01*
G54D13*
X15500Y-12000D02*
X15500Y-11250D01*
X8500Y-12000D02*
X15500Y-12000D01*
X8500Y-10000D02*
X8500Y-12000D01*
X15500Y-10000D02*
X8500Y-10000D01*
X15500Y-10750D02*
X15500Y-10000D01*
X15250Y-11000D02*
G75*
G03X15500Y-11250I250J0D01*
G74*
G01*
X15500Y-10750D02*
G75*
G03X15250Y-11000I0J-250D01*
G74*
G01*
G54D12*
X7198Y-6648D02*
X7198Y-7126D01*
X7226Y-7182D01*
X7255Y-7210D01*
X7311Y-7239D01*
X7423Y-7239D01*
X7480Y-7210D01*
X7508Y-7182D01*
X7536Y-7126D01*
X7536Y-6648D01*
X8070Y-6845D02*
X8070Y-7239D01*
X7929Y-6620D02*
X7789Y-7042D01*
X8154Y-7042D01*
X9673Y-6648D02*
X10067Y-6648D01*
X9814Y-7239D01*
X10545Y-6845D02*
X10545Y-7239D01*
X10404Y-6620D02*
X10264Y-7042D01*
X10629Y-7042D01*
X11135Y-7239D02*
X10854Y-7239D01*
X10854Y-6648D01*
X11304Y-7210D02*
X11388Y-7239D01*
X11529Y-7239D01*
X11585Y-7210D01*
X11613Y-7182D01*
X11642Y-7126D01*
X11642Y-7070D01*
X11613Y-7014D01*
X11585Y-6985D01*
X11529Y-6957D01*
X11417Y-6929D01*
X11360Y-6901D01*
X11332Y-6873D01*
X11304Y-6817D01*
X11304Y-6760D01*
X11332Y-6704D01*
X11360Y-6676D01*
X11417Y-6648D01*
X11557Y-6648D01*
X11642Y-6676D01*
X11866Y-6704D02*
X11895Y-6676D01*
X11951Y-6648D01*
X12091Y-6648D01*
X12148Y-6676D01*
X12176Y-6704D01*
X12204Y-6760D01*
X12204Y-6817D01*
X12176Y-6901D01*
X11838Y-7239D01*
X12204Y-7239D01*
X12401Y-6648D02*
X12794Y-6648D01*
X12541Y-7239D01*
X12963Y-6648D02*
X13329Y-6648D01*
X13132Y-6873D01*
X13216Y-6873D01*
X13273Y-6901D01*
X13301Y-6929D01*
X13329Y-6985D01*
X13329Y-7126D01*
X13301Y-7182D01*
X13273Y-7210D01*
X13216Y-7239D01*
X13048Y-7239D01*
X12991Y-7210D01*
X12963Y-7182D01*
G54D13*
X15500Y-8000D02*
X15500Y-7250D01*
X5500Y-8000D02*
X15500Y-8000D01*
X5500Y-6000D02*
X5500Y-8000D01*
X15500Y-6000D02*
X5500Y-6000D01*
X15500Y-6750D02*
X15500Y-6000D01*
X15250Y-7000D02*
G75*
G03X15500Y-7250I250J0D01*
G74*
G01*
X15500Y-6750D02*
G75*
G03X15250Y-7000I0J-250D01*
G74*
G01*
G54D12*
X19128Y-8148D02*
X19128Y-8626D01*
X19156Y-8682D01*
X19184Y-8710D01*
X19241Y-8739D01*
X19353Y-8739D01*
X19409Y-8710D01*
X19438Y-8682D01*
X19466Y-8626D01*
X19466Y-8148D01*
X19719Y-8204D02*
X19747Y-8176D01*
X19803Y-8148D01*
X19944Y-8148D01*
X20000Y-8176D01*
X20028Y-8204D01*
X20056Y-8260D01*
X20056Y-8317D01*
X20028Y-8401D01*
X19691Y-8739D01*
X20056Y-8739D01*
X21631Y-8204D02*
X21659Y-8176D01*
X21715Y-8148D01*
X21856Y-8148D01*
X21912Y-8176D01*
X21940Y-8204D01*
X21968Y-8260D01*
X21968Y-8317D01*
X21940Y-8401D01*
X21603Y-8739D01*
X21968Y-8739D01*
X22165Y-8148D02*
X22559Y-8148D01*
X22306Y-8739D01*
X22728Y-8148D02*
X23093Y-8148D01*
X22896Y-8373D01*
X22981Y-8373D01*
X23037Y-8401D01*
X23065Y-8429D01*
X23093Y-8485D01*
X23093Y-8626D01*
X23065Y-8682D01*
X23037Y-8710D01*
X22981Y-8739D01*
X22812Y-8739D01*
X22756Y-8710D01*
X22728Y-8682D01*
X23318Y-8204D02*
X23346Y-8176D01*
X23403Y-8148D01*
X23543Y-8148D01*
X23600Y-8176D01*
X23628Y-8204D01*
X23656Y-8260D01*
X23656Y-8317D01*
X23628Y-8401D01*
X23290Y-8739D01*
X23656Y-8739D01*
X24359Y-8514D02*
X24809Y-8514D01*
X25512Y-8204D02*
X25540Y-8176D01*
X25596Y-8148D01*
X25737Y-8148D01*
X25793Y-8176D01*
X25821Y-8204D01*
X25849Y-8260D01*
X25849Y-8317D01*
X25821Y-8401D01*
X25484Y-8739D01*
X25849Y-8739D01*
X26046Y-8148D02*
X26440Y-8148D01*
X26187Y-8739D01*
X26946Y-8148D02*
X26665Y-8148D01*
X26637Y-8429D01*
X26665Y-8401D01*
X26721Y-8373D01*
X26862Y-8373D01*
X26918Y-8401D01*
X26946Y-8429D01*
X26974Y-8485D01*
X26974Y-8626D01*
X26946Y-8682D01*
X26918Y-8710D01*
X26862Y-8739D01*
X26721Y-8739D01*
X26665Y-8710D01*
X26637Y-8682D01*
X27537Y-8739D02*
X27199Y-8739D01*
X27368Y-8739D02*
X27368Y-8148D01*
X27312Y-8232D01*
X27255Y-8289D01*
X27199Y-8317D01*
X27761Y-8204D02*
X27790Y-8176D01*
X27846Y-8148D01*
X27986Y-8148D01*
X28043Y-8176D01*
X28071Y-8204D01*
X28099Y-8260D01*
X28099Y-8317D01*
X28071Y-8401D01*
X27733Y-8739D01*
X28099Y-8739D01*
G54D13*
X33000Y-9900D02*
X33000Y-10000D01*
X33000Y-9000D02*
X33000Y-9100D01*
X33000Y-10000D02*
X33000Y-11000D01*
X31000Y-9000D02*
X31000Y-11000D01*
X31000Y-8000D02*
X31000Y-6000D01*
X18000Y-11000D02*
X33000Y-11000D01*
X18000Y-6000D02*
X18000Y-11000D01*
X33000Y-6000D02*
X18000Y-6000D01*
X33000Y-6000D02*
X19000Y-6000D01*
X33000Y-8000D02*
X33000Y-6000D01*
X30500Y-8500D02*
G75*
G03X31000Y-9000I500J0D01*
G74*
G01*
X31000Y-8000D02*
G75*
G03X30500Y-8500I0J-500D01*
G74*
G01*
X32500Y-8500D02*
G75*
G03X33000Y-9000I500J0D01*
G74*
G01*
X33000Y-8000D02*
G75*
G03X32500Y-8500I0J-500D01*
G74*
G01*
M02*
